<svg width="9475" height="2000" viewBox="0 0 9475 2000" fill="none" xmlns="http://www.w3.org/2000/svg">
<path d="M2576.86 100L2584.05 1899.99" stroke="white" stroke-width="40"/>
<path d="M3331.49 822.5V1196C3331.49 1199.5 3333.49 1201.75 3337.49 1202.75C3353.49 1205.25 3368.49 1206.5 3382.49 1206.5C3440.99 1206.5 3483.99 1190.75 3511.49 1159.25C3538.99 1127.25 3552.74 1074.75 3552.74 1001.75C3552.74 936.25 3538.74 888.25 3510.74 857.75C3482.74 827.25 3439.99 812 3382.49 812C3368.49 812 3353.49 813.25 3337.49 815.75C3333.49 816.75 3331.49 819 3331.49 822.5ZM3269.99 1285.25C3257.49 1283.75 3247.24 1278.5 3239.24 1269.5C3231.24 1260 3227.24 1249 3227.24 1236.5V782C3227.24 769.5 3231.24 758.75 3239.24 749.75C3247.24 740.25 3257.49 734.75 3269.99 733.25C3301.99 729.75 3337.74 728 3377.24 728C3466.24 728 3534.24 751.25 3581.24 797.75C3628.74 844.25 3652.49 912.25 3652.49 1001.75C3652.49 1097.75 3628.74 1170 3581.24 1218.5C3534.24 1266.5 3466.24 1290.5 3377.24 1290.5C3337.74 1290.5 3301.99 1288.75 3269.99 1285.25ZM3772.25 1283C3760.75 1283 3750.75 1278.75 3742.25 1270.25C3733.75 1261.75 3729.5 1251.75 3729.5 1240.25V935.75C3729.5 924.25 3733.75 914.25 3742.25 905.75C3750.75 897.25 3760.75 893 3772.25 893H3787.25C3798.75 893 3808.75 897.25 3817.25 905.75C3825.75 914.25 3830 924.25 3830 935.75V967.25C3830 967.75 3830.25 968 3830.75 968C3831.75 968 3832.25 967.75 3832.25 967.25C3846.75 947.25 3865.75 931 3889.25 918.5C3912.75 905.5 3938.5 897.5 3966.5 894.5C3977 893.5 3986 897 3993.5 905C4001 912.5 4004.75 921.5 4004.75 932C4004.75 942.5 4001 951.5 3993.5 959C3986 966.5 3977 970.75 3966.5 971.75C3878 978.75 3833.75 1023.75 3833.75 1106.75V1240.25C3833.75 1251.75 3829.5 1261.75 3821 1270.25C3812.5 1278.75 3802.5 1283 3791 1283H3772.25ZM4068.5 1283C4057 1283 4047 1278.75 4038.5 1270.25C4030 1261.75 4025.75 1251.75 4025.75 1240.25V1198.25C4025.75 1186.75 4030 1176.75 4038.5 1168.25C4047 1159.75 4057 1155.5 4068.5 1155.5H4103C4114.5 1155.5 4124.5 1159.75 4133 1168.25C4141.5 1176.75 4145.75 1186.75 4145.75 1198.25V1240.25C4145.75 1251.75 4141.5 1261.75 4133 1270.25C4124.5 1278.75 4114.5 1283 4103 1283H4068.5ZM4605.56 1242.5L4450.31 776C4446.81 766 4448.06 756.75 4454.06 748.25C4460.06 739.75 4468.31 735.5 4478.81 735.5H4505.81C4518.31 735.5 4529.81 739.5 4540.31 747.5C4550.81 755 4557.56 764.75 4560.56 776.75L4675.31 1179.5C4675.31 1180 4675.56 1180.25 4676.06 1180.25C4676.56 1180.25 4676.81 1180 4676.81 1179.5L4793.06 776C4796.56 764 4803.31 754.25 4813.31 746.75C4823.81 739.25 4835.31 735.5 4847.81 735.5H4871.81C4882.31 735.5 4890.56 739.75 4896.56 748.25C4902.56 756.75 4903.81 766 4900.31 776L4745.06 1242.5C4741.06 1254.5 4733.81 1264.25 4723.31 1271.75C4713.31 1279.25 4701.81 1283 4688.81 1283H4661.81C4649.31 1283 4637.81 1279.25 4627.31 1271.75C4617.31 1264.25 4610.06 1254.5 4605.56 1242.5ZM5073.56 955.25C5048.06 955.25 5028.31 962.5 5014.31 977C5000.81 991 4992.31 1013.75 4988.81 1045.25C4988.81 1049.25 4990.81 1051.25 4994.81 1051.25H5141.81C5145.81 1051.25 5147.81 1049.25 5147.81 1045.25C5145.81 985.25 5121.06 955.25 5073.56 955.25ZM5092.31 1290.5C5026.81 1290.5 4976.31 1273.5 4940.81 1239.5C4905.81 1205 4888.31 1154.5 4888.31 1088C4888.31 1022 4904.06 971.75 4935.56 937.25C4967.06 902.75 5012.56 885.5 5072.06 885.5C5183.06 885.5 5240.06 948.5 5243.06 1074.5C5243.56 1086.5 5239.31 1096.5 5230.31 1104.5C5221.31 1112.5 5210.81 1116.5 5198.81 1116.5H4994.06C4989.56 1116.5 4987.81 1118.75 4988.81 1123.25C4992.31 1156.75 5003.31 1181.25 5021.81 1196.75C5040.81 1211.75 5068.31 1219.25 5104.31 1219.25C5126.81 1219.25 5151.81 1215.5 5179.31 1208C5188.31 1205.5 5196.56 1207 5204.06 1212.5C5212.06 1218 5216.06 1225.5 5216.06 1235C5216.06 1246.5 5212.56 1256.75 5205.56 1265.75C5199.06 1274.25 5190.31 1279.5 5179.31 1281.5C5151.31 1287.5 5122.31 1290.5 5092.31 1290.5ZM5458.24 1125.5C5405.74 1114 5368.24 1098.25 5345.74 1078.25C5323.74 1058.25 5312.74 1032.25 5312.74 1000.25C5312.74 964.25 5325.99 936.25 5352.49 916.25C5379.49 895.75 5419.24 885.5 5471.74 885.5C5504.74 885.5 5537.49 888.5 5569.99 894.5C5580.99 896.5 5589.74 902 5596.24 911C5603.24 919.5 5606.74 929.5 5606.74 941C5606.74 950.5 5602.99 958.25 5595.49 964.25C5587.99 969.75 5579.49 971.25 5569.99 968.75C5541.99 961.75 5512.49 958.25 5481.49 958.25C5436.49 958.25 5413.99 970.75 5413.99 995.75C5413.99 1007.75 5418.24 1017.75 5426.74 1025.75C5435.24 1033.75 5449.74 1040 5470.24 1044.5C5527.74 1056 5566.99 1071.5 5587.99 1091C5609.49 1110.5 5620.24 1139 5620.24 1176.5C5620.24 1212.5 5606.74 1240.5 5579.74 1260.5C5552.74 1280.5 5513.49 1290.5 5461.99 1290.5C5428.49 1290.5 5394.24 1286.5 5359.24 1278.5C5348.24 1276 5339.24 1270.25 5332.24 1261.25C5325.24 1251.75 5321.74 1241 5321.74 1229C5321.74 1219.5 5325.49 1212.25 5332.99 1207.25C5340.99 1202.25 5349.49 1201 5358.49 1203.5C5390.99 1212.5 5421.74 1217 5450.74 1217C5496.24 1217 5518.99 1203.5 5518.99 1176.5C5518.99 1163.5 5514.49 1153.25 5505.49 1145.75C5496.99 1138.25 5481.24 1131.5 5458.24 1125.5ZM5754.92 1283C5743.42 1283 5733.42 1278.75 5724.92 1270.25C5716.42 1261.75 5712.17 1251.75 5712.17 1240.25V935.75C5712.17 924.25 5716.42 914.25 5724.92 905.75C5733.42 897.25 5743.42 893 5754.92 893H5764.67C5776.67 893 5786.67 897.25 5794.67 905.75C5803.17 913.75 5807.67 923.75 5808.17 935.75V941C5808.17 941.5 5808.42 941.75 5808.92 941.75C5809.42 941.75 5809.92 941.5 5810.42 941C5844.42 904 5884.17 885.5 5929.67 885.5C5975.17 885.5 6008.17 898.5 6028.67 924.5C6049.67 950 6060.17 992.75 6060.17 1052.75V1240.25C6060.17 1251.75 6055.92 1261.75 6047.42 1270.25C6038.92 1278.75 6028.92 1283 6017.42 1283H6004.67C5993.17 1283 5983.17 1278.75 5974.67 1270.25C5966.67 1261.75 5962.67 1251.75 5962.67 1240.25V1060.25C5962.67 1022.75 5957.67 997.25 5947.67 983.75C5938.17 969.75 5920.92 962.75 5895.92 962.75C5875.42 962.75 5856.42 971.5 5838.92 989C5821.42 1006.5 5812.67 1025.25 5812.67 1045.25V1240.25C5812.67 1251.75 5808.42 1261.75 5799.92 1270.25C5791.42 1278.75 5781.42 1283 5769.92 1283H5754.92ZM6245.53 1277L6121.03 932.75C6118.03 922.75 6119.28 913.75 6124.78 905.75C6130.28 897.25 6138.28 893 6148.78 893H6171.28C6183.78 893 6195.28 897 6205.78 905C6216.28 912.5 6223.03 922.25 6226.03 934.25L6295.78 1179.5C6295.78 1180 6296.03 1180.25 6296.53 1180.25C6297.03 1180.25 6297.28 1180 6297.28 1179.5L6377.53 933.5C6381.53 921.5 6388.78 911.75 6399.28 904.25C6409.78 896.75 6421.28 893 6433.78 893H6451.78C6462.28 893 6470.28 897.25 6475.78 905.75C6481.78 914.25 6482.78 923.25 6478.78 932.75L6295.78 1408.25C6291.28 1420.25 6283.78 1429.75 6273.28 1436.75C6262.78 1444.25 6251.03 1448 6238.03 1448H6220.03C6210.03 1448 6202.03 1443.75 6196.03 1435.25C6190.53 1427.25 6189.78 1418.5 6193.78 1409L6245.53 1289C6246.53 1287 6247.03 1285 6247.03 1283C6247.03 1281 6246.53 1279 6245.53 1277ZM6719.16 1095.5C6647.66 1095.5 6611.91 1117.5 6611.91 1161.5C6611.91 1177.5 6616.41 1190.5 6625.41 1200.5C6634.91 1210.5 6646.91 1215.5 6661.41 1215.5C6689.91 1215.5 6712.91 1206.75 6730.41 1189.25C6747.91 1171.25 6756.66 1146.75 6756.66 1115.75V1102.25C6756.66 1097.75 6754.41 1095.5 6749.91 1095.5H6719.16ZM6634.41 1290.5C6600.41 1290.5 6572.16 1279.5 6549.66 1257.5C6527.66 1235 6516.66 1206 6516.66 1170.5C6516.66 1127 6533.16 1093.25 6566.16 1069.25C6599.66 1045.25 6650.66 1033.25 6719.16 1033.25H6749.91C6754.41 1033.25 6756.66 1031 6756.66 1026.5V1020.5C6756.66 997.5 6751.16 981.5 6740.16 972.5C6729.16 963 6709.66 958.25 6681.66 958.25C6652.66 958.25 6617.16 963.5 6575.16 974C6566.16 976.5 6557.91 975 6550.41 969.5C6542.91 963.5 6539.16 955.75 6539.16 946.25C6539.16 934.75 6542.66 924.5 6549.66 915.5C6556.66 906 6565.66 900.25 6576.66 898.25C6614.66 889.75 6650.41 885.5 6683.91 885.5C6747.91 885.5 6792.66 897 6818.16 920C6843.66 943 6856.41 983.25 6856.41 1040.75V1240.25C6856.41 1251.75 6852.16 1261.75 6843.66 1270.25C6835.66 1278.75 6825.91 1283 6814.41 1283H6806.16C6794.16 1283 6783.91 1279 6775.41 1271C6766.91 1262.5 6762.41 1252.25 6761.91 1240.25V1229.75C6761.91 1229.25 6761.66 1229 6761.16 1229C6760.16 1229 6759.66 1229.25 6759.66 1229.75C6729.16 1270.25 6687.41 1290.5 6634.41 1290.5ZM6998.57 1283C6987.07 1283 6977.07 1278.75 6968.57 1270.25C6960.07 1261.75 6955.82 1251.75 6955.82 1240.25V935.75C6955.82 924.25 6960.07 914.25 6968.57 905.75C6977.07 897.25 6987.07 893 6998.57 893H7008.32C7020.32 893 7030.32 897.25 7038.32 905.75C7046.82 913.75 7051.32 923.75 7051.82 935.75V941C7051.82 941.5 7052.07 941.75 7052.57 941.75C7053.07 941.75 7053.57 941.5 7054.07 941C7088.07 904 7127.82 885.5 7173.32 885.5C7218.82 885.5 7251.82 898.5 7272.32 924.5C7293.32 950 7303.82 992.75 7303.82 1052.75V1240.25C7303.82 1251.75 7299.57 1261.75 7291.07 1270.25C7282.57 1278.75 7272.57 1283 7261.07 1283H7248.32C7236.82 1283 7226.82 1278.75 7218.32 1270.25C7210.32 1261.75 7206.32 1251.75 7206.32 1240.25V1060.25C7206.32 1022.75 7201.32 997.25 7191.32 983.75C7181.82 969.75 7164.57 962.75 7139.57 962.75C7119.07 962.75 7100.07 971.5 7082.57 989C7065.07 1006.5 7056.32 1025.25 7056.32 1045.25V1240.25C7056.32 1251.75 7052.07 1261.75 7043.57 1270.25C7035.07 1278.75 7025.07 1283 7013.57 1283H6998.57ZM7405.93 980.75C7395.93 980.75 7387.43 977.25 7380.43 970.25C7373.43 962.75 7369.93 954 7369.93 944C7369.93 934 7373.43 925.5 7380.43 918.5C7387.43 911.5 7395.93 908 7405.93 908H7441.93C7446.43 908 7448.68 905.75 7448.68 901.25V808.25C7448.68 796.75 7452.68 786.75 7460.68 778.25C7469.18 769.75 7479.18 765.5 7490.68 765.5H7505.68C7517.18 765.5 7527.18 769.75 7535.68 778.25C7544.18 786.75 7548.43 796.75 7548.43 808.25V901.25C7548.43 905.75 7550.68 908 7555.18 908H7640.68C7650.68 908 7659.18 911.5 7666.18 918.5C7673.68 925.5 7677.43 934 7677.43 944C7677.43 954 7673.68 962.75 7666.18 970.25C7659.18 977.25 7650.68 980.75 7640.68 980.75H7555.18C7550.68 980.75 7548.43 982.75 7548.43 986.75V1138.25C7548.43 1170.75 7551.93 1191.75 7558.93 1201.25C7565.93 1210.75 7580.43 1215.5 7602.43 1215.5C7614.43 1215.5 7623.43 1215 7629.43 1214C7639.43 1213 7648.18 1215.25 7655.68 1220.75C7663.18 1226.25 7666.93 1233.75 7666.93 1243.25C7666.93 1254.25 7663.18 1264.25 7655.68 1273.25C7648.68 1281.75 7639.93 1286.5 7629.43 1287.5C7607.43 1289.5 7590.93 1290.5 7579.93 1290.5C7531.43 1290.5 7497.43 1280.25 7477.93 1259.75C7458.43 1238.75 7448.68 1201.5 7448.68 1148V986.75C7448.68 982.75 7446.43 980.75 7441.93 980.75H7405.93ZM7908.19 1125.5C7855.69 1114 7818.19 1098.25 7795.69 1078.25C7773.69 1058.25 7762.69 1032.25 7762.69 1000.25C7762.69 964.25 7775.94 936.25 7802.44 916.25C7829.44 895.75 7869.19 885.5 7921.69 885.5C7954.69 885.5 7987.44 888.5 8019.94 894.5C8030.94 896.5 8039.69 902 8046.19 911C8053.19 919.5 8056.69 929.5 8056.69 941C8056.69 950.5 8052.94 958.25 8045.44 964.25C8037.94 969.75 8029.44 971.25 8019.94 968.75C7991.94 961.75 7962.44 958.25 7931.44 958.25C7886.44 958.25 7863.94 970.75 7863.94 995.75C7863.94 1007.75 7868.19 1017.75 7876.69 1025.75C7885.19 1033.75 7899.69 1040 7920.19 1044.5C7977.69 1056 8016.94 1071.5 8037.94 1091C8059.44 1110.5 8070.19 1139 8070.19 1176.5C8070.19 1212.5 8056.69 1240.5 8029.69 1260.5C8002.69 1280.5 7963.44 1290.5 7911.94 1290.5C7878.44 1290.5 7844.19 1286.5 7809.19 1278.5C7798.19 1276 7789.19 1270.25 7782.19 1261.25C7775.19 1251.75 7771.69 1241 7771.69 1229C7771.69 1219.5 7775.44 1212.25 7782.94 1207.25C7790.94 1202.25 7799.44 1201 7808.44 1203.5C7840.94 1212.5 7871.69 1217 7900.69 1217C7946.19 1217 7968.94 1203.5 7968.94 1176.5C7968.94 1163.5 7964.44 1153.25 7955.44 1145.75C7946.94 1138.25 7931.19 1131.5 7908.19 1125.5ZM8321.12 955.25C8295.62 955.25 8275.87 962.5 8261.87 977C8248.37 991 8239.87 1013.75 8236.37 1045.25C8236.37 1049.25 8238.37 1051.25 8242.37 1051.25H8389.37C8393.37 1051.25 8395.37 1049.25 8395.37 1045.25C8393.37 985.25 8368.62 955.25 8321.12 955.25ZM8339.87 1290.5C8274.37 1290.5 8223.87 1273.5 8188.37 1239.5C8153.37 1205 8135.87 1154.5 8135.87 1088C8135.87 1022 8151.62 971.75 8183.12 937.25C8214.62 902.75 8260.12 885.5 8319.62 885.5C8430.62 885.5 8487.62 948.5 8490.62 1074.5C8491.12 1086.5 8486.87 1096.5 8477.87 1104.5C8468.87 1112.5 8458.37 1116.5 8446.37 1116.5H8241.62C8237.12 1116.5 8235.37 1118.75 8236.37 1123.25C8239.87 1156.75 8250.87 1181.25 8269.37 1196.75C8288.37 1211.75 8315.87 1219.25 8351.87 1219.25C8374.37 1219.25 8399.37 1215.5 8426.87 1208C8435.87 1205.5 8444.12 1207 8451.62 1212.5C8459.62 1218 8463.62 1225.5 8463.62 1235C8463.62 1246.5 8460.12 1256.75 8453.12 1265.75C8446.62 1274.25 8437.87 1279.5 8426.87 1281.5C8398.87 1287.5 8369.87 1290.5 8339.87 1290.5ZM8637.06 1242.5L8537.31 933.5C8533.81 923.5 8535.06 914.25 8541.06 905.75C8547.56 897.25 8556.06 893 8566.56 893H8589.06C8601.56 893 8612.81 897 8622.81 905C8632.81 912.5 8639.31 922.25 8642.31 934.25L8717.31 1224.5C8717.31 1225 8717.56 1225.25 8718.06 1225.25C8718.56 1225.25 8718.81 1225 8718.81 1224.5L8793.81 934.25C8796.81 922.25 8803.31 912.5 8813.31 905C8823.31 897 8834.56 893 8847.06 893H8866.56C8877.06 893 8885.31 897.25 8891.31 905.75C8897.81 914.25 8899.31 923.5 8895.81 933.5L8796.06 1242.5C8792.56 1254.5 8785.56 1264.25 8775.06 1271.75C8765.06 1279.25 8753.56 1283 8740.56 1283H8692.56C8680.06 1283 8668.56 1279.25 8658.06 1271.75C8648.06 1264.25 8641.06 1254.5 8637.06 1242.5ZM9142.01 1095.5C9070.51 1095.5 9034.76 1117.5 9034.76 1161.5C9034.76 1177.5 9039.26 1190.5 9048.26 1200.5C9057.76 1210.5 9069.76 1215.5 9084.26 1215.5C9112.76 1215.5 9135.76 1206.75 9153.26 1189.25C9170.76 1171.25 9179.51 1146.75 9179.51 1115.75V1102.25C9179.51 1097.75 9177.26 1095.5 9172.76 1095.5H9142.01ZM9057.26 1290.5C9023.26 1290.5 8995.01 1279.5 8972.51 1257.5C8950.51 1235 8939.51 1206 8939.51 1170.5C8939.51 1127 8956.01 1093.25 8989.01 1069.25C9022.51 1045.25 9073.51 1033.25 9142.01 1033.25H9172.76C9177.26 1033.25 9179.51 1031 9179.51 1026.5V1020.5C9179.51 997.5 9174.01 981.5 9163.01 972.5C9152.01 963 9132.51 958.25 9104.51 958.25C9075.51 958.25 9040.01 963.5 8998.01 974C8989.01 976.5 8980.76 975 8973.26 969.5C8965.76 963.5 8962.01 955.75 8962.01 946.25C8962.01 934.75 8965.51 924.5 8972.51 915.5C8979.51 906 8988.51 900.25 8999.51 898.25C9037.51 889.75 9073.26 885.5 9106.76 885.5C9170.76 885.5 9215.51 897 9241.01 920C9266.51 943 9279.26 983.25 9279.26 1040.75V1240.25C9279.26 1251.75 9275.01 1261.75 9266.51 1270.25C9258.51 1278.75 9248.76 1283 9237.26 1283H9229.01C9217.01 1283 9206.76 1279 9198.26 1271C9189.76 1262.5 9185.26 1252.25 9184.76 1240.25V1229.75C9184.76 1229.25 9184.51 1229 9184.01 1229C9183.01 1229 9182.51 1229.25 9182.51 1229.75C9152.01 1270.25 9110.26 1290.5 9057.26 1290.5Z" fill="white"/>
<path d="M1869.09 1593.75V1375C1869.09 1366.71 1865.81 1358.76 1859.97 1352.9C1854.13 1347.04 1846.2 1343.75 1837.94 1343.75H1832.33C1836.78 1331.53 1838.62 1318.51 1837.73 1305.53C1836.83 1292.55 1833.23 1279.9 1827.15 1268.41C1821.07 1256.92 1812.65 1246.84 1802.43 1238.82C1792.21 1230.8 1780.43 1225.03 1767.85 1221.88L1742.93 1146.25C1741.39 1141.57 1738.75 1137.34 1735.22 1133.91C1731.69 1130.48 1727.39 1127.96 1722.68 1126.56C1717.97 1125.06 1712.97 1124.7 1708.1 1125.51C1703.22 1126.33 1698.61 1128.3 1694.64 1131.25L1576.89 1218.75H1308.37C1293.39 1218.65 1278.61 1222.19 1265.29 1229.06C1251.97 1235.93 1240.5 1245.93 1231.87 1258.22C1223.24 1270.5 1217.7 1284.69 1215.72 1299.58C1213.74 1314.48 1215.39 1329.63 1220.52 1343.75H1214.91C1206.65 1343.75 1198.72 1347.04 1192.88 1352.9C1187.04 1358.76 1183.76 1366.71 1183.76 1375V1593.75H1152.61C1136.1 1593.8 1120.28 1600.4 1108.61 1612.11C1096.93 1623.82 1090.35 1639.69 1090.3 1656.25V1718.75H159.185C136.642 1718.46 114.713 1726.12 97.232 1740.4C79.7506 1754.68 67.8284 1774.67 63.5493 1796.88C61.2833 1810.32 61.9697 1824.11 65.5604 1837.26C69.1512 1850.42 75.5599 1862.63 84.3394 1873.04C93.1189 1883.45 104.058 1891.82 116.393 1897.56C128.728 1903.29 142.162 1906.26 155.758 1906.25H1806.79C1839.84 1906.25 1871.53 1893.08 1894.9 1869.64C1918.27 1846.2 1931.4 1814.4 1931.4 1781.25V1656.25C1931.35 1639.69 1924.77 1623.82 1913.09 1612.11C1901.42 1600.4 1885.6 1593.8 1869.09 1593.75ZM1090.3 1843.75H155.758C151.262 1843.73 146.823 1842.74 142.739 1840.85C138.656 1838.97 135.022 1836.23 132.083 1832.81C129.022 1829.31 126.788 1825.16 125.548 1820.67C124.307 1816.18 124.092 1811.46 124.918 1806.88C126.854 1799.32 131.31 1792.66 137.544 1788C143.778 1783.34 151.415 1780.96 159.185 1781.25H1090.3V1843.75ZM1308.37 1281.25H1587.17C1593.92 1281.29 1600.49 1279.09 1605.86 1275L1697.45 1206.88L1714.89 1260C1717.04 1266.17 1721.03 1271.53 1726.33 1275.33C1731.63 1279.14 1737.97 1281.2 1744.49 1281.25C1752.75 1281.25 1760.67 1284.54 1766.51 1290.4C1772.36 1296.26 1775.64 1304.21 1775.64 1312.5C1775.64 1320.79 1772.36 1328.74 1766.51 1334.6C1760.67 1340.46 1752.75 1343.75 1744.49 1343.75H1308.37C1300.1 1343.75 1292.18 1340.46 1286.34 1334.6C1280.5 1328.74 1277.21 1320.79 1277.21 1312.5C1277.21 1304.21 1280.5 1296.26 1286.34 1290.4C1292.18 1284.54 1300.1 1281.25 1308.37 1281.25ZM1246.06 1406.25H1308.37V1531.25H1370.67V1406.25H1401.82V1531.25H1464.12V1406.25H1495.27V1531.25H1557.58V1406.25H1588.73V1531.25H1651.03V1406.25H1682.18V1531.25H1744.49V1406.25H1806.79V1593.75H1246.06V1406.25ZM1869.09 1781.25C1869.04 1797.81 1862.46 1813.68 1850.79 1825.39C1839.12 1837.1 1823.3 1843.7 1806.79 1843.75H1152.61V1656.25H1510.85H1869.09V1781.25Z" fill="white"/>
<path d="M1082.2 72.8125C1079.29 69.5752 1075.74 66.9853 1071.77 65.2092C1067.8 63.4332 1063.5 62.5103 1059.15 62.5H311.514C307.145 62.5172 302.828 63.4565 298.843 65.2567C294.859 67.057 291.297 69.6779 288.389 72.9493C285.48 76.2207 283.29 80.0693 281.961 84.2452C280.632 88.421 280.194 92.8306 280.674 97.1875L307.465 347.187V347.812L399.05 1197.5C401.508 1220.49 412.345 1241.75 429.48 1257.21C446.614 1272.67 468.838 1281.23 491.882 1281.25H529.575V1531.25C529.575 1539.54 532.857 1547.49 538.699 1553.35C544.541 1559.21 552.465 1562.5 560.727 1562.5H809.939C818.201 1562.5 826.125 1559.21 831.967 1553.35C837.809 1547.49 841.091 1539.54 841.091 1531.25V1281.25H878.784C901.828 1281.23 924.052 1272.67 941.186 1257.21C958.321 1241.75 969.158 1220.49 971.616 1197.5L1063.2 347.812V347.187L1089.99 97.1875C1090.48 92.8033 1090.04 88.3646 1088.7 84.1634C1087.36 79.9622 1085.14 76.0937 1082.2 72.8125ZM778.788 1500H591.878V1437.5H778.788V1500ZM778.788 1375H591.878V1281.25H778.788V1375ZM909.624 1190.94C908.783 1198.56 905.175 1205.61 899.488 1210.74C893.801 1215.87 886.432 1218.72 878.784 1218.75H491.882C484.234 1218.72 476.865 1215.87 471.178 1210.74C465.491 1205.61 461.883 1198.56 461.042 1190.94L453.877 1125H916.789L909.624 1190.94ZM923.331 1062.5H447.335L373.195 375H997.472L923.331 1062.5ZM1004.33 312.5H366.341L346.093 125H1024.57L1004.33 312.5Z" fill="white"/>
</svg>
