<svg width="284" height="535" viewBox="0 0 284 535" fill="none" xmlns="http://www.w3.org/2000/svg">
<path fill-rule="evenodd" clip-rule="evenodd" d="M142 435.082C220.424 435.082 284 398.258 284 352.833C284 307.408 220.424 270.584 142 270.584C63.5756 270.584 0 307.408 0 352.833C0 398.258 63.5756 435.082 142 435.082Z" fill="#007AFF" fill-opacity="0.3"/>
<path fill-rule="evenodd" clip-rule="evenodd" d="M142 406.052C220.424 406.052 284 369.228 284 323.803C284 278.378 220.424 241.554 142 241.554C63.5756 241.554 0 278.378 0 323.803C0 369.228 63.5756 406.052 142 406.052Z" fill="#007AFF" fill-opacity="0.3"/>
<path fill-rule="evenodd" clip-rule="evenodd" d="M142 377.022C220.424 377.022 284 340.198 284 294.773C284 249.348 220.424 212.523 142 212.523C63.5756 212.523 0 249.348 0 294.773C0 340.198 63.5756 377.022 142 377.022Z" fill="#007AFF" fill-opacity="0.3"/>
<path d="M233.953 178.05L233.846 216.071C231.446 217.467 229.32 218.705 227.11 219.991L227.218 181.97C229.427 180.683 231.554 179.445 233.953 178.05Z" fill="#007AFF"/>
<path d="M226.852 173.792L226.744 211.813C194.811 196.024 158.534 189.923 117.491 194.366C89.8837 197.351 66.738 205.191 48.0505 217.35C29.363 229.509 19.236 243.835 16.7408 259.804L16.8483 221.783C19.3435 205.813 29.4705 191.488 48.158 179.329C66.8455 167.17 89.9912 159.329 117.598 156.344C158.642 151.902 194.919 158.002 226.852 173.792Z" fill="#007AFF"/>
<path d="M268.237 228.043L268.13 266.065C268.161 254.976 263.875 244.255 255.251 233.931C249.725 227.335 242.661 221.359 233.846 216.071L233.953 178.05C242.768 183.338 249.832 189.315 255.358 195.91C263.982 206.233 268.268 216.954 268.237 228.043Z" fill="#007AFF"/>
<path d="M36.8747 265.817L36.9822 227.795C37.0386 208.04 53.7944 188.723 82.5171 177.479C121.354 162.273 171.533 163.332 208.133 180.353C211.395 181.871 214.447 183.453 217.301 185.102C234.811 195.227 244.648 207.822 247.269 222.601C247.328 222.922 247.557 223.229 247.569 223.241L247.461 261.262C247.45 261.251 247.22 260.944 247.162 260.623C244.54 245.844 234.703 233.25 217.193 223.124C214.341 221.474 211.287 219.892 208.025 218.375C171.426 201.354 121.247 200.295 82.4096 215.501C53.688 226.745 36.9311 246.062 36.8747 265.817Z" fill="#007AFF"/>
<path d="M99.9293 191.591L99.8218 229.613C95.1351 226.903 90.3544 224.138 85.2272 221.174L85.3347 183.153C90.4619 186.117 95.2436 188.881 99.9293 191.591Z" fill="#007AFF"/>
<path d="M227.188 228.026L227.08 266.048C227.113 254.123 219.759 241.748 202.835 231.634C202.465 231.413 202.09 231.193 201.717 230.977C185.329 221.502 165.137 216.847 141.873 216.772C127.823 216.724 114.592 218.657 101.893 222.598L102.001 184.576C114.699 180.635 127.932 178.703 141.981 178.751C165.244 178.825 185.438 183.48 201.824 192.955C202.199 193.171 202.572 193.392 202.943 193.614C219.867 203.727 227.222 216.103 227.188 228.026Z" fill="#007AFF"/>
<path d="M187.827 201.859L187.719 239.88C185.592 241.118 183.464 242.356 181.137 243.71L181.245 205.689C183.572 204.334 185.699 203.097 187.827 201.859Z" fill="#007AFF"/>
<path d="M16.8483 221.783L16.7408 259.804C13.0663 259.86 9.59219 259.921 5.6443 259.983L5.75179 221.961C9.69968 221.9 13.1738 221.838 16.8483 221.783Z" fill="#007AFF"/>
<path d="M57.4532 265.053L57.5607 227.031C57.5993 213.489 67.145 201.605 85.0728 191.323L84.9653 229.344C67.0375 239.626 57.4918 251.51 57.4532 265.053Z" fill="#007AFF"/>
<path d="M77.9858 265.771L78.0933 227.749C78.1246 216.656 86.5735 205.699 102.624 198.495C123.721 189.018 152.454 188.027 175.428 195.978C177.067 196.542 178.612 197.188 180.454 197.896L180.346 235.918C178.504 235.209 176.96 234.564 175.32 233.999C152.347 226.049 123.614 227.04 102.516 236.517C86.466 243.721 78.0171 254.678 77.9858 265.771Z" fill="#007AFF"/>
<path d="M186.096 227.946L185.989 265.967C186.004 260.369 182.892 254.738 176.347 250.128C175.166 249.295 173.919 248.481 172.601 247.721C172.233 247.507 171.86 247.299 171.481 247.095C169.744 246.159 167.784 245.368 165.728 244.426L165.835 206.405C167.891 207.348 169.852 208.138 171.588 209.073C171.967 209.277 172.341 209.486 172.708 209.699C174.025 210.461 175.272 211.273 176.455 212.106C183 216.716 186.113 222.347 186.096 227.946Z" fill="#007AFF"/>
<path d="M206.591 228.165L206.484 266.187C206.511 256.68 200.517 247.248 189.192 240.699C188.709 240.42 188.22 240.149 187.718 239.88L187.825 201.859C188.327 202.127 188.817 202.399 189.299 202.678C200.625 209.227 206.618 218.659 206.591 228.165Z" fill="#007AFF"/>
<path d="M98.5069 265.986L98.6144 227.965C98.6374 219.83 105.256 211.754 117.385 207.031C128.742 202.615 141.054 201.495 154.285 203.495C154.972 203.605 156.075 203.653 156.49 203.426C159.09 202.037 161.559 200.545 164.254 198.976L164.146 236.998C161.452 238.565 158.983 240.058 156.382 241.447C155.969 241.674 154.866 241.625 154.177 241.516C140.946 239.514 128.635 240.636 117.278 245.051C105.148 249.774 98.5299 257.851 98.5069 265.986Z" fill="#007AFF"/>
<path d="M258.524 228.088L258.417 266.11C258.416 266.554 258.407 266.999 258.391 267.444L258.498 229.423C258.515 228.977 258.523 228.532 258.524 228.088Z" fill="#0097A7"/>
<path d="M258.498 229.423L258.391 267.444C251.444 267.5 244.781 267.554 238.285 267.609L238.393 229.588C244.889 229.533 251.552 229.478 258.498 229.423Z" fill="#007AFF"/>
<path d="M196.969 228.205L196.862 266.227C196.841 273.76 192.46 280.483 184.163 286.427L184.27 248.405C192.569 242.462 196.949 235.738 196.969 228.205Z" fill="#007AFF"/>
<path d="M217.597 227.957L217.49 265.979C217.47 273.076 214.466 280.242 208.315 286.804C205.64 289.658 202.228 292.278 199.067 295.071L199.175 257.049C202.337 254.257 205.748 251.637 208.423 248.782C214.573 242.22 217.576 235.054 217.597 227.957Z" fill="#007AFF"/>
<path d="M87.616 265.764L87.7235 227.742C87.7006 236.011 93.2785 244.179 103.966 250.357C105.614 251.31 107.385 252.217 109.273 253.067C128.468 261.713 156.258 261.794 175.369 253.225C176.686 252.636 177.442 252.614 178.677 253.329C181.374 254.925 184.085 256.505 186.81 258.08C188.172 258.867 189.537 259.654 190.905 260.44C192.952 261.623 194.997 262.806 197.042 263.988C197.507 264.257 197.899 264.552 198.328 264.841L198.221 302.862C197.793 302.574 197.399 302.278 196.936 302.01C194.891 300.826 192.844 299.643 190.799 298.461C189.431 297.675 188.066 296.888 186.704 296.101C183.979 294.526 181.268 292.946 178.571 291.35C177.335 290.635 176.58 290.657 175.263 291.247C156.153 299.816 128.362 299.734 109.166 291.089C107.277 290.238 105.506 289.331 103.859 288.379C93.1721 282.199 87.5931 274.033 87.616 265.764Z" fill="#007AFF"/>
<path d="M67.049 264.659L67.1565 226.637C67.1461 230.441 68.007 234.413 69.7842 238.557C73.3397 246.845 79.81 253.631 88.9028 258.888C98.5507 264.467 111.152 268.323 126.35 270.427C146.591 273.22 165.667 270.977 183.568 264.505L183.46 302.527C165.56 308.998 146.484 311.241 126.242 308.449C111.045 306.346 98.4443 302.488 88.7953 296.909C79.7035 291.652 73.2323 284.867 69.6778 276.579C67.8985 272.435 67.0375 268.462 67.049 264.659Z" fill="#007AFF"/>
<path d="M46.5728 265.659L46.6803 227.638C46.6636 233.519 48.2634 239.551 51.7197 245.537C56.5286 253.835 64.1207 261.004 74.4522 266.977C77.8553 268.945 81.557 270.783 85.5528 272.489C107.301 281.759 131.73 284.944 158.405 282.736L158.297 320.758C131.622 322.965 107.194 319.782 85.4454 310.511C81.4495 308.805 77.7479 306.967 74.3447 304.999C64.0132 299.025 56.4211 291.856 51.6122 283.559C48.1548 277.572 46.5561 271.541 46.5728 265.659Z" fill="#007AFF"/>
<path d="M54.7931 262.153L54.6856 300.174C54.6846 300.533 54.3548 300.87 53.5961 301.255C51.5277 302.294 49.6847 303.49 47.4744 304.776L47.5819 266.754C49.7912 265.469 51.6342 264.271 53.7036 263.233C54.4633 262.849 54.7921 262.511 54.7931 262.153Z" fill="#007AFF"/>
<path d="M26.0193 265.019L26.1268 226.998C26.1153 231.233 26.777 235.54 28.095 239.911C31.0181 249.636 37.5301 258.556 47.583 266.753L47.4755 304.775C37.4226 296.577 30.9116 287.657 27.9875 277.933C26.6695 273.561 26.0068 269.254 26.0193 265.019Z" fill="#007AFF"/>
<path d="M238.393 229.588L238.285 267.609C234.472 293.784 211.131 311.095 168.06 319.713L168.167 281.691C211.238 273.073 234.579 255.763 238.393 229.588Z" fill="#007AFF"/>
<path d="M160.877 288.115L160.769 326.136C159.929 324.307 159.126 322.581 158.297 320.758L158.405 282.736C159.232 284.559 160.037 286.286 160.877 288.115Z" fill="#007AFF"/>
<path d="M257.703 235.434L257.596 273.456C256.173 284.109 248.206 298.861 228.962 310.985C200.254 329.073 164.369 335.785 122.547 332.498L122.654 294.476C164.476 297.763 200.361 291.051 229.069 272.963C248.314 260.839 256.281 246.087 257.703 235.434Z" fill="#007AFF"/>
<path d="M60.7217 275.832L60.6142 313.854C58.3455 315.174 56.2186 316.412 53.8664 317.78L53.9739 279.759C56.3261 278.391 58.453 277.152 60.7217 275.832Z" fill="#007AFF"/>
<path d="M279.21 227.233L279.099 265.256C279.08 274.193 276.36 283.427 270.976 292.887C265.63 302.29 256.856 310.63 245.603 318.092C245.23 318.353 244.988 318.652 244.671 318.95C241.224 320.965 237.74 322.98 234.276 324.995C233.623 325.275 232.916 325.517 232.32 325.816C213.858 335.145 192.527 341.134 168.495 343.839C164.042 344.324 159.553 344.623 154.821 345.034L154.933 307.011C159.646 306.601 164.154 306.321 168.607 305.817C192.639 303.112 213.951 297.123 232.432 287.794C233.027 287.495 233.736 287.252 234.387 286.973C237.852 284.958 241.318 282.943 244.782 280.928C245.099 280.629 245.342 280.332 245.714 280.07C256.966 272.607 265.741 264.268 271.088 254.865C276.472 245.406 279.192 236.17 279.21 227.233Z" fill="#007AFF"/>
<path d="M89.6333 281.473L89.5258 319.494C89.5258 319.625 89.4987 319.768 89.4454 319.926C88.8746 321.707 88.4812 323.495 87.9708 325.448L88.0783 287.427C88.5886 285.474 88.9821 283.685 89.5529 281.904C89.6061 281.747 89.6333 281.603 89.6333 281.473Z" fill="#007AFF"/>
<path d="M88.0794 287.427L87.9719 325.448C77.7113 322.354 68.821 318.42 60.6142 313.853L60.7217 275.831C68.9285 280.398 77.8188 284.332 88.0794 287.427Z" fill="#007AFF"/>
<path d="M97.7722 327.489L97.8797 289.467C97.8787 289.776 97.9893 289.984 98.2825 290.154C98.7 290.395 99.4889 290.561 100.855 290.838C104.843 291.649 108.854 292.406 112.961 293.204L112.853 331.226C108.747 330.428 104.735 329.672 100.747 328.86C99.3804 328.582 98.5925 328.417 98.175 328.175C97.8808 328.005 97.7712 327.798 97.7722 327.489Z" fill="#007AFF"/>
<path d="M122.654 294.476L122.547 332.498C121.929 334.307 121.31 336.032 120.61 338.041L120.718 300.02C121.418 298.011 122.036 296.285 122.654 294.476Z" fill="#007AFF"/>
<path d="M154.937 307.014L154.829 345.035C154.591 342.786 154.355 340.744 154.142 338.714L154.249 300.693C154.462 302.722 154.699 304.764 154.937 307.014Z" fill="#007AFF"/>
<path fill-rule="evenodd" clip-rule="evenodd" d="M245.059 280.657L245.058 280.657L245.058 280.658C244.969 280.749 244.881 280.839 244.787 280.928L239.587 283.954L234.387 286.981C234.189 287.063 233.984 287.143 233.779 287.223C233.314 287.406 232.846 287.589 232.436 287.799C213.958 297.132 192.64 303.108 168.599 305.811C165.618 306.147 162.608 306.388 159.526 306.635L159.524 306.636C158.014 306.757 156.487 306.879 154.937 307.015C154.82 305.91 154.703 304.855 154.59 303.828C154.472 302.763 154.357 301.727 154.249 300.694C214.007 297.379 258.613 270.894 266.747 239.334C270.657 224.196 266.877 209.699 255.358 195.91C249.832 189.314 242.768 183.338 233.953 178.05L232.269 179.03C230.529 180.042 228.897 180.992 227.218 181.97C237.534 188.468 245.482 195.738 250.851 203.915C256.233 212.127 258.817 220.6 258.499 229.424C251.552 229.479 244.89 229.533 238.394 229.589C234.58 255.764 211.239 273.074 168.168 281.692C168.913 283.288 169.729 285.021 170.593 286.85C184.12 284.718 196.241 281.238 207.037 276.307C229.967 265.833 243.155 252.085 246.941 235.82C250.683 235.685 254.066 235.565 257.439 235.445L257.703 235.435C256.281 246.088 248.314 260.84 229.069 272.965C200.361 291.052 164.476 297.764 122.654 294.477C122.269 295.607 121.882 296.705 121.476 297.859L121.476 297.86C121.232 298.553 120.98 299.267 120.718 300.021L124.831 300.219L124.869 300.221C131.374 300.535 137.73 300.842 144.151 301.148C144.319 302.704 144.494 304.28 144.671 305.874L144.814 307.166C144.586 307.177 144.402 307.19 144.244 307.201L144.242 307.201C144.023 307.216 143.853 307.228 143.688 307.228C143.039 307.222 142.39 307.218 141.742 307.214H141.739C140.15 307.205 138.564 307.196 136.989 307.153C108.413 306.355 82.6204 301.052 59.7773 290.985C57.6346 290.044 55.5313 289.08 53.4281 288.117C52.7318 287.798 52.0355 287.479 51.3378 287.16C49.5418 286.122 47.7458 285.083 45.9497 284.045C44.1537 283.006 42.3577 281.968 40.5617 280.929C39.6965 280.29 38.8214 279.656 37.9463 279.021L37.9452 279.02L37.9448 279.02C35.7984 277.464 33.6526 275.907 31.6557 274.286C14.7799 260.661 6.20575 245.449 5.67248 228.716C9.18271 228.171 12.639 228.093 16.2055 228.013H16.2056L16.4454 228.008C17.0079 245.896 26.9961 261.666 46.9318 275.427C51.6231 272.697 56.1804 270.044 60.8736 267.312L61.3364 267.043C61.5905 267.189 61.8403 267.328 62.0832 267.462L62.0846 267.463C62.319 267.593 62.547 267.719 62.7661 267.845C62.9894 267.975 63.2034 268.105 63.4058 268.24C64.9743 269.288 66.6003 270.297 68.2804 271.269C74.2612 274.728 80.9329 277.706 88.2046 280.262C88.5438 280.378 88.8182 280.494 89.0343 280.618C89.5957 280.943 89.7481 281.323 89.554 281.904C89.1526 283.157 88.8389 284.413 88.5106 285.727L88.5105 285.727C88.372 286.282 88.2308 286.847 88.0794 287.427C77.8188 284.332 68.9285 280.398 60.7217 275.832C59.5363 276.522 58.3896 277.189 57.2294 277.865C56.1691 278.482 55.0976 279.106 53.9749 279.759C70.1265 289.002 89.0958 295.226 111.083 298.602C111.364 297.794 111.635 297.015 111.903 296.248L111.907 296.238C112.262 295.221 112.61 294.225 112.962 293.203C111.844 292.986 110.733 292.772 109.628 292.559C106.673 291.99 103.758 291.428 100.856 290.837C99.4889 290.56 98.701 290.394 98.2836 290.153C97.7117 289.823 97.8351 289.349 98.1208 288.254L98.127 288.231C98.3766 287.222 98.6383 286.22 98.9187 285.145C99.0417 284.674 99.1683 284.19 99.299 283.684C119.102 288.65 139.444 290.183 160.878 288.114C160.578 287.46 160.283 286.82 159.989 286.184C159.461 285.039 158.938 283.907 158.406 282.735C131.731 284.943 107.302 281.759 85.5539 272.488C81.558 270.782 77.8564 268.944 74.4533 266.976C64.1217 261.002 56.5296 253.834 51.7208 245.536C38.8982 223.33 51.6331 200.503 77.6049 187.003L80.5149 188.686L80.6139 188.743C82.0675 189.583 83.5463 190.438 85.0749 191.322C62.2078 204.437 52.9773 220.159 59.7209 238.604C63.1564 247.972 70.6348 255.919 81.7897 262.369C85.5299 264.531 89.6813 266.526 94.2345 268.348C130.904 283.025 175.154 277.557 198.331 264.84C198.207 264.756 198.086 264.672 197.965 264.588C197.669 264.382 197.375 264.178 197.046 263.987C195 262.804 192.954 261.621 190.908 260.439C189.54 259.653 188.175 258.866 186.813 258.079C184.088 256.504 181.377 254.924 178.681 253.328C177.445 252.613 176.689 252.635 175.372 253.224C156.262 261.793 128.471 261.712 109.276 253.066C107.387 252.216 105.616 251.31 103.969 250.356C85.0759 239.433 82.1487 222.298 97.91 209.368C112.071 197.759 139.123 193.123 162 198.385C162.386 198.473 162.768 198.577 163.205 198.696C163.52 198.782 163.863 198.875 164.256 198.976C163.606 199.354 162.97 199.728 162.342 200.096L162.341 200.097C160.363 201.258 158.465 202.371 156.492 203.426C156.079 203.653 154.975 203.605 154.287 203.495C141.056 201.494 128.745 202.615 117.387 207.031C98.0456 214.562 92.7181 230.62 105.798 241.844C107.518 243.318 109.435 244.658 111.511 245.858C125.819 254.13 147.747 255.808 165.736 249.436C187.696 241.651 192.871 223.666 176.457 212.105C175.275 211.272 174.028 210.46 172.71 209.698C172.342 209.485 171.969 209.277 171.59 209.072C170.387 208.424 169.077 207.845 167.701 207.237L167.7 207.237C167.091 206.968 166.469 206.693 165.837 206.404L166.732 205.883C171.26 203.248 175.743 200.639 180.455 197.896C179.876 197.674 179.327 197.457 178.795 197.248C177.633 196.79 176.553 196.365 175.429 195.978C152.455 188.027 123.722 189.018 102.625 198.495C75.2714 210.771 69.9961 233.948 90.8344 250.123C92.7672 251.624 94.8596 253.019 97.0845 254.307C117.174 265.922 148.235 268.704 173.645 260.549C174.991 260.114 175.907 260.024 176.999 260.655C178 261.305 178.801 261.786 179.642 262.272C180.24 262.618 180.857 262.966 181.496 263.326L181.497 263.326L181.498 263.327C182.165 263.703 182.855 264.091 183.568 264.503C165.667 270.975 146.591 273.217 126.35 270.425C111.152 268.322 98.5518 264.465 88.9028 258.886C79.811 253.629 73.3398 246.844 69.7842 238.555C61.519 219.285 73.0736 203.728 99.9304 191.589L99.2289 191.184L99.1455 191.135C94.7095 188.57 90.1771 185.95 85.3358 183.151C110.271 173.11 137.096 170.056 166.248 174.231C182.2 176.523 197.526 181.542 209.898 188.696C225.035 197.448 235.756 209.393 237.825 223.459C238.985 223.433 240.147 223.406 241.336 223.379L241.344 223.379C243.309 223.333 245.347 223.286 247.569 223.239C247.557 223.227 247.328 222.92 247.269 222.599C244.648 207.82 234.811 195.226 217.301 185.1C214.448 183.451 211.395 181.868 208.133 180.351C171.533 163.329 121.354 162.27 82.5171 177.477C45.8569 191.831 28.6898 219.333 40.8633 244.112C43.826 250.143 48.0787 255.824 54.0469 261.057C55.0363 261.931 55.1573 262.494 53.7036 263.23C52.2761 263.947 50.956 264.739 49.5485 265.584L49.5473 265.585C48.9157 265.964 48.2664 266.353 47.5819 266.751C37.529 258.553 31.0181 249.633 28.094 239.909C22.9115 222.723 27.8706 206.533 44.0546 191.83C63.2691 174.381 90.9054 163.983 126.351 161.197C161.677 158.425 192.927 164.292 220.01 177.771L222.107 176.55C223.632 175.663 225.164 174.771 226.851 173.789C194.919 157.999 158.642 151.899 117.598 156.341C89.9912 159.326 66.8455 167.167 48.158 179.326C29.4705 191.485 19.3435 205.81 16.8483 221.78C14.8239 221.81 12.8609 221.843 10.8462 221.876L10.8341 221.876C9.19474 221.903 7.52094 221.931 5.75179 221.958C6.02 220.905 6.26234 219.859 6.5031 218.819L6.50312 218.819C7.04362 216.486 7.57613 214.187 8.37537 211.918C14.257 195.247 27.6797 180.893 49.5021 169.56C85.6509 150.771 127.93 144.643 175.258 151.059C199.329 154.318 220.211 160.97 237.281 170.84C240.673 172.802 243.914 174.889 247 177.104C279.449 200.404 287.196 226.517 271.089 254.866C265.737 264.264 256.963 272.612 245.719 280.068C245.457 280.249 245.258 280.453 245.059 280.657ZM205.537 260.729C232.168 244.306 237.476 214.252 202.943 193.614C202.572 193.392 202.199 193.173 201.824 192.955C185.437 183.48 165.244 178.825 141.981 178.751C127.931 178.703 114.699 180.635 102.001 184.576C102.639 184.945 103.255 185.291 103.849 185.624L103.85 185.625L103.85 185.625C104.396 185.932 104.923 186.228 105.432 186.521C106.163 186.944 106.854 187.362 107.509 187.802C107.604 187.866 107.699 187.926 107.793 187.98C108.878 188.608 109.868 188.528 111.328 188.173C140.206 181.302 167.237 183.317 191.238 194.961C192.897 195.765 194.485 196.607 195.992 197.478C219.211 210.904 224.292 231.849 208.423 248.782C206.575 250.755 204.375 252.615 202.148 254.498C201.153 255.34 200.152 256.186 199.175 257.049C200.339 257.723 201.571 258.436 202.851 259.176L205.537 260.729ZM187.502 250.273C186.44 249.658 185.366 249.038 184.27 248.404C193.114 242.071 197.508 234.85 196.917 226.706C196.327 218.605 191.012 211.638 181.245 205.689C182.501 204.958 183.698 204.261 184.869 203.58C185.868 202.998 186.847 202.428 187.827 201.859C188.329 202.127 188.818 202.399 189.3 202.678C210.966 215.206 213.12 238.289 190.931 252.255C189.792 251.597 188.654 250.939 187.502 250.273Z" fill="#AFD4FB"/>
<path d="M144.816 307.16L144.704 345.182C144.164 345.22 143.866 345.257 143.587 345.257C141.333 345.219 139.097 345.238 136.88 345.164C108.302 344.38 82.5181 339.063 59.6604 329.007C56.8104 327.757 54.0344 326.451 51.2209 325.182C47.6445 323.112 44.0483 321.021 40.4532 318.951C37.4727 316.75 34.3617 314.585 31.5482 312.309C14.6703 298.689 6.10035 283.466 5.55977 266.73L5.67143 228.708C6.21201 245.443 14.7809 260.668 31.6599 274.287C34.4734 276.563 37.5656 278.727 40.5648 280.928C44.16 283 47.7374 285.089 51.3326 287.159C54.1461 288.447 56.921 289.735 59.7721 290.985C82.612 301.059 108.414 306.358 136.991 307.16C139.208 307.216 141.443 307.197 143.68 307.234C143.978 307.234 144.277 307.198 144.816 307.16Z" fill="#007AFF"/>
<path d="M222.124 51.4704L223.109 106.94C219.185 81.7101 189.801 63.3553 154.965 60.5275C138.276 59.1688 122.312 61.0533 107.153 66.2027C99.9061 68.661 93.3411 71.773 87.5649 75.6064L86.58 20.1365C92.3562 16.3031 98.9212 13.1911 106.168 10.7328C121.327 5.58226 137.291 3.6989 153.98 5.05759C188.815 7.88535 218.2 26.2402 222.124 51.4704Z" fill="#FF5353"/>
<path d="M136.617 17.6027L137.602 73.0727C137.512 71.7697 137.423 70.4668 137.316 68.9529L136.332 13.483C136.438 14.9969 136.528 16.2998 136.617 17.6027Z" fill="#FF4081"/>
<path d="M154.511 18.1547L155.496 73.6247L154.312 71.3554L153.327 15.8844L154.511 18.1547Z" fill="#FF5353"/>
<path d="M86.3382 26.0434L87.323 81.5133L82.8955 78.691L81.9107 23.2211L86.3382 26.0434Z" fill="#FF5353"/>
<path d="M136.332 13.4841L137.316 68.954C137.299 68.9594 136.961 69.0666 136.62 69.0983C120.334 70.4974 106.502 74.9003 95.423 82.5058L94.4382 27.0359C105.517 19.4303 119.349 15.0275 135.635 13.6283C135.976 13.5966 136.314 13.4895 136.332 13.4841Z" fill="#FF5353"/>
<path d="M189.599 25.6608L190.583 81.1308C184.094 76.894 176.691 73.7591 168.503 71.6899L167.518 16.22C175.706 18.2892 183.11 21.4241 189.599 25.6608Z" fill="#FF5353"/>
<path d="M159.664 28.0896L160.649 83.5596L158.127 78.691L157.141 23.2211L159.664 28.0896Z" fill="#FF5353"/>
<path d="M162.805 34.1288L163.79 89.5988L160.649 83.5596L159.664 28.0896L162.805 34.1288Z" fill="#FF5353"/>
<path d="M192.759 36.4877L193.744 91.9576L183.928 85.6998L182.943 30.2299L192.759 36.4877Z" fill="#FF5353"/>
<path d="M165.374 39.0761L166.359 94.546L163.79 89.5988L162.805 34.1288L165.374 39.0761Z" fill="#FF5353"/>
<path d="M201.843 42.2787L202.828 97.7487L200.802 99.1391L199.818 43.6691L201.843 42.2787Z" fill="#FF5353"/>
<path d="M218.381 40.79L219.366 96.2599L214.751 99.4287L213.766 43.9588L218.381 40.79Z" fill="#FF5353"/>
<path d="M206.057 44.9655L207.042 100.435L202.828 97.7487L201.843 42.2787L206.057 44.9655Z" fill="#FF5353"/>
<path d="M62.4783 114.768L61.4935 59.2978C61.2603 46.1832 68.2197 34.1824 81.9107 23.2211L82.8955 78.691C69.2045 89.6523 62.2452 101.653 62.4783 114.768Z" fill="#FF5353"/>
<path d="M75.5484 114.907L74.5635 59.4366C74.387 49.4875 79.2873 39.4783 89.2252 31.0245C90.8877 29.609 92.6264 28.2787 94.4382 27.0359L95.423 82.5058C93.6124 83.7486 91.8725 85.0789 90.21 86.4944C80.2722 94.9482 75.3719 104.957 75.5484 114.907Z" fill="#FF5353"/>
<path d="M88.7295 114.911L87.7446 59.441C87.7425 59.3098 87.7414 59.1787 87.7414 59.0475C87.7207 49.1924 92.7887 40.5473 103.173 33.4194C103.402 33.262 103.632 33.1068 103.866 32.9516C119.387 22.6407 139.912 20.1933 157.142 23.2222L158.127 78.6921C140.897 75.6632 120.373 78.1095 104.851 88.4215C104.617 88.5767 104.387 88.733 104.158 88.8894C93.7736 96.0183 88.7066 104.663 88.7262 114.519C88.7262 114.649 88.7273 114.78 88.7295 114.911Z" fill="#FF5353"/>
<path d="M122.949 105.469L121.964 49.9991C121.938 48.5169 122.834 47.0751 124.603 45.8618C128.314 43.3139 133.6 43.3139 138.028 46.1362L139.013 101.606C134.585 98.7838 129.3 98.7838 125.587 101.332C123.819 102.545 122.923 103.987 122.949 105.469Z" fill="#FF5353"/>
<path d="M208.228 48.9115L209.213 104.381C207.2 104.773 205.293 105.142 203.295 105.523L202.31 50.0526C204.308 49.6723 206.215 49.3028 208.228 48.9115Z" fill="#FF5353"/>
<path d="M171.579 51.0375L172.564 106.507L166.359 94.546L165.374 39.0761L171.579 51.0375Z" fill="#FF5353"/>
<path d="M194.216 47.5145L195.201 102.984L190.172 106.437L189.186 50.9675L194.216 47.5145Z" fill="#FF5353"/>
<path d="M229.089 51.0452L230.074 91.2056C227.595 91.3509 225.338 91.4854 223.109 91.6308L222.124 51.4704C224.352 51.325 226.61 51.1905 229.089 51.0452Z" fill="#FF5353"/>
<path d="M189.186 50.9675L190.172 106.437L183.937 110.717L182.952 55.2469L189.186 50.9675Z" fill="#FF5353"/>
<path d="M229.373 55.8076L228.556 95.9681L227.729 93.548L229.373 55.812V55.8076Z" fill="#FF4081"/>
<path d="M209.295 56.4351L210.279 111.905C210.236 109.424 209.881 106.918 209.213 104.382L208.228 48.9126C208.896 51.4474 209.25 53.9538 209.295 56.4351Z" fill="#FF5353"/>
<path d="M196.198 56.7575L197.183 112.227C197.127 109.027 196.427 105.915 195.201 102.984L194.216 47.5145C195.443 50.4451 196.142 53.557 196.198 56.7575Z" fill="#FF5353"/>
<path d="M109.946 106.738L108.961 51.2681C109.015 54.2478 110.612 57.2527 114.08 59.9482L115.065 115.418C111.597 112.723 109.999 109.718 109.946 106.738Z" fill="#FF5353"/>
<path d="M182.952 55.2469L183.937 110.717L177.71 114.992L176.725 59.5219L182.952 55.2469Z" fill="#FF5353"/>
<path d="M159.934 60.1023L160.92 115.572L139.012 101.606L138.027 46.1362L159.934 60.1023Z" fill="#FF5353"/>
<path d="M115.828 61.1724L116.813 116.642C116.179 116.238 115.592 115.833 115.063 115.417L114.079 59.9471C114.606 60.3636 115.194 60.768 115.828 61.1724Z" fill="#FF5353"/>
<path d="M176.725 59.5219L177.71 114.992L176.626 115.736L175.641 60.2663L176.725 59.5219Z" fill="#FF5353"/>
<path d="M163.414 64.8211L164.399 120.291C164.37 118.693 163.233 117.047 160.919 115.572L159.934 60.1023C162.248 61.5769 163.386 63.223 163.414 64.8211Z" fill="#FF5353"/>
<path d="M216.204 56.2427L217.189 111.713C217.239 114.54 216.973 117.447 216.401 120.429L215.416 64.9588C215.988 61.9769 216.254 59.0704 216.204 56.2427Z" fill="#FF5353"/>
<path d="M220.001 69.7749L220.985 109.935C218.913 109.69 217.007 109.473 215.034 109.241L214.049 69.0808C216.022 69.3125 217.927 69.53 220.001 69.7749Z" fill="#FF5353"/>
<path d="M137.079 74.7199L138.064 130.19L116.813 116.642L115.828 61.1724L137.079 74.7199Z" fill="#FF5353"/>
<path d="M214.048 69.0808L215.033 116.896C214.179 118.655 213.347 120.368 212.486 122.071C212.183 122.652 212.002 122.99 211.736 123.172C211.369 123.424 210.842 123.381 209.609 123.277C208.016 123.148 206.422 123.019 204.593 122.871L203.608 75.0555C205.437 75.2052 207.031 75.3331 208.625 75.4621C209.857 75.5659 210.385 75.6086 210.751 75.3572C211.017 75.1746 211.198 74.8369 211.501 74.2553C212.362 72.5523 213.195 70.8395 214.048 69.0808Z" fill="#FF5353"/>
<path d="M176.354 63.6559L177.339 119.126C177.408 122.995 174.837 126.828 170.38 129.887C166.095 132.829 160.654 134.653 155.008 134.901C153.067 134.98 151.11 134.888 149.173 134.581L148.188 79.1108C150.125 79.4179 152.083 79.5097 154.023 79.431C159.669 79.1829 165.11 77.3586 169.395 74.4171C173.851 71.3576 176.423 67.5253 176.354 63.6559Z" fill="#FF5353"/>
<path d="M117.998 80.4399L118.984 135.911L114.732 133.2L113.747 77.7302L117.998 80.4399Z" fill="#FF5353"/>
<path d="M148.188 79.1108L149.173 134.581L146.635 136.323L145.651 80.8531L148.188 79.1108Z" fill="#FF5353"/>
<path d="M93.9109 82.2009L94.8957 137.671L93.8346 138.399L92.8498 82.9289L93.9109 82.2009Z" fill="#FF5353"/>
<path d="M81.756 115.06L80.7711 59.5897C80.9182 67.8784 84.9807 75.637 92.8498 82.9289L93.8346 138.399C85.9656 131.107 81.9031 123.348 81.756 115.06Z" fill="#FF5353"/>
<path d="M145.651 80.8531L146.635 136.323L142.72 139.011L141.735 83.5399L145.651 80.8531Z" fill="#FF5353"/>
<path d="M123.571 83.9924L124.557 139.463L118.984 135.911L117.998 80.4399L123.571 83.9924Z" fill="#FF5353"/>
<path d="M149.186 88.2904L150.171 143.76L148.619 144.825L147.634 89.355L149.186 88.2904Z" fill="#FF5353"/>
<path d="M99.698 93.3567L100.684 133.517L94.8957 122.361L93.9109 82.2009L99.698 93.3567Z" fill="#FF5353"/>
<path d="M132.647 89.7791L133.633 129.94L129.062 133.077L128.077 92.9162L132.647 89.7791Z" fill="#FF5353"/>
<path d="M138.991 93.8224L139.976 139.34L133.633 135.296L132.647 89.7791L138.991 93.8224Z" fill="#FF5353"/>
<path d="M147.634 89.355L148.619 129.515L142.099 133.992L141.114 93.8311L147.634 89.355Z" fill="#FF5353"/>
<path d="M203.122 56.564L204.107 112.034C204.262 120.808 199.13 122.192 190.982 129.736C189.114 131.465 188.242 134.841 186.083 136.323C179.544 140.811 171.875 128.528 162.755 130.717C149.344 133.93 135.687 133.896 123.634 131.426L122.649 96.6425C134.702 99.1117 148.359 99.1456 161.77 95.9331C170.891 93.7448 178.753 90.3912 185.291 85.9031C187.45 84.4209 189.465 82.8152 191.334 81.0859C199.481 73.5427 203.278 65.3392 203.122 56.564Z" fill="#FF5353"/>
<path d="M207.789 79.7349L208.774 119.895C205.4 124.294 201.11 128.128 196.111 131.691L195.126 91.5302C200.124 87.9668 204.414 84.1323 207.789 79.7349Z" fill="#FF5353"/>
<path d="M194.74 97.3738L195.725 132.157L186.42 133.403L185.434 91.4417L194.74 97.3738Z" fill="#FF5353"/>
<path d="M122.648 96.6425L123.633 131.426L118.853 134.709L117.867 99.925L122.648 96.6425Z" fill="#FF5353"/>
<path d="M68.6446 99.2965L67.6597 59.136C67.7 61.3867 67.968 63.6745 68.4703 66.0016C71.6961 80.9581 83.2801 92.4396 102.599 100.23C104.488 100.995 106.406 101.7 108.331 102.329L109.316 142.489C107.391 141.859 105.472 141.156 103.584 140.39C84.265 132.6 72.6809 121.118 69.4551 106.162C68.9529 103.835 68.6838 101.547 68.6446 99.2965Z" fill="#FF5353"/>
<path d="M112.521 103.594L113.507 138.378L112.444 139.107L111.46 104.323L112.521 103.594Z" fill="#FF5353"/>
<path d="M111.46 103.292L112.444 139.107L109.314 137.111L108.33 102.329L111.46 103.292Z" fill="#FF5353"/>
<path d="M185.177 97.2786L186.161 132.062C177.168 136.477 167.363 139.398 156.656 140.825C141.503 142.849 127.028 142.124 113.507 138.378L112.522 103.594C126.043 107.339 140.519 108.065 155.671 106.042C166.378 104.614 176.183 101.694 185.177 97.2786Z" fill="#FF5353"/>
<path d="M135.981 115.86C132.201 115.554 128.521 115.361 124.892 114.942C106.497 112.774 90.6153 107.384 78.0257 98.3717C62.5927 87.3241 54.7716 74.7298 54.5243 60.7658L55.5092 93.2715C55.7576 107.235 64.8366 120.73 79.0106 130.877C91.6002 139.891 107.482 145.281 125.877 147.448C129.506 147.868 133.186 148.06 136.966 148.366L135.981 115.86Z" fill="#FF5353"/>
<path d="M229.373 55.812C229.352 56.7564 229.385 57.7041 229.319 58.6485C228.565 70.7488 222.832 81.768 211.825 91.6384C210.466 92.8648 209.053 94.0672 207.663 95.2849L200.841 99.9676C198.412 101.271 196.046 102.633 193.555 103.867C178.611 111.275 161.87 115.197 143.418 115.756L144.403 148.262C162.854 147.703 179.594 143.781 194.54 136.372C197.03 135.138 199.397 133.776 201.825 132.473L208.647 127.791C210.038 126.574 211.451 125.371 212.81 124.144C223.79 114.24 229.549 103.254 230.303 91.1542C230.37 90.2098 230.337 89.261 230.358 88.3177L229.373 55.812Z" fill="#FF5353"/>
<path d="M143.59 143.717C143.697 145.26 143.789 146.754 144.403 148.263L143.418 115.757C142.804 114.249 142.712 112.755 142.606 111.211L143.59 143.717Z" fill="#FF5353"/>
<path fill-rule="evenodd" clip-rule="evenodd" d="M78.0257 98.3717C90.6153 107.384 106.496 112.774 124.892 114.942C127.371 115.228 129.874 115.408 132.417 115.592C133.597 115.678 134.786 115.763 135.985 115.861C135.933 114.75 135.875 113.727 135.818 112.71C135.789 112.193 135.759 111.678 135.731 111.153C118.13 110.42 102.286 106.41 88.7927 98.7445C75.3065 91.0733 66.5768 81.4313 63.1581 69.8011C58.0879 52.523 64.6463 37.0451 81.914 23.2211L86.3414 26.0434C71.5926 37.7753 65.2619 51.1151 68.4724 66.0016C71.6983 80.9581 83.2823 92.4396 102.601 100.23C104.489 100.995 106.408 101.699 108.333 102.329L112.524 103.595C126.045 107.341 140.52 108.066 155.673 106.043C166.38 104.615 176.185 101.695 185.179 97.2797C184.756 97.0099 184.343 96.7538 183.942 96.5048C182.983 95.9096 182.089 95.3547 181.27 94.7482C180.46 94.1525 179.824 94.2148 178.865 94.6509C173.13 97.2841 166.886 99.1948 160.243 100.562C146.153 103.473 131.219 103.094 117.87 99.9272L122.651 96.6447C134.704 99.115 148.361 99.1489 161.772 95.9353C170.892 93.7459 178.754 90.3934 185.293 85.9053C187.453 84.4231 189.468 82.8174 191.336 81.0881C201.468 71.7063 204.871 61.3058 202.313 50.0548C204.311 49.6733 206.218 49.3039 208.231 48.9126C210.607 57.9337 209.014 66.5766 203.611 75.0555C205.44 75.2041 207.034 75.3331 208.628 75.4621C209.86 75.5659 210.387 75.6086 210.754 75.3572C211.02 75.1746 211.201 74.8369 211.504 74.2554C212.351 72.582 213.168 70.8992 214.007 69.1727L214.007 69.1726L214.007 69.1718L214.009 69.1672L214.01 69.166L214.051 69.0808C214.917 69.1824 215.77 69.2813 216.629 69.381C217.729 69.5086 218.839 69.6374 220.003 69.7749C216.392 79.1457 209.606 87.2913 199.487 94.3077L195.129 91.5291C200.127 87.9668 204.416 84.1323 207.791 79.7338C207.242 79.6884 206.705 79.6454 206.176 79.6031L206.175 79.6031L206.175 79.6031L206.175 79.603L206.174 79.603L206.174 79.6029L206.173 79.6029C204.629 79.4793 203.161 79.3619 201.697 79.208C201.054 79.1381 200.638 79.2124 200.282 79.4573C200.145 79.5502 200.018 79.6682 199.891 79.8114C197.089 82.9463 193.827 85.8441 190.027 88.4532C188.978 89.1735 187.887 89.8709 186.754 90.5464C186.573 90.6547 186.402 90.7672 186.231 90.8842C186.099 90.9745 185.967 91.0677 185.831 91.1637C185.704 91.2536 185.573 91.3459 185.436 91.4406L194.741 97.3727C179.665 106.084 162.317 110.626 142.608 111.21L142.615 111.311C142.719 112.82 142.82 114.281 143.42 115.756C161.872 115.197 178.613 111.275 193.558 103.867C195.246 103.03 196.878 102.134 198.51 101.238C199.285 100.813 200.061 100.387 200.843 99.9676L207.665 95.2849C208.128 94.8792 208.594 94.4752 209.059 94.0715C209.991 93.2634 210.921 92.4562 211.828 91.6384C222.834 81.768 228.567 70.7488 229.321 58.6485C229.364 58.0347 229.365 57.4195 229.367 56.8047C229.367 56.4736 229.368 56.1426 229.375 55.812C229.375 55.7419 229.361 55.6703 229.343 55.5771C229.338 55.5514 229.333 55.5242 229.328 55.4948C229.319 55.4479 229.311 55.3957 229.302 55.3365C227.059 55.4611 224.845 55.5956 222.678 55.7289C222.559 56.7624 222.439 57.7908 222.319 58.8195L222.319 58.82L222.319 58.8244L222.315 58.8617L222.314 58.8619L222.314 58.8622L222.314 58.8624C222.053 61.1096 221.791 63.3584 221.53 65.6638C220.214 65.5172 219.006 65.3756 217.826 65.2374L217.82 65.2367L217.818 65.2365C217.013 65.1421 216.221 65.0494 215.418 64.9577C216.857 57.4615 216.36 50.4352 213.768 43.9577L218.384 40.7889L207.934 34.1266C203.908 29.128 198.363 24.5361 191.237 20.342C182.89 15.4297 173.425 12.3768 164.642 10.6749L163.659 8.7926L161.686 10.1469L155.971 14.0699L153.328 15.8844L154.511 18.1547C150.974 17.6935 147.254 17.3961 143.37 17.2431C143.346 16.4921 143.322 15.7359 143.297 14.9734L143.297 14.9668C143.231 12.9413 143.165 10.8721 143.093 8.74232C133.371 8.7762 124.049 10.0409 115.006 12.4795C106.015 14.9116 98.0507 18.4182 90.9236 22.9063L86.58 20.1376C92.3562 16.3042 98.9212 13.1922 106.168 10.7339C121.327 5.58444 137.291 3.7 153.98 5.05868C188.816 7.88645 218.2 26.2412 222.124 51.4714C224.352 51.3261 226.61 51.1916 229.089 51.0462C228.944 50.4357 228.811 49.8331 228.679 49.2366L228.679 49.2359L228.679 49.2349L228.679 49.2337L228.679 49.2336L228.678 49.2333C228.382 47.8937 228.093 46.5851 227.702 45.288C224.616 35.1672 217.943 26.2664 207.573 18.6291C207.327 18.4505 207.115 18.2483 206.908 18.0503C206.826 17.972 206.745 17.8944 206.663 17.8192L199.945 13.5365C199.839 13.4949 199.731 13.4569 199.624 13.4191L199.623 13.4191C199.398 13.3399 199.176 13.262 198.985 13.1539C190.725 8.54557 181.49 4.99091 171.096 2.91954C139.767 -3.34592 111.021 0.439374 85.484 14.634C83.0481 15.9861 80.7493 17.4049 78.5955 18.8838C67.7981 26.297 60.5653 35.258 57.0802 45.5022C50.2069 65.6627 57.1542 83.4306 78.0257 98.3717ZM89.2252 31.0245C90.8877 29.609 92.6275 28.2787 94.4382 27.0359C105.517 19.4303 119.349 15.0264 135.634 13.6283C135.975 13.5966 136.313 13.4895 136.33 13.484C136.437 14.9979 136.527 16.3009 136.616 17.6038C121.124 18.7548 108 23.5272 98.419 30.1041C90.5815 35.4842 85.1158 42.07 82.6613 48.871C78.285 60.9943 81.5185 72.0474 92.0763 82.1998C92.2132 82.3318 92.9523 82.9574 93.6426 83.5418C94.2267 84.0361 94.7759 84.501 94.8957 84.6122L99.698 93.3567C94.7116 90.7858 90.2743 87.7383 86.6062 84.2329C69.673 68.1047 70.6284 46.8423 89.2252 31.0245ZM157.141 23.2211C139.911 20.1922 119.387 22.6385 103.865 32.9505C103.631 33.1057 103.401 33.262 103.172 33.4183C92.7877 40.5473 87.7207 49.1924 87.7403 59.0464C87.7392 59.6542 87.7686 60.2608 87.8046 60.862L93.8357 56.7215L94.461 56.293L106.84 80.135L110.809 87.7799L112.72 91.4406L115.363 89.6261L119.806 86.5764L123.571 83.9924L117.998 80.4399L113.746 77.7291L117.737 74.9899L122.624 71.6353L122.836 71.491L125.453 73.1601L132.659 77.7543L135.242 75.9813L137.079 74.7199L115.828 61.1724C115.194 60.768 114.607 60.3636 114.079 59.9471C110.44 57.1193 108.86 53.9483 108.965 50.8254C109.025 48.5704 109.965 46.3395 111.649 44.2725C112.66 43.0231 113.929 41.8284 115.449 40.7342C115.615 40.6107 115.796 40.4861 115.976 40.3626C121.104 36.8429 127.871 34.9366 134.64 35.4241C139.018 35.7236 143.4 37.0309 147.338 39.5417L147.597 39.7067L168.589 53.0892L169.003 52.805L171.578 51.0375L165.373 39.076L162.804 34.1288L159.663 28.0885L157.141 23.2211ZM194.215 47.5156C198.056 56.6832 196.721 67.6346 186.738 77.4996C184.752 79.4551 182.575 81.2477 180.21 82.8698C173.142 87.722 164.411 91.046 154.088 92.6845C149.622 93.395 145.297 93.7677 141.111 93.8311L147.631 89.355L149.183 88.2903L144.099 85.0494L141.733 83.541L145.648 80.8531L148.186 79.1119C150.123 79.419 152.08 79.5108 154.021 79.4321C159.667 79.184 165.108 77.3597 169.393 74.4182C174.475 70.9302 177.105 66.4355 176.165 62.0283C176.068 61.4282 175.879 60.85 175.639 60.2674L176.723 59.523L182.95 55.248L189.185 50.9686L194.215 47.5156ZM175.719 31.9952L178.018 36.4407L180.378 40.966L181.917 43.9315L184.327 42.2776L188.874 39.1558L192.759 36.4888L182.943 30.2309L185.292 28.6187L189.599 25.6619C183.109 21.4252 175.706 18.2903 167.518 16.2211L170.296 21.5607L173.855 28.4055L175.719 31.9952ZM160.769 68.9179C157.064 71.4604 151.78 71.5609 147.352 68.7386L125.445 54.7736C121.017 51.9502 120.897 48.4054 124.602 45.8618C128.314 43.3139 133.599 43.3139 138.027 46.1362L159.934 60.1023C164.362 62.9246 164.48 66.37 160.769 68.9179ZM138.991 93.8224L132.648 89.778L128.078 92.9151C131.594 93.4737 135.237 93.7819 138.991 93.8224ZM201.843 42.2798L206.057 44.9655C204.914 45.1949 203.813 45.4126 202.754 45.622C202.193 45.7329 201.645 45.8415 201.107 45.9482C200.698 45.1786 200.265 44.4146 199.818 43.6702L201.843 42.2798Z" fill="#FFC9C9"/>
<path d="M221.019 195.921C221.267 195.921 221.267 195.672 221.516 195.423L223.505 148.383C223.505 148.134 223.256 147.885 223.256 147.885C223.008 147.885 222.759 148.134 222.759 148.383L220.77 195.423C220.522 195.921 220.77 195.921 221.019 195.921Z" fill="url(#paint0_linear)"/>
<path d="M120.833 243.957C121.082 243.957 121.082 243.708 121.082 243.459L120.585 198.908C120.585 198.659 120.336 198.41 120.336 198.41C120.088 198.41 120.088 198.659 120.088 198.908L120.585 243.459C120.585 243.708 120.585 243.957 120.833 243.957Z" fill="url(#paint1_linear)"/>
<path d="M77.5772 233.595C78.323 233.595 78.8201 232.848 78.8201 232.102L75.5884 138.021C75.5884 137.025 74.8426 136.527 74.0968 136.527C73.351 136.527 72.8538 137.274 72.8538 138.021L76.3342 232.102C76.3342 232.848 76.8314 233.595 77.5772 233.595Z" fill="url(#paint2_linear)"/>
<path d="M208.837 184.97C209.583 184.97 210.08 184.472 210.08 183.726L213.064 97.6093C213.064 96.8626 212.566 96.116 211.821 96.116C211.075 96.116 210.578 96.8626 210.578 97.6093L207.594 183.726C207.594 184.223 208.092 184.97 208.837 184.97Z" fill="url(#paint3_linear)"/>
<path d="M126.8 210.374C127.546 210.374 128.043 209.876 128.043 209.13L127.297 106.587C127.297 105.84 126.551 105.093 125.805 105.093C125.06 105.093 124.314 105.84 124.314 106.587L125.308 209.13C125.557 209.628 126.054 210.374 126.8 210.374Z" fill="url(#paint4_linear)"/>
<path d="M91.7473 200.285L89.2613 112.676C89.2613 111.68 88.5155 110.934 87.7697 110.934C87.0239 110.934 86.2781 111.68 86.2781 112.676L88.7641 200.285H91.7473Z" fill="url(#paint5_linear)"/>
<path d="M91.9959 221.308C91.7473 221.308 91.7473 221.059 91.7473 221.059L90.7529 186.214C90.7529 185.966 90.7529 185.966 91.0015 185.966C91.2501 185.966 91.2501 186.214 91.2501 186.214L92.2445 221.059C92.2445 221.308 92.2445 221.308 91.9959 221.308Z" fill="url(#paint6_linear)"/>
<path d="M104.923 101.343C104.674 101.343 104.674 101.094 104.674 101.094L103.929 61.5201C103.929 61.2712 104.177 61.2712 104.177 61.2712C104.426 61.2712 104.426 61.5201 104.426 61.5201L105.172 101.094C105.172 101.343 104.923 101.343 104.923 101.343Z" fill="url(#paint7_linear)"/>
<path d="M197.153 193.183V218.073C196.656 218.073 196.159 217.575 196.159 217.077L198.148 146.641C198.148 145.894 198.645 145.396 199.142 145.396C199.639 145.396 200.136 145.894 200.136 146.641L197.899 217.077C198.148 217.575 197.899 193.183 197.153 193.183Z" fill="url(#paint8_linear)"/>
<path d="M65.6444 178.748C65.1472 178.748 64.65 178.25 64.65 177.752L61.9154 111.796C61.9154 111.298 62.164 110.801 62.9098 110.801C63.407 110.801 63.9042 111.298 63.9042 111.796L66.6388 177.503C66.3902 178.25 66.1416 178.748 65.6444 178.748Z" fill="url(#paint9_linear)"/>
<path d="M159.366 187.459C158.62 187.459 158.372 186.961 158.372 186.463L158.869 111.547C158.869 111.049 159.366 110.552 159.863 110.552H160.112C160.609 110.552 161.106 111.049 161.106 111.547L160.112 186.463C160.112 186.961 159.863 187.459 159.366 187.459Z" fill="url(#paint10_linear)"/>
<path d="M160.112 238.979L160.609 177.254C160.609 176.508 161.106 176.01 161.604 176.01C162.101 176.01 162.598 176.508 162.598 177.254L161.852 238.979H160.112Z" fill="url(#paint11_linear)"/>
<path opacity="0.9" d="M148.158 188.438C148.158 190.585 146.374 192.016 144.59 192.016C142.449 192.016 141.022 190.227 141.022 188.438C141.022 186.648 142.806 184.859 144.59 184.859C146.374 184.859 148.158 186.291 148.158 188.438Z" fill="#FF5353"/>
<path opacity="0.3" d="M99.6342 158.736C99.6342 160.167 98.5638 160.883 97.4935 160.883C96.0663 160.883 95.3527 159.809 95.3527 158.736C95.3527 157.304 96.4231 156.588 97.4935 156.588C98.5638 156.588 99.6342 157.662 99.6342 158.736Z" fill="#FF5353"/>
<path opacity="0.2" d="M115.69 132.612C115.69 134.043 114.62 135.117 113.192 135.117C111.765 135.117 110.695 134.043 110.695 132.612C110.695 131.181 111.765 130.107 113.192 130.107C114.62 130.107 115.69 131.181 115.69 132.612Z" fill="#FF5353"/>
<path opacity="0.2" d="M183.837 124.023C183.837 124.739 183.124 125.455 182.41 125.455C181.697 125.455 180.983 124.739 180.983 124.023C180.983 123.308 181.697 122.592 182.41 122.592C183.124 122.592 183.837 123.308 183.837 124.023Z" fill="#FF5353"/>
<path opacity="0.2" d="M179.913 116.151C179.913 117.94 178.486 119.371 176.702 119.371C174.918 119.371 173.49 117.94 173.49 116.151C173.49 114.361 174.918 112.93 176.702 112.93C178.486 113.288 179.913 114.361 179.913 116.151Z" fill="#FF5353"/>
<path opacity="0.2" d="M107.127 129.391C107.915 129.391 108.554 128.75 108.554 127.96C108.554 127.169 107.915 126.528 107.127 126.528C106.339 126.528 105.7 127.169 105.7 127.96C105.7 128.75 106.339 129.391 107.127 129.391Z" fill="#FF5353"/>
<path opacity="0.3" d="M106.77 200.963C106.77 202.394 105.7 203.11 104.629 203.11C103.202 203.11 102.489 202.036 102.489 200.963C102.489 199.889 103.559 198.816 104.629 198.816C105.7 198.816 106.77 199.889 106.77 200.963Z" fill="#FF5353"/>
<path opacity="0.2" d="M122.826 174.839C122.826 176.271 121.755 177.344 120.328 177.344C118.901 177.344 117.831 176.271 117.831 174.839C117.831 173.408 118.901 172.334 120.328 172.334C121.755 172.692 122.826 173.766 122.826 174.839Z" fill="#FF5353"/>
<path opacity="0.2" d="M114.263 171.618C115.051 171.618 115.69 170.978 115.69 170.187C115.69 169.396 115.051 168.756 114.263 168.756C113.475 168.756 112.836 169.396 112.836 170.187C112.836 170.978 113.475 171.618 114.263 171.618Z" fill="#FF5353"/>
<path opacity="0.9" d="M136.027 151.221C136.384 153.01 138.168 154.083 139.952 153.726C141.736 153.368 142.806 151.578 142.449 149.789C142.093 148 140.309 146.926 138.525 147.284C136.384 147.642 135.314 149.431 136.027 151.221Z" fill="#FF5353"/>
<path opacity="0.3" d="M170.993 115.077C171.35 116.151 172.42 116.866 173.49 116.508C174.561 116.151 175.274 115.077 174.918 114.003C174.561 112.93 173.49 112.214 172.42 112.572C171.35 112.572 170.993 114.003 170.993 115.077Z" fill="#FF5353"/>
<path opacity="0.2" d="M151.369 96.1105C151.726 97.1841 152.796 97.8998 153.867 97.542C154.937 97.1841 155.651 96.1105 155.294 95.037C154.937 93.9634 153.867 93.2477 152.796 93.6055C151.726 93.6055 151.369 95.037 151.369 96.1105Z" fill="#FF5353"/>
<path opacity="0.2" d="M91.0712 103.626C91.428 104.341 92.1416 104.699 92.8552 104.699C93.5687 104.341 93.9255 103.626 93.9255 102.91C93.5687 102.194 92.8552 101.836 92.1416 101.836C91.428 102.194 90.7144 102.91 91.0712 103.626Z" fill="#FF5353"/>
<path opacity="0.2" d="M92.4984 96.1105C92.8552 97.542 94.2823 98.6155 95.7095 98.2577C97.1367 97.8998 98.2071 96.4684 97.8503 95.037C97.4935 93.6055 96.0663 92.532 94.6391 92.8898C93.212 92.8898 92.1416 94.6791 92.4984 96.1105Z" fill="#FF5353"/>
<path opacity="0.2" d="M156.721 90.3848C157.078 91.1005 157.792 91.4584 158.505 91.4584C159.219 91.1005 159.575 90.3848 159.575 89.6691C159.219 88.9534 158.505 88.5955 157.792 88.5955C157.078 88.9534 156.364 89.6691 156.721 90.3848Z" fill="#FF5353"/>
<path opacity="0.2" d="M172.777 202.394C172.063 202.752 171.35 202.752 170.636 202.394C170.279 201.678 170.279 200.963 170.636 200.247C171.35 199.889 172.063 199.889 172.777 200.247C173.49 200.963 173.49 202.036 172.777 202.394Z" fill="#FF5353"/>
<path opacity="0.2" d="M176.345 194.521C174.918 195.595 173.134 195.595 172.063 194.163C170.993 192.732 170.993 190.943 172.42 189.869C173.847 188.796 175.631 188.796 176.702 190.227C177.772 191.301 177.415 193.448 176.345 194.521Z" fill="#FF5353"/>
<path opacity="0.3" d="M171.35 187.006C170.636 188.08 170.993 189.153 171.706 189.869C172.777 190.585 173.847 190.227 174.561 189.511C175.274 188.438 174.918 187.364 174.204 186.648C173.49 185.933 172.063 185.933 171.35 187.006Z" fill="#FF5353"/>
<path opacity="0.2" d="M173.134 159.451C172.42 160.525 172.777 161.598 173.49 162.314C174.561 163.03 175.631 162.672 176.345 161.956C177.058 160.883 176.702 159.809 175.988 159.093C175.274 158.378 173.847 158.736 173.134 159.451Z" fill="#FF5353"/>
<path opacity="0.2" d="M180.983 159.809C180.626 160.525 180.626 161.241 181.34 161.598C182.053 161.956 182.767 161.956 183.124 161.241C183.481 160.525 183.481 159.809 182.767 159.451C182.053 159.093 181.34 159.451 180.983 159.809Z" fill="#FF5353"/>
<path d="M126.751 226.371C127.107 228.16 128.891 229.233 130.675 228.876C132.459 228.518 133.53 226.728 133.173 224.939C132.816 223.15 131.032 222.076 129.248 222.434C127.464 222.792 126.394 224.581 126.751 226.371Z" fill="#FF5353"/>
<path d="M136.384 208.478C136.741 209.909 137.811 210.625 139.238 210.267C140.665 209.909 141.379 208.836 141.022 207.404C140.665 205.973 139.595 205.257 138.168 205.615C136.741 205.973 136.027 207.046 136.384 208.478Z" fill="#FF5353"/>
<path opacity="0.9" d="M148.158 144.002C148.158 146.149 146.374 147.58 144.59 147.58C142.449 147.58 141.022 145.791 141.022 144.002C141.022 142.212 142.806 140.423 144.59 140.423C146.374 140.423 148.158 142.212 148.158 144.002Z" fill="#FF5353"/>
<path opacity="0.3" d="M99.6342 114.299C99.6342 115.731 98.5638 116.447 97.4935 116.447C96.0663 116.447 95.3527 115.373 95.3527 114.299C95.3527 112.868 96.4231 112.152 97.4935 112.152C98.5638 112.152 99.6342 113.226 99.6342 114.299Z" fill="#FF5353"/>
<path opacity="0.2" d="M115.69 88.1759C115.69 89.6073 114.62 90.6809 113.192 90.6809C111.765 90.6809 110.695 89.6073 110.695 88.1759C110.695 86.7445 111.765 85.6709 113.192 85.6709C114.62 85.6709 115.69 86.7445 115.69 88.1759Z" fill="#FF5353"/>
<path opacity="0.2" d="M183.837 79.5873C183.837 80.303 183.124 81.0187 182.41 81.0187C181.697 81.0187 180.983 80.303 180.983 79.5873C180.983 78.8716 181.697 78.1559 182.41 78.1559C183.124 78.1559 183.837 78.8716 183.837 79.5873Z" fill="#FF5353"/>
<path opacity="0.2" d="M177.058 74.9352C178.832 74.9352 180.27 73.4932 180.27 71.7145C180.27 69.9357 178.832 68.4937 177.058 68.4937C175.285 68.4937 173.847 69.9357 173.847 71.7145C173.847 73.4932 175.285 74.9352 177.058 74.9352Z" fill="#FF5353"/>
<path opacity="0.2" d="M107.127 84.9552C107.915 84.9552 108.554 84.3143 108.554 83.5237C108.554 82.7332 107.915 82.0923 107.127 82.0923C106.339 82.0923 105.7 82.7332 105.7 83.5237C105.7 84.3143 106.339 84.9552 107.127 84.9552Z" fill="#FF5353"/>
<path opacity="0.3" d="M106.77 156.527C106.77 157.958 105.7 158.674 104.629 158.674C103.202 158.674 102.489 157.6 102.489 156.527C102.489 155.095 103.559 154.379 104.629 154.379C105.7 154.379 106.77 155.453 106.77 156.527Z" fill="#FF5353"/>
<path opacity="0.2" d="M122.826 130.403C122.826 131.834 121.755 132.908 120.328 132.908C118.901 132.908 117.831 131.834 117.831 130.403C117.831 128.972 118.901 127.898 120.328 127.898C121.755 128.256 122.826 129.329 122.826 130.403Z" fill="#FF5353"/>
<path opacity="0.2" d="M114.263 127.182C115.051 127.182 115.69 126.541 115.69 125.751C115.69 124.96 115.051 124.319 114.263 124.319C113.475 124.319 112.836 124.96 112.836 125.751C112.836 126.541 113.475 127.182 114.263 127.182Z" fill="#FF5353"/>
<path opacity="0.9" d="M136.027 106.784C136.384 108.574 138.168 109.647 139.952 109.289C141.736 108.932 142.806 107.142 142.449 105.353C142.093 103.564 140.309 102.49 138.525 102.848C136.384 103.206 135.314 104.995 136.027 106.784Z" fill="#FF5353"/>
<path opacity="0.3" d="M170.993 70.6409C171.35 71.7145 172.42 72.4302 173.49 72.0723C174.561 71.7145 175.274 70.6409 174.918 69.5673C174.561 68.4937 173.49 67.778 172.42 68.1359C171.35 68.4937 170.993 69.5673 170.993 70.6409Z" fill="#FF5353"/>
<path opacity="0.2" d="M151.369 51.6745C151.726 52.748 152.796 53.4637 153.867 53.1059C154.937 52.748 155.651 51.6745 155.294 50.6009C154.937 49.5273 153.867 48.8116 152.796 49.1695C151.726 49.1695 151.369 50.6009 151.369 51.6745Z" fill="#FF5353"/>
<path opacity="0.2" d="M91.0712 59.1895C91.428 59.9052 92.1416 60.263 92.8552 60.263C93.5687 59.9052 93.9255 59.1895 93.9255 58.4737C93.5687 57.758 92.8552 57.4002 92.1416 57.4002C91.428 57.758 90.7144 58.4737 91.0712 59.1895Z" fill="#FF5353"/>
<path opacity="0.2" d="M92.4984 51.6745C92.8552 53.1059 94.2823 54.1795 95.7095 53.8216C97.1367 53.4637 98.2071 52.0323 97.8503 50.6009C97.4935 49.1695 96.0663 48.0959 94.6391 48.4537C93.212 48.8116 92.1416 50.243 92.4984 51.6745Z" fill="#FF5353"/>
<path opacity="0.2" d="M156.721 45.9487C157.078 46.6645 157.792 47.0223 158.505 47.0223C159.219 46.6645 159.575 45.9487 159.575 45.233C159.219 44.5173 158.505 44.1595 157.792 44.1595C157.078 44.1595 156.364 45.233 156.721 45.9487Z" fill="#FF5353"/>
<path opacity="0.2" d="M172.777 157.958C172.063 158.316 171.35 158.316 170.636 157.958C170.279 157.242 170.279 156.527 170.636 155.811C171.35 155.453 172.063 155.453 172.777 155.811C173.49 156.527 173.49 157.6 172.777 157.958Z" fill="#FF5353"/>
<path opacity="0.2" d="M176.345 150.085C174.918 151.159 173.134 151.159 172.063 149.727C170.993 148.296 170.993 146.507 172.42 145.433C173.847 144.359 175.631 144.359 176.702 145.791C177.772 147.222 177.415 149.012 176.345 150.085Z" fill="#FF5353"/>
<path opacity="0.3" d="M171.35 142.57C170.636 143.644 170.993 144.717 171.706 145.433C172.777 146.149 173.847 145.791 174.561 145.075C175.274 144.002 174.918 142.928 174.204 142.212C173.49 141.497 172.063 141.497 171.35 142.57Z" fill="#FF5353"/>
<path opacity="0.2" d="M173.134 115.373C172.42 116.447 172.777 117.52 173.49 118.236C174.561 118.952 175.631 118.594 176.345 117.878C177.058 116.804 176.702 115.731 175.988 115.015C175.274 113.942 173.847 114.299 173.134 115.373Z" fill="#FF5353"/>
<path opacity="0.2" d="M180.983 115.373C180.626 116.089 180.626 116.804 181.34 117.162C182.053 117.52 182.767 117.52 183.124 116.804C183.481 116.089 183.481 115.373 182.767 115.015C182.053 114.657 181.34 115.015 180.983 115.373Z" fill="#FF5353"/>
<path d="M126.751 181.934C127.107 183.724 128.891 184.797 130.675 184.439C132.459 184.082 133.53 182.292 133.173 180.503C132.816 178.714 131.032 177.64 129.248 177.998C127.464 178.356 126.394 180.145 126.751 181.934Z" fill="#FF5353"/>
<path d="M136.384 164.042C136.741 165.473 137.811 166.189 139.238 165.831C140.665 165.473 141.379 164.399 141.022 162.968C140.665 161.537 139.595 160.821 138.168 161.179C136.741 161.537 136.027 162.968 136.384 164.042Z" fill="#FF5353"/>
<path opacity="0.6" d="M77.6839 227.949C77.6839 227.949 85.0119 264.775 145.994 264.438C191.019 264.188 205.524 234.922 205.524 234.922L224.134 95.9897L61.5016 95.9897L77.6839 227.949Z" fill="url(#paint12_linear)"/>
<path d="M55.024 512.2C57.168 512.2 58.848 512.712 60.064 513.736C61.28 514.76 61.888 516.168 61.888 517.96C61.888 519.752 61.28 521.16 60.064 522.184C58.848 523.192 57.168 523.696 55.024 523.696H50.512V529H48.736V512.2H55.024ZM54.976 522.136C56.64 522.136 57.912 521.776 58.792 521.056C59.672 520.32 60.112 519.288 60.112 517.96C60.112 516.6 59.672 515.56 58.792 514.84C57.912 514.104 56.64 513.736 54.976 513.736H50.512V522.136H54.976ZM69.667 516.28C71.315 516.28 72.579 516.696 73.459 517.528C74.339 518.344 74.779 519.56 74.779 521.176V529H73.147V527.032C72.763 527.688 72.195 528.2 71.443 528.568C70.707 528.936 69.827 529.12 68.803 529.12C67.395 529.12 66.275 528.784 65.443 528.112C64.611 527.44 64.195 526.552 64.195 525.448C64.195 524.376 64.579 523.512 65.347 522.856C66.131 522.2 67.371 521.872 69.067 521.872H73.075V521.104C73.075 520.016 72.771 519.192 72.163 518.632C71.555 518.056 70.667 517.768 69.499 517.768C68.699 517.768 67.931 517.904 67.195 518.176C66.459 518.432 65.827 518.792 65.299 519.256L64.531 517.984C65.171 517.44 65.939 517.024 66.835 516.736C67.731 516.432 68.675 516.28 69.667 516.28ZM69.067 527.776C70.027 527.776 70.851 527.56 71.539 527.128C72.227 526.68 72.739 526.04 73.075 525.208V523.144H69.115C66.955 523.144 65.875 523.896 65.875 525.4C65.875 526.136 66.155 526.72 66.715 527.152C67.275 527.568 68.059 527.776 69.067 527.776ZM91.1421 516.376V527.464C91.1421 529.608 90.6141 531.192 89.5581 532.216C88.5181 533.256 86.9421 533.776 84.8301 533.776C83.6621 533.776 82.5501 533.6 81.4941 533.248C80.4541 532.912 79.6061 532.44 78.9501 531.832L79.8141 530.536C80.4221 531.08 81.1581 531.504 82.0221 531.808C82.9021 532.112 83.8221 532.264 84.7821 532.264C86.3821 532.264 87.5581 531.888 88.3101 531.136C89.0621 530.4 89.4381 529.248 89.4381 527.68V526.072C88.9101 526.872 88.2141 527.48 87.3501 527.896C86.5021 528.312 85.5581 528.52 84.5181 528.52C83.3341 528.52 82.2541 528.264 81.2781 527.752C80.3181 527.224 79.5581 526.496 78.9981 525.568C78.4541 524.624 78.1821 523.56 78.1821 522.376C78.1821 521.192 78.4541 520.136 78.9981 519.208C79.5581 518.28 80.3181 517.56 81.2781 517.048C82.2381 516.536 83.3181 516.28 84.5181 516.28C85.5901 516.28 86.5581 516.496 87.4221 516.928C88.2861 517.36 88.9821 517.984 89.5101 518.8V516.376H91.1421ZM84.6861 527.008C85.5981 527.008 86.4221 526.816 87.1581 526.432C87.8941 526.032 88.4621 525.48 88.8621 524.776C89.2781 524.072 89.4861 523.272 89.4861 522.376C89.4861 521.48 89.2781 520.688 88.8621 520C88.4621 519.296 87.8941 518.752 87.1581 518.368C86.4381 517.968 85.6141 517.768 84.6861 517.768C83.7741 517.768 82.9501 517.96 82.2141 518.344C81.4941 518.728 80.9261 519.272 80.5101 519.976C80.1101 520.68 79.9101 521.48 79.9101 522.376C79.9101 523.272 80.1101 524.072 80.5101 524.776C80.9261 525.48 81.4941 526.032 82.2141 526.432C82.9501 526.816 83.7741 527.008 84.6861 527.008ZM106.899 523.216H96.3393C96.4353 524.528 96.9393 525.592 97.8513 526.408C98.7633 527.208 99.9153 527.608 101.307 527.608C102.091 527.608 102.811 527.472 103.467 527.2C104.123 526.912 104.691 526.496 105.171 525.952L106.131 527.056C105.571 527.728 104.867 528.24 104.019 528.592C103.187 528.944 102.267 529.12 101.259 529.12C99.9633 529.12 98.8113 528.848 97.8033 528.304C96.8113 527.744 96.0353 526.976 95.4753 526C94.9153 525.024 94.6353 523.92 94.6353 522.688C94.6353 521.456 94.8993 520.352 95.4273 519.376C95.9713 518.4 96.7073 517.64 97.6353 517.096C98.5793 516.552 99.6353 516.28 100.803 516.28C101.971 516.28 103.019 516.552 103.947 517.096C104.875 517.64 105.603 518.4 106.131 519.376C106.659 520.336 106.923 521.44 106.923 522.688L106.899 523.216ZM100.803 517.744C99.5873 517.744 98.5633 518.136 97.7313 518.92C96.9153 519.688 96.4513 520.696 96.3393 521.944H105.291C105.179 520.696 104.707 519.688 103.875 518.92C103.059 518.136 102.035 517.744 100.803 517.744ZM131.073 512.2V529H129.609L118.809 515.368V529H117.033V512.2H118.497L129.321 525.832V512.2H131.073ZM141.356 529.12C140.14 529.12 139.044 528.848 138.068 528.304C137.092 527.744 136.324 526.976 135.764 526C135.204 525.024 134.924 523.92 134.924 522.688C134.924 521.456 135.204 520.352 135.764 519.376C136.324 518.4 137.092 517.64 138.068 517.096C139.044 516.552 140.14 516.28 141.356 516.28C142.572 516.28 143.668 516.552 144.644 517.096C145.62 517.64 146.38 518.4 146.924 519.376C147.484 520.352 147.764 521.456 147.764 522.688C147.764 523.92 147.484 525.024 146.924 526C146.38 526.976 145.62 527.744 144.644 528.304C143.668 528.848 142.572 529.12 141.356 529.12ZM141.356 527.608C142.252 527.608 143.052 527.408 143.756 527.008C144.476 526.592 145.036 526.008 145.436 525.256C145.836 524.504 146.036 523.648 146.036 522.688C146.036 521.728 145.836 520.872 145.436 520.12C145.036 519.368 144.476 518.792 143.756 518.392C143.052 517.976 142.252 517.768 141.356 517.768C140.46 517.768 139.652 517.976 138.932 518.392C138.228 518.792 137.668 519.368 137.252 520.12C136.852 520.872 136.652 521.728 136.652 522.688C136.652 523.648 136.852 524.504 137.252 525.256C137.668 526.008 138.228 526.592 138.932 527.008C139.652 527.408 140.46 527.608 141.356 527.608ZM157.891 528.232C157.571 528.52 157.171 528.744 156.691 528.904C156.227 529.048 155.739 529.12 155.227 529.12C154.043 529.12 153.131 528.8 152.491 528.16C151.851 527.52 151.531 526.616 151.531 525.448V517.816H149.275V516.376H151.531V513.616H153.235V516.376H157.075V517.816H153.235V525.352C153.235 526.104 153.419 526.68 153.787 527.08C154.171 527.464 154.715 527.656 155.419 527.656C155.771 527.656 156.107 527.6 156.427 527.488C156.763 527.376 157.051 527.216 157.291 527.008L157.891 528.232ZM171.45 512.512C170.714 512.512 170.154 512.712 169.77 513.112C169.402 513.512 169.218 514.104 169.218 514.888V516.376H173.106V517.816H169.266V529H167.562V517.816H165.306V516.376H167.562V514.816C167.562 513.664 167.89 512.752 168.546 512.08C169.218 511.408 170.162 511.072 171.378 511.072C171.858 511.072 172.322 511.144 172.77 511.288C173.218 511.416 173.594 511.608 173.898 511.864L173.322 513.136C172.826 512.72 172.202 512.512 171.45 512.512ZM180.356 529.12C179.14 529.12 178.044 528.848 177.068 528.304C176.092 527.744 175.324 526.976 174.764 526C174.204 525.024 173.924 523.92 173.924 522.688C173.924 521.456 174.204 520.352 174.764 519.376C175.324 518.4 176.092 517.64 177.068 517.096C178.044 516.552 179.14 516.28 180.356 516.28C181.572 516.28 182.668 516.552 183.644 517.096C184.62 517.64 185.38 518.4 185.924 519.376C186.484 520.352 186.764 521.456 186.764 522.688C186.764 523.92 186.484 525.024 185.924 526C185.38 526.976 184.62 527.744 183.644 528.304C182.668 528.848 181.572 529.12 180.356 529.12ZM180.356 527.608C181.252 527.608 182.052 527.408 182.756 527.008C183.476 526.592 184.036 526.008 184.436 525.256C184.836 524.504 185.036 523.648 185.036 522.688C185.036 521.728 184.836 520.872 184.436 520.12C184.036 519.368 183.476 518.792 182.756 518.392C182.052 517.976 181.252 517.768 180.356 517.768C179.46 517.768 178.652 517.976 177.932 518.392C177.228 518.792 176.668 519.368 176.252 520.12C175.852 520.872 175.652 521.728 175.652 522.688C175.652 523.648 175.852 524.504 176.252 525.256C176.668 526.008 177.228 526.592 177.932 527.008C178.652 527.408 179.46 527.608 180.356 527.608ZM201.619 516.376V529H199.987V526.696C199.539 527.464 198.923 528.064 198.139 528.496C197.355 528.912 196.459 529.12 195.451 529.12C193.803 529.12 192.499 528.664 191.539 527.752C190.595 526.824 190.123 525.472 190.123 523.696V516.376H191.827V523.528C191.827 524.856 192.155 525.864 192.811 526.552C193.467 527.24 194.403 527.584 195.619 527.584C196.947 527.584 197.995 527.184 198.763 526.384C199.531 525.568 199.915 524.44 199.915 523V516.376H201.619ZM212.824 516.28C214.408 516.28 215.664 516.744 216.592 517.672C217.536 518.584 218.008 519.92 218.008 521.68V529H216.304V521.848C216.304 520.536 215.976 519.536 215.32 518.848C214.664 518.16 213.728 517.816 212.512 517.816C211.152 517.816 210.072 518.224 209.272 519.04C208.488 519.84 208.096 520.952 208.096 522.376V529H206.392V516.376H208.024V518.704C208.488 517.936 209.128 517.344 209.944 516.928C210.776 516.496 211.736 516.28 212.824 516.28ZM234.201 511.192V529H232.569V526.504C232.057 527.352 231.377 528 230.529 528.448C229.697 528.896 228.753 529.12 227.697 529.12C226.513 529.12 225.441 528.848 224.481 528.304C223.521 527.76 222.769 527 222.225 526.024C221.681 525.048 221.409 523.936 221.409 522.688C221.409 521.44 221.681 520.328 222.225 519.352C222.769 518.376 223.521 517.624 224.481 517.096C225.441 516.552 226.513 516.28 227.697 516.28C228.721 516.28 229.641 516.496 230.457 516.928C231.289 517.344 231.969 517.96 232.497 518.776V511.192H234.201ZM227.841 527.608C228.721 527.608 229.513 527.408 230.217 527.008C230.937 526.592 231.497 526.008 231.897 525.256C232.313 524.504 232.521 523.648 232.521 522.688C232.521 521.728 232.313 520.872 231.897 520.12C231.497 519.368 230.937 518.792 230.217 518.392C229.513 517.976 228.721 517.768 227.841 517.768C226.945 517.768 226.137 517.976 225.417 518.392C224.713 518.792 224.153 519.368 223.737 520.12C223.337 520.872 223.137 521.728 223.137 522.688C223.137 523.648 223.337 524.504 223.737 525.256C224.153 526.008 224.713 526.592 225.417 527.008C226.137 527.408 226.945 527.608 227.841 527.608Z" fill="#007AFF"/>
<path d="M63.351 492.904V497H31.671V452.2H62.391V456.296H36.407V472.232H59.575V476.264H36.407V492.904H63.351ZM105.076 497L94.8355 482.6C93.6835 482.728 92.4888 482.792 91.2515 482.792H79.2195V497H74.4835V452.2H91.2515C96.9688 452.2 101.449 453.565 104.692 456.296C107.934 459.027 109.556 462.781 109.556 467.56C109.556 471.059 108.66 474.024 106.868 476.456C105.118 478.845 102.601 480.573 99.3155 481.64L110.26 497H105.076ZM91.1235 478.76C95.5608 478.76 98.9528 477.779 101.3 475.816C103.646 473.853 104.819 471.101 104.819 467.56C104.819 463.933 103.646 461.16 101.3 459.24C98.9528 457.277 95.5608 456.296 91.1235 456.296H79.2195V478.76H91.1235ZM151.326 497L141.086 482.6C139.934 482.728 138.739 482.792 137.502 482.792H125.47V497H120.734V452.2H137.502C143.219 452.2 147.699 453.565 150.942 456.296C154.184 459.027 155.806 462.781 155.806 467.56C155.806 471.059 154.91 474.024 153.118 476.456C151.368 478.845 148.851 480.573 145.566 481.64L156.51 497H151.326ZM137.374 478.76C141.811 478.76 145.203 477.779 147.55 475.816C149.896 473.853 151.069 471.101 151.069 467.56C151.069 463.933 149.896 461.16 147.55 459.24C145.203 457.277 141.811 456.296 137.374 456.296H125.47V478.76H137.374ZM186.568 497.384C182.13 497.384 178.098 496.403 174.472 494.44C170.888 492.435 168.072 489.704 166.024 486.248C164.018 482.792 163.016 478.909 163.016 474.6C163.016 470.291 164.018 466.408 166.024 462.952C168.072 459.496 170.888 456.787 174.472 454.824C178.098 452.819 182.13 451.816 186.568 451.816C191.005 451.816 194.994 452.797 198.536 454.76C202.12 456.723 204.936 459.453 206.984 462.952C209.032 466.408 210.056 470.291 210.056 474.6C210.056 478.909 209.032 482.813 206.984 486.312C204.936 489.768 202.12 492.477 198.536 494.44C194.994 496.403 191.005 497.384 186.568 497.384ZM186.568 493.16C190.109 493.16 193.309 492.371 196.168 490.792C199.026 489.171 201.266 486.952 202.888 484.136C204.509 481.277 205.32 478.099 205.32 474.6C205.32 471.101 204.509 467.944 202.888 465.128C201.266 462.269 199.026 460.051 196.168 458.472C193.309 456.851 190.109 456.04 186.568 456.04C183.026 456.04 179.805 456.851 176.904 458.472C174.045 460.051 171.784 462.269 170.12 465.128C168.498 467.944 167.688 471.101 167.688 474.6C167.688 478.099 168.498 481.277 170.12 484.136C171.784 486.952 174.045 489.171 176.904 490.792C179.805 492.371 183.026 493.16 186.568 493.16ZM251.263 497L241.023 482.6C239.871 482.728 238.676 482.792 237.439 482.792H225.407V497H220.671V452.2H237.439C243.156 452.2 247.636 453.565 250.879 456.296C254.122 459.027 255.743 462.781 255.743 467.56C255.743 471.059 254.847 474.024 253.055 476.456C251.306 478.845 248.788 480.573 245.503 481.64L256.447 497H251.263ZM237.311 478.76C241.748 478.76 245.14 477.779 247.487 475.816C249.834 473.853 251.007 471.101 251.007 467.56C251.007 463.933 249.834 461.16 247.487 459.24C245.14 457.277 241.748 456.296 237.311 456.296H225.407V478.76H237.311Z" fill="#FF5353"/>
<defs>
<linearGradient id="paint0_linear" x1="220.555" y1="148.21" x2="220.555" y2="194.241" gradientUnits="userSpaceOnUse">
<stop stop-color="#FF5353"/>
<stop offset="1" stop-color="#FF5353" stop-opacity="0.01"/>
</linearGradient>
<linearGradient id="paint1_linear" x1="119.243" y1="198.718" x2="119.243" y2="242.364" gradientUnits="userSpaceOnUse">
<stop stop-color="#FF5353"/>
<stop offset="1" stop-color="#FF5353" stop-opacity="0.01"/>
</linearGradient>
<linearGradient id="paint2_linear" x1="72.6172" y1="137.184" x2="72.6172" y2="230.2" gradientUnits="userSpaceOnUse">
<stop stop-color="#FF5353"/>
<stop offset="1" stop-color="#FF5353" stop-opacity="0.01"/>
</linearGradient>
<linearGradient id="paint3_linear" x1="207.378" y1="96.7172" x2="207.378" y2="181.862" gradientUnits="userSpaceOnUse">
<stop stop-color="#FF5353"/>
<stop offset="1" stop-color="#FF5353" stop-opacity="0.01"/>
</linearGradient>
<linearGradient id="paint4_linear" x1="124.166" y1="105.806" x2="124.166" y2="206.692" gradientUnits="userSpaceOnUse">
<stop stop-color="#FF5353"/>
<stop offset="1" stop-color="#FF5353" stop-opacity="0.01"/>
</linearGradient>
<linearGradient id="paint5_linear" x1="86.0612" y1="111.538" x2="86.0612" y2="197.16" gradientUnits="userSpaceOnUse">
<stop stop-color="#FF5353"/>
<stop offset="1" stop-color="#FF5353" stop-opacity="0.01"/>
</linearGradient>
<linearGradient id="paint6_linear" x1="90.1571" y1="186.205" x2="90.1571" y2="220.072" gradientUnits="userSpaceOnUse">
<stop stop-color="#FF5353"/>
<stop offset="1" stop-color="#FF5353" stop-opacity="0.01"/>
</linearGradient>
<linearGradient id="paint7_linear" x1="103.209" y1="61.5424" x2="103.209" y2="99.941" gradientUnits="userSpaceOnUse">
<stop stop-color="#FF5353"/>
<stop offset="1" stop-color="#FF5353" stop-opacity="0.01"/>
</linearGradient>
<linearGradient id="paint8_linear" x1="196.001" y1="145.888" x2="196.001" y2="215.53" gradientUnits="userSpaceOnUse">
<stop stop-color="#FF5353"/>
<stop offset="1" stop-color="#FF5353" stop-opacity="0.01"/>
</linearGradient>
<linearGradient id="paint9_linear" x1="61.7281" y1="111.26" x2="61.7281" y2="176.371" gradientUnits="userSpaceOnUse">
<stop stop-color="#FF5353"/>
<stop offset="1" stop-color="#FF5353" stop-opacity="0.01"/>
</linearGradient>
<linearGradient id="paint10_linear" x1="158.263" y1="111.072" x2="158.263" y2="184.769" gradientUnits="userSpaceOnUse">
<stop stop-color="#FF5353"/>
<stop offset="1" stop-color="#FF5353" stop-opacity="0.01"/>
</linearGradient>
<linearGradient id="paint11_linear" x1="160.013" y1="176.436" x2="160.013" y2="236.777" gradientUnits="userSpaceOnUse">
<stop stop-color="#FF5353"/>
<stop offset="1" stop-color="#FF5353" stop-opacity="0.01"/>
</linearGradient>
<linearGradient id="paint12_linear" x1="258.571" y1="332.877" x2="258.571" y2="93.0469" gradientUnits="userSpaceOnUse">
<stop stop-color="#FF5353"/>
<stop offset="1" stop-color="#FF5353" stop-opacity="0.01"/>
</linearGradient>
</defs>
</svg>
