<svg width="375" height="135" viewBox="0 0 375 135" fill="none" xmlns="http://www.w3.org/2000/svg">
<g clip-path="url(#clip0)">
<g opacity="0.3">
<g opacity="0.1">
<path opacity="0.1" d="M369.334 27.0561C352.787 17.0109 333.523 12.1492 314.242 13.4532C312.787 13.4895 311.378 13.6854 309.864 13.8178C304.078 14.3783 298.221 15.2904 292.527 16.1701C273.49 19.1985 255.489 21.9362 241.141 13.2261C240.931 13.0989 240.827 13.0354 240.617 12.9082C235.648 9.7605 231.333 5.30102 227.053 -1.10731C223.425 -6.46338 220.426 -12.62 217.311 -18.5846C214.893 -23.3373 212.429 -28.2496 209.627 -32.8414C202.778 -44.2256 192.517 -52.8202 182.204 -55.6643C174.603 -57.7819 167.024 -56.8645 160.163 -52.8825C148.818 -46.2355 141.321 -31.9968 137.963 -10.6465C137.659 -8.72881 137.355 -6.81111 137.155 -4.82982C135.177 8.81722 133.175 22.9755 124.807 33.9263C122.745 36.616 120.263 39.0514 117.525 41.2001C108.311 48.3519 95.7811 51.5203 84.2334 49.7661C69.1003 47.5435 56.2896 38.1899 46.8539 30.3595C-18.8233 -24.3584 -51.4878 -117.639 -38.4431 -213.262L-42.0167 -213.986C-48.5618 -166.845 -43.8379 -118.908 -28.5743 -75.3474C-13.2642 -31.627 12.0864 5.70579 44.5352 32.7624C54.4362 41.0067 67.7706 50.6783 83.9164 53.1214C96.5351 55.0002 109.996 51.4775 119.933 43.8444C122.892 41.5673 125.49 38.9398 127.728 35.9621C136.667 24.3067 138.739 9.79683 140.682 -4.26541C140.987 -6.18311 141.291 -8.10082 141.49 -10.0821C144.696 -30.4735 151.622 -44.0077 162.082 -50.1409C168.057 -53.6091 174.508 -54.555 181.305 -52.5309C190.71 -49.8438 200.146 -42.0134 206.494 -31.4583C209.145 -27.0896 211.609 -22.1773 214.027 -17.4246C217.084 -11.364 220.188 -5.14382 223.967 0.435398C228.444 7.22648 233.33 12.1635 238.717 15.5655C254.461 25.5173 274.151 22.3592 293.293 19.3944C298.987 18.5147 304.739 17.539 310.362 17.0109C311.771 16.815 313.227 16.7787 314.577 16.6788C340.121 14.9726 365.366 24.3846 383.909 42.4742C400.289 58.462 410.541 80.0588 412.525 103.469C414.66 127.103 409.448 151.27 404.482 174.798L404.213 175.949C399.527 198.07 394.701 220.894 395.289 243.063C396.871 289.093 423.546 330.383 462.116 346.176L463.341 342.978C426.144 327.756 400.376 287.804 399.201 243.466C398.542 221.649 403.415 198.985 407.984 177.056L408.253 175.905C413.278 152.281 418.396 127.795 416.285 103.65C414.173 79.5047 403.585 57.0464 386.484 40.3581C381.284 35.2303 375.513 30.8072 369.334 27.0561Z" fill="#2B2225"/>
</g>
<g opacity="0.2">
<path opacity="0.2" d="M368.46 28.4968C351.808 18.388 332.172 13.4315 312.356 14.6732C310.9 14.7096 309.492 14.9055 308.036 14.9418C302.576 15.4375 297.103 16.1887 291.794 16.9075C272.559 19.5531 254.348 22.1637 239.873 12.7192C234.904 9.57148 230.751 5.07955 226.577 -1.26519C223.053 -6.55768 219.996 -12.6183 217.032 -18.3597C214.614 -23.1124 212.045 -28.0883 209.301 -32.7761C202.499 -44.0008 192.343 -52.5318 182.088 -55.4719C174.383 -57.653 167.024 -56.8641 160.222 -52.9781C148.831 -46.4907 141.078 -32.5387 137.243 -11.3468C136.88 -9.33303 136.518 -7.31932 136.155 -5.30561C133.921 8.05469 131.558 21.8626 123.144 32.6539C121.081 35.3436 118.6 37.779 115.757 39.8641C106.496 46.8563 93.9667 50.0247 82.3143 48.2069C67.0765 45.9208 54.324 36.4711 44.8884 28.6407C-19.8462 -25.505 -52.1392 -117.509 -39.212 -211.758L-42.7856 -212.482C-49.0857 -165.981 -44.5475 -118.682 -29.4697 -75.7596C-14.3455 -32.6776 10.5398 4.24134 42.628 30.9477C52.4243 39.1284 65.8051 48.9595 81.9509 51.4027C94.5113 53.3775 108.019 50.0144 118.06 42.4448C121.019 40.1677 123.722 37.6038 126.065 34.6897C134.992 23.2899 137.424 9.13033 139.787 -4.67762C140.149 -6.69132 140.512 -8.70504 140.874 -10.7188C144.499 -30.8559 151.681 -44.1033 162.35 -50.1094C168.267 -53.4816 174.764 -54.2679 181.457 -52.3073C190.757 -49.6838 200.03 -41.821 206.436 -31.3619C209.134 -26.8336 211.656 -22.0173 214.074 -17.2646C217.085 -11.3636 220.247 -5.23942 223.817 0.21267C228.293 7.00375 233.075 11.8771 238.299 15.3116C254.031 25.519 273.755 22.7761 292.827 20.1629C298.137 19.4441 303.609 18.6929 308.907 18.2297C310.257 18.1298 311.771 17.9974 313.122 17.8975C338.712 16.3509 363.864 25.4437 382.222 42.895C398.73 58.4351 408.993 79.7763 411.257 102.963C413.567 126.308 408.786 150.474 404.204 173.841L404.122 174.448C399.762 196.504 395.308 219.423 396.164 241.623C396.961 263.919 403.72 285.367 415.523 303.701C427.43 322.098 443.637 336.009 462.386 343.844L463.611 340.645C426.438 324.912 401.426 286.077 399.715 241.676C398.789 219.828 403.336 197.228 407.637 175.268L407.719 174.661C412.418 151.102 417.21 126.681 414.866 102.92C412.486 78.7435 401.828 56.6368 384.645 40.5557C379.526 36.0028 374.116 31.9299 368.46 28.4968Z" fill="#322225"/>
</g>
<g opacity="0.25">
<path opacity="0.25" d="M367.166 29.682C350.514 19.5732 330.982 14.6803 310.422 15.7326C308.966 15.7689 307.616 15.8688 306.102 16.0012C301.13 16.3995 295.879 17.0223 290.954 17.5802C271.626 19.9066 253.381 22.102 238.918 12.4019C234.112 9.22177 229.854 4.66625 225.785 -1.61492C222.366 -6.84383 219.355 -12.7448 216.496 -18.4226C214.032 -23.335 211.462 -28.3109 208.66 -32.9027C201.8 -44.0313 191.748 -52.4988 181.657 -55.4713C174.009 -57.7484 166.651 -56.9595 159.802 -53.2331C148.202 -46.8728 140.426 -33.5916 135.997 -12.3659C135.576 -10.2562 135.214 -8.24251 134.793 -6.13278C132.244 7.03678 129.568 20.654 121.061 31.1261C118.893 33.7522 116.411 36.1876 113.627 38.1766C104.262 45.1053 91.7439 48.0181 80.0915 46.2003C64.8072 43.7546 52.1012 34.4645 42.7238 26.5381C-20.9754 -26.7162 -52.7337 -117.476 -40.1918 -210.382L-43.7654 -211.106C-49.9835 -165.212 -45.4681 -118.584 -30.6344 -76.204C-15.7542 -33.6643 8.7823 2.64865 40.3933 29.1967C50.1896 37.3774 63.4657 47.1449 79.6579 49.7477C92.2183 51.7225 105.772 48.519 115.86 41.109C118.924 38.8955 121.627 36.3316 123.911 33.5135C132.931 22.4329 135.678 8.46403 138.296 -5.05715C138.717 -7.16687 139.08 -9.18059 139.5 -11.2903C143.719 -31.4612 150.982 -44.1338 161.697 -49.9803C167.661 -53.1929 174.1 -53.8832 180.687 -51.9862C189.929 -49.2667 199.155 -41.5635 205.457 -31.1679C208.155 -26.6397 210.724 -21.6638 213.142 -16.9111C216.106 -11.1697 219.163 -5.10907 222.686 0.183419C227.117 6.8149 231.677 11.8168 236.901 15.2512C252.563 25.8102 272.38 23.3865 291.545 21.0925C296.47 20.5346 301.558 19.9443 306.53 19.5459C307.881 19.446 309.336 19.4097 310.686 19.3098C336.591 17.9539 361.068 26.5057 379.508 43.3498C395.981 58.4746 406.419 79.5278 409.009 102.649C411.552 125.611 407.098 149.712 402.842 173.014C398.796 195.26 394.61 218.21 395.792 240.346C398.003 285.575 423.934 325.494 461.77 342.024L463.099 338.889C426.578 323.026 401.508 284.287 399.447 240.463C398.358 218.646 402.428 195.888 406.403 173.993C410.73 150.34 415.138 126.079 412.618 102.606C410.064 78.7181 399.126 56.8359 381.931 41.0104C377.557 36.6469 372.507 32.9244 367.166 29.682Z" fill="#392125"/>
</g>
<g opacity="0.3">
<path opacity="0.3" d="M366.35 31.026C349.593 20.8536 329.689 15.8661 308.593 16.856C307.137 16.8924 305.787 16.9923 304.332 17.0286C299.686 17.362 294.982 17.7915 290.383 18.2846C270.962 20.2918 252.625 22.168 238.126 12.0527C233.484 8.84012 229.226 4.28461 225.261 -1.933C221.889 -7.0023 218.983 -12.8397 216.17 -18.358C213.705 -23.2703 211.032 -28.3097 208.183 -33.0612C201.428 -44.1262 191.422 -52.4341 181.389 -55.5026C173.846 -57.7162 166.604 -57.1193 159.709 -53.5525C148.121 -47.4478 140.031 -34.3574 135.078 -13.4495C134.552 -11.4034 134.073 -9.19766 133.653 -7.08794C130.79 5.89089 127.753 19.1578 119.199 29.4703C117.032 32.0964 114.445 34.4682 111.661 36.4573C102.249 43.2263 89.6265 46.0756 78.0324 44.1618C62.6434 41.6524 49.9957 32.2664 40.6183 24.34C-22.0454 -28.023 -53.4322 -117.506 -41.0078 -209.038L-44.5814 -209.762C-50.6593 -164.571 -46.1666 -118.614 -31.5769 -76.7764C-16.8825 -34.8751 7.18859 1.02398 38.3342 27.1581C48.0722 35.4348 61.3483 45.2024 77.6453 47.8687C90.1474 49.9395 103.806 46.7996 113.941 39.5492C116.946 37.4317 119.649 34.8678 122.096 32.0172C131.162 21.0962 134.165 7.41414 137.202 -5.85273C137.623 -7.96245 138.207 -10.1046 138.628 -12.2143C143.265 -32.1309 150.843 -44.6128 161.709 -50.2361C167.614 -53.3527 173.995 -53.9469 180.687 -51.9864C189.766 -49.2344 198.992 -41.5312 205.248 -31.2953C208.05 -26.7035 210.619 -21.7276 213.142 -16.9113C216.001 -11.2334 219.07 -5.42844 222.431 -0.103519C226.756 6.4644 231.316 11.4662 236.482 14.9967C252.133 25.8113 272.089 23.8664 291.347 21.8916C295.888 21.4946 300.545 20.9055 305.132 20.6681C306.483 20.5682 307.938 20.5318 309.289 20.4319C335.345 19.2992 359.729 27.5318 377.878 43.674C394.421 58.4472 405.034 79.2123 407.741 102.142C410.517 124.719 406.447 148.659 402.575 171.8L402.563 172.056C398.913 193.886 395.065 216.516 396.503 238.938C399.332 283.622 425.111 323.318 462.295 339.978L463.625 336.843C427.71 320.69 402.837 282.334 400.112 238.895C398.709 216.888 402.441 194.451 406.137 172.78L406.148 172.524C410.137 149.191 414.161 125.092 411.408 102.003C408.528 78.1795 397.52 56.6489 380.359 41.2385C375.694 37.3551 371.168 33.9505 366.35 31.026Z" fill="#402026"/>
</g>
<g opacity="0.35">
<path opacity="0.35" d="M365.581 32.5302C348.72 22.2943 328.443 17.212 306.869 18.0437C305.519 18.1436 304.064 18.1799 302.713 18.2798C298.557 18.516 294.284 18.9441 290.127 19.1803C270.613 20.8683 252.078 22.3617 237.591 11.9908C233.007 8.68221 228.854 4.19031 224.889 -2.02728C221.622 -7.03302 218.762 -12.7109 215.996 -18.0695C213.427 -23.0454 210.811 -28.1809 207.904 -32.8363C197.684 -49.2898 178.333 -62.7448 159.757 -53.3925C148.017 -47.5109 139.775 -34.6437 134.299 -14.0538C133.715 -11.9116 133.236 -9.70587 132.652 -7.5637C129.534 5.12837 126.182 18.2045 117.582 28.3574C115.31 30.92 112.782 33.1958 109.94 35.2808C100.423 41.9863 87.7538 44.676 76.1597 42.7622C60.829 40.1568 48.1813 30.7707 38.8039 22.8443C-23.1613 -29.4888 -54.0136 -117.728 -41.8816 -207.597L-45.4552 -208.321C-51.3927 -163.834 -46.9811 -118.451 -32.5772 -77.2522C-18.115 -36.1488 5.75851 -0.632535 36.3222 25.2797C46.0602 33.5565 59.3363 43.324 75.575 46.0864C88.2865 48.2843 101.561 45.3053 111.963 38.086C114.969 35.9685 117.776 33.4682 120.165 30.7137C129.324 20.1118 132.699 6.52449 135.993 -6.45565C136.577 -8.59781 137.056 -10.8036 137.639 -12.9457C142.859 -32.6404 150.692 -44.8355 161.442 -50.2668C177.922 -58.5267 195.388 -46.216 204.759 -31.1975C207.562 -26.6057 210.235 -21.5663 212.7 -16.6539C215.513 -11.1357 218.477 -5.39429 221.791 -0.228963C226.012 6.27539 230.572 11.2772 235.575 14.8401C251.26 26.07 271.367 24.3482 290.66 22.7886C294.77 22.3929 298.985 22.0607 303.141 21.8246C304.492 21.7247 305.947 21.6883 307.239 21.6844C333.342 20.7113 357.633 28.6248 375.491 44.0649C392.059 58.327 402.847 78.8041 405.774 101.605C408.725 123.895 405.051 147.418 401.517 170.238L401.377 170.942C398.217 191.493 394.66 214.824 396.365 237.277C399.707 281.353 425.393 320.73 461.913 337.775L463.243 334.64C428.038 318.262 403.107 280.001 399.974 237.235C398.362 215.101 401.803 191.961 405.009 171.57L405.149 170.866C408.695 147.791 412.381 124.011 409.395 101.306C406.294 77.6117 395.169 56.2731 377.822 41.4064C373.936 38.1276 369.875 35.1369 365.581 32.5302Z" fill="#471F26"/>
</g>
<g opacity="0.4">
<path opacity="0.4" d="M364.706 33.9704C347.845 23.7345 327.033 18.5899 304.877 19.1997C303.526 19.2996 302.129 19.24 300.779 19.3399C297.112 19.4787 293.328 19.8096 289.66 19.9484C269.949 21.2537 251.262 22.5239 236.741 11.7379C232.157 8.42925 228.062 3.8413 224.202 -2.31272C221.144 -7.19132 218.272 -12.6135 215.506 -17.9722C212.937 -22.9481 210.217 -28.1471 207.263 -32.9621C197.194 -49.1925 177.948 -62.5839 159.442 -53.5832C147.714 -47.9573 139.158 -35.2808 133.158 -15.0087C132.516 -12.7705 131.874 -10.5324 131.232 -8.29418C127.799 4.20717 124.192 16.9966 115.499 26.8303C113.227 29.3928 110.699 31.6686 107.81 33.5941C98.0834 40.1724 85.7406 42.7972 73.937 40.7563C61.9704 38.7478 50.4146 32.5211 36.6395 20.7424C-24.2903 -30.6993 -54.608 -117.694 -42.8029 -206.316L-46.3765 -207.041C-52.2321 -163.161 -47.785 -118.545 -33.6251 -77.8879C-19.407 -37.3269 4.05947 -2.32053 34.0995 23.2738C43.8375 31.5506 57.0553 41.4141 73.294 44.1765C86.0056 46.3744 99.3264 43.555 109.775 36.4953C112.885 34.4414 115.693 31.9411 118.082 29.1865C127.287 18.7443 130.965 5.60328 134.468 -7.2497C135.11 -9.48787 135.752 -11.726 136.394 -13.9642C142.032 -33.4046 150.18 -45.409 160.976 -50.6807C177.549 -58.6214 194.444 -46.7882 203.967 -31.5466C206.874 -26.8912 209.49 -21.7557 212.059 -16.7798C214.825 -11.4211 217.743 -5.8393 220.906 -0.897141C225.127 5.60719 229.477 10.4819 234.422 14.1408C250.142 25.7858 269.527 24.5454 289.995 23.174C293.616 22.8756 297.342 22.6407 301.009 22.5019C302.36 22.402 303.757 22.4616 305.107 22.3618C331.466 21.6754 355.664 29.2696 373.127 43.9443C389.66 57.7911 400.623 77.9802 403.772 100.653C406.956 122.558 403.725 145.825 400.587 168.229L400.423 169.443C397.027 193.924 394.625 214.409 396.401 235.329C400.453 279.179 426.093 318.395 461.961 335.57L463.395 332.499C428.738 315.928 403.958 277.89 400.313 235.732C398.466 215.164 400.857 194.935 404.299 170.613L404.463 169.399C407.612 146.74 410.856 123.217 407.637 100.896C404.314 77.3301 393.014 56.2796 375.597 41.7645C372.177 38.8996 368.581 36.3228 364.706 33.9704Z" fill="#4E1F26"/>
</g>
<g opacity="0.45">
<path opacity="0.45" d="M363.681 35.1879C346.924 25.0155 326.217 19.9345 303.048 20.3238C301.698 20.4237 300.301 20.364 298.95 20.4639C295.713 20.6015 292.64 20.7065 289.403 20.8441C269.436 21.8626 250.552 22.7501 235.891 11.4852C231.47 8.14419 227.434 3.46024 223.62 -2.53418C220.608 -7.25317 217.842 -12.6118 215.121 -17.8109C212.506 -22.9464 209.786 -28.1454 206.728 -33.024C196.402 -49.5411 177.669 -62.3591 159.186 -53.8696C147.248 -48.3708 138.67 -36.365 132.076 -16.0593C131.271 -13.7887 130.629 -11.5505 129.929 -9.21629C126.24 2.99832 122.318 15.597 113.579 25.2711C111.307 27.8337 108.674 30.0459 105.785 31.9714C95.954 38.4861 83.5648 40.9513 71.8195 38.8143C56.1746 36.0182 43.0733 25.9627 34.4755 18.6409C-25.3605 -32.0055 -55.1437 -117.756 -43.6774 -204.876L-47.251 -205.6C-58.8812 -117.265 -28.5635 -30.2708 32.0867 21.3955C40.9404 29.004 54.7747 39.5046 71.3276 42.4577C83.9809 44.7517 97.3483 42.0918 107.902 35.0957C111.012 33.0418 113.819 30.5415 116.255 27.9465C125.553 17.8235 129.545 4.87321 133.362 -7.78905C134.062 -10.1232 134.704 -12.3614 135.509 -14.632C141.73 -33.8505 150.028 -45.6318 160.918 -50.5843C177.421 -58.1734 194.211 -46.4038 203.688 -31.3217C206.699 -26.6027 209.315 -21.4672 211.93 -16.3317C214.65 -11.1327 217.417 -5.77403 220.58 -0.831868C224.696 5.6089 228.988 10.5796 233.829 14.1749C249.687 26.2987 269.224 25.2815 289.889 24.2928C293.021 24.0917 296.2 24.0502 299.332 23.8491C300.682 23.7492 302.079 23.8089 303.43 23.709C330.265 23.1809 353.731 30.3301 371.113 44.4299C387.46 57.6384 398.841 78.0818 402.223 100.37C405.641 121.892 402.747 144.838 400.052 166.985L399.864 168.71C397.005 192.072 394.788 213.195 396.891 234.05C401.281 277.579 426.165 315.68 461.904 333.303L463.339 330.232C428.763 313.053 404.681 276.227 400.395 233.943C398.281 213.344 400.486 192.477 403.392 169.275L403.579 167.549C406.391 145.21 409.192 121.945 405.844 100.072C402.288 76.8894 390.512 55.6805 373.385 41.8674C370.267 39.4489 367.032 37.2224 363.681 35.1879Z" fill="#551E26"/>
</g>
<g opacity="0.5">
<path opacity="0.5" d="M362.923 36.4363C346.166 26.2639 325.086 21.0882 301.219 21.4476C299.927 21.4515 298.472 21.4878 297.179 21.4917C294.595 21.4995 292.057 21.6669 289.472 21.6747C269.144 22.3429 250.004 22.9436 235.204 11.2C230.841 7.76291 226.91 3.14254 223.096 -2.85188C220.189 -7.5073 217.469 -12.7063 214.9 -17.6822C212.18 -22.8813 209.413 -28.24 206.355 -33.1185C196.123 -49.3165 177.552 -62.1669 159.139 -54.029C143.475 -47.1133 135.719 -29.6153 131.308 -16.9193C130.503 -14.6487 129.64 -12.2821 128.939 -9.9479C124.937 2.07597 120.701 14.4839 111.869 23.8389C109.492 26.3378 106.859 28.55 103.97 30.4755C94.0923 36.8307 81.5984 39.2323 69.8531 37.0953C54.2664 34.2032 41.0022 24.1801 32.5091 16.9219C-26.3261 -33.2483 -55.8424 -117.785 -44.5984 -203.595L-48.1719 -204.319C-59.5799 -117.295 -29.6337 -31.5771 29.9691 19.4533C38.8228 27.0618 52.5524 37.4989 69.1518 40.6116C81.9098 42.9691 95.2188 40.4053 105.819 33.5688C108.929 31.5148 111.783 29.1742 114.276 26.4831C123.621 16.5197 127.869 3.85614 132.047 -8.45578C132.852 -10.7264 133.61 -13.1566 134.415 -15.4272C138.744 -27.516 146.034 -44.2459 160.545 -50.6788C176.92 -57.8202 193.605 -46.1143 202.989 -31.3514C206.001 -26.6324 208.767 -21.2737 211.441 -16.2342C214.115 -11.1948 216.777 -5.89969 219.788 -1.18071C223.8 5.19648 228.092 10.1672 232.769 13.795C248.767 26.3976 268.606 25.8267 289.691 25.0923C292.17 25.0209 294.813 24.9171 297.398 24.9093C298.69 24.9054 300.146 24.8691 301.438 24.8652C328.588 24.5278 351.902 31.4539 368.947 44.6922C385.364 57.5491 396.816 77.6408 400.419 99.8007C403.907 120.971 401.514 143.564 399.157 165.39L398.945 167.627C396.623 189.869 394.65 211.534 397.066 232.58C401.969 275.501 426.702 313.379 461.836 331.291L463.375 328.283C429.347 310.911 405.311 274.245 400.676 232.537C398.293 211.907 400.313 190.401 402.624 168.415L402.835 166.178C405.204 144.096 407.713 121.311 404.086 99.6619C400.309 76.608 388.358 55.6872 371.161 42.2257C368.566 40.125 365.855 38.2164 362.923 36.4363Z" fill="#5D1D26"/>
</g>
<g opacity="0.55">
<path opacity="0.55" d="M361.899 37.6525C345.247 27.5437 324.318 22.5912 299.334 22.6664L299.171 22.6989C297.878 22.7027 296.586 22.7066 295.294 22.7105C293.408 22.7482 291.522 22.7858 289.635 22.8234C268.947 23.1413 249.388 23.4877 234.344 11.2018C230.144 7.73227 226.213 3.11188 222.503 -2.81896C219.643 -7.31478 217.132 -12.3867 214.505 -17.2666C211.785 -22.4656 208.913 -27.8879 205.809 -32.926C195.623 -48.9644 177.203 -61.5916 158.977 -53.9973C143.22 -47.4009 135.045 -30.1572 130.32 -17.6519C129.457 -15.2853 128.594 -12.9187 127.73 -10.5521C123.413 1.2811 118.922 13.4023 110.043 22.5976C107.724 25.0006 104.987 27.1492 102.098 29.0747C92.1156 35.3663 79.6799 37.6719 67.8882 35.3753C55.9334 33.1112 44.0634 26.6938 30.4978 15.0423C-27.3948 -34.5557 -56.4349 -117.752 -45.4714 -202.156L-49.045 -202.88C-60.1724 -117.262 -30.7025 -32.8845 27.853 17.5101C41.8841 29.5755 54.3824 36.3744 66.9774 38.7644C79.6771 41.218 93.0909 38.7177 103.737 32.0408C106.952 30.0504 109.806 27.7097 112.404 25.0823C121.842 15.438 126.462 2.86922 130.791 -9.21953C131.655 -11.5862 132.518 -13.9528 133.381 -16.3194C137.92 -28.281 145.791 -44.789 160.395 -50.9028C177.748 -58.2389 194.036 -44.9343 202.559 -31.3509C205.618 -26.4723 208.442 -21.2097 211.163 -16.0106C213.79 -11.1307 216.405 -5.99524 219.312 -1.33982C223.324 5.03736 227.406 9.88091 232.025 13.6047C248.209 26.8456 268.467 26.5291 289.912 26.145C291.798 26.1074 293.684 26.0698 295.57 26.0321C296.863 26.0282 298.155 26.0243 299.447 26.0204L299.61 25.988C327.342 25.8725 349.981 32.2575 366.783 44.9535C383.165 57.3952 394.85 77.1028 398.675 99.1343C402.395 119.92 400.34 142.193 398.321 163.699L398.028 166.543C396.043 188.464 394.513 209.873 397.197 230.949C402.449 273.294 427.253 310.82 461.781 329.022L463.32 326.014C429.944 308.512 406.013 271.91 400.76 230.747C398.168 209.99 399.745 188.74 401.613 167.011L401.848 164.263C403.879 142.502 405.946 119.973 402.191 98.7723C398.192 75.8468 385.961 55.1505 368.845 42.2638C366.763 40.7367 364.307 39.1148 361.899 37.6525Z" fill="#641C26"/>
</g>
<g opacity="0.6">
<path opacity="0.6" d="M361.14 38.9008C344.697 28.9191 323.291 23.8083 297.562 23.6941L290.134 23.6526C268.922 23.6526 248.84 23.6811 233.505 10.6932C229.305 7.22371 225.537 2.57088 221.828 -3.35996C219.072 -7.7922 216.549 -12.6085 214.073 -17.2652C211.307 -22.6239 208.331 -28.1097 205.226 -33.1478C195.889 -47.7511 178.088 -62.1053 158.72 -54.284C142.975 -47.9432 134.381 -30.9538 129.238 -18.7028C128.211 -16.3038 127.348 -13.9371 126.321 -11.5381C121.749 0.00831615 117.047 12.0024 107.959 21.0705C105.536 23.4099 102.798 25.5586 99.8048 27.4205C89.776 33.5524 77.2356 35.7945 65.5021 33.4019C53.4427 31.0742 41.6309 24.5608 28.17 12.9729C-28.5241 -35.7662 -57.1343 -117.782 -46.2883 -200.811L-49.8619 -201.535C-60.7671 -117.228 -31.8318 -34.095 25.8395 15.6314C39.8705 27.6968 52.3689 34.4957 65.0103 37.0453C77.71 39.4988 91.1702 37.1582 101.863 30.6409C105.078 28.6505 108.037 26.3734 110.577 23.842C120.061 14.3573 124.937 2.07523 129.58 -9.8228C130.502 -12.2854 131.47 -14.5885 132.496 -16.9876C137.349 -28.7584 145.639 -45.0121 160.231 -50.8703C177.455 -57.7587 193.593 -44.6774 202.174 -31.1899C205.337 -26.2478 208.208 -20.8255 210.929 -15.6265C213.346 -10.8737 215.974 -5.99387 218.776 -1.40204C222.683 4.91158 226.765 9.75513 231.326 13.5749C247.8 27.5178 268.477 27.4556 290.446 27.3894L297.769 27.3673C325.815 27.4426 348.303 33.6044 364.709 45.5348C381.115 57.4653 392.916 76.9809 397.067 98.9475C400.963 119.445 399.304 141.302 397.623 162.487L397.306 165.842C395.752 186.58 394.513 208.691 397.465 229.798C403.23 271.535 427.882 308.838 461.804 327.329L463.343 324.321C430.573 306.53 406.63 270.183 401.027 229.596C398.168 208.808 399.396 186.953 400.891 166.311L401.208 162.955C402.901 141.514 404.572 119.402 400.642 98.4895C396.317 75.6289 384.016 55.2842 366.83 42.7491C364.957 41.3491 363.072 40.2047 361.14 38.9008Z" fill="#6B1C27"/>
</g>
<g opacity="0.65">
<path opacity="0.65" d="M360.115 40.1174C343.882 30.2629 322.686 25.2792 295.618 25.0093L290.938 24.9276C269.039 24.6422 248.269 24.3852 232.645 10.6954C228.503 7.12986 224.839 2.54061 221.13 -3.39023C218.525 -7.5993 216.108 -12.352 213.678 -16.8491C210.807 -22.2714 207.889 -27.8532 204.575 -33.0185C195.284 -47.4622 177.634 -61.5932 158.349 -54.3792C142.511 -48.3575 133.498 -31.6224 128.04 -19.5622C127.014 -17.1631 125.929 -14.668 124.903 -12.269C120.016 -0.913311 115 10.89 105.924 19.7026C103.5 22.042 100.763 24.1906 97.6646 25.9889C87.5894 31.9613 75.0026 34.0438 63.2108 31.7472C51.2096 29.3235 39.2932 22.7465 25.937 11.2221C-29.7563 -37.0408 -57.7855 -117.653 -47.3247 -199.339L-50.8983 -200.063C-61.4065 -117.354 -32.901 -35.402 23.723 13.6887C37.6957 25.8501 50.0894 32.5854 62.8938 35.1025C75.5353 37.6521 89.0419 35.471 99.8976 28.9213C103.054 27.0269 106.013 24.7498 108.716 22.186C118.188 12.9569 123.379 0.865555 128.441 -10.7782C129.467 -13.1772 130.552 -15.6723 131.578 -18.0714C136.745 -29.6515 145.349 -45.7145 160.093 -51.3495C177.247 -57.8863 193.221 -44.7725 201.71 -31.6042C204.977 -26.5985 207.79 -21.0803 210.72 -15.7541C213.091 -11.1609 215.672 -6.44064 218.323 -2.07197C222.125 4.17807 226.15 9.11761 230.547 12.9699C247.312 27.6147 268.78 27.9015 291.378 28.2167L296.058 28.2985C324.895 28.7228 346.708 34.3435 362.765 45.6681C379.137 57.1833 391.113 76.4109 395.485 98.249C399.614 118.363 398.293 139.899 396.949 160.764L396.772 164.598C395.557 185.015 394.655 206.805 397.979 228.008C404.257 269.136 428.863 306.279 462.028 324.836L463.672 321.892C431.507 303.811 407.658 267.784 401.6 227.709C398.369 206.826 399.317 185.195 400.416 164.97L400.593 161.136C401.89 140.111 403.281 118.224 399.118 97.695C394.572 74.9629 382.096 54.9062 364.782 42.8188C363.153 41.9611 361.582 41.0075 360.115 40.1174Z" fill="#721B27"/>
</g>
<g opacity="0.7">
<path opacity="0.7" d="M358.996 41.0164C342.973 31.2891 322.567 26.6545 293.742 25.9746C292.45 25.9785 291.053 25.9188 289.76 25.9227C265.184 25.3258 246.732 23.848 231.853 10.3476C227.874 6.74961 224.21 2.16037 220.606 -3.70691C218.106 -7.8524 215.676 -12.3495 213.456 -16.7195C210.48 -22.2053 207.516 -27.9467 204.097 -33.1756C194.899 -47.3001 177.412 -61.4636 158.197 -54.6011C142.487 -49.0271 133.312 -33.4416 127.004 -20.4524C125.814 -18.0208 124.73 -15.5258 123.54 -13.0943C118.444 -1.86575 113.068 9.58724 103.945 18.2402C101.522 20.5796 98.6794 22.6647 95.6394 24.367C85.4595 30.2758 72.9309 32.2622 61.0927 29.8061C48.9868 27.3188 37.1751 20.8054 23.7724 9.12142C-30.7223 -38.2825 -58.3217 -117.714 -48.0832 -198.09L-51.6568 -198.814C-62.001 -117.319 -33.9718 -36.7074 21.6632 11.6515C35.5312 23.7494 47.9713 30.6443 60.7757 33.1614C73.5219 35.7746 86.9703 33.6895 97.8724 27.2993C101.134 25.4686 104.093 23.1915 106.737 20.7236C116.361 11.7177 121.807 -0.0868878 127.02 -11.5074C128.105 -14.0025 129.294 -16.434 130.425 -18.7695C136.384 -31.1826 145.151 -46.096 159.766 -51.2834C176.792 -57.3726 192.72 -44.4184 201.162 -31.4097C204.429 -26.404 207.452 -20.7586 210.265 -15.2403C212.59 -10.8068 215.019 -6.30968 217.624 -2.1006C221.426 4.14941 225.346 9.02542 229.58 12.9101C246.682 28.4165 269.698 28.9861 290.025 29.4999C291.318 29.496 292.715 29.5557 294.007 29.5518C324.125 30.2278 344.564 35.2776 360.436 45.9638C376.878 57.1274 388.982 75.9074 393.517 97.7131C397.775 117.379 396.838 138.754 395.891 159.203L395.631 163.644C394.847 182.878 394.294 205.274 397.828 226.604C404.642 267.794 428.55 303.725 461.633 322.889L463.277 319.945C431.241 301.417 408.042 266.442 401.345 226.242C397.799 205.168 398.445 183.091 399.17 163.953L399.371 159.607C400.331 138.903 401.325 117.432 396.929 97.2875C392.057 74.6202 379.51 54.9152 362.231 43.243C361.242 42.5112 360.148 41.7158 358.996 41.0164Z" fill="#791A27"/>
</g>
<g opacity="0.75">
<path opacity="0.75" d="M358.134 42.2008C338.34 30.1847 313.579 27.7674 291.855 27.194C290.563 27.1978 289.224 27.0421 287.932 27.046C265.789 26.2182 246.278 24.3602 231.003 10.0943C227.082 6.40029 223.523 1.87464 219.919 -3.99262C217.57 -7.91494 215.187 -12.2525 213.013 -16.4628C209.991 -22.1082 206.922 -27.9132 203.398 -33.2057C193.793 -47.8402 176.806 -61.1745 157.883 -54.7921C142.185 -49.4737 132.591 -34.1425 125.968 -21.344C124.779 -18.9125 123.531 -16.385 122.284 -13.8575C116.931 -2.91572 111.346 8.4101 102.072 16.8399C99.5437 19.1157 96.7014 21.2008 93.6614 22.9031C83.2138 28.7808 70.9648 30.5428 59.0218 28.023C46.9159 25.5357 35.0577 18.8627 21.7599 7.24235C-31.7924 -39.5894 -59.0202 -117.744 -49.0622 -196.713L-52.6358 -197.437C-62.6995 -117.35 -35.1001 -37.9182 19.4412 9.64531C33.3092 21.7431 45.7493 28.638 58.6001 31.3148C71.451 33.9915 84.6198 32.1309 95.7897 25.7719C99.051 23.9411 102.115 21.7276 104.759 19.2597C114.429 10.4134 120.131 -1.10442 125.659 -12.3342C126.906 -14.8618 128.096 -17.2933 129.285 -19.7248C135.558 -31.9471 144.744 -46.6062 159.347 -51.538C176.303 -57.2755 191.777 -44.9909 200.417 -31.5994C203.731 -26.4341 206.858 -20.7251 209.776 -15.1433C211.95 -10.9329 214.333 -6.59541 216.728 -2.51348C220.425 3.67297 224.24 8.48538 228.417 12.4661C244.622 27.5598 264.936 29.5113 287.882 30.4325C289.175 30.4286 290.513 30.5843 291.806 30.5804C313.634 31.2175 338.663 33.6659 358.003 46.1945C374.363 56.7833 386.585 75.3712 391.504 97.016C395.878 116.49 395.279 137.545 394.716 157.832L394.607 162.497C394.053 186.075 394.329 205.689 397.795 225.006C405.028 265.269 428.471 300.786 460.518 320.241C460.832 320.432 461.042 320.559 461.356 320.75L463.104 317.869C431.511 299.084 408.521 264.236 401.357 224.804C398.206 205.677 397.918 186.319 398.461 162.996L398.615 158.491C399.19 137.948 399.801 116.638 395.334 96.8448C390.136 74.2424 377.415 54.8254 360.112 43.6644C359.495 43.0273 358.867 42.6458 358.134 42.2008Z" fill="#801927"/>
</g>
<g opacity="0.75">
<path opacity="0.75" d="M357.062 43.2582C337.164 31.1785 312.111 29.2413 289.968 28.4135C288.676 28.4174 287.337 28.2617 286.045 28.2656C266.277 27.3029 245.603 25.0011 230.142 10.0968C226.326 6.4664 222.825 1.84474 219.384 -4.05497C217.082 -7.81769 214.908 -12.0281 212.827 -15.9192C209.758 -21.7242 206.584 -27.5928 203.014 -33.0449C193.561 -47.4561 176.678 -60.7269 157.825 -54.6962C142.034 -49.6969 132.022 -34.6201 125.084 -22.0123C123.732 -19.5484 122.321 -16.9884 121.074 -14.4609C115.407 -3.70985 109.507 7.42524 100.245 15.5995C97.7172 17.8753 94.7702 19.8968 91.7302 21.5991C81.2361 27.3171 68.9871 29.0791 56.9394 26.4958C44.8918 23.9125 32.7194 17.0487 19.631 5.55553C-32.9204 -40.8 -59.6136 -117.71 -49.8779 -195.369L-53.4515 -196.093C-63.2929 -117.316 -36.0651 -39.1613 17.4289 7.76646C30.9827 19.6736 43.8417 26.8228 56.5296 29.5319C69.3222 32.3047 82.5957 30.5077 93.812 24.3082C97.0733 22.4775 100.079 20.36 102.828 17.9557C112.591 9.42857 118.561 -2.05814 124.344 -13.0012C125.696 -15.4652 126.944 -17.9927 128.297 -20.4566C134.884 -32.4883 144.488 -46.8931 159.243 -51.6017C176.128 -56.9876 191.335 -44.734 200.091 -31.5346C203.614 -26.2421 206.683 -20.4371 209.706 -14.7917C211.833 -10.741 214.065 -6.62659 216.309 -2.76784C219.902 3.35503 223.659 8.26346 227.73 12.1806C244.273 28.1359 265.646 30.4675 286.217 31.5236C287.509 31.5198 288.848 31.6755 290.14 31.6716C311.957 32.5642 336.905 34.4378 356 46.4241C372.431 56.6613 384.723 74.8976 389.968 96.4775C394.575 115.568 394.314 136.302 394.089 156.269L394.015 161.348C393.894 181.379 394.25 202.75 398.25 223.311C406.077 263.54 429.788 299.089 461.614 318.672L463.362 315.792C432.479 296.781 409.478 262.188 401.755 223.205C397.847 202.963 397.375 181.784 397.542 161.913L397.616 156.833C397.853 136.61 398.067 115.717 393.426 96.2115C388.007 73.7376 374.947 54.6411 357.842 43.8628C357.586 43.5761 357.376 43.4489 357.062 43.2582Z" fill="#871927"/>
</g>
<g opacity="0.8">
<path opacity="0.8" d="M356.677 44.6007C356.363 44.41 356.049 44.2192 355.63 43.9649C336.231 32.7144 312.634 30.7409 288.14 29.5368C286.906 29.4447 285.509 29.385 284.275 29.2929C261.62 27.8916 243.601 24.0484 229.35 9.74739C225.593 6.02098 222.197 1.46289 218.756 -4.4368C216.663 -8.07238 214.582 -11.9636 212.547 -15.6952C209.374 -21.5637 206.154 -27.5919 202.537 -33.2036C193.072 -47.3592 176.399 -60.5028 157.627 -55.0793C141.744 -50.3993 131.312 -35.5767 124.061 -23.1597C122.545 -20.6633 121.135 -18.1034 119.724 -15.5434C113.743 -4.9831 107.692 5.92882 98.2792 13.8799C95.6463 16.0921 92.7575 18.0176 89.7176 19.7199C79.177 25.2784 66.8233 26.9768 54.834 24.2975C42.7863 21.7141 30.5092 14.7868 17.5838 3.26117C-33.9904 -42.107 -60.2074 -117.677 -50.7522 -193.929L-54.3257 -194.653C-63.8866 -117.283 -37.1934 -40.3723 15.4163 5.88729C28.9701 17.7944 41.6661 24.976 54.4587 27.7488C67.2977 30.6811 80.5713 28.8841 91.834 22.8443C95.0953 21.0135 98.2054 18.9596 100.955 16.5553C110.764 8.18777 116.99 -3.0122 123.087 -13.7645C124.44 -16.2285 125.909 -18.8844 127.366 -21.2848C134.326 -33.2218 144.244 -47.4358 159.033 -51.7292C175.79 -56.6675 190.951 -44.5735 199.66 -31.5337C203.23 -26.0816 206.404 -20.213 209.578 -14.3445C211.554 -10.5169 213.739 -6.56213 215.832 -2.92655C219.425 3.19634 223.077 8.04118 226.985 11.9908C242.003 27.152 260.872 31.2482 284.388 32.6469C285.622 32.739 287.019 32.7987 288.253 32.8908C312.212 34.0326 335.274 35.9438 353.881 46.8454C370.184 56.3482 382.709 74.2004 388.21 96.0671C392.992 114.869 393.023 135.123 393.135 154.77C393.157 156.622 393.121 158.571 393.142 160.424C393.36 180.134 394.158 201.248 398.368 221.937C406.615 261.238 430.279 296.627 461.394 316.436L463.248 313.619C432.912 294.415 409.957 259.982 401.884 221.575C397.604 201.238 396.852 180.284 396.681 160.733C396.66 158.88 396.696 156.931 396.674 155.078C396.574 135.176 396.555 114.667 391.68 95.5455C386.039 73.2001 373.329 54.7095 356.677 44.6007Z" fill="#8E1827"/>
</g>
<g opacity="0.8">
<path opacity="0.8" d="M354.825 45.0537C354.406 44.7994 353.988 44.5451 353.569 44.2908C334.635 33.4541 311.492 32.1501 289.046 30.876L286.415 30.7242C285.181 30.632 283.889 30.6359 282.55 30.4802C263.61 29.0997 244.019 25.4849 228.71 9.62173C225.116 5.86288 221.615 1.24119 218.383 -4.53137C216.441 -7.94377 214.407 -11.6754 212.524 -15.1838C209.303 -21.2119 205.932 -27.4633 202.211 -33.1385C192.897 -47.071 176.224 -60.2146 157.627 -55.0791C141.65 -50.7183 130.905 -36.0864 123.235 -23.9237C121.719 -21.4273 120.146 -18.8349 118.63 -16.3386C112.498 -6.00142 106.133 4.71977 96.6152 12.6072C93.9823 14.8195 91.0935 16.745 87.9488 18.3837C77.4083 23.9421 64.9034 25.4174 52.9723 22.642C40.8782 19.8991 28.7059 13.0354 15.7222 1.60578C-35.1189 -43.3174 -60.9061 -117.707 -51.6731 -192.649L-55.2467 -193.373C-64.4806 -117.249 -38.2636 -41.6786 13.2987 3.94515C26.8525 15.8523 39.5485 23.0339 52.2828 25.9026C65.1219 28.835 78.4419 27.1976 89.7511 21.3173C93.0588 19.6462 96.1688 17.5922 98.9183 15.1879C108.774 6.98 115.256 -3.93322 121.667 -14.4948C123.183 -16.9912 124.756 -19.5836 126.272 -22.08C133.546 -33.8262 143.883 -47.7859 158.824 -51.8562C179.819 -57.6378 194.997 -37.7809 199.125 -31.5958C202.799 -26.0801 206.124 -19.9884 209.24 -14.0238C211.228 -10.4518 213.157 -6.78379 215.145 -3.2118C218.633 2.8475 222.285 7.69235 226.031 11.6744C242.316 28.5249 262.711 32.2332 282.396 33.8031C283.63 33.8952 284.969 34.0509 286.261 34.047L288.892 34.1989C310.907 35.4743 333.62 36.7796 351.715 47.1076C368.077 56.5145 380.718 74.1747 386.406 95.4977C391.316 113.852 391.789 133.849 392.182 153.271C392.192 155.38 392.26 157.392 392.375 159.564C392.919 178.027 393.961 199.684 398.648 220.531C407.535 259.958 430.397 294.071 461.489 314.391L463.342 311.575C433.612 292.081 410.645 257.904 402.223 220.073C397.629 199.545 396.47 178.081 395.972 159.777C395.962 157.668 395.894 155.656 395.884 153.548C395.445 133.966 395.088 113.777 389.98 95.0397C384.153 73.2379 371.373 55.0989 354.825 45.0537Z" fill="#951728"/>
</g>
<g opacity="0.85">
<path opacity="0.85" d="M353.602 45.8883C352.869 45.4432 352.031 44.9346 351.24 44.5856C333.598 34.927 312.34 33.5854 291.723 32.3697C289.359 32.249 286.891 32.0648 284.528 31.9441C283.294 31.852 282.06 31.7598 280.721 31.6042C256.112 29.4101 240.213 22.7812 227.86 9.36898C224.324 5.51413 220.986 0.860006 217.696 -4.81654C215.801 -8.06936 214.022 -11.5142 212.29 -14.7995C209.024 -20.9872 205.606 -27.3981 201.675 -33.2005C189.686 -50.9905 173.056 -59.2464 157.417 -55.206C141.453 -51.1008 130.65 -37.5549 122.199 -24.8148C120.521 -22.286 118.947 -19.6936 117.268 -17.1648C110.822 -7.01837 104.143 3.51208 94.6369 11.1439C91.8993 13.2926 89.0105 15.2181 85.8658 16.8568C75.2788 22.2557 62.7739 23.7309 50.7381 20.892C38.5393 18.0855 26.4252 11.1258 13.4415 -0.30387C-36.1893 -44.6237 -61.5002 -117.673 -52.5477 -191.208L-56.1795 -191.836C-65.2377 -117.182 -39.3922 -42.8889 11.1228 2.09909C24.5136 14.0386 37.3143 21.2838 50.1534 24.2162C62.9341 27.2445 76.3588 25.6707 87.7145 19.95C91.0222 18.2789 94.1323 16.2249 97.0912 13.9478C106.993 5.89948 113.789 -4.82302 120.352 -15.1615C121.926 -17.7539 123.604 -20.2827 125.224 -22.7155C133.383 -34.9755 143.627 -48.0724 158.497 -51.791C172.552 -55.3475 187.541 -47.6935 198.577 -31.4022C202.356 -25.823 205.774 -19.412 208.994 -13.3839C210.831 -10.035 212.61 -6.59019 214.505 -3.33737C217.993 2.72193 221.54 7.50319 225.227 11.5812C238.407 25.7577 254.933 32.768 280.614 35.0866C281.848 35.1788 283.187 35.3344 284.479 35.3305C286.842 35.4512 289.31 35.6355 291.673 35.7561C311.86 36.9732 332.745 38.2201 349.596 47.5296C365.923 56.5212 378.739 73.8934 384.706 94.992C389.791 113.058 390.498 132.671 391.286 151.677C391.343 153.945 391.504 156.277 391.56 158.545C392.384 176.783 393.927 198.087 398.929 219.125C408.223 257.879 431.039 291.834 461.42 312.379L463.378 309.626C433.73 289.525 411.578 256.368 402.457 218.507C397.49 197.885 396.051 176.645 395.216 158.661C395.159 156.393 395.103 154.125 394.942 151.794C394.27 132.596 393.412 112.76 388.234 94.3743C382.325 73.1798 369.73 55.6792 353.602 45.8883Z" fill="#9C1628"/>
</g>
<g opacity="0.9">
<path opacity="0.9" d="M352.437 46.627C351.39 45.9912 350.238 45.2918 349.132 44.7521C332.63 36.0485 312.874 34.8302 293.759 33.7376C290.162 33.5249 286.401 33.3445 282.758 32.9721C281.524 32.88 280.29 32.7879 278.951 32.6322C255.482 30.211 239.503 23.0074 227.173 9.08395C223.742 5.29265 220.462 0.542533 217.172 -5.134C215.428 -8.16365 213.742 -11.2893 212.161 -14.3514C208.744 -20.7623 205.221 -27.2368 201.14 -33.2624C189.139 -50.7967 172.834 -59.1176 157.266 -55.4288C141.208 -51.6427 130.091 -38.2876 121.326 -25.7382C119.543 -23.273 117.806 -20.6482 116.07 -18.0233C109.414 -8.00408 102.479 2.23963 92.9264 9.7119C90.1888 11.8605 87.1953 13.7225 84.1089 15.2652C73.4172 20.6005 60.9241 21.8201 48.8883 18.9812C36.5848 16.1111 24.4707 9.15137 11.65 -2.3107C-37.2131 -45.7703 -62.0942 -117.639 -53.3639 -189.864L-56.9958 -190.492C-65.7734 -117.244 -40.4625 -44.1951 9.06355 0.061116C22.4543 12.0007 35.1503 19.1823 48.0358 22.2742C60.9213 25.3661 74.2294 23.9843 85.6898 18.3273C88.9975 16.6561 92.2123 14.6657 95.1712 12.3886C105.225 4.56345 112.172 -5.93587 119.049 -16.0836C120.727 -18.6124 122.464 -21.2372 124.247 -23.7025C132.72 -35.7717 143.383 -48.6143 158.299 -52.1734C172.238 -55.5378 187.169 -47.7878 198.158 -31.6561C202.088 -25.8537 205.611 -19.3792 208.982 -13.1279C210.668 -10.0022 212.354 -6.87653 214.098 -3.84687C217.481 2.14885 220.865 6.96254 224.552 11.0406C237.708 25.7282 254.42 33.3769 278.96 35.9226C280.194 36.0147 281.533 36.1705 282.767 36.2626C286.469 36.5389 290.171 36.8153 293.768 37.0281C312.453 38.1219 331.778 39.3415 347.651 47.6637C363.944 56.2401 376.993 73.2282 383.228 94.3579C388.442 111.977 389.486 131.269 390.612 149.954C390.715 152.382 390.923 154.873 391.025 157.301C392.025 174.069 393.964 196.139 399.442 217.334C409.25 255.481 431.914 289.212 461.748 309.951L463.706 307.198C434.71 286.967 412.441 254.002 402.97 216.717C397.689 195.904 395.75 175.017 394.739 157.321C394.636 154.894 394.429 152.403 394.326 149.975C393.316 131.098 392.226 111.646 386.873 93.5482C380.392 73.0582 368.042 56.1 352.437 46.627Z" fill="#A31628"/>
</g>
<g opacity="0.95">
<path opacity="0.95" d="M351.109 47.3967C349.748 46.5702 348.223 45.7762 346.804 45.0457C331.174 37.2659 312.757 36.2033 294.934 35.1069C290.265 34.7695 285.376 34.5606 280.766 34.1272C279.532 34.0351 278.298 33.943 277.017 33.6913C254.69 31.0431 238.525 23.201 226.219 8.76641C222.846 4.87913 219.671 0.192561 216.486 -5.42039C214.997 -8.1633 213.358 -11.1294 211.87 -13.8723C208.406 -20.4428 204.628 -27.204 200.5 -33.3892C188.65 -50.7004 172.346 -59.0212 156.952 -55.6205C140.906 -52.09 129.37 -38.9892 120.186 -26.6941C118.345 -24.1329 116.445 -21.4756 114.662 -19.0104C107.75 -9.27787 100.547 0.934717 90.8438 8.18382C88.0014 10.2689 85.0079 12.1308 81.9215 13.6735C71.1834 18.8492 58.5856 20.0053 46.6081 17.0704C34.3628 14.1043 22.144 7.08094 9.3233 -4.38114C-38.3877 -47.1414 -62.7342 -117.765 -54.2845 -188.584L-57.9164 -189.212C-66.367 -117.211 -41.5907 -45.4066 6.94634 -1.88216C20.2324 9.99381 32.9748 17.335 45.8603 20.427C58.6875 23.6149 72.1004 22.2966 83.6072 16.7992C87.0196 15.1916 90.1762 13.2972 93.1351 11.0201C103.177 3.45056 110.496 -6.95405 117.524 -16.8786C119.366 -19.4398 121.207 -22.0011 123.049 -24.5623C131.836 -36.4409 142.918 -49.0292 157.927 -52.269C177.885 -56.578 192.32 -39.2746 197.46 -31.6869C201.541 -25.6613 205.11 -19.0272 208.633 -12.5527C210.225 -9.74622 211.76 -6.84374 213.353 -4.03726C216.689 1.79886 220.015 6.70859 223.54 10.8191C236.567 25.9543 253.57 34.305 276.864 37.0142C278.202 37.1699 279.436 37.262 280.67 37.3541C285.443 37.755 290.275 38.06 295.001 38.3013C312.452 39.3029 330.438 40.3669 345.381 47.8612C361.639 56.0225 374.863 72.7225 381.319 93.7238C386.708 111.054 388.09 130.026 389.344 148.264C389.599 150.915 389.69 153.598 389.944 156.249C391.223 172.793 393.558 194.446 399.35 215.832C409.566 253.306 432.184 286.878 461.412 307.906L463.475 305.217C435.026 284.793 412.966 251.955 402.878 215.215C397.179 194.147 394.89 172.654 393.599 156.365C393.345 153.715 393.196 151.127 393 148.381C391.652 129.824 390.224 110.692 384.743 93.0426C378.506 73.0949 366.4 56.679 351.109 47.3967Z" fill="#AA1528"/>
</g>
<path d="M349.944 48.1353C348.269 47.1181 346.43 46.1333 344.638 45.3081C329.834 38.2925 312.488 37.3544 295.84 36.4462C290.311 36.1114 284.455 35.8415 278.937 35.2512C277.703 35.1591 276.527 34.9709 275.293 34.8788C253.781 32.0684 237.907 23.7463 225.52 8.73687C222.31 4.81715 219.135 0.130593 215.95 -5.48237C214.555 -7.90609 213.218 -10.4258 211.834 -13.1051C208.219 -19.8988 204.452 -26.9157 200.01 -33.2916C188.102 -50.5067 172.333 -58.7653 156.847 -55.6837C140.708 -52.4724 128.753 -39.6259 119.255 -27.5216C117.309 -25.024 115.246 -22.3343 113.405 -19.773C106.179 -10.2312 98.825 -0.241823 89.0749 6.84768C86.2326 8.93276 83.1344 10.7311 80.048 12.2738C69.2633 17.2899 56.6656 18.446 44.5833 15.4475C32.2333 12.4178 20.0728 5.29846 7.35685 -6.10003C-39.4116 -48.2881 -63.3866 -117.635 -55.1591 -187.143L-58.791 -187.771C-67.1241 -117.145 -42.7193 -46.6169 4.82869 -3.82423C18.0565 8.14775 30.6942 15.4254 43.7891 18.6445C56.6163 21.8324 70.0756 20.6738 81.6289 15.3359C84.983 13.8243 88.1979 11.834 91.2615 9.62042C101.349 2.21044 108.925 -7.90742 116.267 -17.6412C118.213 -20.1389 120.113 -22.7962 122.059 -25.2938C131.161 -36.9817 142.662 -49.3156 157.659 -52.2999C177.489 -56.1612 191.772 -39.081 196.912 -31.4932C201.203 -25.3405 204.865 -18.3873 208.539 -11.6896C209.98 -9.10627 211.317 -6.58653 212.654 -4.0668C215.991 1.76933 219.212 6.61546 222.573 10.7584C235.728 26.628 252.334 35.3952 274.918 38.3301C276.257 38.4858 277.432 38.674 278.666 38.7661C284.347 39.324 290.04 39.6263 295.733 39.9287C312.113 40.8058 328.923 41.6816 343.04 48.4117C359.368 56.2213 372.558 72.5061 379.34 93.4425C384.857 110.326 386.577 128.977 388.169 146.894C388.412 149.8 388.712 152.611 389.013 155.421C391.45 179.501 394.591 197.701 399.467 214.459C410.138 251.42 432.662 284.672 461.239 305.831L463.302 303.141C435.4 282.524 413.387 249.845 402.949 213.681C398.224 197.147 394.966 179.139 392.68 155.282C392.38 152.472 392.137 149.566 391.837 146.755C390.256 128.583 388.49 109.771 382.88 92.5693C376.574 72.9732 364.711 57.0997 349.944 48.1353Z" fill="#B11428"/>
<path d="M348.675 48.8102C346.685 47.6023 344.532 46.4267 342.472 45.5704C328.285 39.1919 312.115 38.442 296.375 37.6907C290.089 37.4221 283.534 37.1224 277.213 36.4386C275.979 36.3465 274.804 36.1584 273.628 35.9702C252.93 32.9976 237.453 24.259 224.834 8.45166C221.624 4.53192 218.612 -0.187061 215.531 -5.73645C214.287 -7.937 213.148 -10.074 211.962 -12.3705C208.196 -19.3874 204.336 -26.7234 199.684 -33.2265C187.823 -50.282 172.159 -58.477 156.742 -55.7471C140.511 -52.855 128.242 -40.1992 118.267 -28.2532C116.157 -25.7231 114.095 -23.0334 112.148 -20.5357C104.713 -11.1211 97.1032 -1.41842 87.2484 5.6075C84.406 7.69258 81.3078 9.4909 78.0702 10.8105C67.0179 15.7954 54.6997 16.727 42.5127 13.6649C30.3257 10.6028 17.7463 3.22919 5.34454 -7.97857C-40.5396 -49.4984 -63.98 -117.601 -56.1378 -185.766L-59.7697 -186.394C-67.7176 -117.111 -43.8473 -47.8272 2.65338 -5.67033C15.6252 6.0149 28.7283 13.7065 41.5555 16.8944C54.5922 20.2095 67.7254 19.1157 79.4882 13.905C82.8423 12.3934 86.1618 10.4666 89.1672 8.34911C99.3016 1.09872 107.191 -8.82842 114.743 -18.4351C116.747 -21.0287 118.857 -23.5589 120.861 -26.1525C130.44 -37.6821 142.15 -49.8889 157.345 -52.4904C177.047 -55.9041 191.179 -39.047 196.377 -31.5553C200.819 -25.1794 204.632 -18.003 208.399 -10.9861C209.584 -8.68954 210.828 -6.489 211.968 -4.35202C215.2 1.42053 218.362 6.36269 221.619 10.442C234.75 26.8229 251.484 36.3244 272.927 39.4864C274.265 39.6421 275.441 39.8303 276.675 39.9224C283.101 40.6697 289.713 40.8734 296.105 41.2056C312.275 41.9556 327.421 42.7405 340.817 48.77C357.11 56.1644 370.474 72.1612 377.478 92.9691C383.065 109.501 385.018 127.768 386.948 145.365C387.237 148.431 387.584 151.4 387.977 154.53C390.718 177.875 394.324 196.488 399.422 213.117C410.744 249.949 432.56 282.245 460.95 303.947L463.012 301.257C435.297 280.096 413.936 248.47 402.799 212.276C397.748 195.807 394.13 177.449 391.54 154.328C391.193 151.358 390.905 148.292 390.616 145.226C388.697 127.373 386.698 108.946 380.913 92.0324C374.746 72.9151 363.128 57.5839 348.675 48.8102Z" fill="#B81328"/>
<path d="M347.406 49.4842C345.102 48.0855 342.682 46.8789 340.203 45.7682C326.691 39.9308 311.265 39.3702 296.375 38.872C289.39 38.5736 282.184 38.4036 275.281 37.4979C274.105 37.3098 272.871 37.2177 271.695 37.0296C251.708 33.8312 236.627 24.6761 223.88 8.13435C220.833 4.18218 217.821 -0.536802 214.799 -6.18219C213.752 -7.99999 212.764 -9.91379 211.776 -11.8276C207.812 -19.2272 203.801 -26.7864 199.057 -33.6087C187.288 -50.345 171.787 -58.5725 156.499 -56.2902C140.175 -53.7172 127.487 -41.3158 117.302 -29.4969C115.088 -27.0304 112.862 -24.3082 110.753 -21.7781C103.004 -12.5542 95.0794 -3.04231 85.2364 3.72801C82.2894 5.74951 79.1911 7.54783 75.9536 8.86738C64.8548 13.6928 52.5366 14.6244 40.3031 11.4027C28.0114 8.27701 15.432 0.903352 3.08852 -10.4004C-41.609 -50.8057 -64.5732 -117.568 -56.9531 -184.423L-60.585 -185.051C-68.3107 -117.078 -44.9167 -49.1345 0.594975 -7.70942C13.4038 4.00826 26.5652 11.6038 39.4388 14.9513C52.4172 18.3624 65.5969 17.4282 77.4644 12.2811C80.8185 10.7695 84.1845 9.00232 87.2481 6.7888C97.5337 -0.238423 105.574 -9.94238 113.44 -19.3583C115.55 -21.8884 117.717 -24.5145 119.931 -26.9811C129.824 -38.3199 141.953 -50.2724 157.136 -52.6183C170.911 -54.7682 185.039 -47.1117 195.842 -31.6183C200.435 -25.0193 204.504 -17.556 208.364 -10.22C209.352 -8.30621 210.398 -6.48842 211.386 -4.57463C214.618 1.19793 217.676 6.07651 220.77 10.1883C233.866 27.336 250.366 37.2216 270.994 40.5458C272.274 40.7975 273.508 40.8896 274.789 41.1413C281.855 42.0145 289.166 42.2481 296.209 42.4505C311.472 43.0435 325.768 43.5754 338.652 49.0314C354.91 56.0106 368.391 71.8154 375.838 92.3664C381.599 108.61 383.844 126.397 386.054 143.769C386.494 147.058 386.887 150.188 387.327 153.477C390.464 176.405 394.35 194.795 399.82 211.518C411.492 247.774 433.319 279.814 461.162 301.709L463.329 299.083C436.115 277.569 414.846 246.262 403.36 210.645C398.041 194.144 394.097 175.851 390.948 153.179C390.45 149.986 390.115 146.76 389.675 143.471C387.523 126.003 385.186 107.896 379.331 91.3336C372.919 72.856 361.44 58.0036 347.406 49.4842Z" fill="#BF1329"/>
<path d="M180.686 -50.8041C172.936 -55.5088 164.625 -57.4006 156.335 -56.2575C139.976 -54.0998 127.428 -42.4015 116.312 -30.2285C114.04 -27.6659 111.768 -25.1034 109.495 -22.5408C101.595 -13.5401 93.2982 -4.12289 83.4088 2.48784C80.4617 4.50934 77.317 6.14807 74.0212 7.56363C62.8176 12.3254 50.453 13.0974 38.2196 9.87577C25.8814 6.5905 13.4067 -0.719586 1.06322 -12.0234C-42.6335 -51.9524 -65.1678 -117.534 -57.77 -183.079L-61.4019 -183.706C-68.9053 -117.044 -45.8829 -50.3773 -1.3602 -9.68398C11.4487 2.0337 24.5517 9.72524 37.5301 13.1364C50.6132 16.6111 63.7346 15.7729 75.7068 10.6893C79.1657 9.24129 82.4269 7.41052 85.537 5.3566C95.8691 -1.51104 104.224 -11.0243 112.241 -20.217C114.513 -22.7795 116.786 -25.3421 119.058 -27.9047C129.778 -39.6612 141.813 -50.7509 157.147 -52.8736C175.893 -55.4219 189.317 -40.7031 195.632 -31.7452C200.481 -24.8594 204.748 -17.0135 208.758 -9.45425C209.549 -7.92321 210.293 -6.55176 211.083 -5.02072C214.152 0.784272 217.268 5.56684 220.199 9.71104C233.317 27.5295 249.469 37.9912 269.444 41.4452C270.724 41.6969 272.063 41.8526 273.239 42.0407C280.84 42.9762 288.745 43.176 296.487 43.4083C311.005 43.8118 324.661 44.2179 336.869 49.1328C353.093 55.6969 366.749 71.2136 374.417 91.6361C380.307 107.432 382.89 124.899 385.228 141.823C385.714 145.272 386.201 148.721 386.792 152.233C390.22 174.681 394.595 192.973 400.275 209.824C412.459 245.471 434.135 277.288 461.267 299.409L463.435 296.783C436.768 275.076 415.546 243.928 403.605 208.823C397.913 192.228 393.748 174.063 390.203 151.807C389.717 148.359 389.231 144.91 388.64 141.398C386.15 124.25 383.626 106.687 377.538 90.5086C369.65 69.0325 355.063 52.688 337.78 45.7438C324.78 40.4798 310.204 40.1723 296.013 39.7039C288.434 39.4392 280.634 39.303 273.195 38.3351C272.019 38.1469 270.844 37.9588 269.668 37.7707C250.496 34.4101 235.648 24.871 222.937 7.5624C220.052 3.57779 217.041 -1.14121 214.018 -6.7866C213.17 -8.22164 212.484 -9.6891 211.635 -11.1241C207.578 -18.8429 203.311 -26.6889 198.311 -33.7979C193.101 -41.034 187.075 -46.9259 180.686 -50.8041Z" fill="#C61229"/>
<path d="M180.093 -50.7694C172.448 -55.4105 164.3 -57.3347 156.126 -56.3837C139.779 -54.4815 126.87 -43.1337 115.277 -31.1189C112.9 -28.6199 110.465 -26.0249 108.193 -23.4623C100.083 -14.5888 91.53 -5.45832 81.5358 1.08884C78.484 3.04676 75.3393 4.6855 72.1018 6.00505C60.8518 10.6073 48.4407 11.2197 36.2073 7.998C23.7644 4.64915 11.2897 -2.66094 -0.94907 -13.9011C-43.6568 -53.0985 -65.7148 -117.34 -58.5392 -181.574L-62.1711 -182.202C-65.7125 -149.925 -62.1758 -117.031 -51.8726 -87.2563C-41.5694 -57.4814 -24.8019 -31.272 -3.26776 -11.4982C9.43636 0.155921 22.5395 7.84748 35.5643 11.4182C48.5891 14.9889 61.8152 14.2143 73.8339 9.2903C77.2345 7.93831 80.6005 6.17113 83.7688 4.02119C94.1473 -2.68686 102.816 -12.0094 111.043 -21.075C113.42 -23.5739 115.75 -26.2325 118.127 -28.7315C129.162 -40.2973 141.674 -51.2287 156.938 -52.9998C175.451 -55.164 188.828 -40.6048 195.201 -31.7429C200.307 -24.5704 204.712 -16.2456 208.921 -8.30368L210.502 -5.24159C213.571 0.563399 216.524 5.37839 219.454 9.5226C232.642 28.1715 248.397 39.0497 267.72 42.6334C269.001 42.8851 270.281 43.1368 271.515 43.2289C279.594 44.3227 288.093 44.4888 296.219 44.5602C309.991 44.7743 323.065 44.9585 334.809 49.4595C350.998 55.6083 364.829 70.837 372.718 91.1311C378.678 106.575 381.494 123.658 384.17 140.262C384.808 143.934 385.34 147.542 385.978 151.214C389.71 172.927 394.55 191.632 400.509 208.259C413.043 243.33 434.731 274.891 461.258 297.302L463.53 294.739C437.411 272.839 416.293 241.755 403.886 207.418C397.973 190.951 393.179 172.405 389.494 150.852C388.857 147.18 388.324 143.572 387.687 139.9C384.964 123.136 382.16 105.798 375.944 90.0672C367.671 68.752 353.015 52.759 335.824 46.134C323.336 41.4436 309.4 41.2619 295.849 40.9194C287.781 40.752 279.492 40.7131 271.576 39.5869C270.401 39.3987 269.225 39.2106 268.049 39.0224C249.529 35.5322 234.973 25.5129 222.238 7.53355C219.354 3.54894 216.61 -1.13892 213.588 -6.78431L212.007 -9.84639C207.752 -17.9479 203.346 -26.2727 198.09 -33.6684C192.566 -41.0953 186.586 -46.8276 180.093 -50.7694Z" fill="#CE1129"/>
<path d="M179.499 -50.7367C171.959 -55.3142 163.974 -57.2709 155.917 -56.5118C139.477 -54.9289 126.149 -43.8353 114.242 -32.0113C111.702 -29.4799 109.162 -26.9484 106.726 -24.3534C98.3023 -15.6706 89.5402 -6.66732 79.4996 -0.279753C76.4478 1.67816 73.1984 3.25331 69.9608 4.57287C58.6644 9.01549 46.2533 9.62791 33.9735 6.24664C21.4259 2.83422 9.00945 -4.57188 -3.22929 -15.8121C-44.8897 -54.3736 -66.5761 -117.338 -59.6228 -180.262L-63.2547 -180.89C-66.7141 -149.22 -63.1419 -117.093 -53.141 -87.7646C-43.0819 -58.5321 -26.6168 -32.769 -5.65271 -13.4727C7.0514 -1.81859 19.9915 5.90539 33.121 9.53968C46.1458 13.1104 59.4184 12.4954 71.4835 7.73098C74.8841 6.37899 78.2501 4.6118 81.5696 2.68502C91.9945 -3.86343 100.815 -12.9628 109.46 -21.774C111.837 -24.273 114.436 -26.9004 116.917 -29.3358C128.37 -40.6474 141.092 -51.4516 156.449 -52.9035C173.972 -54.6175 186.804 -42.229 194.491 -31.5182C199.899 -23.8993 204.502 -15.1918 209.013 -6.80355L209.803 -5.2725C212.872 0.532489 215.616 5.22034 218.488 9.46055C231.791 29.0994 246.79 40.0438 265.67 43.8844C266.951 44.1361 268.231 44.3878 269.407 44.5759C277.963 45.828 286.846 45.8332 295.461 45.8072C308.652 45.7995 321.086 45.8579 332.527 49.9125C348.786 55.7097 362.687 70.5868 370.902 90.8161C377.096 105.876 380.086 122.671 383.1 138.954C383.784 142.786 384.468 146.617 385.21 150.353C389.338 171.649 394.458 190.13 400.731 206.947C413.918 241.888 434.791 272.43 461.294 295.352L463.508 292.885C437.994 270.695 416.865 239.867 404.003 206.043C397.776 189.385 392.703 171.063 388.563 150.023C387.821 146.288 387.137 142.456 386.453 138.625C383.497 122.245 380.356 105.227 374.128 89.7521C365.436 68.1825 351.012 52.9876 333.484 46.6831C321.461 42.4065 308.002 42.3831 295.138 42.3261C286.686 42.3196 277.861 42.2184 269.677 41.061C268.502 40.8729 267.326 40.6847 266.209 40.4006C248.341 36.7806 234.18 26.3448 221.482 7.59865C218.761 3.5816 216.063 -0.946646 212.994 -6.75164L212.204 -8.28269C207.751 -16.767 203.102 -25.6341 197.484 -33.3801C192.077 -40.999 185.992 -46.7949 179.499 -50.7367Z" fill="#D51029"/>
<path d="M178.859 -50.8627C172.261 -54.8681 164.568 -57.3048 155.707 -56.6392C139.175 -55.3754 125.533 -44.4726 113.206 -32.9028C110.562 -30.435 108.022 -27.9036 105.482 -25.3722C96.8481 -16.8165 87.7719 -8.00392 77.5801 -1.83953C74.4236 0.0548122 71.1742 1.62997 67.9366 2.94952C56.5354 7.32856 44.0779 7.78137 31.8564 4.30409C19.2623 0.732086 6.84589 -6.67401 -5.28815 -17.8506C-45.9595 -55.6804 -67.1114 -117.401 -60.5434 -178.981L-64.0705 -179.546C-67.3896 -148.58 -63.8985 -117.027 -54.0834 -88.337C-44.2683 -59.6468 -28.152 -34.4897 -7.66511 -15.3517C4.87599 -3.66512 17.9208 4.12243 31.155 7.82029C44.2263 11.5506 57.4989 10.9356 69.6104 6.33078C72.9527 5.0748 76.4234 3.3712 79.8013 1.3484C90.3774 -4.97687 99.4654 -14.0451 108.32 -22.7292C110.86 -25.2606 113.4 -27.792 115.987 -30.1638C127.812 -41.3806 140.895 -51.8346 156.403 -53.0633C173.798 -54.3296 186.478 -42.1643 194.119 -31.6131C199.992 -23.5803 204.932 -14.0113 209.28 -5.59056C212.29 0.310442 215.034 4.99828 217.697 9.11134C230.965 29.517 245.671 40.9415 263.842 45.0078C265.122 45.2595 266.298 45.4477 267.578 45.6994C276.449 47.1422 285.821 47.0501 294.82 46.8633C307.534 46.6972 319.49 46.5973 330.466 50.238C346.9 55.7472 360.674 69.8899 369.203 90.3098C375.467 105.018 378.737 121.589 381.879 137.424C382.714 141.479 383.503 145.374 384.338 149.429C388.757 170.245 394.203 188.661 401.012 205.54C414.606 239.81 435.434 270.192 461.226 293.339L463.545 290.936C438.218 268.203 417.635 238.363 404.284 204.636C397.685 187.884 392.227 169.723 387.854 149.067C386.961 145.108 386.23 141.117 385.5 137.126C382.265 120.971 378.995 104.401 372.533 89.3095C363.562 67.9644 348.917 52.8979 331.365 47.1046C319.702 43.1784 306.826 43.3769 294.439 43.4781C285.602 43.6325 276.393 43.6922 267.791 42.2805C266.615 42.0924 265.439 41.9042 264.322 41.6201C247.106 37.8703 233.237 26.9545 220.574 7.44147C218.016 3.39199 215.318 -1.13626 212.354 -6.87768C207.902 -15.362 202.915 -25.0906 196.891 -33.3466C192.553 -39.6589 186.505 -46.2216 178.859 -50.8627Z" fill="#DC1029"/>
<path d="M178.429 -50.8622C171.202 -55.249 163.543 -57.2705 155.661 -56.7995C139.035 -55.855 125.08 -45.1428 112.439 -33.7638C109.794 -31.296 106.986 -28.7957 104.342 -26.3279C95.394 -17.9629 86.1083 -9.2775 75.8701 -3.27269C72.6088 -1.44193 69.3594 0.133226 66.1801 1.35676C54.8372 5.63979 42.275 6.02904 29.9487 2.48817C17.2499 -1.14741 4.72876 -8.61707 -7.24226 -19.8261C-47.5994 -57.4652 -67.6941 -116.441 -61.1961 -177.67L-64.828 -178.298C-68.1234 -147.843 -64.818 -116.929 -55.1887 -88.8775C-45.5594 -60.8257 -29.9085 -36.0824 -9.88698 -17.3583C2.54939 -5.73534 15.5942 2.05223 28.8749 5.90968C41.9462 9.63998 55.2652 9.18455 67.4232 4.73933C70.7655 3.48336 74.2362 1.77975 77.6605 -0.083452C88.283 -6.24915 97.6852 -15.1266 106.691 -23.5876C109.336 -26.0554 112.039 -28.6193 114.684 -31.0871C126.824 -42.1132 140.22 -52.3764 155.822 -53.2859C173.041 -54.2642 185.722 -42.0989 193.316 -31.7073C199.038 -23.8977 203.885 -14.6479 208.384 -6.00395C211.394 -0.102949 214.034 4.52136 216.533 8.66686C229.707 29.9354 244.018 41.7763 261.699 45.94C262.921 46.2877 264.097 46.4758 265.377 46.7275C274.62 48.2651 284.213 48.0445 293.702 47.7603C305.345 47.4697 317.418 47.1778 328.033 50.4682C344.433 55.5622 358.323 69.5128 367.131 89.7083C373.465 104.065 376.968 120.251 380.39 135.863C381.33 139.981 382.212 144.195 383.152 148.314C387.967 168.713 393.692 186.905 400.816 203.975C414.76 237.668 435.599 267.795 460.844 291.135L463.163 288.732C438.278 265.742 417.846 236.125 404.041 202.911C397.069 186.064 391.332 168.128 386.563 147.888C385.623 143.77 384.742 139.556 383.802 135.437C380.333 119.666 376.784 103.32 370.252 88.5808C360.955 67.3006 346.181 52.6817 328.722 47.2076C317.467 43.7913 305.126 44.0521 293.158 44.4076C283.995 44.6269 274.506 44.911 265.636 43.4682C264.46 43.2801 263.343 42.9959 262.226 42.7118C245.452 38.7051 232.282 27.8192 219.562 7.22014C217.108 3.23424 214.469 -1.39005 211.505 -7.13146C206.96 -15.935 202.066 -25.3444 196.088 -33.4407C190.902 -41.1881 184.817 -46.984 178.429 -50.8622Z" fill="#E30F29"/>
<path d="M177.835 -50.8272C170.713 -55.1504 163.217 -57.2044 155.451 -56.9254C138.733 -56.3 124.358 -45.8422 111.403 -34.6539C108.654 -32.2497 105.788 -29.6534 103.038 -27.2491C93.881 -19.0114 84.3858 -10.4531 73.9964 -4.67144C70.7352 -2.84068 67.381 -1.3291 64.2017 -0.10557C52.6494 4.0503 40.4132 4.37468 27.8774 0.706655C15.3417 -2.96137 2.50634 -10.6218 -9.2552 -21.7037C-48.5187 -58.5473 -68.2882 -116.406 -62.0708 -176.229L-65.7026 -176.857C-68.7995 -147.201 -65.4122 -116.894 -56.0269 -89.3849C-46.7464 -61.939 -31.5025 -37.7057 -11.8416 -19.3319C0.385269 -7.83606 13.7442 0.142236 26.8619 4.03212C40.0379 7.82601 53.4034 7.53018 65.5031 3.18098C68.9501 1.98859 72.3625 0.380991 75.8451 -1.57822C86.5141 -7.58432 96.1723 -16.175 105.446 -24.6048C108.196 -27.0091 111.003 -29.5094 113.811 -32.0096C126.37 -42.7814 140.139 -52.9499 155.833 -53.5402C169.478 -54.0605 182.057 -46.6869 193.106 -31.8332C198.828 -24.0236 203.734 -14.8697 208.128 -6.2894C210.197 -2.14261 213.021 3.12003 216.009 8.35025C224.95 23.37 238.057 41.4441 260.091 46.9364C261.314 47.2841 262.489 47.4723 263.77 47.724C273.222 49.3887 283.2 49.0072 292.909 48.5946C304.238 48.1132 315.834 47.663 326.193 50.6667C342.558 55.3455 356.518 68.9445 365.653 89.0751C372.162 103.144 375.898 118.946 379.495 134.269C380.481 138.547 381.572 142.889 382.663 147.23C387.724 166.99 393.973 185.5 401.375 202.345C415.727 235.366 436.415 265.27 461.055 288.9L463.478 286.56C439.141 263.377 418.814 233.824 404.601 201.281C397.245 184.595 391.1 166.149 386.133 146.709C384.984 142.463 384.056 138.089 383.069 133.811C379.426 118.328 375.539 102.303 368.937 87.9152C359.256 66.7959 344.365 52.3691 326.882 47.4061C315.883 44.2766 303.961 44.7917 292.365 45.2419C282.923 45.6856 273.108 46.0347 264.028 44.4647C262.853 44.2765 261.735 43.9924 260.618 43.7082C244.438 39.6678 231.559 28.3018 218.933 6.83995C215.887 1.70577 213.166 -3.4933 211.097 -7.6401C206.657 -16.38 201.705 -25.6934 195.832 -33.7262C190.307 -41.1531 184.223 -46.949 177.835 -50.8272Z" fill="#EA0E2A"/>
<path d="M177.194 -50.9529C170.282 -55.149 162.949 -57.2354 155.242 -57.0524C139.455 -56.7812 125.92 -48.1789 110.309 -35.4491C107.455 -33.1085 104.706 -30.7042 101.956 -28.2999C92.4267 -20.1569 82.5591 -11.6933 72.0066 -5.87927C68.6407 -4.11208 65.2865 -2.60049 62.1072 -1.37696C50.4502 2.71533 38.1675 2.88011 25.69 -0.883928C13.0495 -4.61552 0.167779 -12.4355 -11.3843 -23.3903C-49.6588 -59.5021 -68.952 -116.021 -63.0615 -174.596L-66.6934 -175.224C-72.7943 -115.594 -53.0712 -57.8945 -13.9707 -21.0184C-1.9533 -9.6498 11.4521 -1.51192 24.6746 2.44155C38.06 6.36257 51.0412 6.22764 63.4086 1.90958C66.8556 0.717193 70.3728 -0.826816 73.8553 -2.78604C84.7338 -8.66498 94.7179 -17.3206 104.411 -25.4961C107.102 -27.8043 110.014 -30.241 112.705 -32.5492C127.652 -44.8936 140.686 -53.1431 155.449 -53.3792C169.082 -53.6439 181.498 -46.2378 192.442 -31.4477C198.525 -23.2877 203.57 -13.6551 207.313 -6.12705C209.626 -1.4379 212.195 3.53797 214.927 8.48143C223.786 24.1084 236.706 42.7262 258.03 48.4442C259.147 48.7284 260.369 49.0761 261.65 49.3278C271.416 51.1833 281.673 50.5773 291.604 50.0363C302.456 49.3966 313.737 48.7557 323.794 51.313C340.125 55.5766 354.26 68.8876 363.779 88.8573C370.358 102.574 374.374 118.152 378.204 133.092C379.399 137.497 380.478 142.093 381.779 146.562C387.177 166.001 393.752 184.446 401.481 201.227C416.136 233.512 436.778 263.256 460.975 287.143L463.503 284.867C439.632 260.915 419.293 231.618 404.835 199.715C397.153 183.094 390.729 164.872 385.377 145.593C384.181 141.188 382.939 136.623 381.848 132.282C377.972 117.183 373.909 101.446 367.238 87.4093C357.23 66.3549 342.211 52.3757 324.821 47.7319C314.183 44.9527 302.575 45.6586 291.456 46.2671C281.793 46.8393 271.698 47.4128 262.468 45.6196C261.292 45.4315 260.174 45.1473 259.057 44.8632C239.223 39.524 227.408 22.628 218.397 6.77783C215.607 1.9304 213.143 -2.98193 210.83 -7.67108C206.982 -15.2627 201.786 -25.1185 195.552 -33.5016C189.667 -41.2788 183.583 -47.0747 177.194 -50.9529Z" fill="#F10D2A"/>
<path d="M176.496 -50.9828C169.689 -55.1154 162.519 -57.2342 154.928 -57.2432C139.048 -57.2912 125.094 -48.9432 109.169 -36.4042C106.21 -34.1271 103.24 -31.5944 100.386 -29.2537C90.6464 -21.2378 80.5229 -13.061 69.9823 -7.50251C66.6163 -5.73532 63.1574 -4.28732 59.9317 -3.22338C48.2282 0.709324 36.0038 0.778087 23.3634 -2.9535C10.6181 -6.74868 -2.20536 -14.6647 -13.7575 -25.6194C-51.0429 -60.9995 -69.9063 -116.338 -64.1333 -173.539L-67.6605 -174.103C-73.5391 -115.784 -54.1876 -59.3608 -16.0761 -23.2165C-4.05869 -11.8478 9.28844 -3.61393 22.6739 0.30709C36.001 4.32414 49.0869 4.25277 61.5008 0.0943082C64.9478 -1.09809 68.465 -2.64209 71.994 -4.44172C82.9189 -10.1611 93.159 -18.5299 102.956 -26.6418C105.811 -28.9825 108.828 -31.3556 111.682 -33.6963C127.048 -45.7864 140.396 -53.8451 155.251 -53.7621C168.71 -53.7387 181.126 -46.3326 191.919 -31.7656C198.362 -23.2554 203.395 -13.3672 206.696 -6.76424C209.114 -2.01151 211.52 2.99684 214.147 7.87672C223.366 25.0361 235.599 43.3684 256.213 49.3122C257.435 49.6599 258.552 49.9441 259.833 50.1958C269.646 52.2108 280.287 51.444 290.498 50.6784C301.035 49.8481 311.944 49.1124 321.745 51.383C337.983 55.3274 352.293 68.3503 362.091 88.0956C368.682 101.557 372.931 116.751 377.041 131.466C378.283 136.03 379.572 140.754 380.977 145.287C386.666 164.246 393.626 182.53 401.727 199.405C417.035 231.561 437.025 260.252 460.977 284.779L463.505 282.503C439.751 258.359 420.121 230.018 405.011 198.245C397.014 181.433 390.043 163.405 384.505 144.669C383.158 140.041 381.811 135.413 380.569 130.848C376.413 115.974 372.222 100.684 365.375 86.9356C355.089 66.1057 339.848 52.2549 322.435 48.1224C312.052 45.6299 300.816 46.4305 289.953 47.3257C280.01 48.1224 269.695 48.8243 260.359 46.9676C259.242 46.6835 258.066 46.4953 257.007 46.1151C237.825 40.6462 226.15 23.047 217.327 6.65316C214.804 1.83686 212.34 -3.07544 209.922 -7.82815C206.574 -14.5907 201.285 -24.7656 194.691 -33.4991C189.132 -41.3411 182.989 -47.041 176.496 -50.9828Z" fill="#F80D2A"/>
<path d="M175.961 -51.0449C169.782 -54.7959 162.787 -57.2028 154.882 -57.4026C134.555 -57.9164 116.51 -43.7737 99.0826 -30.176C86.012 -19.9777 72.6035 -9.45889 58.1169 -4.71914C24.4972 6.27582 -4.62487 -17.0531 -15.6069 -27.5304C-51.9033 -62.1787 -70.2321 -116.273 -64.8444 -172.131L-68.5346 -172.663C-74.1327 -115.75 -55.3157 -60.5711 -18.1933 -25.1586C6.14394 -1.97495 34.3811 6.7572 59.4183 -1.43258C74.4522 -6.36566 88.245 -17.0453 101.432 -27.4357C119.197 -41.3539 136.007 -54.4067 154.996 -54.0486C180.596 -53.4867 196.49 -27.0192 206.173 -7.08188L207.358 -4.78528C218.273 17.6082 230.559 42.9366 254.396 50.1805C265.547 53.5332 277.551 52.4109 289.287 51.2574C299.51 50.2363 310.105 49.3099 319.592 51.3897C335.795 54.9189 350.279 67.6538 360.299 87.2706C367.065 100.444 371.442 115.19 375.727 129.617C377.179 134.309 378.514 139.192 380.07 143.948C396.805 196.417 424.685 244.221 460.77 282.288L463.402 280.076C427.725 242.518 400.147 195.161 383.552 143.171C382.1 138.479 380.602 133.628 379.15 128.936C374.819 114.349 370.291 99.3802 363.432 85.8875C352.761 65.2184 337.346 51.6557 319.967 47.9384C309.84 45.7327 298.919 46.7239 288.428 47.7139C277.018 48.8025 265.34 49.86 255.039 46.7603C232.901 40.0224 221.394 16.4807 210.386 -6.23199L209.201 -8.52858C202.18 -23.1708 191.566 -41.5718 175.961 -51.0449Z" fill="#FF0C2A"/>
</g>
<path opacity="0.2" fill-rule="evenodd" clip-rule="evenodd" d="M157.412 26.7363C157.153 26.7363 156.943 26.9417 156.943 27.1952V30.765C156.943 31.0184 157.153 31.2238 157.412 31.2238H178.488C178.747 31.2238 178.957 31.0184 178.957 30.765V27.1952C178.957 26.9417 178.747 26.7363 178.488 26.7363H157.412Z" fill="url(#paint0_linear)"/>
<path opacity="0.2" fill-rule="evenodd" clip-rule="evenodd" d="M56.7175 78.8867C56.5652 78.8867 56.4419 78.9944 56.4419 79.1272V80.998C56.4419 81.1308 56.5652 81.2384 56.7175 81.2384H69.1008C69.2531 81.2384 69.3764 81.1308 69.3764 80.998V79.1272C69.3764 78.9944 69.2531 78.8867 69.1008 78.8867H56.7175Z" fill="#FF9E93"/>
<path opacity="0.2" fill-rule="evenodd" clip-rule="evenodd" d="M174.262 0.843262C173.221 0.843262 172.377 1.66452 172.377 2.67759V10.9419C172.377 13.9869 170.548 15.4579 167.91 15.4579C165.342 15.4579 163.443 13.9869 163.443 10.9419V2.67759C163.443 1.66452 162.599 0.843262 161.557 0.843262H158.998C157.956 0.843262 157.112 1.66452 157.112 2.67759V10.6338C157.112 13.9527 158.132 16.5528 160.172 18.4003C162.212 20.2137 164.78 21.1376 167.91 21.1376C171.04 21.1376 173.608 20.2137 175.648 18.4003C177.677 16.5624 178.697 13.9795 178.708 10.685V2.66104C178.698 1.65561 177.858 0.843262 176.822 0.843262H174.262Z" fill="url(#paint1_linear)"/>
<path opacity="0.2" fill-rule="evenodd" clip-rule="evenodd" d="M66.714 63.6006C66.0901 63.6006 65.5846 64.0764 65.5846 64.6634V69.4518C65.5846 71.2161 64.4891 72.0684 62.9092 72.0684C61.3714 72.0684 60.2338 71.2161 60.2338 69.4518V64.6634C60.2338 64.0764 59.7282 63.6006 59.1044 63.6006H57.5713C56.9476 63.6006 56.4419 64.0764 56.4419 64.6634V69.2733C56.4419 71.1963 57.0528 72.7028 58.2747 73.7732C59.4964 74.8239 61.0344 75.3592 62.9092 75.3592C64.7841 75.3592 66.3218 74.8239 67.5436 73.7732C68.7592 72.7083 69.3701 71.2118 69.3764 69.3029V64.6538C69.3709 64.0713 68.8674 63.6006 68.247 63.6006H66.714Z" fill="#FF9E93"/>
</g>
<defs>
<linearGradient id="paint0_linear" x1="76.5781" y1="2.45188" x2="76.5781" y2="39.7047" gradientUnits="userSpaceOnUse">
<stop stop-color="#FF421D"/>
<stop offset="1" stop-color="#FF0400"/>
</linearGradient>
<linearGradient id="paint1_linear" x1="148.27" y1="0.523766" x2="148.27" y2="37.4359" gradientUnits="userSpaceOnUse">
<stop stop-color="#FF421D"/>
<stop offset="1" stop-color="#FF0400"/>
</linearGradient>
<clipPath id="clip0">
<rect width="478.577" height="275.152" fill="white" transform="translate(0 -141)"/>
</clipPath>
</defs>
</svg>
