<svg width="575" height="241" viewBox="0 0 575 241" fill="none" xmlns="http://www.w3.org/2000/svg">
<g clip-path="url(#clip0)">
<path d="M202.976 105.103C215.867 102.783 224.085 88.4988 221.331 73.1975C218.578 57.8963 205.896 47.3726 193.005 49.6921C180.115 52.0117 171.897 66.2962 174.65 81.5974C177.404 96.8987 190.085 107.422 202.976 105.103Z" fill="#0F0F1E"/>
<path d="M224.314 72.6405C227.068 87.9527 218.852 102.238 205.967 104.572C193.083 106.906 180.385 96.3557 177.63 81.0436C174.876 65.7314 183.092 51.4463 195.977 49.1121C208.862 46.8246 221.56 57.3284 224.314 72.6405Z" fill="url(#paint0_linear)"/>
<path d="M205.068 99.8564C215.777 97.9295 222.603 86.0616 220.315 73.3486C218.028 60.6356 207.492 51.8918 196.784 53.8187C186.076 55.7456 179.249 67.6135 181.537 80.3265C183.825 93.0395 194.36 101.783 205.068 99.8564Z" fill="#29293F"/>
<path fill-rule="evenodd" clip-rule="evenodd" d="M209.142 85.5245L193.923 85.0576C193.736 85.0576 193.596 85.2444 193.596 85.4778V88.4188C193.596 88.6056 193.736 88.7923 193.923 88.7456H209.142C209.329 88.7456 209.469 88.5589 209.469 88.3721V85.8046C209.469 85.6645 209.329 85.5245 209.142 85.5245Z" fill="url(#paint1_linear)"/>
<path fill-rule="evenodd" clip-rule="evenodd" d="M201.487 81.3701C203.727 81.3234 205.595 80.5764 207.089 79.1759C208.536 77.8221 209.283 76.0015 209.283 73.6206V67.0849C209.283 66.3847 208.676 65.7311 207.929 65.6377L206.062 65.4043C205.315 65.311 204.708 65.8711 204.708 66.6181V73.5739C204.708 75.8614 203.401 76.9351 201.487 76.9351C199.619 76.9351 198.265 75.7214 198.265 73.2938V65.9178C198.265 65.1242 197.659 64.3773 196.912 64.2839L195.044 64.0505C194.297 63.9571 193.69 64.564 193.69 65.4043V72.7803C193.69 75.5346 194.437 77.6821 195.885 79.1759C197.378 80.7632 199.246 81.4634 201.487 81.3701Z" fill="url(#paint2_linear)"/>
<path d="M445.838 132.723C458.601 132.657 468.882 120.063 468.801 104.593C468.721 89.1235 458.31 76.6367 445.548 76.7029C432.785 76.7691 422.505 89.3633 422.585 104.833C422.665 120.302 433.076 132.789 445.838 132.723Z" fill="#0F0F1E"/>
<path d="M464.687 104.619C464.78 120.071 454.65 132.675 442.139 132.722C429.581 132.769 419.357 120.304 419.311 104.852C419.217 89.3998 429.348 76.7952 441.859 76.7486C454.37 76.6552 464.594 89.1664 464.687 104.619Z" fill="url(#paint3_linear)"/>
<path d="M442.078 127.962C452.495 127.908 460.884 117.455 460.818 104.616C460.751 91.7759 452.253 81.4111 441.837 81.4651C431.421 81.5192 423.031 91.9716 423.098 104.811C423.164 117.651 431.662 128.016 442.078 127.962Z" fill="#29293F"/>
<path fill-rule="evenodd" clip-rule="evenodd" d="M434.996 112.042C434.81 112.042 434.716 112.167 434.716 112.333V114.574C434.716 114.74 434.856 114.865 434.996 114.865H448.535C448.721 114.865 448.815 114.74 448.815 114.574V112.333C448.815 112.167 448.675 112.042 448.535 112.042H434.996Z" fill="url(#paint4_linear)"/>
<path fill-rule="evenodd" clip-rule="evenodd" d="M434.996 112.042C434.81 112.042 434.716 112.167 434.716 112.333V114.574C434.716 114.74 434.856 114.865 434.996 114.865H448.535C448.721 114.865 448.815 114.74 448.815 114.574V112.333C448.815 112.167 448.675 112.042 448.535 112.042H434.996Z" fill="url(#paint5_linear)"/>
<path fill-rule="evenodd" clip-rule="evenodd" d="M445.781 95.7729C445.128 95.7729 444.567 96.271 444.567 96.935V102.123C444.567 104.032 443.4 104.945 441.72 104.945C440.086 104.945 438.872 104.032 438.872 102.123V96.935C438.872 96.3125 438.312 95.7729 437.658 95.7729H436.024C435.371 95.7729 434.811 96.271 434.811 96.935V101.915C434.811 103.991 435.464 105.651 436.771 106.813C438.078 107.933 439.712 108.515 441.72 108.515C443.727 108.515 445.361 107.933 446.668 106.813C447.975 105.651 448.629 104.032 448.629 101.957V96.935C448.629 96.3125 448.069 95.7729 447.415 95.7729H445.781Z" fill="url(#paint6_linear)"/>
<path fill-rule="evenodd" clip-rule="evenodd" d="M445.781 95.7729C445.128 95.7729 444.567 96.271 444.567 96.935V102.123C444.567 104.032 443.4 104.945 441.72 104.945C440.086 104.945 438.872 104.032 438.872 102.123V96.935C438.872 96.3125 438.312 95.7729 437.658 95.7729H436.024C435.371 95.7729 434.811 96.271 434.811 96.935V101.915C434.811 103.991 435.464 105.651 436.771 106.813C438.078 107.933 439.712 108.515 441.72 108.515C443.727 108.515 445.361 107.933 446.668 106.813C447.975 105.651 448.629 104.032 448.629 101.957V96.935C448.629 96.3125 448.069 95.7729 447.415 95.7729H445.781Z" fill="url(#paint7_linear)"/>
<path opacity="0.75" d="M313.433 241.446C354.672 241.446 388.103 231.237 388.103 218.643C388.103 206.049 354.672 195.84 313.433 195.84C272.194 195.84 238.764 206.049 238.764 218.643C238.764 231.237 272.194 241.446 313.433 241.446Z" fill="url(#paint8_radial)" fill-opacity="0.3"/>
<path opacity="0.75" d="M393.915 240.552C428.24 240.552 456.065 230.943 456.065 219.09C456.065 207.237 428.24 197.628 393.915 197.628C359.591 197.628 331.765 207.237 331.765 219.09C331.765 230.943 359.591 240.552 393.915 240.552Z" fill="url(#paint9_radial)" fill-opacity="0.3"/>
<path opacity="0.75" d="M456.5 220.773C491.018 220.773 519 214.057 519 205.773C519 197.489 491.018 190.773 456.5 190.773C421.982 190.773 394 197.489 394 205.773C394 214.057 421.982 220.773 456.5 220.773Z" fill="url(#paint10_radial)" fill-opacity="0.3"/>
<path opacity="0.75" d="M192.075 230.716C232.326 230.716 264.956 223.509 264.956 214.619C264.956 205.73 232.326 198.523 192.075 198.523C151.824 198.523 119.194 205.73 119.194 214.619C119.194 223.509 151.824 230.716 192.075 230.716Z" fill="url(#paint11_radial)" fill-opacity="0.3"/>
<path opacity="0.75" d="M97.0256 231.61C121.966 231.61 142.185 224.403 142.185 215.513C142.185 206.624 121.966 199.417 97.0256 199.417C72.0848 199.417 51.8662 206.624 51.8662 215.513C51.8662 224.403 72.0848 231.61 97.0256 231.61Z" fill="url(#paint12_radial)" fill-opacity="0.3"/>
<path opacity="0.23" d="M199.478 117.877C213.04 117.877 224.034 115.41 224.034 112.368C224.034 109.326 213.04 106.859 199.478 106.859C185.917 106.859 174.923 109.326 174.923 112.368C174.923 115.41 185.917 117.877 199.478 117.877Z" fill="url(#paint13_linear)"/>
<path opacity="0.11" d="M199.291 123.198C212.183 123.198 222.633 121.234 222.633 118.81C222.633 116.387 212.183 114.422 199.291 114.422C186.4 114.422 175.95 116.387 175.95 118.81C175.95 121.234 186.4 123.198 199.291 123.198Z" fill="url(#paint14_linear)"/>
<path d="M324.735 61.7954C340.728 55.4721 348.413 36.9923 341.9 20.5195C335.387 4.0468 317.142 -4.18092 301.149 2.1424C285.156 8.46573 277.471 26.9456 283.984 43.4183C290.497 59.8911 308.741 68.1188 324.735 61.7954Z" fill="#0F0F1E"/>
<path d="M337.941 20.4944C344.43 36.9737 336.774 55.4604 320.762 61.7626C304.749 68.0649 286.543 59.8486 280.007 43.3693C273.471 26.8901 281.174 8.40343 297.187 2.10117C313.199 -4.2011 331.452 4.01519 337.941 20.4944Z" fill="url(#paint15_linear)"/>
<path d="M319.164 57.6239C332.928 52.1822 339.543 36.2832 333.94 22.1123C328.337 7.94143 312.638 0.865003 298.875 6.30666C285.111 11.7483 278.496 27.6474 284.099 41.8183C289.702 55.9892 305.401 63.0656 319.164 57.6239Z" fill="#29293F"/>
<path opacity="0.19" d="M470 142.726L441.57 139L420 142.966L445.024 146L470 142.726Z" fill="url(#paint16_linear)"/>
<path opacity="0.37" d="M472 136.272L441.319 132L418 136.517L445.023 140L472 136.272Z" fill="url(#paint17_linear)"/>
<g opacity="0.37">
<path opacity="0.37" d="M105.598 132.349L105.131 132.302L107.138 81.417H107.605L105.598 132.349Z" fill="url(#paint18_linear)"/>
</g>
<g opacity="0.37">
<path opacity="0.37" d="M94.8606 141.078L94.3938 141.032L96.6813 83.4243H97.1481L94.8606 141.078Z" fill="url(#paint19_linear)"/>
</g>
<path d="M177.117 125.907L165.82 59.2427H236.031L220.906 126.14L177.117 125.907Z" fill="url(#paint20_linear)"/>
<path opacity="0.2" d="M235.237 82.1312C235.237 83.0441 234.55 83.7287 233.634 83.7287C232.718 83.7287 232.031 83.0441 232.031 82.1312C232.031 81.2183 232.718 80.5337 233.634 80.5337C234.55 80.5337 235.237 81.2183 235.237 82.1312Z" fill="#E82818"/>
<path opacity="0.9" d="M189.406 46.0588C189.406 45.1258 190.185 44.5038 190.965 44.5038C191.9 44.5038 192.524 45.2813 192.524 46.0588C192.524 46.8363 191.744 47.6138 190.965 47.6138C190.185 47.6138 189.406 46.8363 189.406 46.0588Z" fill="url(#paint21_linear)"/>
<path opacity="0.9" d="M79.3469 81.9331C79.3469 81.3327 79.8484 80.9325 80.35 80.9325C80.9518 80.9325 81.353 81.4328 81.353 81.9331C81.353 82.4333 80.8515 82.9336 80.35 82.9336C79.8484 82.9336 79.3469 82.4333 79.3469 81.9331Z" fill="url(#paint22_linear)"/>
<path opacity="0.2" d="M221 60.9603C221 61.4935 220.599 61.8933 220.064 61.8933C219.53 61.8933 219.129 61.4935 219.129 60.9603C219.129 60.4272 219.53 60.0273 220.064 60.0273C220.599 60.1606 221 60.5605 221 60.9603Z" fill="#FF9E93"/>
<path d="M180.676 98.8408C180.676 100.468 182.037 101.554 183.398 101.554C185.032 101.554 186.121 100.197 186.121 98.8408C186.121 97.4843 184.76 96.1279 183.398 96.1279C182.037 96.1279 180.676 97.2131 180.676 98.8408Z" fill="url(#paint23_linear)"/>
<path d="M82.9999 112.519C82.9999 113.566 83.8759 114.264 84.7519 114.264C85.8031 114.264 86.5039 113.391 86.5039 112.519C86.5039 111.646 85.6279 110.773 84.7519 110.773C83.8759 110.773 82.9999 111.471 82.9999 112.519Z" fill="url(#paint24_linear)"/>
<path opacity="0.2" d="M177.558 113.85C177.558 114.736 178.225 115.401 179.114 115.401C180.003 115.401 180.67 114.736 180.67 113.85C180.67 112.965 180.003 112.3 179.114 112.3C178.225 112.3 177.558 112.965 177.558 113.85Z" fill="#E82818"/>
<path opacity="0.2" d="M180.052 34.2357C180.052 35.1216 180.719 35.7859 181.608 35.7859C182.497 35.7859 183.164 35.1216 183.164 34.2357C183.164 33.3499 182.497 32.6855 181.608 32.6855C180.719 32.6855 180.052 33.3499 180.052 34.2357Z" fill="#E82818"/>
<path opacity="0.2" d="M88.0001 76.9975C88.0001 77.5674 88.4292 77.9949 89.0013 77.9949C89.5734 77.9949 90.0024 77.5674 90.0024 76.9975C90.0024 76.4275 89.5734 76 89.0013 76C88.4292 76 88.0001 76.4275 88.0001 76.9975Z" fill="#E82818"/>
<path opacity="0.2" d="M82 91.4982C82 91.7828 82.2143 91.9963 82.5 91.9963C82.7857 91.9963 83 91.7828 83 91.4982C83 91.2135 82.7857 91 82.5 91C82.2143 91 82 91.2135 82 91.4982Z" fill="#E82818"/>
<path opacity="0.2" d="M119 100.997C119 101.567 119.429 101.995 120.001 101.995C120.573 101.995 121.002 101.567 121.002 100.997C121.002 100.427 120.573 100 120.001 100C119.429 100 119 100.427 119 100.997Z" fill="#E82818"/>
<path opacity="0.9" d="M186.911 108.88C186.911 109.813 187.691 110.435 188.47 110.435C189.405 110.435 190.029 109.657 190.029 108.88C190.029 108.102 189.25 107.325 188.47 107.325C187.691 107.325 186.911 108.102 186.911 108.88Z" fill="url(#paint25_linear)"/>
<path opacity="0.9" d="M77.7417 122.356C77.7417 122.956 78.2432 123.356 78.7447 123.356C79.3466 123.356 79.7478 122.856 79.7478 122.356C79.7478 121.855 79.2463 121.355 78.7447 121.355C78.2432 121.355 77.7417 121.855 77.7417 122.356Z" fill="url(#paint26_linear)"/>
<path opacity="0.9" d="M112 79.0005C112 79.6009 112.501 80.0011 113.003 80.0011C113.605 80.0011 114.006 79.5008 114.006 79.0005C114.006 78.5003 113.505 78 113.003 78C112.501 78 112 78.5003 112 79.0005Z" fill="url(#paint27_linear)"/>
<path opacity="0.3" d="M226.252 89.5932C226.252 90.6266 227.03 91.1433 227.808 91.1433C228.845 91.1433 229.364 90.3682 229.364 89.5932C229.364 88.5597 228.586 88.043 227.808 88.043C227.03 88.043 226.252 88.8181 226.252 89.5932Z" fill="#E82818"/>
<path opacity="0.2" d="M228.466 40.7575C227.858 40.7575 227.364 40.2584 227.364 39.6427C227.364 39.027 227.858 38.5278 228.466 38.5278C229.075 38.5278 229.568 39.027 229.568 39.6427C229.568 40.2584 229.075 40.7575 228.466 40.7575Z" fill="#E82818"/>
<path d="M117.829 67.6919L116.428 129.828L84.1702 127.447L86.411 72.4069L117.829 67.6919Z" fill="url(#paint28_linear)"/>
<path opacity="0.19" d="M338.5 84.385L306.187 78L282 84.7701L310.023 90L338.5 84.385Z" fill="url(#paint29_linear)"/>
<path opacity="0.49" d="M341 74.4532L305.77 67L279 74.8897L310.022 81L341 74.4532Z" fill="url(#paint30_linear)"/>
<path d="M480.653 106.439L464.127 161.012H425.986L409.414 109.52L442.139 103.358L480.653 106.439Z" fill="url(#paint31_linear)"/>
<path d="M360.443 1.77539L334.533 99.6706H285.562L263.995 15.6871L286.823 16.5274L318.054 14.1465L360.443 1.77539Z" fill="url(#paint32_linear)"/>
<path d="M348.772 95.3753L349.799 164.14L299.334 203.027V129.361L315.393 113.629L315.767 92.7144L348.772 95.3753Z" fill="#29293F"/>
<path d="M291.445 94.4419L274.639 100.744V165.401L299.334 203.028V129.361L291.585 114.142L291.445 94.4419Z" fill="#1C1C2D"/>
<path d="M315.767 92.6211L291.445 94.3951L291.585 114.049L315.393 113.582L315.767 92.6211Z" fill="#20202D"/>
<path d="M299.334 129.267L315.393 113.582L291.585 114.048L299.334 129.267Z" fill="#32324C"/>
<path d="M349.705 156.484L356.568 163.3L296.72 210.076L268.29 165.961L274.638 162.179V165.354L299.334 202.981L349.799 164.047L349.705 156.484Z" fill="#191927"/>
<path d="M356.428 163.44L357.269 222.868L296.72 225.716L296.58 210.17L356.428 163.44Z" fill="#29293F"/>
<path d="M268.15 166.054L296.58 210.17L296.72 225.716L268.15 218.153V166.054Z" fill="#1C1C2D"/>
<path d="M288.597 108.073L276.039 111.715V113.582L288.597 110.221V108.073Z" fill="url(#paint33_linear)"/>
<path d="M290.744 120.443L276.039 123.665V125.532L290.744 122.404V120.443Z" fill="url(#paint34_linear)"/>
<path d="M276.039 135.476V137.53L296.813 134.402V132.162L276.039 135.476Z" fill="url(#paint35_linear)"/>
<path d="M281.128 148.828L296.813 147.567V145.42L281.128 146.96V148.828Z" fill="url(#paint36_linear)"/>
<path d="M276.039 161.571L296.813 161.011V158.63L276.039 159.657V161.571Z" fill="url(#paint37_linear)"/>
<path d="M283.508 174.037L296.813 174.457V172.216H283.508V174.037Z" fill="url(#paint38_linear)"/>
<path d="M324.17 106.439V108.587L342.61 109.521V107.513L324.17 106.439Z" fill="url(#paint39_linear)"/>
<path d="M319.455 121.424L342.61 122.451V120.444L319.455 119.137V121.424Z" fill="url(#paint40_linear)"/>
<path d="M306.057 133.936L342.61 135.29V133.049L306.057 131.742V133.936Z" fill="url(#paint41_linear)"/>
<path d="M306.057 147.334L342.61 148.034V145.747L306.057 145.14V147.334Z" fill="url(#paint42_linear)"/>
<path d="M306.057 161.012H342.61V159.052L306.057 158.631V161.012Z" fill="url(#paint43_linear)"/>
<path d="M325.337 172.589H306.057V174.457H325.337V172.589Z" fill="url(#paint44_linear)"/>
<path d="M271.278 188.509V190.61L280.381 191.637V189.256L271.278 188.509Z" fill="#FF2911"/>
<path d="M271.278 199.479L286.45 201.72V204.101L271.278 201.767V199.479Z" fill="#FF2911"/>
<path d="M271.278 210.076V211.944L292.098 217.032V214.418L271.278 210.076Z" fill="#FF2911"/>
<path d="M331.266 190.049V192.617L353.3 192.243V190.049H331.266Z" fill="url(#paint45_linear)"/>
<path d="M316.887 205.455L352.833 204.101V201.767L316.887 203.027V205.455Z" fill="url(#paint46_linear)"/>
<path d="M279.027 143.552H224.5V152.235H279.027V143.552Z" fill="#191927"/>
<g clip-path="url(#clip1)">
<path d="M249.581 149.697L252.255 146.398L254.573 149.697H249.581Z" fill="#32324C"/>
<path d="M257.336 146.398L259.788 149.697L262.819 146.398H257.336Z" fill="#32324C"/>
<path d="M271.466 146.398L273.962 149.697L276.948 146.398H271.466Z" fill="#32324C"/>
<path d="M234.292 149.697L237.011 146.398L239.285 149.697H234.292Z" fill="#32324C"/>
<path d="M264.735 149.697L267.454 146.398L269.727 149.697H264.735Z" fill="#32324C"/>
<path d="M242.093 146.398L244.544 149.697L247.53 146.398H242.093Z" fill="#32324C"/>
</g>
<path d="M222.353 126.14C222.307 126.046 222.213 126 222.073 125.953L221.98 125.906H221.933C219.786 124.879 210.636 124.132 199.619 124.132C188.648 124.132 179.451 124.879 177.304 125.906H177.21L165.726 133.096L198.825 139.725L232.997 134.123L222.353 126.14Z" fill="#323244"/>
<path d="M199.478 131.322C180.898 131.322 165.866 132.489 165.866 133.936L164.792 214.838C164.792 216.286 180.105 217.453 198.965 217.453C217.825 217.453 233.137 216.286 233.137 214.838V133.936C233.09 132.489 218.012 131.322 199.478 131.322Z" fill="#1B1B26"/>
<path d="M170.254 132.536L168.76 216.052" stroke="#515177" stroke-width="0.933669" stroke-miterlimit="10"/>
<path d="M175.997 132.162L174.736 216.052" stroke="#515177" stroke-width="0.933669" stroke-miterlimit="10"/>
<path d="M184.119 131.928L182.532 217.172" stroke="#515177" stroke-width="0.933669" stroke-miterlimit="10"/>
<path d="M193.176 131.928L192.196 217.032" stroke="#515177" stroke-width="0.933669" stroke-miterlimit="10"/>
<path d="M203.353 132.162L202.326 217.499" stroke="#515177" stroke-width="0.933669" stroke-miterlimit="10"/>
<path d="M211.803 217.499L212.97 131.928" stroke="#515177" stroke-width="0.933669" stroke-miterlimit="10"/>
<path d="M221.466 131.928L220.252 217.172" stroke="#515177" stroke-width="0.933669" stroke-miterlimit="10"/>
<path d="M227.442 132.162L226.741 216.425" stroke="#515177" stroke-width="0.933669" stroke-miterlimit="10"/>
<path d="M231.503 132.955L230.57 215.865" stroke="#515177" stroke-width="0.933669" stroke-miterlimit="10"/>
<path d="M116.615 124.132L72.1726 127.26L69.1848 216.052L101.536 217.172L114.141 205.081L116.615 124.132Z" fill="#171721"/>
<path d="M225.668 132.208V139.538L220.952 145.046L215.304 139.211V131.648H210.822V138.837L203.026 145.84L195.697 138.371V131.602H190.702V138.371L183.559 145.653L178.097 140.191V131.742H174.129L173.942 139.958L170.114 145.84L168.294 140.705L168.387 132.675L165.866 132.955V141.639V148.968L166.66 146.68L168.434 150.648L168.76 158.071L166.239 162.133L165.493 160.732L165.399 166.381L165.166 184.027L165.866 181.88L167.92 187.902V193.971L165.679 199.012L164.979 197.052L164.792 200.973L164.746 201.113V214.465L166.239 215.398V206.062L168.714 200.6L171.375 206.388V216.005L177.35 216.332V206.388L182.345 201.16L187.667 206.715V217.126H196.164V206.388L204.987 198.406V187.482L215.957 177.445V167.781L224.08 159.378L224.127 149.435L230.383 141.032V132.162L225.668 132.208ZM185.893 150.508L193.129 143.506L200.365 150.555V157.511L192.662 164.327L185.893 157.651V150.508ZM171.421 150.648L175.716 144.393L181.038 150.508V157.744L175.389 163.86L171.421 157.978V150.648ZM166.706 176.091V169.042L169.881 163.533L173.149 169.182V176.418L169.087 182.393L166.706 176.091ZM180.478 195.184L174.222 201.767L170.628 195.044V187.388L174.969 181.553L180.431 187.855V195.184H180.478ZM177.303 176.511V168.762L183.046 162.273L190.095 169.462V176.044L183.186 182.953L177.303 176.511ZM199.945 195.511L192.195 202.654L185.286 195.651V187.668L192.195 181.086L199.945 188.135V195.511ZM210.075 176.418L202.279 183.42L195.183 176.418V169.088L202.699 162.273L210.075 169.182V176.418ZM219.179 157.651L212.596 164.467L205.454 157.651V150.695L212.97 143.459L219.179 150.042V157.651Z" fill="url(#paint47_linear)"/>
<path d="M432.896 211.944V223.241L394.008 225.715L404.465 213.764L432.896 211.944Z" fill="#29293F"/>
<path d="M385.185 213.111L394.008 225.716L367.212 220.72V210.777L385.185 213.111Z" fill="#0F0F1E"/>
<path d="M404.465 213.764L394.008 225.715L385.185 213.111L404.465 213.764Z" fill="#32324C"/>
<path d="M432.896 211.944L404.465 213.765L385.185 213.111L367.212 210.777L402.971 209.703L432.896 211.944Z" fill="#32324C"/>
<path d="M403.018 209.937L376.735 210.683L388.826 212.551L403.065 213.064L425.239 211.804L403.018 209.937Z" fill="#D4271C"/>
<path d="M487.329 180.712L463.894 192.523V207.882L488.216 206.855L487.329 180.712Z" fill="#29293F"/>
<path d="M481.213 150.648L483.08 206.575L445.547 207.882L443.82 149.761L481.213 150.648Z" fill="#29293F"/>
<path d="M458.058 150.042L459.832 207.182L445.547 207.556L443.82 150.042H458.058Z" fill="#45455B"/>
<path d="M487.562 180.712L464.314 192.337H459.365L482.1 180.712H487.562Z" fill="#171726"/>
<path d="M463.8 192.336L464.127 207.789L459.832 207.369L459.365 192.336H463.8Z" fill="#32324C"/>
<path d="M456.984 194.625L456.844 189.77H453.389L453.529 194.625H456.984Z" fill="#FF2911"/>
<path d="M452.782 167.642H456.19L456.097 163.113H452.642L452.782 167.642Z" fill="#FF2911"/>
<path d="M453.156 180.899L453.296 185.521H456.704L456.61 180.899H453.156Z" fill="#FF2911"/>
<path d="M453.669 198.686L453.763 203.214H457.217L457.077 198.686H453.669Z" fill="#FF2911"/>
<path d="M455.957 158.632L455.817 153.87H452.362L452.502 158.632H455.957Z" fill="#FF2911"/>
<path d="M453.016 176.605H456.47L456.33 171.983H452.876L453.016 176.605Z" fill="#FF2911"/>
<path d="M447.227 176.605H450.542L450.402 171.983H447.087L447.227 176.605Z" fill="#FF2911"/>
<path d="M446.947 167.642H450.262L450.122 163.113H446.807L446.947 167.642Z" fill="#FF2911"/>
<path d="M450.682 180.899H447.367L447.507 185.521H450.822L450.682 180.899Z" fill="#FF2911"/>
<path d="M448.068 203.634H451.335L451.195 198.686H447.927L448.068 203.634Z" fill="#FF2911"/>
<path d="M447.788 194.625H451.102L450.915 189.77H447.647L447.788 194.625Z" fill="#FF2911"/>
<path d="M450.028 158.632L449.842 153.87H446.48L446.667 158.632H450.028Z" fill="#FF2911"/>
<path opacity="0.04" d="M458.058 150.042H481.119L482.987 205.968L459.832 207.182L458.058 150.042Z" fill="#29293F"/>
<path d="M478.272 156.251H460.672V157.605H478.272V156.251Z" fill="#FF2911"/>
<path d="M478.272 164.934H460.672V166.101H478.272V164.934Z" fill="#FF2911"/>
<path d="M478.692 173.15V174.27L461.139 174.644V173.15H478.692Z" fill="#FF2911"/>
<path d="M471.97 182.066V183.233L461.839 183.654V182.393L471.97 182.066Z" fill="#FF2911"/>
<path d="M487.562 187.809V189.396H480.652V188.135L487.562 187.809Z" fill="#FF2911"/>
<path d="M487.562 194.344V195.651L469.916 196.305V194.904L487.562 194.344Z" fill="#FF2911"/>
<path d="M487.888 200.973V202.327L469.635 202.84V201.673L487.888 200.973Z" fill="#FF2911"/>
<path d="M443.82 149.715L445.547 207.229L409.414 203.261V150.742L443.82 149.715Z" fill="#1C1C2D"/>
<path d="M405.446 168.715L438.731 182.487L439.338 207.509L406.053 204.008L405.446 168.715Z" fill="#1C1C2D"/>
<path d="M444.8 181.74L438.731 182.487L405.446 168.715H410.394L444.8 181.74Z" fill="#32324C"/>
<path d="M444.8 181.74L445.547 207.229L439.338 207.509L438.731 182.487L444.8 181.74Z" fill="#171726"/>
<path d="M438.124 156.251V157.605H413.849V156.531L438.124 156.251Z" fill="#FF2911"/>
<path d="M438.124 164.934V166.101H413.849V164.98L438.124 164.934Z" fill="#FF2911"/>
<path d="M438.124 173.15V174.644L430.048 174.27V173.15H438.124Z" fill="#FF2911"/>
<path d="M376.735 210.418L365.158 144.875L394.848 141L432.895 143.194L425.239 211.539L403.065 212.799L388.826 212.286L376.735 210.418Z" fill="url(#paint48_linear)"/>
<path opacity="0.2" d="M416.986 183.598C416.986 184.51 416.299 185.195 415.382 185.195C414.466 185.195 413.779 184.51 413.779 183.598C413.779 182.685 414.466 182 415.382 182C416.299 182 416.986 182.685 416.986 183.598Z" fill="#E82818"/>
<path opacity="0.3" d="M409 188C409 188.667 409.5 189 410 189C410.667 189 411 188.5 411 188C411 187.333 410.5 187 410 187C409.5 187 409 187.5 409 188Z" fill="#E82818"/>
<path d="M74.5535 127.353L71.0522 216.098" stroke="#515177" stroke-width="0.933669" stroke-miterlimit="10"/>
<path d="M80.8089 126.934L77.3076 215.726" stroke="#515177" stroke-width="0.933669" stroke-miterlimit="10"/>
<path d="M87.0645 126.56L83.5632 216.099" stroke="#515177" stroke-width="0.933669" stroke-miterlimit="10"/>
<path d="M100.463 125.673L96.8682 216.099" stroke="#515177" stroke-width="0.933669" stroke-miterlimit="10"/>
<path d="M107.699 125.159L104.104 216.099" stroke="#515177" stroke-width="0.933669" stroke-miterlimit="10"/>
<path d="M114.795 124.413L111.2 215.352" stroke="#515177" stroke-width="0.933669" stroke-miterlimit="10"/>
<path d="M93.3201 125.767L89.8188 215.726" stroke="#515177" stroke-width="0.933669" stroke-miterlimit="10"/>
<path d="M75.814 217.639L78.4749 146.914L104.758 134.263L101.443 219.367" fill="#1C1C2D"/>
<path d="M124.225 217.499L126.886 126.14L116.615 124.132L116.288 135.803L104.758 134.263L101.443 219.367L124.225 217.499Z" fill="#29293F"/>
<path d="M166.753 186.922V194.578L124.972 195.558V186.922H166.753Z" fill="#1D1D25"/>
<path d="M97.8951 179.5L83.3766 184.821L83.2832 186.642L83.3299 186.735L97.8018 181.367L97.8951 179.5Z" fill="url(#paint49_linear)"/>
<path d="M84.2637 155.27L98.8756 148.595L98.9223 146.4L84.3104 153.403L84.2637 155.317V155.27Z" fill="url(#paint50_linear)"/>
<path d="M97.5217 190.609L83.0499 195.605L83.0032 197.005L97.475 192.15L97.5217 190.609Z" fill="url(#paint51_linear)"/>
<path d="M83.6565 174.41L83.6099 175.811L98.1751 170.535L98.2218 168.668L83.6565 174.41Z" fill="url(#paint52_linear)"/>
<path d="M82.6763 206.482L82.6296 207.883L97.1015 202.934L97.1482 201.44L82.6763 206.482Z" fill="url(#paint53_linear)"/>
<path d="M98.5487 157.884L83.9834 163.72L83.9368 165.494L98.502 159.705L98.5487 157.884Z" fill="url(#paint54_linear)"/>
<mask id="mask0" mask-type="alpha" maskUnits="userSpaceOnUse" x="297" y="41" width="22" height="5">
<path fill-rule="evenodd" clip-rule="evenodd" d="M297.7 41.4556C297.467 41.4556 297.233 41.6423 297.233 41.8757V45.0969C297.233 45.3303 297.42 45.517 297.7 45.517H318.381C318.614 45.517 318.848 45.3303 318.848 45.0969V41.8757C318.848 41.6423 318.661 41.4556 318.381 41.4556H297.7Z" fill="white"/>
</mask>
<g mask="url(#mask0)">
<path fill-rule="evenodd" clip-rule="evenodd" d="M297.7 41.4556C297.467 41.4556 297.233 41.6423 297.233 41.8757V45.0969C297.233 45.3303 297.42 45.517 297.7 45.517H318.381C318.614 45.517 318.848 45.3303 318.848 45.0969V41.8757C318.848 41.6423 318.661 41.4556 318.381 41.4556H297.7Z" fill="url(#paint55_linear)"/>
</g>
<mask id="mask1" mask-type="alpha" maskUnits="userSpaceOnUse" x="297" y="18" width="22" height="19">
<path fill-rule="evenodd" clip-rule="evenodd" d="M314.226 18.0679C313.199 18.0679 312.359 18.8148 312.359 19.7018V27.1711C312.359 29.9255 310.585 31.2326 307.971 31.2326C305.45 31.2326 303.582 29.9255 303.582 27.1711V19.7018C303.582 18.7681 302.742 18.0679 301.715 18.0679H299.241C298.214 18.0679 297.374 18.8148 297.374 19.7018V26.891C297.374 29.8788 298.354 32.213 300.361 33.8936C302.369 35.5275 304.89 36.3678 307.971 36.3678C311.052 36.3678 313.573 35.5275 315.58 33.8936C317.587 32.213 318.568 29.9255 318.568 26.9377V19.7485C318.568 18.8615 317.728 18.1146 316.7 18.1146H314.226V18.0679Z" fill="white"/>
</mask>
<g mask="url(#mask1)">
<path fill-rule="evenodd" clip-rule="evenodd" d="M314.226 18.0679C313.199 18.0679 312.359 18.8148 312.359 19.7018V27.1711C312.359 29.9255 310.585 31.2326 307.971 31.2326C305.45 31.2326 303.582 29.9255 303.582 27.1711V19.7018C303.582 18.7681 302.742 18.0679 301.715 18.0679H299.241C298.214 18.0679 297.374 18.8148 297.374 19.7018V26.891C297.374 29.8788 298.354 32.213 300.361 33.8936C302.369 35.5275 304.89 36.3678 307.971 36.3678C311.052 36.3678 313.573 35.5275 315.58 33.8936C317.587 32.213 318.568 29.9255 318.568 26.9377V19.7485C318.568 18.8615 317.728 18.1146 316.7 18.1146H314.226V18.0679Z" fill="url(#paint56_linear)"/>
</g>
<line opacity="0.4" x1="233" y1="143.75" x2="279" y2="143.75" stroke="#FF2911" stroke-width="0.5"/>
<path opacity="0.4" d="M125 186.75H167" stroke="#FF2911" stroke-width="0.5"/>
<path opacity="0.15" d="M426.5 201L402.822 199L374.5 201L397.158 203L426.5 201Z" fill="url(#paint57_linear)"/>
<path opacity="0.3" d="M428.5 192L403.045 190L372 192L396.837 194L428.5 192Z" fill="url(#paint58_linear)"/>
<g clip-path="url(#clip2)">
<path opacity="0.31" d="M93.5947 115.163L86.0837 115.919L85.9893 117.478L93.5475 116.958L93.5947 115.163Z" fill="url(#paint59_linear)"/>
<path opacity="0.31" d="M94.4924 98.063L86.9342 98.8188L86.887 100.378L94.4452 99.8581L94.4924 98.063Z" fill="url(#paint60_linear)"/>
<path opacity="0.31" d="M94.6812 94.2363L87.123 94.9921L87.0286 96.551L94.5868 96.0786L94.6812 94.2363Z" fill="url(#paint61_linear)"/>
<path opacity="0.31" d="M94.1145 105.101L86.6035 105.857L86.509 107.416L94.0672 106.896L94.1145 105.101Z" fill="url(#paint62_linear)"/>
<path opacity="0.31" d="M94.3033 101.322L86.7451 102.031L86.6506 103.59L94.2088 103.117L94.3033 101.322Z" fill="url(#paint63_linear)"/>
<path opacity="0.31" d="M93.4531 118.99L85.8949 119.746L85.8477 121.257L93.3586 120.785L93.4531 118.99Z" fill="url(#paint64_linear)"/>
<path opacity="0.31" d="M104.885 102.645L97.3738 103.354L97.2793 104.912L104.79 104.393L104.885 102.645Z" fill="url(#paint65_linear)"/>
<path opacity="0.31" d="M105.074 98.8188L97.5155 99.5747L97.4683 101.086L104.979 100.614L105.074 98.8188Z" fill="url(#paint66_linear)"/>
<path opacity="0.31" d="M105.216 94.9922L97.6573 95.748L97.6101 97.3069L105.168 96.7873L105.216 94.9922Z" fill="url(#paint67_linear)"/>
<path opacity="0.31" d="M104.696 112.234L97.1851 112.99L97.0906 114.549L104.602 114.029L104.696 112.234Z" fill="url(#paint68_linear)"/>
<path opacity="0.31" d="M114.758 115.163L107.247 115.919L107.152 117.478L114.711 116.958L114.758 115.163Z" fill="url(#paint69_linear)"/>
<path opacity="0.31" d="M114.947 111.384L107.389 112.14L107.341 113.652L114.852 113.179L114.947 111.384Z" fill="url(#paint70_linear)"/>
<path opacity="0.31" d="M115.466 101.889L107.908 102.598L107.861 104.157L115.372 103.637L115.466 101.889Z" fill="url(#paint71_linear)"/>
<path opacity="0.31" d="M115.608 98.063L108.05 98.8188L108.003 100.33L115.514 99.8581L115.608 98.063Z" fill="url(#paint72_linear)"/>
<path opacity="0.31" d="M115.608 95.0396L108.05 95.7481L108.003 97.307L115.514 96.7874L115.608 95.0396Z" fill="url(#paint73_linear)"/>
<path opacity="0.31" d="M115.797 91.2134L108.239 91.9692L108.144 93.4808L115.702 93.0085L115.797 91.2134Z" fill="url(#paint74_linear)"/>
<path opacity="0.31" d="M114.616 118.99L107.058 119.746L107.01 121.257L114.521 120.785L114.616 118.99Z" fill="url(#paint75_linear)"/>
<path opacity="0.9" d="M102 107.773C102 108.374 102.501 108.774 103.003 108.774C103.605 108.774 104.006 108.274 104.006 107.773C104.006 107.273 103.505 106.773 103.003 106.773C102.501 106.773 102 107.273 102 107.773Z" fill="url(#paint76_linear)"/>
</g>
<path opacity="0.2" d="M473.513 118.17C473.821 118.982 473.441 119.823 472.627 120.131C471.812 120.44 470.971 120.062 470.663 119.25C470.355 118.437 470.735 117.597 471.55 117.288C472.364 116.98 473.206 117.358 473.513 118.17Z" fill="#E82818"/>
<path opacity="0.2" d="M414.888 116.915C414.381 116.21 414.53 115.3 415.237 114.791C415.944 114.282 416.854 114.429 417.362 115.134C417.869 115.839 417.72 116.75 417.013 117.259C416.306 117.767 415.396 117.62 414.888 116.915Z" fill="#E82818"/>
<path opacity="0.2" d="M272.967 61.3176C272.459 60.6126 272.609 59.7022 273.316 59.1934C274.022 58.6846 274.933 58.8318 275.441 59.5368C275.948 60.2418 275.799 61.1521 275.092 61.6609C274.385 62.1697 273.474 62.0226 272.967 61.3176Z" fill="#E82818"/>
<path opacity="0.2" d="M463.829 136.138C464.785 135.776 465.263 134.698 464.897 133.731C464.53 132.765 463.459 132.274 462.503 132.636C461.547 132.998 461.07 134.076 461.436 135.043C461.802 136.009 462.874 136.5 463.829 136.138Z" fill="#FF9E93"/>
<path opacity="0.2" d="M412.773 89.2115C411.943 89.8085 411.761 90.9727 412.365 91.8118C412.969 92.6508 414.131 92.847 414.96 92.25C415.789 91.6529 415.972 90.4887 415.368 89.6497C414.764 88.8106 413.602 88.6144 412.773 89.2115Z" fill="#FF9E93"/>
<path opacity="0.2" d="M350.705 50.6802C349.876 51.2772 349.693 52.4415 350.297 53.2805C350.901 54.1196 352.063 54.3158 352.892 53.7187C353.722 53.1217 353.904 51.9575 353.3 51.1184C352.696 50.2794 351.534 50.0832 350.705 50.6802Z" fill="#FF9E93"/>
<path opacity="0.2" d="M387.189 205.013C386.36 205.61 386.177 206.774 386.781 207.613C387.385 208.452 388.547 208.648 389.377 208.051C390.206 207.454 390.389 206.29 389.785 205.451C389.181 204.612 388.019 204.416 387.189 205.013Z" fill="#FF9E93"/>
<path opacity="0.2" d="M276.502 43.6128C275.672 44.2099 275.49 45.3741 276.094 46.2131C276.698 47.0522 277.86 47.2484 278.689 46.6514C279.518 46.0543 279.701 44.8901 279.097 44.051C278.493 43.212 277.331 43.0158 276.502 43.6128Z" fill="#FF9E93"/>
<path d="M353.904 19.4721C353.828 20.3113 354.466 21.0149 355.29 21.0837C356.115 21.1524 356.813 20.4952 356.89 19.656C356.967 18.8168 356.328 18.1132 355.504 18.0444C354.524 17.9302 353.826 18.5874 353.904 19.4721Z" fill="url(#paint77_linear)"/>
<path d="M390.389 173.805C390.312 174.644 390.951 175.347 391.775 175.416C392.599 175.485 393.298 174.828 393.374 173.989C393.451 173.149 392.812 172.446 391.988 172.377C391.009 172.263 390.31 172.92 390.389 173.805Z" fill="url(#paint78_linear)"/>
<path d="M437.027 142.587C436.412 142.011 435.465 142.082 434.904 142.689C434.343 143.297 434.431 144.252 435.046 144.829C435.661 145.405 436.608 145.334 437.169 144.727C437.862 144.024 437.773 143.069 437.027 142.587Z" fill="url(#paint79_linear)"/>
<path d="M324.03 78.6889C323.36 78.0606 322.327 78.1377 321.715 78.8C321.104 79.4623 321.2 80.5035 321.87 81.1318C322.54 81.7602 323.573 81.6831 324.185 81.0208C324.94 80.2552 324.843 79.2141 324.03 78.6889Z" fill="url(#paint80_linear)"/>
<path opacity="0.2" d="M451.81 69.6039C452.766 69.2418 453.244 68.1646 452.877 67.1978C452.511 66.231 451.439 65.7407 450.484 66.1028C449.528 66.4648 449.05 67.5421 449.417 68.5089C449.783 69.4757 450.855 69.9659 451.81 69.6039Z" fill="#E82818"/>
<path opacity="0.2" d="M414.6 69.2168C415.101 69.0273 415.351 68.4633 415.159 67.9571C414.967 67.451 414.406 67.1943 413.906 67.3839C413.406 67.5734 413.155 68.1374 413.347 68.6435C413.539 69.1497 414.1 69.4063 414.6 69.2168Z" fill="#E82818"/>
<path opacity="0.2" d="M346.336 37.7237C347.317 38.0106 348.348 37.4387 348.638 36.4465C348.928 35.4542 348.368 34.4172 347.388 34.1303C346.407 33.8434 345.376 34.4153 345.086 35.4076C344.796 36.3998 345.356 37.4368 346.336 37.7237Z" fill="#E82818"/>
<path opacity="0.2" d="M380.821 186.113C381.802 186.4 382.832 185.828 383.123 184.836C383.413 183.843 382.853 182.806 381.872 182.519C380.891 182.233 379.861 182.804 379.571 183.797C379.28 184.789 379.84 185.826 380.821 186.113Z" fill="#E82818"/>
<path opacity="0.2" d="M397.862 187.24C398.168 187.329 398.49 187.151 398.581 186.841C398.672 186.531 398.497 186.207 398.19 186.117C397.884 186.027 397.562 186.206 397.471 186.516C397.381 186.826 397.556 187.15 397.862 187.24Z" fill="#E82818"/>
<path opacity="0.2" d="M437.544 132.39C436.715 132.987 436.532 134.151 437.136 134.99C437.74 135.83 438.902 136.026 439.731 135.429C440.561 134.832 440.743 133.667 440.139 132.828C439.535 131.989 438.373 131.793 437.544 132.39Z" fill="#E82818"/>
<path opacity="0.2" d="M324.594 67.5733C323.69 68.2241 323.49 69.4931 324.149 70.4077C324.807 71.3223 326.074 71.5362 326.978 70.8854C327.882 70.2346 328.081 68.9656 327.423 68.051C326.764 67.1364 325.498 66.9225 324.594 67.5733Z" fill="#E82818"/>
<path d="M461.624 106.772C462.072 107.486 463.024 107.657 463.74 107.208C464.457 106.76 464.629 105.81 464.181 105.096C463.733 104.381 462.782 104.211 462.065 104.659C461.349 105.108 461.176 106.057 461.624 106.772Z" fill="url(#paint81_linear)"/>
<path opacity="0.9" d="M460.505 123.82C460.398 122.899 460.871 122.238 461.795 122.129C462.718 122.019 463.38 122.491 463.487 123.413C463.595 124.334 463.122 124.995 462.198 125.104C461.275 125.214 460.534 124.532 460.505 123.82Z" fill="url(#paint82_linear)"/>
<rect x="162" y="190" width="3" height="3" fill="#32324C"/>
<rect x="156" y="190" width="3" height="3" fill="#32324C"/>
<rect x="150" y="190" width="3" height="3" fill="#32324C"/>
<rect x="144" y="190" width="3" height="3" fill="#32324C"/>
<rect x="138" y="190" width="3" height="3" fill="#32324C"/>
<rect x="132" y="190" width="3" height="3" fill="#32324C"/>
<rect x="126" y="190" width="3" height="3" fill="#32324C"/>
<path d="M110.904 218.566L115.11 225.27L215.733 223.199L218.867 224.578L287.315 222.694C287.315 222.694 287.554 221.377 286.844 220.636C285.827 220.617 285.238 220.607 285.238 220.607L284.952 220.17C284.771 219.843 284.5 220 284.5 220L283.376 219.952L283.088 219.596L223.003 221.015L210.302 215.739C210.302 215.739 209.496 215.886 209.222 216.231C208.948 216.576 208.917 216.819 208.917 216.819L206.869 216.08C206.869 216.08 206.443 215.91 205.907 215.954C205.371 215.998 204.58 216.765 204.58 216.765L203.706 216.264C203.706 216.264 203.309 215.987 202.475 216.214C202.098 216.315 201.684 217.008 201.489 217.409C201.294 217.836 209.731 220.554 209.731 220.554L122 222.247L117.556 216.506C117.556 216.506 117.214 216.176 116.463 216.216C115.713 216.256 115.358 216.627 115.11 217C114.862 217.373 114.908 217.751 114.908 217.751L114.694 217.747C114.694 217.747 113.995 216.467 113.165 216.479C112.04 216.512 111.683 216.99 111.408 217.39C111.132 217.789 110.904 218.566 110.904 218.566Z" fill="url(#paint83_linear)"/>
<path d="M357 219.287L357 222.713L377.05 222.413C377.05 222.413 377.13 221.654 376.665 220.354C376.201 219.053 375.555 219.287 375.555 219.287L357 219.287Z" fill="url(#paint84_linear)"/>
<path d="M433.071 216.169L433 220.005L541.738 217.134C541.738 217.134 541.893 216.589 541.004 215.586C540.116 214.582 537.795 214.466 537.795 214.466L475.468 206.56L469.118 206.443C469.118 206.443 468.499 206.541 468.34 207.269C468.217 208.034 468.217 208.034 468.217 208.034L514.561 214.547L433.071 216.169Z" fill="url(#paint85_linear)"/>
<path d="M169 215.988L124 216.5L124 213.439C136.046 213.347 157.106 212.631 168.429 212.841C168.429 212.841 168.886 213.004 169 213.5C169.114 213.997 169 215.988 169 215.988Z" fill="url(#paint86_linear)"/>
<g clip-path="url(#clip3)">
<path d="M411.605 36.5679C413.767 37.3976 415.86 38.2615 417.953 39.1254C418.991 39.5829 420.03 40.0404 421.068 40.4979C422.106 40.9553 423.144 41.4128 424.182 41.8703C428.369 43.7681 432.522 45.7681 436.642 47.8702C440.761 49.9722 444.914 52.1423 448.983 54.3975C449.987 54.957 451.042 55.5335 452.03 56.1442C453.034 56.7037 454.09 57.2802 455.077 57.8909C457.12 59.078 459.112 60.2482 461.138 61.4863C469.173 66.3031 477.09 71.3071 484.905 76.4473C488.82 78.9919 492.702 81.6386 496.533 84.2683C500.347 86.9491 504.162 89.63 507.891 92.3959L507.653 92.6004C503.907 89.8855 500.076 87.2557 496.177 84.6601C492.278 82.0644 488.413 79.5368 484.463 77.0943C476.598 72.1072 468.613 67.3074 460.578 62.6608C458.587 61.4906 456.578 60.3714 454.569 59.2523C453.565 58.6927 452.56 58.1331 451.556 57.5736C450.552 57.014 449.547 56.4544 448.526 55.9459C444.475 53.8097 440.407 51.7246 436.356 49.7584C432.305 47.7923 428.22 45.9283 424.152 44.1833C423.114 43.7258 422.127 43.2853 421.123 42.8958C420.136 42.4552 419.08 42.0488 418.076 41.6593C416.068 40.8803 414.026 40.0333 412.086 39.3903L411.605 36.5679Z" fill="url(#paint87_linear)"/>
<path d="M411.463 42.9795C413.641 43.7582 415.751 44.5711 417.862 45.3839C418.917 45.7903 419.972 46.1968 421.01 46.6542C422.065 47.0606 423.103 47.5181 424.193 47.9925C428.413 49.7883 432.617 51.6351 436.821 53.652C441.042 55.6178 445.162 57.7199 449.332 59.8389C450.353 60.3474 451.409 60.9239 452.413 61.4835C453.417 62.043 454.49 62.5685 455.494 63.128C457.554 64.2641 459.614 65.4002 461.622 66.5193C469.776 71.1488 477.846 75.8634 485.779 80.8163C489.78 83.2758 493.713 85.7693 497.629 88.3139C501.545 90.8585 505.444 93.4541 509.19 96.1691L508.952 96.3735C505.121 93.7438 501.188 91.2502 497.255 88.7567C493.306 86.3142 489.305 83.8548 485.321 81.5144C477.32 76.7657 469.2 72.2042 461.046 67.7448C459.037 66.6257 456.961 65.5406 454.935 64.4725C453.931 63.913 452.909 63.4045 451.888 62.8959C450.867 62.3874 449.862 61.8278 448.824 61.3704C444.739 59.3363 440.62 57.4043 436.484 55.5233C432.332 53.6934 428.213 51.9315 424.111 50.2886C423.056 49.8822 422.052 49.4927 420.997 49.0863C419.942 48.6799 418.938 48.2904 417.934 47.9009C415.909 47.1729 413.782 46.4111 411.893 45.785L411.463 42.9795Z" fill="url(#paint88_linear)"/>
<path d="M411.286 30.2513L390.05 34.3837L409.193 53.2849L405.86 39.8259L411.286 30.2513Z" fill="url(#paint89_linear)"/>
<path d="M411.286 30.2515L394.508 35.5703L409.192 53.2851L413.331 40.9747L411.286 30.2515Z" fill="#20202D"/>
<path d="M408.835 47.6609C408.666 48.6816 407.715 49.3294 406.813 49.1439C405.911 48.9583 405.264 48.0069 405.432 46.9862C405.6 45.9655 406.552 45.3177 407.453 45.5032C408.406 45.7058 409.037 46.7081 408.835 47.6609Z" fill="url(#paint90_linear)"/>
<path d="M406.911 48.4885C407.495 48.5969 408.061 48.1876 408.175 47.5743C408.289 46.961 407.908 46.3759 407.323 46.2675C406.739 46.1592 406.174 46.5685 406.06 47.1818C405.946 47.7951 406.327 48.3801 406.911 48.4885Z" fill="#20202D"/>
<path d="M410.766 32.7763C411.005 33.7624 410.514 34.7326 409.579 34.9892C408.644 35.2459 407.707 34.6522 407.468 33.6662C407.228 32.6802 407.72 31.7099 408.654 31.4533C409.589 31.1966 410.509 31.8414 410.766 32.7763Z" fill="url(#paint91_linear)"/>
<path d="M409.385 34.3423C409.929 34.1938 410.237 33.5855 410.073 32.9838C409.909 32.382 409.334 32.0146 408.79 32.1632C408.246 32.3117 407.937 32.9199 408.101 33.5217C408.266 34.1235 408.84 34.4908 409.385 34.3423Z" fill="#20202D"/>
<path fill-rule="evenodd" clip-rule="evenodd" d="M402.775 34.4906L402.571 34.4229L402.569 33.5725L401.55 34.0844L401.499 34.0675C401.397 34.0336 401.312 34.1188 401.295 34.1699L400.288 42.335C400.254 42.4371 400.339 42.522 400.441 42.5559L401.666 42.962C401.718 42.9789 401.786 42.9448 401.802 42.8937L402.737 42.467L402.609 37.0419L402.911 34.7624C402.894 34.6434 402.877 34.5244 402.775 34.4906Z" fill="#29293F"/>
<path fill-rule="evenodd" clip-rule="evenodd" d="M413.073 39.6608L412.663 38.6751C412.747 38.2498 412.492 37.825 412.134 37.7066L409.071 36.6912C407.795 36.2681 406.707 36.304 405.84 36.8666C405.025 37.4462 404.516 38.2974 404.348 39.4882C404.18 40.679 404.369 41.8182 404.932 42.8547C405.495 43.8912 406.38 44.638 407.605 45.0442L410.481 46.1109C410.635 46.1616 410.754 46.1444 410.89 46.0762L411.892 45.6153L411.823 44.629L411.431 44.6127L411.448 44.5616C411.567 44.2043 411.311 43.7795 410.954 43.661L407.908 42.5946C406.784 42.2223 406.358 41.2877 406.526 40.2669C406.694 39.2462 407.374 38.7349 408.548 39.1241L411.645 40.2074C411.849 40.2751 412.036 40.2238 412.24 40.1214L413.073 39.6608Z" fill="#29293F"/>
<path fill-rule="evenodd" clip-rule="evenodd" d="M403.999 34.2165C404.033 34.1144 403.948 34.0295 403.846 33.9956L402.518 33.5557C402.416 33.5218 402.331 33.607 402.314 33.658L401.308 41.8232C401.274 41.9253 401.359 42.0102 401.461 42.044L402.686 42.4502C402.788 42.484 402.856 42.4499 402.839 42.3309L403.999 34.2165Z" fill="url(#paint92_linear)"/>
<path fill-rule="evenodd" clip-rule="evenodd" d="M403.999 34.2165C404.033 34.1144 403.948 34.0295 403.846 33.9956L402.518 33.5557C402.416 33.5218 402.331 33.607 402.314 33.658L401.308 41.8232C401.274 41.9253 401.359 42.0102 401.461 42.044L402.686 42.4502C402.788 42.484 402.856 42.4499 402.839 42.3309L403.999 34.2165Z" fill="url(#paint93_linear)"/>
<path fill-rule="evenodd" clip-rule="evenodd" d="M412.553 44.1345C412.637 43.7092 412.382 43.2845 412.024 43.166L408.978 42.0996C407.855 41.7273 407.428 40.7926 407.597 39.7719C407.765 38.7512 408.445 38.2399 409.619 38.6291L412.716 39.7124C413.073 39.8309 413.481 39.6261 413.565 39.2008L413.785 38.197C413.869 37.7717 413.613 37.3469 413.256 37.2284L410.193 36.2131C408.917 35.79 407.828 35.8258 406.962 36.3885C406.061 36.8832 405.604 37.7514 405.368 38.9763C405.199 40.1671 405.388 41.3062 405.951 42.3427C406.514 43.3792 407.4 44.1261 408.625 44.5322L411.501 45.5989C411.858 45.7174 412.215 45.4957 412.283 45.1214L412.553 44.1345Z" fill="url(#paint94_linear)"/>
</g>
</g>
<defs>
<linearGradient id="paint0_linear" x1="177.067" y1="76.8563" x2="224.828" y2="76.8563" gradientUnits="userSpaceOnUse">
<stop stop-color="#FF2911"/>
<stop offset="0.3993" stop-color="#F51C1F"/>
<stop offset="1" stop-color="#E80C31"/>
</linearGradient>
<linearGradient id="paint1_linear" x1="193.576" y1="86.9079" x2="209.484" y2="86.9079" gradientUnits="userSpaceOnUse">
<stop stop-color="#FF2911"/>
<stop offset="0.3993" stop-color="#F51C1F"/>
<stop offset="1" stop-color="#E80C31"/>
</linearGradient>
<linearGradient id="paint2_linear" x1="193.699" y1="72.7765" x2="209.3" y2="72.7765" gradientUnits="userSpaceOnUse">
<stop stop-color="#FF2911"/>
<stop offset="0.3993" stop-color="#F51C1F"/>
<stop offset="1" stop-color="#E80C31"/>
</linearGradient>
<linearGradient id="paint3_linear" x1="419.262" y1="104.727" x2="464.673" y2="104.727" gradientUnits="userSpaceOnUse">
<stop stop-color="#FF2911"/>
<stop offset="0.3993" stop-color="#F51C1F"/>
<stop offset="1" stop-color="#E80C31"/>
</linearGradient>
<linearGradient id="paint4_linear" x1="441.74" y1="96.7892" x2="441.74" y2="120.185" gradientUnits="userSpaceOnUse">
<stop stop-color="#FF421D"/>
<stop offset="1" stop-color="#FF0400"/>
</linearGradient>
<linearGradient id="paint5_linear" x1="434.675" y1="113.45" x2="448.804" y2="113.45" gradientUnits="userSpaceOnUse">
<stop stop-color="#FF421D"/>
<stop offset="1" stop-color="#FF0400"/>
</linearGradient>
<linearGradient id="paint6_linear" x1="441.715" y1="95.578" x2="441.715" y2="118.76" gradientUnits="userSpaceOnUse">
<stop stop-color="#FF421D"/>
<stop offset="1" stop-color="#FF0400"/>
</linearGradient>
<linearGradient id="paint7_linear" x1="434.785" y1="102.151" x2="448.645" y2="102.151" gradientUnits="userSpaceOnUse">
<stop stop-color="#FF421D"/>
<stop offset="1" stop-color="#FF0400"/>
</linearGradient>
<radialGradient id="paint8_radial" cx="0" cy="0" r="1" gradientUnits="userSpaceOnUse" gradientTransform="translate(313.441 218.684) rotate(90) scale(22.7913 74.6751)">
<stop stop-color="#FF0000"/>
<stop offset="0.9167" stop-color="#FF0000" stop-opacity="0"/>
</radialGradient>
<radialGradient id="paint9_radial" cx="0" cy="0" r="1" gradientUnits="userSpaceOnUse" gradientTransform="translate(393.922 219.129) rotate(90) scale(21.4507 62.1548)">
<stop stop-color="#FF0000"/>
<stop offset="0.9167" stop-color="#FF0000" stop-opacity="0"/>
</radialGradient>
<radialGradient id="paint10_radial" cx="0" cy="0" r="1" gradientUnits="userSpaceOnUse" gradientTransform="translate(456.507 205.8) rotate(90) scale(14.9921 62.5047)">
<stop stop-color="#FF0000"/>
<stop offset="0.9167" stop-color="#FF0000" stop-opacity="0"/>
</radialGradient>
<radialGradient id="paint11_radial" cx="0" cy="0" r="1" gradientUnits="userSpaceOnUse" gradientTransform="translate(192.083 214.648) rotate(90) scale(16.088 72.8865)">
<stop stop-color="#FF0000"/>
<stop offset="0.9167" stop-color="#FF0000" stop-opacity="0"/>
</radialGradient>
<radialGradient id="paint12_radial" cx="0" cy="0" r="1" gradientUnits="userSpaceOnUse" gradientTransform="translate(97.0303 215.542) rotate(90) scale(16.088 45.1628)">
<stop stop-color="#FF0000"/>
<stop offset="0.9167" stop-color="#FF0000" stop-opacity="0"/>
</radialGradient>
<linearGradient id="paint13_linear" x1="174.912" y1="112.172" x2="224.021" y2="112.606" gradientUnits="userSpaceOnUse">
<stop stop-color="#F9993A"/>
<stop offset="0.1165" stop-color="#F69741"/>
<stop offset="0.282" stop-color="#EF9253"/>
<stop offset="0.4767" stop-color="#E48A72"/>
<stop offset="0.6937" stop-color="#D47F9C"/>
<stop offset="0.9264" stop-color="#BF71D2"/>
<stop offset="1" stop-color="#B86CE5"/>
</linearGradient>
<linearGradient id="paint14_linear" x1="175.933" y1="118.602" x2="222.632" y2="119.015" gradientUnits="userSpaceOnUse">
<stop stop-color="#F9993A"/>
<stop offset="0.1165" stop-color="#F69741"/>
<stop offset="0.282" stop-color="#EF9253"/>
<stop offset="0.4767" stop-color="#E48A72"/>
<stop offset="0.6937" stop-color="#D47F9C"/>
<stop offset="0.9264" stop-color="#BF71D2"/>
<stop offset="1" stop-color="#B86CE5"/>
</linearGradient>
<linearGradient id="paint15_linear" x1="277.731" y1="31.9554" x2="340.263" y2="31.9554" gradientUnits="userSpaceOnUse">
<stop stop-color="#FF2911"/>
<stop offset="0.3993" stop-color="#F51C1F"/>
<stop offset="1" stop-color="#E80C31"/>
</linearGradient>
<linearGradient id="paint16_linear" x1="445.175" y1="146.044" x2="445.075" y2="140.11" gradientUnits="userSpaceOnUse">
<stop stop-color="#F9993A"/>
<stop offset="0.1165" stop-color="#F69741"/>
<stop offset="0.282" stop-color="#EF9253"/>
<stop offset="0.4767" stop-color="#E48A72"/>
<stop offset="0.6937" stop-color="#D47F9C"/>
<stop offset="0.9264" stop-color="#BF71D2"/>
<stop offset="1" stop-color="#B86CE5"/>
</linearGradient>
<linearGradient id="paint17_linear" x1="445.188" y1="140.051" x2="445.067" y2="133.281" gradientUnits="userSpaceOnUse">
<stop stop-color="#F9993A"/>
<stop offset="0.1165" stop-color="#F69741"/>
<stop offset="0.282" stop-color="#EF9253"/>
<stop offset="0.4767" stop-color="#E48A72"/>
<stop offset="0.6937" stop-color="#D47F9C"/>
<stop offset="0.9264" stop-color="#BF71D2"/>
<stop offset="1" stop-color="#B86CE5"/>
</linearGradient>
<linearGradient id="paint18_linear" x1="105.109" y1="106.877" x2="107.59" y2="106.877" gradientUnits="userSpaceOnUse">
<stop stop-color="#F9993A"/>
<stop offset="0.1165" stop-color="#F69741"/>
<stop offset="0.282" stop-color="#EF9253"/>
<stop offset="0.4767" stop-color="#E48A72"/>
<stop offset="0.6937" stop-color="#D47F9C"/>
<stop offset="0.9264" stop-color="#BF71D2"/>
<stop offset="1" stop-color="#B86CE5"/>
</linearGradient>
<linearGradient id="paint19_linear" x1="94.3868" y1="112.237" x2="97.1492" y2="112.237" gradientUnits="userSpaceOnUse">
<stop stop-color="#F9993A"/>
<stop offset="0.1165" stop-color="#F69741"/>
<stop offset="0.282" stop-color="#EF9253"/>
<stop offset="0.4767" stop-color="#E48A72"/>
<stop offset="0.6937" stop-color="#D47F9C"/>
<stop offset="0.9264" stop-color="#BF71D2"/>
<stop offset="1" stop-color="#B86CE5"/>
</linearGradient>
<linearGradient id="paint20_linear" x1="199.208" y1="127.365" x2="200.834" y2="62.8907" gradientUnits="userSpaceOnUse">
<stop stop-color="#FF2911" stop-opacity="0.64"/>
<stop offset="0.8351" stop-color="#FF2911" stop-opacity="0"/>
</linearGradient>
<linearGradient id="paint21_linear" x1="187.978" y1="37.8096" x2="192.608" y2="52.0739" gradientUnits="userSpaceOnUse">
<stop stop-color="#FF9E93"/>
<stop offset="1" stop-color="#FF9E93" stop-opacity="0"/>
</linearGradient>
<linearGradient id="paint22_linear" x1="78.428" y1="76.6251" x2="81.407" y2="85.8034" gradientUnits="userSpaceOnUse">
<stop stop-color="#FF9E93"/>
<stop offset="1" stop-color="#FF9E93" stop-opacity="0"/>
</linearGradient>
<linearGradient id="paint23_linear" x1="181.923" y1="107.013" x2="184.566" y2="88.596" gradientUnits="userSpaceOnUse">
<stop stop-color="#FF2911" stop-opacity="0.64"/>
<stop offset="0.8351" stop-color="#FF2911" stop-opacity="0"/>
</linearGradient>
<linearGradient id="paint24_linear" x1="83.8023" y1="117.777" x2="85.5033" y2="105.927" gradientUnits="userSpaceOnUse">
<stop stop-color="#FF2911" stop-opacity="0.64"/>
<stop offset="0.8351" stop-color="#FF2911" stop-opacity="0"/>
</linearGradient>
<linearGradient id="paint25_linear" x1="185.483" y1="117.129" x2="190.113" y2="102.865" gradientUnits="userSpaceOnUse">
<stop stop-color="#FF9E93"/>
<stop offset="1" stop-color="#FF9E93" stop-opacity="0"/>
</linearGradient>
<linearGradient id="paint26_linear" x1="76.8228" y1="127.663" x2="79.8017" y2="118.485" gradientUnits="userSpaceOnUse">
<stop stop-color="#FF9E93"/>
<stop offset="1" stop-color="#FF9E93" stop-opacity="0"/>
</linearGradient>
<linearGradient id="paint27_linear" x1="111.081" y1="84.3085" x2="114.06" y2="75.1301" gradientUnits="userSpaceOnUse">
<stop stop-color="#FF9E93"/>
<stop offset="1" stop-color="#FF9E93" stop-opacity="0"/>
</linearGradient>
<linearGradient id="paint28_linear" x1="102.049" y1="130.618" x2="100.074" y2="69.6204" gradientUnits="userSpaceOnUse">
<stop stop-color="#FF2911" stop-opacity="0.64"/>
<stop offset="0.8351" stop-color="#FF2911" stop-opacity="0"/>
</linearGradient>
<linearGradient id="paint29_linear" x1="310.241" y1="90.0577" x2="310.025" y2="79.9204" gradientUnits="userSpaceOnUse">
<stop stop-color="#F9993A"/>
<stop offset="0.1165" stop-color="#F69741"/>
<stop offset="0.282" stop-color="#EF9253"/>
<stop offset="0.4767" stop-color="#E48A72"/>
<stop offset="0.6937" stop-color="#D47F9C"/>
<stop offset="0.9264" stop-color="#BF71D2"/>
<stop offset="1" stop-color="#B86CE5"/>
</linearGradient>
<linearGradient id="paint30_linear" x1="310.266" y1="81.0726" x2="309.999" y2="69.2345" gradientUnits="userSpaceOnUse">
<stop stop-color="#F9993A"/>
<stop offset="0.1165" stop-color="#F69741"/>
<stop offset="0.282" stop-color="#EF9253"/>
<stop offset="0.4767" stop-color="#E48A72"/>
<stop offset="0.6937" stop-color="#D47F9C"/>
<stop offset="0.9264" stop-color="#BF71D2"/>
<stop offset="1" stop-color="#B86CE5"/>
</linearGradient>
<linearGradient id="paint31_linear" x1="447" y1="151" x2="444.928" y2="104.542" gradientUnits="userSpaceOnUse">
<stop stop-color="#FF2911" stop-opacity="0.64"/>
<stop offset="0.8351" stop-color="#FF2911" stop-opacity="0"/>
</linearGradient>
<linearGradient id="paint32_linear" x1="315" y1="100.851" x2="312.551" y2="19.3523" gradientUnits="userSpaceOnUse">
<stop offset="0.1907" stop-color="#FF2911" stop-opacity="0.64"/>
<stop offset="0.8351" stop-color="#FF2911" stop-opacity="0"/>
</linearGradient>
<linearGradient id="paint33_linear" x1="272.95" y1="108.961" x2="304.741" y2="115.319" gradientUnits="userSpaceOnUse">
<stop stop-color="#FF2911"/>
<stop offset="0.3993" stop-color="#F51C1F"/>
<stop offset="1" stop-color="#E80C31"/>
</linearGradient>
<linearGradient id="paint34_linear" x1="270.653" y1="120.444" x2="302.444" y2="126.802" gradientUnits="userSpaceOnUse">
<stop stop-color="#FF2911"/>
<stop offset="0.3993" stop-color="#F51C1F"/>
<stop offset="1" stop-color="#E80C31"/>
</linearGradient>
<linearGradient id="paint35_linear" x1="268.493" y1="131.245" x2="300.284" y2="137.603" gradientUnits="userSpaceOnUse">
<stop stop-color="#FF2911"/>
<stop offset="0.3993" stop-color="#F51C1F"/>
<stop offset="1" stop-color="#E80C31"/>
</linearGradient>
<linearGradient id="paint36_linear" x1="273.554" y1="144.048" x2="297.678" y2="148.873" gradientUnits="userSpaceOnUse">
<stop stop-color="#FF2911"/>
<stop offset="0.3993" stop-color="#F51C1F"/>
<stop offset="1" stop-color="#E80C31"/>
</linearGradient>
<linearGradient id="paint37_linear" x1="263.632" y1="155.549" x2="295.423" y2="161.907" gradientUnits="userSpaceOnUse">
<stop stop-color="#FF2911"/>
<stop offset="0.3993" stop-color="#F51C1F"/>
<stop offset="1" stop-color="#E80C31"/>
</linearGradient>
<linearGradient id="paint38_linear" x1="261.27" y1="167.358" x2="293.061" y2="173.716" gradientUnits="userSpaceOnUse">
<stop stop-color="#FF2911"/>
<stop offset="0.3993" stop-color="#F51C1F"/>
<stop offset="1" stop-color="#E80C31"/>
</linearGradient>
<linearGradient id="paint39_linear" x1="324.181" y1="107.966" x2="342.632" y2="107.966" gradientUnits="userSpaceOnUse">
<stop stop-color="#FF2911"/>
<stop offset="0.3993" stop-color="#F51C1F"/>
<stop offset="1" stop-color="#E80C31"/>
</linearGradient>
<linearGradient id="paint40_linear" x1="319.443" y1="120.806" x2="342.632" y2="120.806" gradientUnits="userSpaceOnUse">
<stop stop-color="#FF2911"/>
<stop offset="0.3993" stop-color="#F51C1F"/>
<stop offset="1" stop-color="#E80C31"/>
</linearGradient>
<linearGradient id="paint41_linear" x1="306.062" y1="133.514" x2="342.632" y2="133.514" gradientUnits="userSpaceOnUse">
<stop stop-color="#FF2911"/>
<stop offset="0.3993" stop-color="#F51C1F"/>
<stop offset="1" stop-color="#E80C31"/>
</linearGradient>
<linearGradient id="paint42_linear" x1="306.062" y1="146.592" x2="342.632" y2="146.592" gradientUnits="userSpaceOnUse">
<stop stop-color="#FF2911"/>
<stop offset="0.3993" stop-color="#F51C1F"/>
<stop offset="1" stop-color="#E80C31"/>
</linearGradient>
<linearGradient id="paint43_linear" x1="306.062" y1="159.839" x2="342.632" y2="159.839" gradientUnits="userSpaceOnUse">
<stop stop-color="#FF2911"/>
<stop offset="0.3993" stop-color="#F51C1F"/>
<stop offset="1" stop-color="#E80C31"/>
</linearGradient>
<linearGradient id="paint44_linear" x1="306.062" y1="173.532" x2="325.344" y2="173.532" gradientUnits="userSpaceOnUse">
<stop stop-color="#FF2911"/>
<stop offset="0.3993" stop-color="#F51C1F"/>
<stop offset="1" stop-color="#E80C31"/>
</linearGradient>
<linearGradient id="paint45_linear" x1="331.245" y1="191.349" x2="353.312" y2="191.349" gradientUnits="userSpaceOnUse">
<stop stop-color="#FF2911"/>
<stop offset="0.3993" stop-color="#F51C1F"/>
<stop offset="1" stop-color="#E80C31"/>
</linearGradient>
<linearGradient id="paint46_linear" x1="316.908" y1="203.619" x2="352.813" y2="203.619" gradientUnits="userSpaceOnUse">
<stop stop-color="#FF2911"/>
<stop offset="0.3993" stop-color="#F51C1F"/>
<stop offset="1" stop-color="#E80C31"/>
</linearGradient>
<linearGradient id="paint47_linear" x1="164.768" y1="174.42" x2="230.37" y2="174.42" gradientUnits="userSpaceOnUse">
<stop stop-color="#FF2911"/>
<stop offset="0.3993" stop-color="#F51C1F"/>
<stop offset="1" stop-color="#E80C31"/>
</linearGradient>
<linearGradient id="paint48_linear" x1="398.776" y1="212.771" x2="399.008" y2="148.554" gradientUnits="userSpaceOnUse">
<stop stop-color="#FF2911" stop-opacity="0.64"/>
<stop offset="0.8351" stop-color="#FF2911" stop-opacity="0"/>
</linearGradient>
<linearGradient id="paint49_linear" x1="83.2964" y1="183.113" x2="97.8721" y2="183.113" gradientUnits="userSpaceOnUse">
<stop stop-color="#FF2911"/>
<stop offset="0.3993" stop-color="#F51C1F"/>
<stop offset="1" stop-color="#E80C31"/>
</linearGradient>
<linearGradient id="paint50_linear" x1="84.2558" y1="150.852" x2="98.9425" y2="150.852" gradientUnits="userSpaceOnUse">
<stop stop-color="#FF2911"/>
<stop offset="0.3993" stop-color="#F51C1F"/>
<stop offset="1" stop-color="#E80C31"/>
</linearGradient>
<linearGradient id="paint51_linear" x1="82.985" y1="193.806" x2="97.5116" y2="193.806" gradientUnits="userSpaceOnUse">
<stop stop-color="#FF2911"/>
<stop offset="0.3993" stop-color="#F51C1F"/>
<stop offset="1" stop-color="#E80C31"/>
</linearGradient>
<linearGradient id="paint52_linear" x1="83.6301" y1="172.247" x2="98.2216" y2="172.247" gradientUnits="userSpaceOnUse">
<stop stop-color="#FF2911"/>
<stop offset="0.3993" stop-color="#F51C1F"/>
<stop offset="1" stop-color="#E80C31"/>
</linearGradient>
<linearGradient id="paint53_linear" x1="82.6521" y1="204.664" x2="97.1622" y2="204.664" gradientUnits="userSpaceOnUse">
<stop stop-color="#FF2911"/>
<stop offset="0.3993" stop-color="#F51C1F"/>
<stop offset="1" stop-color="#E80C31"/>
</linearGradient>
<linearGradient id="paint54_linear" x1="83.9444" y1="161.691" x2="98.5713" y2="161.691" gradientUnits="userSpaceOnUse">
<stop stop-color="#FF2911"/>
<stop offset="0.3993" stop-color="#F51C1F"/>
<stop offset="1" stop-color="#E80C31"/>
</linearGradient>
<linearGradient id="paint55_linear" x1="308.048" y1="19.5385" x2="308.048" y2="53.1523" gradientUnits="userSpaceOnUse">
<stop stop-color="#FF421D"/>
<stop offset="1" stop-color="#FF0400"/>
</linearGradient>
<linearGradient id="paint56_linear" x1="308.009" y1="17.7993" x2="308.009" y2="51.1058" gradientUnits="userSpaceOnUse">
<stop stop-color="#FF421D"/>
<stop offset="1" stop-color="#FF0400"/>
</linearGradient>
<linearGradient id="paint57_linear" x1="400.997" y1="206.138" x2="400.785" y2="196.25" gradientUnits="userSpaceOnUse">
<stop stop-color="#F9993A"/>
<stop offset="0.1165" stop-color="#F69741"/>
<stop offset="0.282" stop-color="#EF9253"/>
<stop offset="0.4767" stop-color="#E48A72"/>
<stop offset="0.6937" stop-color="#D47F9C"/>
<stop offset="0.9264" stop-color="#BF71D2"/>
<stop offset="1" stop-color="#B86CE5"/>
</linearGradient>
<linearGradient id="paint58_linear" x1="401.044" y1="197.138" x2="400.852" y2="187.25" gradientUnits="userSpaceOnUse">
<stop stop-color="#F9993A"/>
<stop offset="0.1165" stop-color="#F69741"/>
<stop offset="0.282" stop-color="#EF9253"/>
<stop offset="0.4767" stop-color="#E48A72"/>
<stop offset="0.6937" stop-color="#D47F9C"/>
<stop offset="0.9264" stop-color="#BF71D2"/>
<stop offset="1" stop-color="#B86CE5"/>
</linearGradient>
<linearGradient id="paint59_linear" x1="86.0051" y1="116.325" x2="93.6094" y2="116.325" gradientUnits="userSpaceOnUse">
<stop stop-color="#F9993A"/>
<stop offset="0.1165" stop-color="#F69741"/>
<stop offset="0.282" stop-color="#EF9253"/>
<stop offset="0.4767" stop-color="#E48A72"/>
<stop offset="0.6937" stop-color="#D47F9C"/>
<stop offset="0.9264" stop-color="#BF71D2"/>
<stop offset="1" stop-color="#B86CE5"/>
</linearGradient>
<linearGradient id="paint60_linear" x1="86.8858" y1="99.2106" x2="94.5012" y2="99.2106" gradientUnits="userSpaceOnUse">
<stop stop-color="#F9993A"/>
<stop offset="0.1165" stop-color="#F69741"/>
<stop offset="0.282" stop-color="#EF9253"/>
<stop offset="0.4767" stop-color="#E48A72"/>
<stop offset="0.6937" stop-color="#D47F9C"/>
<stop offset="0.9264" stop-color="#BF71D2"/>
<stop offset="1" stop-color="#B86CE5"/>
</linearGradient>
<linearGradient id="paint61_linear" x1="87.0432" y1="95.4066" x2="94.6695" y2="95.4066" gradientUnits="userSpaceOnUse">
<stop stop-color="#F9993A"/>
<stop offset="0.1165" stop-color="#F69741"/>
<stop offset="0.282" stop-color="#EF9253"/>
<stop offset="0.4767" stop-color="#E48A72"/>
<stop offset="0.6937" stop-color="#D47F9C"/>
<stop offset="0.9264" stop-color="#BF71D2"/>
<stop offset="1" stop-color="#B86CE5"/>
</linearGradient>
<linearGradient id="paint62_linear" x1="86.5163" y1="106.253" x2="94.1317" y2="106.253" gradientUnits="userSpaceOnUse">
<stop stop-color="#F9993A"/>
<stop offset="0.1165" stop-color="#F69741"/>
<stop offset="0.282" stop-color="#EF9253"/>
<stop offset="0.4767" stop-color="#E48A72"/>
<stop offset="0.6937" stop-color="#D47F9C"/>
<stop offset="0.9264" stop-color="#BF71D2"/>
<stop offset="1" stop-color="#B86CE5"/>
</linearGradient>
<linearGradient id="paint63_linear" x1="86.6737" y1="102.449" x2="94.2999" y2="102.449" gradientUnits="userSpaceOnUse">
<stop stop-color="#F9993A"/>
<stop offset="0.1165" stop-color="#F69741"/>
<stop offset="0.282" stop-color="#EF9253"/>
<stop offset="0.4767" stop-color="#E48A72"/>
<stop offset="0.6937" stop-color="#D47F9C"/>
<stop offset="0.9264" stop-color="#BF71D2"/>
<stop offset="1" stop-color="#B86CE5"/>
</linearGradient>
<linearGradient id="paint64_linear" x1="85.8477" y1="120.13" x2="93.441" y2="120.13" gradientUnits="userSpaceOnUse">
<stop stop-color="#F9993A"/>
<stop offset="0.1165" stop-color="#F69741"/>
<stop offset="0.282" stop-color="#EF9253"/>
<stop offset="0.4767" stop-color="#E48A72"/>
<stop offset="0.6937" stop-color="#D47F9C"/>
<stop offset="0.9264" stop-color="#BF71D2"/>
<stop offset="1" stop-color="#B86CE5"/>
</linearGradient>
<linearGradient id="paint65_linear" x1="97.2881" y1="103.766" x2="104.892" y2="103.766" gradientUnits="userSpaceOnUse">
<stop stop-color="#F9993A"/>
<stop offset="0.1165" stop-color="#F69741"/>
<stop offset="0.282" stop-color="#EF9253"/>
<stop offset="0.4767" stop-color="#E48A72"/>
<stop offset="0.6937" stop-color="#D47F9C"/>
<stop offset="0.9264" stop-color="#BF71D2"/>
<stop offset="1" stop-color="#B86CE5"/>
</linearGradient>
<linearGradient id="paint66_linear" x1="97.4455" y1="99.9628" x2="105.061" y2="99.9628" gradientUnits="userSpaceOnUse">
<stop stop-color="#F9993A"/>
<stop offset="0.1165" stop-color="#F69741"/>
<stop offset="0.282" stop-color="#EF9253"/>
<stop offset="0.4767" stop-color="#E48A72"/>
<stop offset="0.6937" stop-color="#D47F9C"/>
<stop offset="0.9264" stop-color="#BF71D2"/>
<stop offset="1" stop-color="#B86CE5"/>
</linearGradient>
<linearGradient id="paint67_linear" x1="97.6032" y1="96.1587" x2="105.229" y2="96.1587" gradientUnits="userSpaceOnUse">
<stop stop-color="#F9993A"/>
<stop offset="0.1165" stop-color="#F69741"/>
<stop offset="0.282" stop-color="#EF9253"/>
<stop offset="0.4767" stop-color="#E48A72"/>
<stop offset="0.6937" stop-color="#D47F9C"/>
<stop offset="0.9264" stop-color="#BF71D2"/>
<stop offset="1" stop-color="#B86CE5"/>
</linearGradient>
<linearGradient id="paint68_linear" x1="97.1022" y1="113.393" x2="104.696" y2="113.393" gradientUnits="userSpaceOnUse">
<stop stop-color="#F9993A"/>
<stop offset="0.1165" stop-color="#F69741"/>
<stop offset="0.282" stop-color="#EF9253"/>
<stop offset="0.4767" stop-color="#E48A72"/>
<stop offset="0.6937" stop-color="#D47F9C"/>
<stop offset="0.9264" stop-color="#BF71D2"/>
<stop offset="1" stop-color="#B86CE5"/>
</linearGradient>
<linearGradient id="paint69_linear" x1="107.173" y1="116.325" x2="114.777" y2="116.325" gradientUnits="userSpaceOnUse">
<stop stop-color="#F9993A"/>
<stop offset="0.1165" stop-color="#F69741"/>
<stop offset="0.282" stop-color="#EF9253"/>
<stop offset="0.4767" stop-color="#E48A72"/>
<stop offset="0.6937" stop-color="#D47F9C"/>
<stop offset="0.9264" stop-color="#BF71D2"/>
<stop offset="1" stop-color="#B86CE5"/>
</linearGradient>
<linearGradient id="paint70_linear" x1="107.331" y1="112.522" x2="114.946" y2="112.522" gradientUnits="userSpaceOnUse">
<stop stop-color="#F9993A"/>
<stop offset="0.1165" stop-color="#F69741"/>
<stop offset="0.282" stop-color="#EF9253"/>
<stop offset="0.4767" stop-color="#E48A72"/>
<stop offset="0.6937" stop-color="#D47F9C"/>
<stop offset="0.9264" stop-color="#BF71D2"/>
<stop offset="1" stop-color="#B86CE5"/>
</linearGradient>
<linearGradient id="paint71_linear" x1="107.843" y1="103.011" x2="115.448" y2="103.011" gradientUnits="userSpaceOnUse">
<stop stop-color="#F9993A"/>
<stop offset="0.1165" stop-color="#F69741"/>
<stop offset="0.282" stop-color="#EF9253"/>
<stop offset="0.4767" stop-color="#E48A72"/>
<stop offset="0.6937" stop-color="#D47F9C"/>
<stop offset="0.9264" stop-color="#BF71D2"/>
<stop offset="1" stop-color="#B86CE5"/>
</linearGradient>
<linearGradient id="paint72_linear" x1="108.001" y1="99.2075" x2="115.616" y2="99.2075" gradientUnits="userSpaceOnUse">
<stop stop-color="#F9993A"/>
<stop offset="0.1165" stop-color="#F69741"/>
<stop offset="0.282" stop-color="#EF9253"/>
<stop offset="0.4767" stop-color="#E48A72"/>
<stop offset="0.6937" stop-color="#D47F9C"/>
<stop offset="0.9264" stop-color="#BF71D2"/>
<stop offset="1" stop-color="#B86CE5"/>
</linearGradient>
<linearGradient id="paint73_linear" x1="108.007" y1="96.162" x2="115.611" y2="96.162" gradientUnits="userSpaceOnUse">
<stop stop-color="#F9993A"/>
<stop offset="0.1165" stop-color="#F69741"/>
<stop offset="0.282" stop-color="#EF9253"/>
<stop offset="0.4767" stop-color="#E48A72"/>
<stop offset="0.6937" stop-color="#D47F9C"/>
<stop offset="0.9264" stop-color="#BF71D2"/>
<stop offset="1" stop-color="#B86CE5"/>
</linearGradient>
<linearGradient id="paint74_linear" x1="108.164" y1="92.3584" x2="115.779" y2="92.3584" gradientUnits="userSpaceOnUse">
<stop stop-color="#F9993A"/>
<stop offset="0.1165" stop-color="#F69741"/>
<stop offset="0.282" stop-color="#EF9253"/>
<stop offset="0.4767" stop-color="#E48A72"/>
<stop offset="0.6937" stop-color="#D47F9C"/>
<stop offset="0.9264" stop-color="#BF71D2"/>
<stop offset="1" stop-color="#B86CE5"/>
</linearGradient>
<linearGradient id="paint75_linear" x1="107.015" y1="120.13" x2="114.609" y2="120.13" gradientUnits="userSpaceOnUse">
<stop stop-color="#F9993A"/>
<stop offset="0.1165" stop-color="#F69741"/>
<stop offset="0.282" stop-color="#EF9253"/>
<stop offset="0.4767" stop-color="#E48A72"/>
<stop offset="0.6937" stop-color="#D47F9C"/>
<stop offset="0.9264" stop-color="#BF71D2"/>
<stop offset="1" stop-color="#B86CE5"/>
</linearGradient>
<linearGradient id="paint76_linear" x1="101.081" y1="113.081" x2="104.06" y2="103.903" gradientUnits="userSpaceOnUse">
<stop stop-color="#FF9E93"/>
<stop offset="1" stop-color="#FF9E93" stop-opacity="0"/>
</linearGradient>
<linearGradient id="paint77_linear" x1="354.871" y1="24.1814" x2="356.345" y2="13.8604" gradientUnits="userSpaceOnUse">
<stop stop-color="#FF2911" stop-opacity="0.64"/>
<stop offset="0.8351" stop-color="#FF2911" stop-opacity="0"/>
</linearGradient>
<linearGradient id="paint78_linear" x1="391.356" y1="178.514" x2="392.829" y2="168.193" gradientUnits="userSpaceOnUse">
<stop stop-color="#FF2911" stop-opacity="0.64"/>
<stop offset="0.8351" stop-color="#FF2911" stop-opacity="0"/>
</linearGradient>
<linearGradient id="paint79_linear" x1="432.719" y1="140.454" x2="439.951" y2="147.963" gradientUnits="userSpaceOnUse">
<stop stop-color="#FF2911" stop-opacity="0.64"/>
<stop offset="0.8351" stop-color="#FF2911" stop-opacity="0"/>
</linearGradient>
<linearGradient id="paint80_linear" x1="319.334" y1="76.3635" x2="327.217" y2="84.5481" gradientUnits="userSpaceOnUse">
<stop stop-color="#FF2911" stop-opacity="0.64"/>
<stop offset="0.8351" stop-color="#FF2911" stop-opacity="0"/>
</linearGradient>
<linearGradient id="paint81_linear" x1="465.298" y1="109.924" x2="460.255" y2="100.799" gradientUnits="userSpaceOnUse">
<stop stop-color="#FF2911" stop-opacity="0.64"/>
<stop offset="0.8351" stop-color="#FF2911" stop-opacity="0"/>
</linearGradient>
<linearGradient id="paint82_linear" x1="461.87" y1="115.04" x2="462.578" y2="129.685" gradientUnits="userSpaceOnUse">
<stop stop-color="#FF9E93"/>
<stop offset="1" stop-color="#FF9E93" stop-opacity="0"/>
</linearGradient>
<linearGradient id="paint83_linear" x1="146.092" y1="220.191" x2="266.988" y2="222.432" gradientUnits="userSpaceOnUse">
<stop stop-color="#FF2911"/>
<stop offset="0.3993" stop-color="#F51C1F"/>
<stop offset="1" stop-color="#E80C31"/>
</linearGradient>
<linearGradient id="paint84_linear" x1="360.336" y1="221.052" x2="377.117" y2="221.363" gradientUnits="userSpaceOnUse">
<stop stop-color="#FF2911"/>
<stop offset="0.3993" stop-color="#F51C1F"/>
<stop offset="1" stop-color="#E80C31"/>
</linearGradient>
<linearGradient id="paint85_linear" x1="433.108" y1="213.494" x2="529.757" y2="215.286" gradientUnits="userSpaceOnUse">
<stop stop-color="#FF2911"/>
<stop offset="0.3993" stop-color="#F51C1F"/>
<stop offset="1" stop-color="#E80C31"/>
</linearGradient>
<linearGradient id="paint86_linear" x1="122.526" y1="212.74" x2="158.998" y2="213.416" gradientUnits="userSpaceOnUse">
<stop stop-color="#FF2911"/>
<stop offset="0.3993" stop-color="#F51C1F"/>
<stop offset="1" stop-color="#E80C31"/>
</linearGradient>
<linearGradient id="paint87_linear" x1="412.733" y1="34.7719" x2="506.142" y2="95.1338" gradientUnits="userSpaceOnUse">
<stop stop-color="#FF2911" stop-opacity="0.64"/>
<stop offset="0.8351" stop-color="#FF2911" stop-opacity="0"/>
</linearGradient>
<linearGradient id="paint88_linear" x1="412.544" y1="41.1466" x2="507.592" y2="98.8997" gradientUnits="userSpaceOnUse">
<stop stop-color="#FF2911" stop-opacity="0.64"/>
<stop offset="0.8351" stop-color="#FF2911" stop-opacity="0"/>
</linearGradient>
<linearGradient id="paint89_linear" x1="382.304" y1="43.2377" x2="411.907" y2="41.5552" gradientUnits="userSpaceOnUse">
<stop stop-color="#FF2911"/>
<stop offset="0.3993" stop-color="#F51C1F"/>
<stop offset="1" stop-color="#E80C31"/>
</linearGradient>
<linearGradient id="paint90_linear" x1="405.404" y1="47.4771" x2="408.878" y2="47.2797" gradientUnits="userSpaceOnUse">
<stop stop-color="#FF2911"/>
<stop offset="0.3993" stop-color="#F51C1F"/>
<stop offset="1" stop-color="#E80C31"/>
</linearGradient>
<linearGradient id="paint91_linear" x1="407.399" y1="33.3371" x2="410.816" y2="33.1428" gradientUnits="userSpaceOnUse">
<stop stop-color="#FF2911"/>
<stop offset="0.3993" stop-color="#F51C1F"/>
<stop offset="1" stop-color="#E80C31"/>
</linearGradient>
<linearGradient id="paint92_linear" x1="415.728" y1="40.6289" x2="397.321" y2="36.9626" gradientUnits="userSpaceOnUse">
<stop stop-color="#FF421D"/>
<stop offset="1" stop-color="#FF0400"/>
</linearGradient>
<linearGradient id="paint93_linear" x1="403.473" y1="33.7443" x2="401.765" y2="42.3195" gradientUnits="userSpaceOnUse">
<stop stop-color="#FF421D"/>
<stop offset="1" stop-color="#FF0400"/>
</linearGradient>
<linearGradient id="paint94_linear" x1="413.235" y1="41.3421" x2="398.91" y2="38.489" gradientUnits="userSpaceOnUse">
<stop stop-color="#FF421D"/>
<stop offset="1" stop-color="#FF0400"/>
</linearGradient>
<clipPath id="clip0">
<rect width="575" height="240.606" fill="white"/>
</clipPath>
<clipPath id="clip1">
<rect width="42.6555" height="3.29834" fill="white" transform="translate(234.292 146.398)"/>
</clipPath>
<clipPath id="clip2">
<rect width="29.9494" height="30.0438" fill="white" transform="translate(85.8477 91.2134)"/>
</clipPath>
<clipPath id="clip3">
<rect width="140.8" height="32" fill="white" transform="translate(385.61 21.6611) rotate(18.3399)"/>
</clipPath>
</defs>
</svg>
