<svg width="334" height="193" viewBox="0 0 334 193" fill="none" xmlns="http://www.w3.org/2000/svg">
<g clip-path="url(#clip0)">
<g opacity="0.3">
<g opacity="0.1">
<path opacity="0.1" d="M257.759 118.257C246.211 111.247 232.766 107.854 219.31 108.764C218.295 108.789 217.312 108.926 216.255 109.018C212.217 109.409 208.129 110.046 204.156 110.66C190.869 112.773 178.306 114.684 168.293 108.605C168.147 108.517 168.074 108.472 167.927 108.383C164.46 106.187 161.448 103.074 158.461 98.602C155.929 94.864 153.836 90.5673 151.662 86.4046C149.975 83.0876 148.255 79.6593 146.299 76.4547C141.52 68.5096 134.358 62.5114 127.161 60.5265C121.856 59.0487 116.566 59.6889 111.778 62.468C103.861 67.107 98.6286 77.0442 96.285 91.9446C96.0727 93.2829 95.8604 94.6213 95.7211 96.004C94.3405 105.528 92.9433 115.409 87.1035 123.052C85.6639 124.929 83.9319 126.629 82.0213 128.128C75.5904 133.12 66.846 135.331 58.7869 134.107C48.2255 132.556 39.2848 126.028 32.6997 120.563C-13.1366 82.375 -35.9332 17.2741 -26.8293 -49.4612L-29.3233 -49.9664C-33.8912 -17.0669 -30.5943 16.3885 -19.9418 46.7897C-9.25693 77.3022 8.43534 103.357 31.0814 122.24C37.9914 127.993 47.2975 134.743 58.5657 136.448C67.3723 137.76 76.7668 135.301 83.7017 129.974C85.7668 128.385 87.5801 126.551 89.1418 124.473C95.3801 116.338 96.8263 106.212 98.1827 96.3979C98.3951 95.0596 98.6073 93.7212 98.7466 92.3385C100.984 78.1073 105.818 68.6617 113.118 64.3813C117.288 61.9609 121.789 61.3007 126.533 62.7134C133.097 64.5887 139.682 70.0535 144.113 77.42C145.963 80.4689 147.683 83.8972 149.37 87.2141C151.504 91.4438 153.67 95.7849 156.307 99.6787C159.432 104.418 162.842 107.864 166.602 110.238C177.589 117.183 191.331 114.979 204.69 112.91C208.664 112.296 212.678 111.615 216.603 111.247C217.586 111.11 218.602 111.085 219.544 111.015C237.372 109.824 254.99 116.393 267.931 129.018C279.363 140.176 286.517 155.248 287.902 171.586C289.392 188.08 285.755 204.947 282.289 221.367L282.101 222.17C278.831 237.608 275.463 253.537 275.873 269.009C276.977 301.133 295.594 329.95 322.512 340.972L323.367 338.74C297.407 328.116 279.424 300.234 278.603 269.291C278.144 254.064 281.544 238.246 284.733 222.942L284.921 222.139C288.428 205.652 292 188.563 290.526 171.712C289.053 154.861 281.663 139.188 269.728 127.541C266.099 123.962 262.071 120.875 257.759 118.257Z" fill="#2B2225"/>
</g>
<g opacity="0.2">
<path opacity="0.2" d="M257.149 119.263C245.527 112.208 231.823 108.749 217.993 109.615C216.978 109.641 215.994 109.777 214.979 109.803C211.168 110.149 207.349 110.673 203.643 111.175C190.219 113.021 177.51 114.843 167.407 108.252C163.94 106.055 161.042 102.92 158.128 98.4919C155.669 94.7982 153.535 90.5685 151.467 86.5616C149.779 83.2446 147.986 79.772 146.071 76.5003C141.324 68.6666 134.236 62.7128 127.079 60.6609C121.702 59.1387 116.566 59.6892 111.819 62.4013C103.869 66.9289 98.4581 76.666 95.7814 91.4559C95.5285 92.8613 95.2755 94.2667 95.0225 95.6721C93.4633 104.996 91.8144 114.633 85.9421 122.164C84.5025 124.041 82.7705 125.741 80.7869 127.196C74.3236 132.076 65.5792 134.287 57.4469 133.019C46.8124 131.423 37.9125 124.828 31.3273 119.363C-13.8511 81.5748 -36.3884 17.365 -27.3666 -48.4113L-29.8606 -48.9166C-34.2574 -16.4635 -31.0902 16.5464 -20.5674 46.5021C-10.0121 76.5691 7.35535 102.335 29.7498 120.973C36.5866 126.683 45.9251 133.544 57.1933 135.249C65.9592 136.627 75.3862 134.28 82.3942 128.997C84.4592 127.408 86.3457 125.619 87.9804 123.585C94.2105 115.629 95.9083 105.747 97.5572 96.1103C97.8102 94.705 98.0632 93.2996 98.3161 91.8942C100.846 77.8405 105.858 68.5951 113.304 64.4034C117.434 62.0499 121.968 61.5012 126.639 62.8694C133.129 64.7004 139.601 70.1879 144.072 77.4873C145.954 80.6476 147.715 84.0089 149.402 87.3258C151.504 91.4442 153.71 95.7182 156.202 99.5233C159.326 104.263 162.663 107.664 166.309 110.061C177.289 117.185 191.054 115.27 204.364 113.447C208.07 112.945 211.889 112.421 215.586 112.097C216.529 112.028 217.585 111.935 218.528 111.866C236.388 110.786 253.941 117.132 266.753 129.311C278.274 140.157 285.437 155.051 287.016 171.233C288.629 187.526 285.292 204.391 282.094 220.699L282.037 221.122C278.994 236.515 275.886 252.511 276.483 268.004C277.04 283.565 281.757 298.533 289.994 311.328C298.304 324.167 309.615 333.877 322.7 339.344L323.555 337.112C297.612 326.132 280.156 299.028 278.961 268.041C278.315 252.793 281.488 237.021 284.491 221.695L284.548 221.271C287.827 204.829 291.172 187.786 289.535 171.203C287.875 154.33 280.436 138.902 268.444 127.679C264.872 124.501 261.096 121.659 257.149 119.263Z" fill="#322225"/>
</g>
<g opacity="0.25">
<path opacity="0.25" d="M256.246 120.09C244.625 113.035 230.993 109.62 216.644 110.355C215.628 110.38 214.686 110.45 213.629 110.542C210.16 110.82 206.495 111.255 203.058 111.644C189.569 113.268 176.835 114.8 166.741 108.03C163.387 105.811 160.416 102.632 157.576 98.248C155.19 94.5987 153.089 90.4804 151.093 86.5178C149.373 83.0895 147.58 79.6168 145.625 76.4122C140.837 68.6455 133.821 62.736 126.779 60.6615C121.442 59.0723 116.306 59.6228 111.526 62.2235C103.43 66.6624 98.0036 75.9313 94.9125 90.7448C94.6189 92.2172 94.3659 93.6225 94.0722 95.0949C92.2937 104.286 90.4256 113.789 84.4885 121.098C82.9758 122.931 81.2438 124.63 79.3008 126.019C72.7644 130.854 64.0283 132.887 55.896 131.618C45.2291 129.911 36.3616 123.428 29.8171 117.896C-14.6387 80.7297 -36.8029 17.3883 -28.0499 -47.4509L-30.5439 -47.9561C-34.8836 -15.9269 -31.7322 16.615 -21.3797 46.1921C-10.9948 75.8806 6.12925 101.224 28.1906 119.751C35.0275 125.461 44.2929 132.278 55.5935 134.094C64.3594 135.472 73.8188 133.236 80.8592 128.065C82.9973 126.52 84.8838 124.731 86.4778 122.764C92.7728 115.031 94.6898 105.282 96.5173 95.8456C96.811 94.3732 97.0639 92.9679 97.3576 91.4955C100.302 77.4182 105.371 68.5739 112.849 64.4936C117.011 62.2516 121.504 61.7698 126.102 63.0937C132.552 64.9917 138.991 70.3678 143.389 77.6228C145.272 80.7831 147.065 84.2558 148.752 87.5727C150.821 91.5797 152.954 95.8094 155.413 99.503C158.505 104.131 161.688 107.622 165.334 110.019C176.265 117.388 190.095 115.696 203.47 114.096C206.907 113.706 210.458 113.294 213.928 113.016C214.871 112.946 215.886 112.921 216.829 112.851C234.908 111.905 251.99 117.873 264.859 129.629C276.356 140.185 283.641 154.878 285.448 171.014C287.223 187.039 284.114 203.859 281.144 220.122C278.321 235.648 275.399 251.665 276.224 267.113C277.767 298.678 295.864 326.538 322.27 338.074L323.198 335.886C297.71 324.816 280.214 297.779 278.775 267.194C278.015 251.969 280.855 236.086 283.63 220.805C286.649 204.298 289.726 187.366 287.967 170.984C286.185 154.313 278.551 139.041 266.551 127.996C263.498 124.951 259.974 122.353 256.246 120.09Z" fill="#392125"/>
</g>
<g opacity="0.3">
<path opacity="0.3" d="M255.677 121.028C243.982 113.929 230.091 110.448 215.368 111.139C214.352 111.164 213.41 111.234 212.394 111.259C209.152 111.492 205.869 111.792 202.659 112.136C189.105 113.537 176.307 114.846 166.189 107.787C162.949 105.545 159.978 102.365 157.21 98.0261C154.857 94.4882 152.829 90.4142 150.865 86.563C149.146 83.1347 147.28 79.6177 145.292 76.3016C140.577 68.5793 133.594 62.7813 126.592 60.6397C121.328 59.0949 116.274 59.5114 111.462 62.0007C103.374 66.2612 97.7279 75.397 94.2713 89.9886C93.9046 91.4166 93.5702 92.956 93.2766 94.4284C91.2788 103.486 89.159 112.745 83.1895 119.942C81.6768 121.775 79.8717 123.431 77.9287 124.819C71.3599 129.543 62.5507 131.531 54.4591 130.196C43.7191 128.444 34.8922 121.894 28.3478 116.362C-15.3854 79.8178 -37.2903 17.3674 -28.6193 -46.5128L-31.1133 -47.0181C-35.3551 -15.4796 -32.2196 16.5941 -22.0375 45.7927C-11.7822 75.0357 5.01708 100.09 26.7537 118.329C33.5499 124.105 42.8152 130.922 54.189 132.783C62.9142 134.228 72.4467 132.037 79.5195 126.977C81.617 125.499 83.5034 123.709 85.2112 121.72C91.5386 114.098 93.6343 104.549 95.7541 95.2905C96.0477 93.8181 96.4552 92.3231 96.7488 90.8507C99.9854 76.9509 105.274 68.2398 112.857 64.3152C116.979 62.1402 121.431 61.7254 126.102 63.0937C132.438 65.0143 138.877 70.3904 143.243 77.534C145.199 80.7387 146.992 84.2114 148.752 87.5727C150.748 91.5353 152.89 95.5866 155.235 99.3029C158.254 103.887 161.436 107.377 165.042 109.841C175.964 117.389 189.892 116.032 203.332 114.653C206.501 114.376 209.751 113.965 212.952 113.799C213.895 113.73 214.911 113.704 215.853 113.635C234.038 112.844 251.056 118.59 263.722 129.855C275.268 140.166 282.674 154.658 284.563 170.66C286.501 186.417 283.66 203.125 280.958 219.275L280.95 219.453C278.403 234.689 275.717 250.482 276.72 266.13C278.695 297.316 296.686 325.019 322.637 336.646L323.565 334.458C298.5 323.186 281.141 296.416 279.239 266.1C278.26 250.742 280.864 235.083 283.444 219.959L283.452 219.78C286.235 203.496 289.044 186.677 287.123 170.563C285.113 153.937 277.43 138.91 265.454 128.156C262.198 125.445 259.039 123.069 255.677 121.028Z" fill="#402026"/>
</g>
<g opacity="0.35">
<path opacity="0.35" d="M255.14 122.077C243.372 114.934 229.221 111.387 214.165 111.967C213.222 112.037 212.206 112.062 211.264 112.132C208.363 112.297 205.381 112.596 202.48 112.761C188.862 113.939 175.925 114.981 165.815 107.743C162.616 105.434 159.718 102.299 156.95 97.9598C154.67 94.4663 152.674 90.5037 150.744 86.7639C148.951 83.2912 147.125 79.7071 145.097 76.4581C137.964 64.9751 124.459 55.5849 111.494 62.1119C103.301 66.2166 97.5494 75.1967 93.7274 89.5664C93.32 91.0615 92.9857 92.6009 92.5782 94.0959C90.4018 102.954 88.0627 112.08 82.0608 119.165C80.475 120.954 78.7106 122.542 76.727 123.997C70.0851 128.677 61.2435 130.554 53.1519 129.218C42.4525 127.4 33.6257 120.85 27.0812 115.318C-16.1645 78.7943 -37.6963 17.2123 -29.2294 -45.5079L-31.7234 -46.0132C-35.8672 -14.9655 -32.7884 16.7071 -22.7358 45.4602C-12.6426 74.1463 4.01875 98.9332 25.3492 117.017C32.1454 122.794 41.4108 129.611 52.7438 131.538C61.6152 133.072 70.8795 130.993 78.1392 125.955C80.2366 124.477 82.1962 122.732 83.8633 120.81C90.2555 113.411 92.6111 103.928 94.9095 94.8692C95.317 93.3742 95.6513 91.8348 96.0587 90.3398C99.7015 76.5948 105.168 68.0838 112.671 64.2933C124.172 58.5287 136.361 67.1203 142.902 77.6018C144.858 80.8064 146.724 84.3235 148.443 87.7518C150.407 91.603 152.475 95.6099 154.788 99.2148C157.734 103.754 160.916 107.245 164.408 109.732C175.355 117.569 189.388 116.367 202.852 115.279C205.72 115.003 208.662 114.771 211.563 114.606C212.505 114.536 213.521 114.511 214.423 114.508C232.64 113.829 249.593 119.352 262.056 130.128C273.618 140.081 281.147 154.372 283.19 170.285C285.25 185.841 282.686 202.258 280.22 218.184L280.122 218.675C277.917 233.018 275.434 249.301 276.624 264.971C278.956 295.732 296.883 323.212 322.37 335.108L323.298 332.921C298.729 321.49 281.329 294.788 279.143 264.941C278.017 249.494 280.419 233.345 282.656 219.113L282.754 218.623C285.229 202.518 287.801 185.922 285.718 170.077C283.553 153.54 275.789 138.648 263.683 128.272C260.971 125.984 258.137 123.897 255.14 122.077Z" fill="#471F26"/>
</g>
<g opacity="0.4">
<path opacity="0.4" d="M254.529 123.083C242.761 115.939 228.237 112.349 212.774 112.774C211.832 112.844 210.857 112.802 209.914 112.872C207.354 112.969 204.714 113.2 202.154 113.297C188.398 114.208 175.356 115.094 165.222 107.567C162.022 105.258 159.165 102.056 156.471 97.7607C154.336 94.356 152.333 90.5718 150.402 86.832C148.609 83.3593 146.71 79.7308 144.649 76.3704C137.622 65.0432 124.19 55.6973 111.274 61.979C103.089 65.9053 97.1186 74.7523 92.9311 88.9002C92.483 90.4622 92.0349 92.0242 91.5868 93.5862C89.1911 102.311 86.6735 111.237 80.6067 118.1C79.0209 119.888 77.2565 121.476 75.2404 122.82C68.4523 127.411 59.8383 129.243 51.6005 127.819C43.249 126.417 35.1842 122.071 25.5705 113.851C-16.9525 77.9496 -38.1113 17.2361 -29.8725 -44.6139L-32.3665 -45.1192C-36.4532 -14.4953 -33.3495 16.642 -23.4673 45.0166C-13.5444 73.3242 2.83284 97.7553 23.7978 115.618C30.594 121.394 39.8188 128.278 51.1518 130.206C60.0232 131.74 69.3199 129.772 76.612 124.845C78.7825 123.411 80.742 121.667 82.4092 119.744C88.8338 112.456 91.4004 103.285 93.845 94.3152C94.2931 92.7532 94.7412 91.1911 95.1893 89.6291C99.1244 76.0617 104.81 67.6837 112.345 64.0046C123.912 58.4628 135.703 66.7212 142.349 77.3584C144.378 80.6074 146.203 84.1915 147.996 87.6641C149.927 91.4039 151.963 95.2995 154.171 98.7487C157.116 103.288 160.152 106.69 163.604 109.244C174.574 117.371 188.103 116.505 202.388 115.548C204.915 115.34 207.515 115.176 210.075 115.079C211.017 115.009 211.992 115.051 212.935 114.981C231.331 114.502 248.218 119.802 260.406 130.044C271.944 139.707 279.595 153.797 281.793 169.62C284.015 184.908 281.76 201.146 279.57 216.782L279.456 217.63C277.086 234.715 275.409 249.011 276.649 263.611C279.477 294.214 297.371 321.584 322.403 333.57L323.404 331.427C299.217 319.861 281.923 293.315 279.379 263.893C278.09 249.538 279.759 235.42 282.161 218.446L282.275 217.599C284.473 201.785 286.737 185.368 284.49 169.791C282.171 153.344 274.285 138.652 262.13 128.522C259.743 126.523 257.233 124.725 254.529 123.083Z" fill="#4E1F26"/>
</g>
<g opacity="0.45">
<path opacity="0.45" d="M253.813 123.933C242.119 116.833 227.667 113.287 211.498 113.559C210.555 113.629 209.58 113.587 208.638 113.657C206.379 113.753 204.234 113.826 201.975 113.922C188.04 114.633 174.86 115.252 164.629 107.39C161.543 105.059 158.726 101.79 156.065 97.6062C153.963 94.3128 152.032 90.573 150.133 86.9446C148.308 83.3605 146.41 79.7321 144.275 76.3273C137.069 64.8 123.995 55.8543 111.096 61.7791C102.765 65.6167 96.7778 73.9956 92.176 88.167C91.6141 89.7517 91.166 91.3137 90.6772 92.9427C88.103 101.467 85.366 110.26 79.2669 117.012C77.6811 118.8 75.8436 120.344 73.8275 121.688C66.9663 126.234 58.3198 127.955 50.1227 126.463C39.2041 124.512 30.0608 117.494 24.0603 112.384C-17.6994 77.0381 -38.4851 17.1929 -30.4828 -43.6085L-32.9768 -44.1138C-41.0935 17.5352 -19.9347 78.2488 22.3932 114.307C28.5722 119.617 38.2272 126.945 49.7795 129.006C58.6102 130.607 67.9393 128.751 75.3045 123.868C77.4751 122.435 79.4346 120.69 81.1342 118.879C87.6236 111.814 90.4095 102.776 93.0733 93.9388C93.5621 92.3098 94.0102 90.7478 94.5721 89.1631C98.9134 75.7505 104.705 67.5283 112.305 64.0719C123.822 58.7755 135.54 66.9895 142.154 77.5154C144.256 80.8087 146.081 84.3928 147.906 87.9769C149.805 91.6053 151.736 95.3451 153.943 98.7943C156.816 103.289 159.811 106.758 163.189 109.268C174.257 117.729 187.892 117.019 202.314 116.329C204.5 116.188 206.718 116.159 208.904 116.019C209.846 115.949 210.821 115.991 211.764 115.921C230.493 115.553 246.869 120.542 259 130.383C270.409 139.601 278.352 153.868 280.712 169.423C283.097 184.443 281.078 200.457 279.197 215.914L279.066 217.118C277.071 233.422 275.523 248.164 276.991 262.719C280.054 293.098 297.421 319.689 322.364 331.988L323.365 329.844C299.235 317.855 282.428 292.154 279.437 262.644C277.961 248.268 279.5 233.705 281.528 217.512L281.659 216.308C283.621 200.717 285.576 184.48 283.239 169.215C280.758 153.036 272.539 138.234 260.586 128.594C258.41 126.906 256.152 125.352 253.813 123.933Z" fill="#551E26"/>
</g>
<g opacity="0.5">
<path opacity="0.5" d="M253.285 124.804C241.59 117.704 226.878 114.092 210.222 114.343C209.32 114.346 208.304 114.371 207.402 114.374C205.598 114.379 203.827 114.496 202.023 114.502C187.836 114.968 174.478 115.387 164.15 107.191C161.105 104.792 158.361 101.568 155.699 97.3844C153.67 94.1354 151.772 90.5069 149.979 87.0342C148.081 83.4058 146.15 79.666 144.016 76.2612C136.874 64.9566 123.914 55.9883 111.064 61.6678C100.131 66.4942 94.7186 78.7061 91.6404 87.5667C91.0785 89.1513 90.4759 90.803 89.9871 92.4321C87.1936 100.824 84.2374 109.483 78.0734 116.012C76.4145 117.756 74.577 119.3 72.5609 120.644C65.6673 125.079 56.9478 126.755 48.7507 125.264C37.8727 123.245 28.6156 116.25 22.6883 111.185C-18.3729 76.1707 -38.9724 17.1721 -31.1252 -42.7147L-33.6192 -43.22C-41.5809 17.5144 -20.6814 77.337 20.9156 112.951C27.0946 118.261 36.6766 125.545 48.2613 127.718C57.1651 129.363 66.4535 127.574 73.8511 122.802C76.0217 121.369 78.0136 119.735 79.7539 117.857C86.2757 110.904 89.2402 102.066 92.1557 93.4734C92.7176 91.8887 93.2471 90.1927 93.8089 88.608C96.83 80.1713 101.917 68.4954 112.045 64.0059C123.473 59.0218 135.118 67.1915 141.667 77.4945C143.768 80.7879 145.699 84.5278 147.565 88.0448C149.431 91.5619 151.289 95.2573 153.391 98.5507C156.19 103.001 159.186 106.47 162.45 109.002C173.615 117.798 187.461 117.399 202.176 116.887C203.907 116.837 205.751 116.764 207.555 116.759C208.457 116.756 209.472 116.731 210.374 116.728C229.322 116.493 245.593 121.326 257.489 130.566C268.946 139.538 276.939 153.56 279.453 169.026C281.887 183.8 280.218 199.568 278.572 214.801L278.425 216.362C276.804 231.885 275.427 247.005 277.114 261.693C280.535 291.647 297.796 318.082 322.316 330.583L323.39 328.484C299.642 316.36 282.868 290.771 279.632 261.663C277.97 247.265 279.379 232.256 280.992 216.912L281.139 215.351C282.793 199.94 284.544 184.038 282.013 168.929C279.377 152.84 271.036 138.239 259.034 128.844C257.223 127.378 255.331 126.046 253.285 124.804Z" fill="#5D1D26"/>
</g>
<g opacity="0.55">
<path opacity="0.55" d="M252.569 125.652C240.948 118.597 226.342 115.141 208.905 115.194L208.791 115.216C207.889 115.219 206.988 115.222 206.086 115.224C204.769 115.251 203.453 115.277 202.137 115.303C187.698 115.525 174.048 115.767 163.549 107.192C160.618 104.771 157.874 101.546 155.285 97.4073C153.289 94.2697 151.537 90.73 149.703 87.3243C147.805 83.6958 145.801 79.9117 143.634 76.3955C136.525 65.2023 123.67 56.3898 110.95 61.6898C99.9532 66.2935 94.2481 78.3279 90.9505 87.0553C90.348 88.707 89.7454 90.3587 89.1429 92.0104C86.1301 100.269 82.9952 108.728 76.7989 115.146C75.1806 116.823 73.27 118.322 71.254 119.666C64.2873 124.057 55.6084 125.666 47.3789 124.063C39.0357 122.483 30.7516 118.004 21.2841 109.873C-19.1193 75.2581 -39.3864 17.195 -31.735 -41.7102L-34.229 -42.2155C-41.9948 17.5373 -21.4277 76.4245 19.4383 111.595C29.2306 120.015 37.9532 124.76 46.7433 126.428C55.6064 128.141 64.9679 126.396 72.398 121.736C74.6416 120.347 76.6335 118.713 78.4469 116.88C85.0335 110.149 88.258 101.377 91.279 92.9403C91.8816 91.2887 92.4841 89.637 93.0867 87.9853C96.254 79.6373 101.747 68.1163 111.94 63.8495C124.05 58.7296 135.418 68.0149 141.366 77.4948C143.501 80.8996 145.472 84.5724 147.37 88.2008C149.204 91.6065 151.029 95.1906 153.058 98.4396C155.858 102.89 158.707 106.271 161.931 108.869C173.225 118.11 187.363 117.889 202.33 117.621C203.646 117.595 204.963 117.569 206.279 117.543C207.181 117.54 208.083 117.537 208.985 117.534L209.098 117.512C228.452 117.431 244.252 121.887 255.978 130.748C267.411 139.431 275.566 153.185 278.235 168.561C280.832 183.067 279.398 198.611 277.989 213.62L277.784 215.605C276.399 230.904 275.331 245.845 277.204 260.555C280.87 290.107 298.18 316.297 322.277 329L323.351 326.901C300.058 314.686 283.357 289.141 279.691 260.413C277.882 245.927 278.982 231.097 280.286 215.932L280.45 214.014C281.868 198.827 283.31 183.104 280.689 168.308C277.899 152.308 269.363 137.864 257.418 128.871C255.964 127.805 254.25 126.673 252.569 125.652Z" fill="#641C26"/>
</g>
<g opacity="0.6">
<path opacity="0.6" d="M252.04 126.524C240.565 119.558 225.626 115.991 207.669 115.911L202.486 115.882C187.682 115.882 173.666 115.902 162.964 106.838C160.033 104.417 157.403 101.169 154.814 97.0302C152.891 93.9369 151.13 90.5756 149.402 87.3257C147.471 83.5859 145.394 79.7573 143.228 76.2412C136.711 66.0495 124.288 56.0317 110.771 61.4902C99.7828 65.9155 93.7852 77.7724 90.1953 86.3224C89.479 87.9967 88.8765 89.6483 88.1601 91.3227C84.9687 99.3809 81.6877 107.752 75.3452 114.08C73.6539 115.713 71.7433 117.212 69.6541 118.512C62.655 122.791 53.903 124.356 45.7142 122.686C37.2979 121.062 29.0544 116.516 19.66 108.429C-19.9069 74.4138 -39.874 17.1747 -32.3046 -40.7716L-34.7986 -41.2769C-42.4094 17.5614 -22.2153 75.5801 18.0336 110.284C27.8258 118.705 36.5485 123.45 45.371 125.229C54.2341 126.941 63.628 125.308 71.0905 120.759C73.3341 119.37 75.3991 117.781 77.1718 116.014C83.7908 109.395 87.1939 100.823 90.4342 92.5198C91.0775 90.8011 91.7531 89.1938 92.4694 87.5195C95.8559 79.3045 101.642 67.961 111.826 63.8726C123.847 59.0652 135.109 68.1947 141.098 77.6076C143.305 81.0567 145.309 84.8409 147.208 88.4694C148.895 91.7863 150.729 95.192 152.684 98.3966C155.411 102.803 158.26 106.183 161.443 108.849C172.941 118.58 187.371 118.536 202.703 118.49L207.814 118.475C227.387 118.527 243.081 122.828 254.531 131.154C265.981 139.48 274.217 153.1 277.114 168.431C279.833 182.736 278.675 197.99 277.502 212.775L277.28 215.117C276.197 229.59 275.331 245.021 277.392 259.752C281.415 288.88 298.62 314.914 322.294 327.818L323.369 325.719C300.498 313.303 283.788 287.936 279.878 259.611C277.883 245.102 278.74 229.85 279.783 215.444L280.004 213.102C281.186 198.138 282.352 182.706 279.609 168.111C276.591 152.157 268.005 137.958 256.012 129.21C254.704 128.233 253.389 127.434 252.04 126.524Z" fill="#6B1C27"/>
</g>
<g opacity="0.65">
<path opacity="0.65" d="M251.325 127.373C239.996 120.495 225.203 117.017 206.312 116.829L203.046 116.772C187.763 116.573 173.268 116.393 162.363 106.839C159.473 104.351 156.916 101.148 154.327 97.0087C152.509 94.0712 150.822 90.7543 149.126 87.6157C147.122 83.8315 145.086 79.936 142.773 76.3311C136.289 66.2508 123.971 56.3887 110.512 61.4234C99.4584 65.626 93.1685 77.3054 89.3593 85.7223C88.643 87.3966 87.886 89.1379 87.1697 90.8122C83.759 98.7374 80.2587 106.975 73.9244 113.125C72.2331 114.758 70.3225 116.257 68.1602 117.513C61.1287 121.681 52.3443 123.134 44.1149 121.531C35.7392 119.84 27.4227 115.25 18.1014 107.207C-20.7671 73.524 -40.3287 17.2646 -33.0282 -39.7444L-35.5222 -40.2497C-42.8558 17.4729 -22.9618 74.6676 16.5562 108.928C26.3078 117.416 34.9574 122.116 43.8936 123.873C52.7161 125.652 62.1424 124.13 69.7187 119.559C71.9216 118.237 73.9866 116.648 75.8731 114.858C82.4839 108.417 86.1062 99.9788 89.6389 91.8527C90.3552 90.1784 91.1122 88.437 91.8285 86.7627C95.4343 78.6809 101.439 67.4705 111.729 63.5378C123.701 58.9758 134.849 68.128 140.774 77.3181C143.054 80.8116 145.017 84.6628 147.062 88.38C148.717 91.5855 150.518 94.8798 152.368 97.9287C155.022 102.291 157.83 105.738 160.899 108.426C172.6 118.647 187.582 118.847 203.353 119.067L206.619 119.124C226.745 119.42 241.968 123.343 253.175 131.247C264.6 139.283 272.959 152.702 276.01 167.943C278.891 181.98 277.97 197.01 277.032 211.572L276.908 214.248C276.06 228.497 275.43 243.705 277.751 258.502C282.132 287.205 299.304 313.127 322.451 326.078L323.598 324.024C301.15 311.405 284.505 286.261 280.278 258.293C278.022 243.719 278.684 228.623 279.451 214.508L279.575 211.832C280.48 197.159 281.451 181.884 278.545 167.556C275.373 151.692 266.665 137.694 254.582 129.258C253.445 128.66 252.348 127.994 251.325 127.373Z" fill="#721B27"/>
</g>
<g opacity="0.7">
<path opacity="0.7" d="M250.544 128C239.361 121.211 225.12 117.977 205.003 117.502C204.101 117.505 203.126 117.463 202.224 117.466C185.072 117.05 172.195 116.018 161.81 106.596C159.034 104.085 156.477 100.882 153.961 96.7876C152.216 93.8945 150.521 90.7559 148.971 87.7061C146.894 83.8776 144.826 79.8706 142.44 76.2214C136.02 66.3638 123.816 56.4791 110.406 61.2684C99.4421 65.1586 93.039 76.0357 88.6362 85.1009C87.8061 86.7979 87.0491 88.5392 86.219 90.2362C82.6622 98.0726 78.9102 106.066 72.5435 112.105C70.8522 113.737 68.8685 115.192 66.7469 116.38C59.6423 120.504 50.8986 121.891 42.6367 120.176C34.1879 118.44 25.9445 113.895 16.5908 105.741C-21.4412 72.6572 -40.7029 17.2219 -33.5574 -38.8726L-36.0514 -39.3778C-43.2707 17.4972 -23.709 73.7565 15.1188 107.506C24.7973 115.949 33.4792 120.761 42.4155 122.518C51.311 124.342 60.6967 122.887 68.3053 118.427C70.5814 117.149 72.6464 115.56 74.4921 113.838C81.2084 107.552 85.0094 99.314 88.6476 91.3436C89.4046 89.6023 90.2347 87.9053 91.0241 86.2754C95.1828 77.6122 101.301 67.2041 111.501 63.5839C123.383 59.3342 134.499 68.375 140.391 77.4538C142.672 80.9473 144.781 84.8872 146.744 88.7384C148.367 91.8326 150.062 94.9711 151.88 97.9086C154.534 102.271 157.269 105.674 160.225 108.385C172.16 119.207 188.223 119.604 202.409 119.963C203.311 119.96 204.286 120.002 205.188 119.999C226.207 120.471 240.472 123.995 251.549 131.453C263.024 139.244 271.472 152.351 274.637 167.569C277.608 181.294 276.954 196.211 276.293 210.483L276.112 213.582C275.565 227.006 275.179 242.636 277.645 257.522C282.4 286.269 299.086 311.345 322.175 324.72L323.322 322.665C300.964 309.734 284.773 285.325 280.099 257.269C277.624 242.562 278.075 227.154 278.581 213.798L278.722 210.765C279.391 196.316 280.086 181.331 277.017 167.272C273.617 151.452 264.861 137.7 252.802 129.554C252.112 129.043 251.348 128.488 250.544 128Z" fill="#791A27"/>
</g>
<g opacity="0.75">
<path opacity="0.75" d="M249.942 128.827C236.128 120.441 218.847 118.754 203.686 118.353C202.784 118.356 201.85 118.247 200.948 118.25C185.494 117.672 171.878 116.376 161.217 106.42C158.481 103.841 155.997 100.683 153.482 96.5882C151.843 93.8508 150.179 90.8237 148.662 87.8853C146.553 83.9453 144.411 79.894 141.952 76.2004C135.249 65.987 123.393 56.6809 110.187 61.1351C99.2309 64.8469 92.5356 75.5466 87.9135 84.4787C87.0834 86.1756 86.2126 87.9396 85.3418 89.7035C81.6064 97.3398 77.7082 105.244 71.236 111.127C69.4716 112.716 67.4879 114.171 65.3663 115.359C58.0749 119.461 49.5263 120.691 41.1913 118.932C32.7425 117.196 24.4667 112.539 15.1861 104.429C-22.1881 71.7452 -41.1905 17.2009 -34.2408 -37.912L-36.7348 -38.4173C-43.7583 17.4762 -24.4966 72.9115 13.5679 106.106C23.2464 114.549 31.9283 119.361 40.897 121.229C49.8657 123.097 59.0562 121.799 66.8517 117.361C69.1277 116.083 71.2658 114.538 73.1116 112.816C79.8603 106.642 83.8398 98.6039 87.6973 90.7666C88.568 89.0026 89.3981 87.3057 90.2282 85.6088C94.6063 77.0787 101.017 66.8481 111.209 63.4062C123.042 59.402 133.841 67.9755 139.871 77.3214C142.184 80.9263 144.366 84.9106 146.403 88.8062C147.92 91.7446 149.583 94.7718 151.255 97.6205C153.835 101.938 156.497 105.297 159.412 108.075C170.722 118.609 184.899 119.971 200.914 120.614C201.815 120.611 202.75 120.72 203.652 120.717C218.886 121.161 236.354 122.87 249.851 131.614C261.269 139.004 269.798 151.976 273.231 167.082C276.284 180.673 275.866 195.367 275.473 209.526L275.397 212.781C275.01 229.237 275.203 242.925 277.622 256.407C282.67 284.506 299.03 309.294 321.396 322.871C321.616 323.005 321.762 323.093 321.981 323.226L323.201 321.216C301.152 308.106 285.108 283.785 280.108 256.266C277.909 242.917 277.708 229.407 278.086 213.13L278.194 209.986C278.596 195.649 279.022 180.777 275.904 166.963C272.277 151.189 263.399 137.637 251.323 129.848C250.892 129.404 250.454 129.137 249.942 128.827Z" fill="#801927"/>
</g>
<g opacity="0.75">
<path opacity="0.75" d="M249.194 129.565C235.307 121.134 217.823 119.782 202.369 119.205C201.467 119.207 200.533 119.099 199.631 119.101C185.835 118.429 171.406 116.823 160.616 106.421C157.953 103.888 155.51 100.662 153.108 96.5448C151.501 93.9187 149.984 90.9803 148.532 88.2647C146.39 84.2133 144.175 80.1177 141.684 76.3126C135.086 66.255 123.304 56.9933 110.146 61.2022C99.1256 64.6911 92.1378 75.2133 87.2964 84.0123C86.3526 85.7319 85.368 87.5185 84.4972 89.2825C80.5425 96.7856 76.4251 104.557 69.9612 110.262C68.1968 111.85 66.14 113.261 64.0184 114.449C56.6945 118.439 48.1459 119.669 39.7378 117.866C31.3298 116.063 22.8347 111.273 13.7002 103.252C-22.9755 70.9003 -41.6048 17.2244 -34.8102 -36.9739L-37.3042 -37.4792C-44.1725 17.4997 -25.1702 72.044 12.1634 104.795C21.6226 113.105 30.5969 118.094 39.4518 119.985C48.3798 121.92 57.6434 120.666 65.4713 116.339C67.7473 115.062 69.8448 113.584 71.7636 111.906C78.5772 105.955 82.7435 97.9384 86.7796 90.3012C87.7235 88.5816 88.5942 86.8176 89.5381 85.098C94.1354 76.7011 100.838 66.648 111.136 63.3618C122.92 59.603 133.533 68.1548 139.644 77.3667C142.103 81.0603 144.245 85.1116 146.354 89.0515C147.839 91.8786 149.396 94.75 150.962 97.443C153.47 101.716 156.091 105.142 158.933 107.876C170.478 119.011 185.395 120.638 199.751 121.375C200.653 121.372 201.587 121.481 202.489 121.478C217.715 122.101 235.126 123.409 248.453 131.774C259.92 138.919 268.498 151.646 272.159 166.707C275.374 180.03 275.192 194.5 275.035 208.435L274.984 211.98C274.899 225.96 275.148 240.874 277.94 255.224C283.402 283.3 299.95 308.11 322.161 321.777L323.381 319.766C301.828 306.499 285.775 282.356 280.385 255.15C277.658 241.023 277.329 226.242 277.445 212.374L277.497 208.829C277.662 194.715 277.812 180.134 274.572 166.521C270.79 150.836 261.676 137.509 249.738 129.987C249.56 129.787 249.414 129.698 249.194 129.565Z" fill="#871927"/>
</g>
<g opacity="0.8">
<path opacity="0.8" d="M248.925 130.502C248.706 130.369 248.487 130.236 248.195 130.058C234.656 122.206 218.188 120.829 201.093 119.989C200.232 119.924 199.257 119.883 198.396 119.818C182.585 118.84 170.009 116.158 160.064 106.178C157.441 103.577 155.071 100.396 152.67 96.2784C151.209 93.7412 149.757 91.0255 148.337 88.4212C146.122 84.3255 143.875 80.1184 141.351 76.2021C134.745 66.3228 123.109 57.1498 110.008 60.9349C98.9228 64.2011 91.6427 74.5458 86.5821 83.2117C85.5244 84.9539 84.5399 86.7405 83.5554 88.5271C79.3814 95.8972 75.1585 103.513 68.589 109.062C66.7515 110.606 64.7354 111.949 62.6138 113.137C55.2575 117.017 46.6359 118.202 38.2685 116.332C29.8604 114.529 21.2922 109.695 12.2715 101.651C-23.7223 69.9883 -42.0192 17.2479 -35.4203 -35.9689L-37.9143 -36.4741C-44.5869 17.5232 -25.9576 71.199 10.7588 103.484C20.218 111.794 29.0786 116.806 38.0065 118.741C46.9669 120.787 56.2306 119.533 64.0909 115.318C66.3669 114.04 68.5374 112.607 70.4563 110.929C77.3022 105.089 81.6472 97.2727 85.9025 89.7686C86.8464 88.049 87.8716 86.1954 88.8886 84.5202C93.7458 76.1894 100.668 66.2693 110.989 63.273C122.684 59.8265 133.265 68.2669 139.343 77.3675C141.835 81.1725 144.049 85.2682 146.264 89.3638C147.644 92.0351 149.169 94.7952 150.629 97.3324C153.137 101.606 155.685 104.987 158.413 107.743C168.894 118.324 182.063 121.183 198.475 122.159C199.336 122.224 200.311 122.265 201.172 122.329C217.893 123.126 233.988 124.46 246.974 132.068C258.352 138.7 267.093 151.16 270.932 166.42C274.27 179.542 274.291 193.678 274.37 207.389C274.385 208.682 274.359 210.042 274.375 211.335C274.526 225.091 275.084 239.827 278.022 254.265C283.777 281.694 300.292 306.392 322.008 320.216L323.301 318.25C302.13 304.848 286.11 280.817 280.476 254.013C277.489 239.819 276.964 225.195 276.845 211.551C276.829 210.258 276.855 208.898 276.84 207.604C276.769 193.715 276.756 179.401 273.354 166.056C269.418 150.461 260.547 137.557 248.925 130.502Z" fill="#8E1827"/>
</g>
<g opacity="0.8">
<path opacity="0.8" d="M247.633 130.818C247.341 130.64 247.049 130.463 246.756 130.285C233.543 122.722 217.391 121.812 201.726 120.923L199.89 120.817C199.029 120.753 198.127 120.756 197.193 120.647C183.974 119.684 170.301 117.161 159.617 106.09C157.109 103.467 154.665 100.241 152.41 96.2123C151.055 93.8308 149.635 91.2265 148.321 88.778C146.073 84.5709 143.72 80.2081 141.123 76.2473C134.623 66.5238 122.987 57.3509 110.008 60.9349C98.8581 63.9784 91.3587 74.19 86.0057 82.6784C84.9481 84.4206 83.8498 86.2298 82.7921 87.9721C78.5127 95.1864 74.0705 102.669 67.4279 108.173C65.5904 109.717 63.5743 111.061 61.3796 112.205C54.0234 116.084 45.2962 117.114 36.9694 115.177C28.529 113.262 20.0339 108.472 10.9725 100.495C-24.5096 69.1435 -42.5065 17.2271 -36.0628 -35.0751L-38.5568 -35.5804C-45.0012 17.5467 -26.7043 70.2872 9.28118 102.128C18.7404 110.438 27.601 115.45 36.4883 117.452C45.4487 119.499 54.7447 118.356 62.6374 114.252C64.9459 113.086 67.1164 111.652 69.0353 109.974C75.9136 104.246 80.4372 96.6298 84.9118 89.2588C85.9694 87.5166 87.0677 85.7074 88.1254 83.9651C93.2019 75.7674 100.417 66.0249 110.843 63.1843C125.496 59.1492 136.088 73.0074 138.969 77.324C141.534 81.1734 143.854 85.4248 146.029 89.5875C147.416 92.0804 148.763 94.6404 150.15 97.1333C152.585 101.362 155.133 104.743 157.747 107.522C169.113 119.282 183.346 121.87 197.085 122.966C197.946 123.03 198.881 123.139 199.782 123.136L201.619 123.242C216.983 124.132 232.834 125.043 245.463 132.251C256.882 138.816 265.704 151.141 269.673 166.023C273.1 178.832 273.431 192.788 273.704 206.343C273.711 207.815 273.759 209.219 273.839 210.735C274.219 223.62 274.946 238.735 278.217 253.284C284.42 280.8 300.375 304.608 322.074 318.789L323.368 316.823C302.619 303.219 286.59 279.366 280.712 252.964C277.506 238.638 276.697 223.658 276.35 210.883C276.343 209.412 276.295 208.007 276.288 206.536C275.982 192.87 275.733 178.78 272.168 165.703C268.101 150.488 259.182 137.828 247.633 130.818Z" fill="#951728"/>
</g>
<g opacity="0.85">
<path opacity="0.85" d="M246.78 131.4C246.268 131.09 245.683 130.735 245.131 130.491C232.819 123.75 217.983 122.814 203.594 121.966C201.945 121.882 200.222 121.753 198.573 121.669C197.712 121.604 196.85 121.54 195.916 121.431C178.741 119.9 167.645 115.274 159.024 105.913C156.556 103.223 154.227 99.9751 151.93 96.0134C150.608 93.7432 149.367 91.3391 148.158 89.0463C145.878 84.7278 143.493 80.2536 140.75 76.2041C132.382 63.7885 120.776 58.0266 109.862 60.8464C98.72 63.7115 91.1806 73.1652 85.2829 82.0565C84.1115 83.8214 83.0132 85.6306 81.8418 87.3955C77.343 94.4767 72.6815 101.826 66.0473 107.152C64.1367 108.652 62.1206 109.996 59.9259 111.139C52.5372 114.907 43.81 115.937 35.4102 113.955C26.8966 111.997 18.4422 107.14 9.38084 99.1628C-25.2566 68.2319 -42.9211 17.2509 -36.6732 -34.0697L-39.2078 -34.508C-45.5295 17.5932 -27.4919 69.4426 7.76262 100.84C17.1081 109.172 26.0417 114.229 35.0021 116.275C43.9218 118.389 53.291 117.29 61.2161 113.298C63.5246 112.132 65.6951 110.698 67.7601 109.109C74.6709 103.492 79.4137 96.0089 83.9938 88.7936C85.0922 86.9844 86.2636 85.2195 87.3943 83.5217C93.0886 74.9654 100.238 65.825 110.616 63.2298C120.425 60.7477 130.886 66.0894 138.587 77.4592C141.225 81.353 143.61 85.8272 145.858 90.0342C147.139 92.3714 148.381 94.7755 149.703 97.0457C152.138 101.274 154.613 104.611 157.186 107.457C166.384 117.351 177.918 122.244 195.841 123.862C196.702 123.926 197.637 124.035 198.538 124.032C200.188 124.116 201.91 124.245 203.56 124.329C217.648 125.179 232.224 126.049 243.984 132.546C255.378 138.821 264.323 150.945 268.487 165.67C272.036 178.278 272.529 191.966 273.079 205.23C273.119 206.813 273.231 208.441 273.271 210.023C273.846 222.752 274.923 237.62 278.413 252.302C284.9 279.349 300.823 303.046 322.026 317.385L323.393 315.464C302.701 301.435 287.241 278.294 280.875 251.871C277.409 237.479 276.405 222.655 275.822 210.105C275.782 208.522 275.743 206.939 275.631 205.312C275.162 191.914 274.563 178.07 270.95 165.239C266.826 150.447 258.036 138.233 246.78 131.4Z" fill="#9C1628"/>
</g>
<g opacity="0.9">
<path opacity="0.9" d="M245.967 131.916C245.236 131.472 244.432 130.984 243.66 130.607C232.143 124.533 218.356 123.683 205.015 122.92C202.504 122.772 199.88 122.646 197.337 122.386C196.476 122.322 195.615 122.257 194.68 122.149C178.301 120.459 167.15 115.432 158.545 105.714C156.15 103.068 153.861 99.7533 151.565 95.7916C150.348 93.6773 149.171 91.4958 148.068 89.3588C145.683 84.8846 143.224 80.366 140.376 76.1608C132 63.9235 120.622 58.1164 109.756 60.6908C98.5496 63.3331 90.7909 72.6537 84.6739 81.4119C83.4294 83.1324 82.2174 84.9643 81.0053 86.7962C76.3603 93.7886 71.5203 100.938 64.8536 106.153C62.943 107.652 60.8538 108.952 58.6998 110.028C51.238 113.752 42.5191 114.603 34.1193 112.622C25.5326 110.619 17.0782 105.761 8.13059 97.762C-25.9711 67.4315 -43.3356 17.2745 -37.2427 -33.1315L-39.7774 -33.5697C-45.9034 17.5498 -28.2388 68.5308 6.32551 99.4173C15.671 107.75 24.5315 112.762 33.5243 114.92C42.5171 117.078 51.8049 116.113 59.8031 112.165C62.1116 110.999 64.3552 109.61 66.4202 108.021C73.4365 102.56 78.2849 95.232 83.0842 88.1499C84.2557 86.3851 85.4677 84.5532 86.7122 82.8327C92.6258 74.4095 100.067 65.4466 110.478 62.9628C120.205 60.6148 130.625 66.0235 138.295 77.2818C141.038 81.3313 143.496 85.8499 145.849 90.2127C147.026 92.3941 148.202 94.5755 149.419 96.6899C151.78 100.874 154.142 104.234 156.715 107.08C165.897 117.33 177.56 122.669 194.687 124.445C195.548 124.509 196.482 124.618 197.343 124.682C199.927 124.875 202.511 125.068 205.021 125.217C218.061 125.98 231.549 126.831 242.627 132.639C253.997 138.625 263.104 150.481 267.456 165.227C271.094 177.523 271.823 190.988 272.609 204.028C272.681 205.722 272.826 207.461 272.897 209.155C273.595 220.858 274.948 236.26 278.771 251.053C285.616 277.675 301.434 301.216 322.255 315.69L323.622 313.769C303.385 299.65 287.843 276.643 281.234 250.622C277.548 236.096 276.195 221.519 275.489 209.17C275.418 207.475 275.273 205.737 275.201 204.043C274.496 190.868 273.735 177.292 269.999 164.662C265.477 150.362 256.857 138.527 245.967 131.916Z" fill="#A31628"/>
</g>
<g opacity="0.95">
<path opacity="0.95" d="M245.04 132.453C244.09 131.876 243.026 131.322 242.035 130.812C231.127 125.383 218.274 124.641 205.835 123.876C202.577 123.641 199.164 123.495 195.947 123.192C195.086 123.128 194.225 123.064 193.331 122.888C177.749 121.04 166.467 115.567 157.879 105.493C155.524 102.78 153.309 99.5093 151.086 95.592C150.047 93.6777 148.903 91.6077 147.865 89.6934C145.447 85.1078 142.81 80.3892 139.929 76.0725C131.659 63.991 120.28 58.1839 109.537 60.5573C98.3387 63.0212 90.2876 72.1643 83.8783 80.745C82.5931 82.5325 81.2672 84.387 80.0227 86.1075C75.1992 92.8999 70.1723 100.027 63.4001 105.086C61.4164 106.542 59.3272 107.841 57.1732 108.918C49.679 112.53 40.887 113.337 32.5279 111.288C23.9819 109.218 15.4543 104.317 6.50675 96.3173C-26.7909 66.4748 -43.7824 17.1863 -37.8853 -32.2381L-40.42 -32.6764C-46.3177 17.5729 -29.0263 67.6855 4.84785 98.0613C14.1202 106.35 23.0132 111.473 32.006 113.631C40.9581 115.856 50.319 114.936 58.3496 111.099C60.7312 109.977 62.9341 108.655 64.9992 107.066C72.0072 101.783 77.1155 94.5217 82.0204 87.5953C83.3055 85.8078 84.5907 84.0203 85.8759 82.2328C92.0087 73.9427 99.7426 65.1573 110.218 62.8962C124.147 59.889 134.22 71.9651 137.807 77.2606C140.656 81.4658 143.147 86.0958 145.605 90.6143C146.717 92.573 147.788 94.5986 148.899 96.5573C151.228 100.63 153.549 104.057 156.009 106.926C165.101 117.488 176.967 123.316 193.224 125.207C194.158 125.316 195.019 125.38 195.88 125.444C199.211 125.724 202.583 125.937 205.882 126.105C218.061 126.805 230.614 127.547 241.042 132.777C252.388 138.473 261.618 150.128 266.124 164.785C269.884 176.88 270.849 190.121 271.724 202.849C271.902 204.699 271.965 206.571 272.142 208.421C273.035 219.968 274.665 235.079 278.707 250.005C285.837 276.158 301.622 299.588 322.021 314.263L323.46 312.386C303.605 298.132 288.21 275.214 281.17 249.574C277.192 234.871 275.595 219.871 274.694 208.503C274.516 206.653 274.412 204.847 274.276 202.93C273.335 189.979 272.338 176.627 268.513 164.31C264.16 150.388 255.711 138.931 245.04 132.453Z" fill="#AA1528"/>
</g>
<path d="M244.227 132.969C243.057 132.259 241.774 131.571 240.523 130.996C230.192 126.099 218.086 125.445 206.468 124.811C202.609 124.577 198.522 124.389 194.671 123.977C193.81 123.913 192.989 123.781 192.128 123.717C177.114 121.756 166.036 115.948 157.391 105.472C155.151 102.737 152.935 99.4661 150.712 95.5488C149.738 93.8573 148.805 92.0987 147.84 90.2288C145.317 85.4875 142.688 80.5904 139.588 76.1407C131.277 64.1262 120.272 58.3625 109.464 60.5132C98.2007 62.7543 89.8572 71.7199 83.2286 80.1675C81.8704 81.9107 80.4307 83.7878 79.1456 85.5753C74.1028 92.2346 68.9703 99.2062 62.1657 104.154C60.182 105.609 58.0198 106.864 55.8658 107.941C48.3391 111.442 39.5471 112.248 31.1149 110.156C22.4958 108.041 14.009 103.073 5.13447 95.1177C-27.5053 65.6746 -44.2375 17.2771 -38.4955 -31.2327L-41.0302 -31.671C-46.846 17.6194 -29.8138 66.8409 3.37007 96.706C12.6018 105.061 21.4216 110.14 30.5606 112.387C39.5128 114.612 48.906 113.803 56.9691 110.078C59.3099 109.023 61.5536 107.634 63.6917 106.089C70.7321 100.918 76.019 93.8563 81.1432 87.0631C82.5014 85.32 83.8273 83.4655 85.1856 81.7223C91.5377 73.5654 99.564 64.9575 110.031 62.8748C123.87 60.1799 133.838 72.1002 137.425 77.3958C140.42 81.6897 142.976 86.5424 145.54 91.2168C146.546 93.0197 147.479 94.7782 148.412 96.5367C150.74 100.61 152.988 103.992 155.334 106.883C164.515 117.959 176.105 124.077 191.866 126.126C192.8 126.234 193.621 126.366 194.482 126.43C198.447 126.819 202.42 127.03 206.393 127.241C217.824 127.853 229.557 128.465 239.409 133.162C250.804 138.612 260.009 149.977 264.742 164.589C268.593 176.371 269.793 189.388 270.904 201.893C271.073 203.921 271.283 205.882 271.493 207.844C273.194 224.649 275.386 237.351 278.789 249.046C286.236 274.842 301.956 298.048 321.9 312.815L323.339 310.938C303.867 296.549 288.504 273.742 281.219 248.504C277.921 236.964 275.648 224.397 274.052 207.747C273.843 205.785 273.674 203.757 273.464 201.796C272.361 189.113 271.128 175.985 267.213 163.979C262.812 150.303 254.533 139.225 244.227 132.969Z" fill="#B11428"/>
<path d="M243.341 133.44C241.952 132.596 240.45 131.776 239.012 131.178C229.111 126.727 217.825 126.203 206.841 125.679C202.453 125.492 197.879 125.283 193.467 124.805C192.606 124.741 191.786 124.61 190.965 124.478C176.52 122.404 165.719 116.305 156.912 105.273C154.671 102.538 152.569 99.2442 150.419 95.3713C149.551 93.8355 148.756 92.3441 147.929 90.7413C145.3 85.8443 142.606 80.7244 139.36 76.1859C131.082 64.2828 120.15 58.5635 109.391 60.4687C98.0626 62.4871 89.4999 71.3196 82.5382 79.6568C81.0662 81.4226 79.6266 83.2997 78.2683 85.0428C73.0793 91.6133 67.7683 98.3848 60.8906 103.288C58.9069 104.743 56.7446 105.998 54.4851 106.919C46.7716 110.398 38.1748 111.049 29.6694 108.912C21.1641 106.774 12.3849 101.628 3.7297 93.8065C-28.293 64.8297 -44.6521 17.3006 -39.179 -30.272L-41.7136 -30.7103C-47.2605 17.6429 -30.6014 65.996 1.85153 95.4174C10.9046 103.573 20.0493 108.941 29.0014 111.165C38.0997 113.479 47.2655 112.716 55.4747 109.079C57.8156 108.024 60.1323 106.679 62.2297 105.202C69.3025 100.142 74.8087 93.2134 80.079 86.5089C81.478 84.6987 82.95 82.933 84.349 81.1228C91.0341 73.0763 99.2066 64.5572 109.811 62.7416C123.561 60.3592 133.424 72.1237 137.051 77.3522C140.152 81.802 142.813 86.8104 145.442 91.7075C146.269 93.3103 147.137 94.8461 147.932 96.3375C150.188 100.366 152.395 103.815 154.668 106.662C163.832 118.094 175.511 124.726 190.476 126.932C191.41 127.041 192.231 127.172 193.092 127.237C197.576 127.758 202.191 127.9 206.652 128.132C217.937 128.656 228.508 129.203 237.856 133.411C249.227 138.572 258.554 149.736 263.442 164.258C267.342 175.795 268.705 188.544 270.052 200.825C270.253 202.965 270.495 205.037 270.77 207.222C272.683 223.514 275.2 236.504 278.757 248.11C286.659 273.815 301.884 296.354 321.697 311.5L323.137 309.623C303.795 294.855 288.886 272.782 281.114 247.523C277.589 236.029 275.064 223.217 273.256 207.08C273.014 205.008 272.813 202.868 272.611 200.728C271.272 188.269 269.877 175.409 265.84 163.604C261.536 150.262 253.427 139.563 243.341 133.44Z" fill="#B81328"/>
<path d="M242.455 133.91C240.847 132.934 239.158 132.092 237.428 131.317C227.998 127.243 217.232 126.851 206.84 126.504C201.966 126.295 196.936 126.177 192.118 125.545C191.298 125.413 190.437 125.349 189.616 125.218C175.667 122.986 165.142 116.596 156.246 105.052C154.119 102.294 152.018 99.0002 149.908 95.0603C149.178 93.7917 148.488 92.456 147.799 91.1204C145.032 85.9562 142.233 80.6806 138.922 75.9193C130.708 64.2389 119.89 58.497 109.221 60.0898C97.8278 61.8855 88.9727 70.5405 81.8649 78.7889C80.3198 80.5103 78.7664 82.4101 77.2943 84.1759C71.8861 90.6132 66.3558 97.2516 59.4863 101.977C57.4296 103.387 55.2673 104.643 53.0078 105.563C45.2619 108.931 36.665 109.581 28.1273 107.333C19.5488 105.151 10.7696 100.005 2.15509 92.1164C-29.0394 63.9175 -45.0661 17.3237 -39.7481 -29.3343L-42.2828 -29.7726C-47.6746 17.666 -31.3479 65.0838 0.414844 93.9945C9.35416 102.172 18.5395 107.473 27.5241 109.809C36.5817 112.19 45.7798 111.538 54.0622 107.946C56.403 106.891 58.7522 105.658 60.8903 104.113C68.0686 99.2085 73.6803 92.4361 79.1699 85.8647C80.6419 84.0989 82.1546 82.2661 83.6998 80.5447C90.6042 72.6313 99.069 64.2896 109.665 62.6525C119.279 61.152 129.138 66.4955 136.678 77.3084C139.884 81.9139 142.724 87.1225 145.417 92.2423C146.107 93.5779 146.837 94.8466 147.527 96.1822C149.782 100.211 151.916 103.616 154.075 106.485C163.215 118.453 174.731 125.352 189.127 127.672C190.02 127.848 190.882 127.912 191.775 128.087C196.707 128.697 201.809 128.86 206.725 129.001C217.376 129.415 227.354 129.786 236.345 133.594C247.692 138.465 257.101 149.495 262.298 163.838C266.319 175.174 267.885 187.588 269.428 199.712C269.734 202.007 270.009 204.191 270.316 206.487C272.505 222.488 275.217 235.322 279.035 246.994C287.181 272.297 302.414 294.658 321.845 309.938L323.358 308.106C304.365 293.091 289.522 271.242 281.505 246.384C277.793 234.869 275.041 222.102 272.843 206.279C272.495 204.05 272.262 201.799 271.955 199.503C270.453 187.312 268.822 174.676 264.736 163.117C260.261 150.221 252.249 139.856 242.455 133.91Z" fill="#BF1329"/>
<path d="M126.101 63.9185C120.692 60.6351 114.892 59.3148 109.106 60.1126C97.6894 61.6185 88.9323 69.7827 81.1742 78.2783C79.5884 80.0667 78.0026 81.8551 76.4168 83.6435C70.903 89.9251 65.1128 96.4974 58.2109 101.111C56.1542 102.522 53.9595 103.666 51.6593 104.653C43.8403 107.977 35.211 108.516 26.6733 106.267C18.0625 103.974 9.35634 98.8726 0.7418 90.9837C-29.7542 63.1171 -45.4809 17.3474 -40.318 -28.3961L-42.8527 -28.8343C-48.0894 17.6897 -32.022 64.2164 -0.949508 92.6163C7.98981 100.794 17.1345 106.162 26.1921 108.543C35.3228 110.968 44.4803 110.383 52.8357 106.835C55.2497 105.824 57.5257 104.547 59.6962 103.113C66.907 98.3202 72.7379 91.6809 78.333 85.2653C79.9188 83.4769 81.5047 81.6885 83.0905 79.9001C90.572 71.6951 98.9714 63.9556 109.673 62.4742C122.756 60.6957 132.124 70.968 136.531 77.2197C139.916 82.0254 142.894 87.5011 145.693 92.7767C146.244 93.8452 146.763 94.8023 147.315 95.8708C149.457 99.9221 151.632 103.26 153.677 106.152C162.832 118.588 174.104 125.889 188.045 128.299C188.939 128.475 189.873 128.584 190.694 128.715C195.999 129.368 201.516 129.507 206.919 129.67C217.051 129.951 226.581 130.235 235.102 133.665C246.424 138.246 255.955 149.075 261.306 163.328C265.417 174.352 267.219 186.542 268.851 198.354C269.191 200.76 269.53 203.167 269.942 205.619C272.335 221.285 275.388 234.051 279.352 245.811C287.856 270.689 302.984 292.895 321.919 308.333L323.432 306.5C304.821 291.351 290.01 269.613 281.677 245.113C277.704 233.531 274.797 220.854 272.323 205.322C271.984 202.915 271.645 200.508 271.232 198.057C269.495 186.089 267.733 173.832 263.484 162.541C257.979 147.553 247.799 136.146 235.737 131.299C226.664 127.626 216.492 127.411 206.588 127.084C201.298 126.9 195.855 126.804 190.663 126.129C189.843 125.998 189.022 125.866 188.202 125.735C174.821 123.39 164.459 116.732 155.588 104.653C153.575 101.872 151.473 98.5783 149.364 94.6384C148.771 93.6369 148.293 92.6127 147.7 91.6112C144.869 86.2243 141.891 80.7486 138.401 75.7872C134.765 70.7371 130.56 66.6251 126.101 63.9185Z" fill="#C61229"/>
<path d="M125.687 63.9422C120.352 60.7032 114.665 59.3603 108.961 60.024C97.5521 61.3515 88.5433 69.2712 80.4522 77.6564C78.7933 79.4004 77.0937 81.2115 75.5079 82.9999C69.8479 89.1928 63.8791 95.5649 56.9041 100.134C54.7743 101.501 52.5796 102.644 50.3201 103.565C42.4687 106.777 33.807 107.205 25.2693 104.956C16.5853 102.619 7.87921 97.5172 -0.662244 89.6727C-30.468 62.3168 -45.8624 17.4825 -40.8545 -27.3464L-43.3892 -27.7847C-45.8607 -5.25886 -43.3925 17.698 -36.2019 38.478C-29.0112 59.2579 -17.3092 77.5495 -2.28046 91.3497C6.58578 99.4831 15.7304 104.851 24.8205 107.343C33.9105 109.835 43.1411 109.294 51.5289 105.858C53.9022 104.914 56.2513 103.681 58.4625 102.181C65.7057 97.4991 71.7559 90.9929 77.4972 84.666C79.1561 82.922 80.7826 81.0666 82.4415 79.3225C90.1423 71.2507 98.8747 63.6217 109.528 62.3856C122.448 60.8752 131.784 71.0361 136.231 77.2208C139.794 82.2266 142.869 88.0364 145.806 93.5791L146.91 95.7162C149.051 99.7675 151.113 103.128 153.158 106.02C162.361 119.035 173.357 126.627 186.843 129.128C187.736 129.304 188.63 129.48 189.491 129.544C195.129 130.307 201.061 130.423 206.732 130.473C216.344 130.622 225.468 130.751 233.664 133.892C244.963 138.183 254.615 148.812 260.121 162.975C264.281 173.753 266.246 185.675 268.113 197.263C268.558 199.826 268.93 202.344 269.375 204.907C271.979 220.06 275.357 233.115 279.516 244.718C288.264 269.195 303.4 291.222 321.913 306.862L323.499 305.073C305.27 289.789 290.532 268.095 281.873 244.132C277.746 232.64 274.401 219.696 271.829 204.654C271.384 202.092 271.012 199.573 270.567 197.011C268.667 185.311 266.71 173.211 262.372 162.232C256.599 147.356 246.37 136.195 234.373 131.571C225.657 128.298 215.931 128.171 206.474 127.932C200.843 127.815 195.058 127.788 189.534 127.002C188.713 126.871 187.893 126.739 187.072 126.608C174.147 124.172 163.988 117.18 155.101 104.632C153.088 101.851 151.173 98.5794 149.064 94.6395L147.96 92.5025C144.991 86.8484 141.916 81.0385 138.248 75.877C134.392 70.6938 130.219 66.6932 125.687 63.9422Z" fill="#CE1129"/>
<path d="M125.273 63.9659C120.01 60.7712 114.437 59.4057 108.814 59.9354C97.3409 61.0401 88.0397 68.7824 79.7294 77.0344C77.9567 78.8011 76.184 80.5677 74.4845 82.3788C68.6052 88.4386 62.4902 94.722 55.4828 99.1799C53.353 100.546 51.0852 101.646 48.8257 102.567C40.9419 105.667 32.2802 106.094 23.71 103.735C14.953 101.353 6.28759 96.1844 -2.25386 88.3399C-31.3287 61.4277 -46.4638 17.4844 -41.611 -26.4299L-44.1457 -26.8681C-46.56 -4.76612 -44.067 17.6556 -37.0874 38.124C-30.0671 58.5255 -18.576 76.5056 -3.94517 89.9725C4.92106 98.1059 13.952 103.497 23.1151 106.033C32.2051 108.525 41.4681 108.096 49.8884 104.771C52.2616 103.827 54.6107 102.594 56.9275 101.249C64.203 96.6788 70.3588 90.3284 76.3924 84.179C78.0513 82.4349 79.8647 80.6013 81.5967 78.9016C89.5899 71.0072 98.4684 63.4669 109.186 62.4537C121.415 61.2575 130.371 69.9034 135.736 77.3785C139.51 82.6957 142.722 88.7727 145.87 94.6269L146.422 95.6954C148.564 99.7468 150.479 103.018 152.483 105.978C161.768 119.684 172.235 127.322 185.412 130.002C186.305 130.178 187.199 130.353 188.019 130.485C193.991 131.359 200.19 131.362 206.203 131.344C215.409 131.339 224.086 131.379 232.071 134.209C243.419 138.255 253.12 148.638 258.853 162.756C263.176 173.266 265.263 184.987 267.366 196.352C267.844 199.026 268.321 201.7 268.839 204.307C271.72 219.169 275.293 232.067 279.671 243.804C288.874 268.19 303.442 289.505 321.938 305.502L323.483 303.78C305.677 288.294 290.931 266.779 281.955 243.173C277.609 231.548 274.068 218.761 271.179 204.077C270.661 201.47 270.184 198.796 269.707 196.122C267.644 184.69 265.451 172.813 261.105 162.013C255.039 146.96 244.972 136.355 232.739 131.955C224.348 128.971 214.955 128.954 205.977 128.915C200.078 128.91 193.92 128.839 188.208 128.032C187.388 127.9 186.567 127.769 185.787 127.571C173.317 125.044 163.435 117.761 154.572 104.678C152.673 101.875 150.791 98.7145 148.649 94.6631L148.097 93.5946C144.99 87.6734 141.745 81.4851 137.825 76.0791C134.051 70.7618 129.804 66.7169 125.273 63.9659Z" fill="#D51029"/>
<path d="M124.826 63.8778C120.222 61.0825 114.852 59.3819 108.669 59.8464C97.1302 60.7284 87.6097 68.3375 79.007 76.4121C77.1612 78.1344 75.3886 79.9011 73.6159 81.6677C67.5905 87.6388 61.2562 93.7891 54.1433 98.0912C51.9404 99.4133 49.6726 100.513 47.4131 101.434C39.4562 104.49 30.7621 104.806 22.2326 102.379C13.4432 99.886 4.77777 94.7172 -3.69059 86.917C-32.0752 60.5156 -46.8372 17.4407 -42.2533 -25.5364L-44.7149 -25.9303C-47.0313 -4.31902 -44.5949 17.7015 -37.7449 37.7244C-30.8949 57.7474 -19.6473 75.3046 -5.34949 88.6611C3.40297 96.8171 12.507 102.252 21.7432 104.833C30.8656 107.436 40.1286 107.007 48.5813 103.793C50.9139 102.917 53.3361 101.728 55.6935 100.316C63.0746 95.9017 69.4171 89.5729 75.597 83.5123C77.3697 81.7456 79.1423 79.9789 80.9474 78.3236C89.2006 70.4954 98.3308 63.1996 109.154 62.342C121.294 61.4583 130.143 69.9485 135.476 77.3122C139.575 82.9183 143.023 89.5965 146.057 95.4734C148.158 99.5917 150.073 102.863 151.931 105.734C161.191 119.975 171.455 127.948 184.136 130.786C185.029 130.962 185.85 131.093 186.744 131.269C192.934 132.276 199.475 132.211 205.756 132.081C214.628 131.965 222.973 131.895 230.633 134.436C242.103 138.281 251.715 148.151 257.668 162.402C262.039 172.667 264.321 184.232 266.514 195.284C267.097 198.114 267.647 200.832 268.23 203.662C271.315 218.189 275.115 231.042 279.867 242.822C289.355 266.739 303.89 287.942 321.891 304.097L323.509 302.42C305.833 286.554 291.468 265.729 282.151 242.191C277.545 230.5 273.736 217.825 270.684 203.409C270.061 200.646 269.551 197.861 269.041 195.076C266.783 183.801 264.501 172.236 259.992 161.704C253.731 146.808 243.51 136.293 231.26 132.249C223.121 129.509 214.135 129.648 205.489 129.718C199.322 129.826 192.895 129.868 186.892 128.883C186.071 128.751 185.251 128.62 184.471 128.422C172.456 125.805 162.777 118.187 153.939 104.568C152.154 101.742 150.271 98.582 148.202 94.5751C145.095 88.6539 141.615 81.8642 137.411 76.1024C134.383 71.697 130.162 67.1169 124.826 63.8778Z" fill="#DC1029"/>
<path d="M124.525 63.8785C119.482 60.8169 114.137 59.4061 108.636 59.7348C97.0328 60.394 87.2931 67.87 78.4711 75.8114C76.6253 77.5338 74.6658 79.2787 72.82 81.001C66.5753 86.8389 60.0948 92.9005 52.9496 97.0913C50.6735 98.369 48.4057 99.4683 46.1869 100.322C38.2707 103.311 29.5035 103.583 20.9009 101.112C12.0384 98.5745 3.29988 93.3614 -5.0547 85.5386C-33.2201 59.2702 -47.2442 18.1105 -42.7092 -24.6211L-45.2439 -25.0594C-47.5438 -3.80495 -45.237 17.7701 -38.5167 37.3475C-31.7963 56.9249 -20.8735 74.1933 -6.90047 87.2609C1.7789 95.3726 10.8829 100.808 20.1515 103.5C29.274 106.103 38.5694 105.785 47.0544 102.683C49.387 101.806 51.8093 100.617 54.1991 99.317C61.6126 95.014 68.1744 88.8184 74.4598 82.9135C76.3055 81.1912 78.192 79.4018 80.0377 77.6795C88.5102 69.9844 97.8597 62.8217 108.748 62.1869C120.765 61.5042 129.615 69.9944 134.915 77.2467C138.908 82.6971 142.291 89.1525 145.431 95.1851C147.532 99.3035 149.374 102.531 151.119 105.424C160.313 120.267 170.3 128.531 182.64 131.437C183.493 131.68 184.314 131.811 185.207 131.987C191.658 133.06 198.353 132.906 204.975 132.707C213.1 132.505 221.526 132.301 228.935 134.597C240.38 138.152 250.074 147.888 256.221 161.983C260.642 172.003 263.087 183.299 265.475 194.194C266.131 197.068 266.746 200.01 267.402 202.884C270.763 217.12 274.758 229.817 279.73 241.73C289.461 265.244 304.005 286.27 321.624 302.559L323.242 300.882C305.875 284.837 291.615 264.168 281.981 240.987C277.115 229.23 273.111 216.712 269.783 202.587C269.127 199.713 268.512 196.771 267.856 193.897C265.435 182.891 262.958 171.483 258.4 161.196C251.911 146.345 241.6 136.142 229.416 132.322C221.561 129.937 212.948 130.119 204.595 130.367C198.2 130.52 191.578 130.719 185.388 129.712C184.567 129.581 183.787 129.382 183.007 129.184C171.301 126.388 162.11 118.79 153.232 104.414C151.52 101.632 149.678 98.4052 147.609 94.3982C144.437 88.2542 141.022 81.6874 136.85 76.0369C133.23 70.63 128.984 66.5851 124.525 63.8785Z" fill="#E30F29"/>
<path d="M124.111 63.9024C119.141 60.8852 113.909 59.4517 108.49 59.6464C96.8215 60.0829 86.7894 67.3814 77.7481 75.1897C75.8293 76.8677 73.8291 78.6796 71.9102 80.3576C65.5193 86.1067 58.8927 92.0796 51.6419 96.1146C49.3659 97.3923 47.025 98.4472 44.8062 99.3011C36.7438 102.201 28.2041 102.428 19.4553 99.868C10.7066 97.308 1.74881 91.9618 -6.4596 84.2277C-33.8616 58.5145 -47.6588 18.1345 -43.3197 -23.6156L-45.8544 -24.0539C-48.0157 -3.35726 -45.6517 17.794 -39.1017 36.9929C-32.6248 56.1474 -21.986 73.0599 -8.26468 85.883C0.268511 93.906 9.59176 99.474 18.7466 102.189C27.9422 104.837 37.27 104.63 45.7144 101.595C48.1201 100.763 50.5016 99.6407 52.9321 98.2733C60.378 94.0817 67.1184 88.0862 73.5907 82.203C75.5095 80.5251 77.469 78.7801 79.4286 77.0352C88.1934 69.5175 97.8028 62.4209 108.756 62.0089C118.279 61.6458 127.058 66.7919 134.769 77.1584C138.762 82.6087 142.186 88.9972 145.252 94.9854C146.696 97.8794 148.668 101.552 150.753 105.202C156.993 115.685 166.14 128.299 181.518 132.132C182.371 132.374 183.191 132.506 184.085 132.681C190.682 133.843 197.645 133.577 204.422 133.289C212.328 132.953 220.421 132.639 227.65 134.735C239.072 138.001 248.814 147.491 255.19 161.541C259.732 171.359 262.34 182.387 264.85 193.082C265.538 196.067 266.3 199.097 267.061 202.127C270.593 215.917 274.954 228.835 280.12 240.592C290.137 263.637 304.575 284.507 321.771 300.998L323.462 299.366C306.477 283.186 292.291 262.561 282.372 239.849C277.238 228.204 272.949 215.33 269.483 201.763C268.681 198.8 268.033 195.748 267.345 192.762C264.802 181.956 262.089 170.772 257.482 160.731C250.725 145.992 240.333 135.923 228.131 132.46C220.455 130.275 212.135 130.635 204.042 130.949C197.452 131.259 190.602 131.502 184.266 130.407C183.445 130.275 182.665 130.077 181.885 129.879C170.594 127.059 161.605 119.127 152.793 104.148C150.667 100.565 148.769 96.9368 147.325 94.0427C144.226 87.9431 140.77 81.4433 136.671 75.8372C132.816 70.654 128.569 66.609 124.111 63.9024Z" fill="#EA0E2A"/>
<path d="M123.664 63.8146C118.84 60.8861 113.722 59.43 108.343 59.5577C97.3257 59.747 87.8795 65.7506 76.9849 74.6347C74.9929 76.2682 73.0741 77.9462 71.1553 79.6241C64.5044 85.3072 57.6178 91.2139 50.2533 95.2716C47.9041 96.5049 45.5633 97.5598 43.3444 98.4137C35.209 101.27 26.6369 101.385 17.9288 98.7578C9.10698 96.1535 0.116763 90.6959 -7.94546 83.0506C-34.6573 57.848 -48.1221 18.4034 -44.0111 -22.4764L-46.5458 -22.9147C-50.8036 18.7013 -37.0388 58.97 -9.75054 84.7059C-1.36353 92.6401 7.99213 98.3195 17.2201 101.079C26.5618 103.815 35.6214 103.721 44.2527 100.707C46.6583 99.8752 49.113 98.7977 51.5435 97.4303C59.1356 93.3274 66.1035 87.2866 72.8681 81.5809C74.7463 79.97 76.7789 78.2694 78.6571 76.6585C89.0884 68.0434 98.1849 62.2861 108.488 62.1213C118.002 61.9365 126.668 67.1052 134.305 77.4273C138.55 83.1222 142.071 89.8448 144.684 95.0986C146.298 98.3712 148.091 101.844 149.997 105.294C156.18 116.2 165.197 129.193 180.079 133.184C180.859 133.382 181.712 133.625 182.605 133.801C189.421 135.096 196.58 134.673 203.511 134.295C211.084 133.849 218.958 133.401 225.976 135.186C237.374 138.162 247.238 147.452 253.882 161.388C258.473 170.962 261.276 181.833 263.949 192.26C264.783 195.334 265.536 198.542 266.444 201.661C270.211 215.227 274.8 228.1 280.194 239.811C290.422 262.343 304.828 283.102 321.715 299.772L323.48 298.184C306.82 281.468 292.625 261.021 282.535 238.756C277.173 227.157 272.69 214.439 268.955 200.984C268.121 197.91 267.254 194.724 266.492 191.694C263.787 181.157 260.952 170.174 256.296 160.378C249.312 145.684 238.83 135.928 226.693 132.687C219.268 130.747 211.167 131.24 203.407 131.665C196.663 132.064 189.619 132.464 183.176 131.213C182.356 131.081 181.576 130.883 180.796 130.685C166.954 126.959 158.708 115.167 152.42 104.105C150.472 100.722 148.752 97.2936 147.138 94.021C144.453 88.7228 140.826 81.8445 136.476 75.9939C132.369 70.5662 128.123 66.5212 123.664 63.8146Z" fill="#F10D2A"/>
<path d="M123.177 63.7935C118.426 60.9094 113.422 59.4306 108.124 59.4243C97.0416 59.3908 87.3031 65.2169 76.1892 73.9679C74.1241 75.5571 72.0509 77.3247 70.0589 78.9583C63.2619 84.5526 56.1967 90.2592 48.8404 94.1385C46.4913 95.3718 44.0773 96.3823 41.8261 97.1249C33.6582 99.8695 25.1268 99.9175 16.3049 97.3132C7.41002 94.6646 -1.53952 89.14 -9.60174 81.4946C-35.6233 56.8028 -48.7881 18.1822 -44.7592 -21.7387L-47.2208 -22.1326C-51.3235 18.5689 -37.818 57.9465 -11.22 83.1716C-2.83295 91.1058 6.48203 96.8523 15.8238 99.5888C25.1248 102.392 34.2575 102.342 42.9212 99.4403C45.3268 98.6081 47.7815 97.5305 50.2444 96.2746C57.8689 92.283 65.0155 86.4424 71.8531 80.7811C73.8451 79.1475 75.9508 77.4913 77.9427 75.8577C88.6664 67.4201 97.9822 61.7959 108.35 61.8538C117.742 61.8701 126.408 67.0388 133.94 77.2052C138.437 83.1445 141.949 90.0455 144.253 94.6537C145.941 97.9706 147.62 101.466 149.453 104.872C155.887 116.847 164.425 129.641 178.811 133.79C179.664 134.032 180.444 134.231 181.338 134.406C188.186 135.812 195.613 135.277 202.739 134.743C210.093 134.164 217.706 133.65 224.546 135.235C235.879 137.988 245.865 147.076 252.704 160.857C257.304 170.251 260.269 180.855 263.137 191.125C264.004 194.31 264.903 197.607 265.884 200.77C269.855 214.002 274.712 226.762 280.366 238.54C291.049 260.981 305 281.005 321.716 298.122L323.481 296.534C306.903 279.684 293.203 259.905 282.658 237.73C277.077 225.997 272.212 213.415 268.346 200.339C267.406 197.109 266.466 193.879 265.599 190.694C262.699 180.313 259.774 169.642 254.996 160.047C247.817 145.51 237.18 135.843 225.027 132.959C217.781 131.22 209.94 131.778 202.359 132.403C195.419 132.959 188.22 133.449 181.705 132.153C180.925 131.955 180.105 131.824 179.365 131.558C165.978 127.742 157.83 115.459 151.672 104.018C149.912 100.656 148.192 97.2281 146.504 93.9112C144.168 89.1916 140.477 82.0905 135.875 75.9954C131.995 70.5224 127.708 66.5444 123.177 63.7935Z" fill="#F80D2A"/>
<path d="M122.803 63.7501C118.491 61.1322 113.609 59.4525 108.092 59.313C93.9056 58.9544 81.312 68.8247 69.1494 78.3145C60.0274 85.432 50.6696 92.773 40.5594 96.0809C17.0961 103.754 -3.22824 87.473 -10.8926 80.1609C-36.224 55.9798 -49.0157 18.2276 -45.2556 -20.7561L-47.831 -21.1274C-51.7379 18.5925 -38.6055 57.1017 -12.6977 81.8162C4.28734 97.9961 23.9941 104.09 41.4676 98.3746C51.9598 94.9318 61.5858 87.4784 70.7892 80.227C83.1876 70.5135 94.9193 61.4039 108.171 61.6538C126.038 62.0459 137.131 80.5177 143.888 94.432L144.715 96.0348C152.333 111.663 160.907 129.34 177.543 134.395C185.325 136.735 193.703 135.952 201.894 135.147C209.028 134.434 216.422 133.788 223.043 135.239C234.351 137.702 244.46 146.59 251.453 160.281C256.175 169.475 259.23 179.766 262.22 189.834C263.233 193.109 264.165 196.517 265.251 199.836C276.931 236.454 296.388 269.817 321.572 296.384L323.409 294.84C298.51 268.629 279.263 235.578 267.681 199.293C266.668 196.019 265.622 192.633 264.609 189.359C261.587 179.179 258.426 168.732 253.64 159.315C246.192 144.891 235.434 135.425 223.305 132.831C216.237 131.291 208.615 131.983 201.294 132.674C193.331 133.434 185.181 134.172 177.992 132.009C162.542 127.306 154.511 110.876 146.829 95.0251L146.001 93.4223C141.102 83.2035 133.693 70.3613 122.803 63.7501Z" fill="#FF0C2A"/>
</g>
<path opacity="0.2" fill-rule="evenodd" clip-rule="evenodd" d="M109.858 118.034C109.677 118.034 109.531 118.178 109.531 118.354V120.846C109.531 121.023 109.677 121.166 109.858 121.166H124.567C124.747 121.166 124.894 121.023 124.894 120.846V118.354C124.894 118.178 124.747 118.034 124.567 118.034H109.858Z" fill="url(#paint0_linear)"/>
<path opacity="0.2" fill-rule="evenodd" clip-rule="evenodd" d="M39.583 154.43C39.4767 154.43 39.3906 154.505 39.3906 154.598V155.903C39.3906 155.996 39.4767 156.071 39.583 156.071H48.2253C48.3316 156.071 48.4177 155.996 48.4177 155.903V154.598C48.4177 154.505 48.3316 154.43 48.2253 154.43H39.583Z" fill="#FF9E93"/>
<path opacity="0.2" fill-rule="evenodd" clip-rule="evenodd" d="M57.2034 46.9263C57.1358 46.9263 57.0811 46.9638 57.0811 47.0102V47.663C57.0811 47.7093 57.1358 47.7469 57.2034 47.7469H62.7031C62.7708 47.7469 62.8255 47.7093 62.8255 47.663V47.0102C62.8255 46.9638 62.7708 46.9263 62.7031 46.9263H57.2034Z" fill="#FF9E93"/>
<path opacity="0.2" fill-rule="evenodd" clip-rule="evenodd" d="M121.618 99.9634C120.891 99.9634 120.302 100.537 120.302 101.244V107.011C120.302 109.136 119.026 110.163 117.185 110.163C115.393 110.163 114.067 109.136 114.067 107.011V101.244C114.067 100.537 113.478 99.9634 112.751 99.9634H110.965C110.238 99.9634 109.649 100.537 109.649 101.244V106.796C109.649 109.112 110.361 110.927 111.784 112.216C113.208 113.482 115 114.127 117.185 114.127C119.369 114.127 121.161 113.482 122.585 112.216C124.001 110.934 124.713 109.131 124.72 106.832V101.232C124.714 100.53 124.127 99.9634 123.404 99.9634H121.618Z" fill="url(#paint1_linear)"/>
<path opacity="0.2" fill-rule="evenodd" clip-rule="evenodd" d="M46.5595 143.762C46.1241 143.762 45.7713 144.094 45.7713 144.503V147.845C45.7713 149.077 45.0068 149.671 43.9042 149.671C42.8309 149.671 42.037 149.077 42.037 147.845V144.503C42.037 144.094 41.6841 143.762 41.2488 143.762H40.1788C39.7435 143.762 39.3906 144.094 39.3906 144.503V147.721C39.3906 149.063 39.817 150.114 40.6697 150.861C41.5224 151.595 42.5957 151.968 43.9042 151.968C45.2127 151.968 46.2858 151.595 47.1386 150.861C47.9869 150.118 48.4133 149.074 48.4177 147.741V144.497C48.4138 144.09 48.0624 143.762 47.6294 143.762H46.5595Z" fill="#FF9E93"/>
<path opacity="0.2" fill-rule="evenodd" clip-rule="evenodd" d="M61.6431 39.5405C61.366 39.5405 61.1415 39.773 61.1415 40.0597V42.399C61.1415 43.2609 60.655 43.6773 59.9533 43.6773C59.2703 43.6773 58.7651 43.2609 58.7651 42.399V40.0597C58.7651 39.773 58.5405 39.5405 58.2635 39.5405H57.5826C57.3056 39.5405 57.0811 39.773 57.0811 40.0597V42.3118C57.0811 43.2513 57.3524 43.9872 57.895 44.5102C58.4376 45.0235 59.1207 45.285 59.9533 45.285C60.786 45.285 61.4689 45.0235 62.0116 44.5102C62.5514 43.9899 62.8227 43.2588 62.8255 42.3263V40.0551C62.8231 39.7705 62.5995 39.5405 62.3239 39.5405H61.6431Z" fill="#FF9E93"/>
</g>
<defs>
<linearGradient id="paint0_linear" x1="53.4437" y1="101.086" x2="53.4437" y2="127.085" gradientUnits="userSpaceOnUse">
<stop stop-color="#FF421D"/>
<stop offset="1" stop-color="#FF0400"/>
</linearGradient>
<linearGradient id="paint1_linear" x1="103.478" y1="99.7404" x2="103.478" y2="125.501" gradientUnits="userSpaceOnUse">
<stop stop-color="#FF421D"/>
<stop offset="1" stop-color="#FF0400"/>
</linearGradient>
<clipPath id="clip0">
<rect width="334" height="192.029" fill="white" transform="translate(0 0.970703)"/>
</clipPath>
</defs>
</svg>
