<?xml version="1.0" encoding="iso-8859-1"?>
<!-- Generator: Adobe Illustrator 19.0.0, SVG Export Plug-In . SVG Version: 6.00 Build 0)  -->
<svg version="1.1" id="Capa_1" xmlns="http://www.w3.org/2000/svg" xmlns:xlink="http://www.w3.org/1999/xlink" x="0px" y="0px"
	 viewBox="0 0 511.999 511.999" style="enable-background:new 0 0 511.999 511.999;" xml:space="preserve">
<rect x="143.78" y="135.765" style="fill:#98E8F4;" width="224.438" height="80.157"/>
<rect x="143.78" y="135.765" style="fill:#75E0F1;" width="40.078" height="80.157"/>
<rect x="143.78" y="392.266" style="fill:#98E8F4;" width="224.438" height="80.157"/>
<rect x="143.78" y="392.266" style="fill:#75E0F1;" width="32.063" height="80.157"/>
<polygon style="fill:#E8E8E4;" points="312.109,87.671 199.89,87.671 207.906,7.515 304.093,7.515 "/>
<polygon style="fill:#E1E1DA;" points="207.906,7.515 199.89,87.671 231.953,87.671 239.968,7.515 "/>
<polygon style="fill:#75E0F1;" points="296.078,87.671 296.078,111.718 368.219,135.765 143.78,135.765 215.921,111.718 
	215.921,87.671 "/>
<polygon style="fill:#53D9ED;" points="247.984,87.671 215.921,87.671 215.921,111.718 143.78,135.765 191.874,135.765 
	247.984,119.734 "/>
<polygon style="fill:#75E0F1;" points="368.219,392.266 143.78,392.266 167.827,368.219 167.827,239.969 143.78,215.922 
	368.219,215.922 344.172,239.969 344.172,368.219 "/>
<polygon style="fill:#53D9ED;" points="199.89,239.969 175.843,215.922 143.78,215.922 167.827,239.969 167.827,368.219 
	143.78,392.266 175.843,392.266 199.89,368.219 "/>
<polygon style="fill:#75E0F1;" points="368.219,472.423 344.172,504.485 167.827,504.485 143.78,472.423 "/>
<polygon style="fill:#53D9ED;" points="143.78,472.423 167.827,504.485 199.89,504.485 175.843,472.423 "/>
<path style="fill:#FFEFCF;" d="M304.093,272.727c0-13.311-11.207-24.101-27.809-24.101c-7.455,0-14.06,3.953-18.481,9.27
	c-4.421-5.316-11.143-9.27-18.597-9.27c-16.602,0-27.809,10.79-27.809,24.101c0,29.663,19.532,26.367,12.977,40.787
	c-9.27,20.394,0.107,50.057,7.415,50.057c7.415,0,5.562-40.787,25.956-40.787s18.539,40.787,25.956,40.787
	c7.309,0,16.686-29.663,7.415-50.057C284.561,299.093,304.093,302.39,304.093,272.727z"/>
<g>
	<path style="fill:#FFE5AB;" d="M236.914,313.513c6.555-14.42-12.977-11.124-12.977-40.787c0-11.312,8.097-20.799,20.717-23.395
		c-1.753-0.457-3.578-0.706-5.449-0.706c-16.602,0-27.809,10.79-27.809,24.101c0,29.663,19.532,26.367,12.977,40.787
		c-9.27,20.394,0.107,50.057,7.415,50.057c2.254,0,3.652-3.773,5.079-9.021C232.768,344.175,230.847,326.86,236.914,313.513z"/>
	<path style="fill:#FFE5AB;" d="M270.285,322.783c-2.377,0-4.448,0.56-6.27,1.539c13.814,7.42,13.134,39.248,19.684,39.248
		c2.526,0,5.297-3.544,7.462-9.021C287.896,342.536,284.479,322.783,270.285,322.783z"/>
</g>
<path d="M375.733,135.765c0-3.246-2.187-6.216-5.285-7.178l-66.856-22.286V95.186h8.517c4.38,0,7.913-3.904,7.478-8.262
	l-8.016-80.157C311.187,2.926,307.954,0,304.093,0h-96.188c-3.861,0-7.094,2.926-7.478,6.767l-8.016,80.157
	c-0.436,4.359,3.098,8.262,7.478,8.262h8.517v11.116l-66.856,22.285c-3.098,0.963-5.285,3.932-5.285,7.178v80.157
	c0,1.971,0.809,3.922,2.202,5.314l21.845,21.846v122.025l-21.845,21.845c-1.395,1.393-2.202,3.345-2.202,5.314v80.157
	c0,1.608,0.54,3.221,1.503,4.509l24.047,32.063c1.42,1.893,3.646,3.006,6.012,3.006h176.344c2.366,0,4.592-1.113,6.012-3.006
	l24.047-32.063c0.963-1.288,1.503-2.901,1.503-4.509v-80.157c0-1.97-0.809-3.923-2.202-5.314l-21.845-21.844V243.081l21.845-21.845
	c1.394-1.393,2.202-3.345,2.202-5.314V135.765z M151.295,143.28h209.409v65.127H151.295V143.28z M303.805,80.157h-16.267
	c0.029-0.437-7.112-65.127-7.112-65.127h16.866L303.805,80.157z M265.305,15.029l7.236,65.127h-32.285l6.513-65.127H265.305z
	 M214.707,15.029h16.958l-6.513,65.127h-16.958L214.707,15.029z M218.298,118.847c3.069-1.023,5.138-3.895,5.138-7.129V95.186
	h65.127v16.532c0,3.234,2.07,6.106,5.138,7.129l28.21,9.403H190.088L218.298,118.847z M340.414,496.971h-168.83l-12.775-17.033
	h194.38L340.414,496.971z M360.704,399.781v65.127H151.295v-65.127h141.109c4.15,0,7.515-3.365,7.515-7.515
	s-3.365-7.515-7.515-7.515H161.922l11.219-11.219c1.41-1.409,2.201-3.32,2.201-5.313v-128.25c0-1.993-0.792-3.905-2.201-5.313
	l-11.219-11.219h188.154l-11.219,11.219c-1.41,1.409-2.201,3.32-2.201,5.313v128.25c0,1.993,0.792,3.905,2.201,5.313l11.22,11.219
	H328.14c-4.15,0-7.515,3.365-7.515,7.515s3.365,7.515,7.515,7.515H360.704z"/>
<path d="M309.863,272.727c0-18.024-15.186-31.616-35.324-31.616c-6.576,0-13.025,2.287-18.486,6.438
	c-5.478-4.15-11.962-6.438-18.593-6.438c-20.138,0-35.324,13.592-35.324,31.616c0,18.8,7.062,26.814,11.735,32.118
	c2.931,3.327,2.931,3.327,1.917,5.559c-8.455,18.599-3.679,42.914,3.018,53.315c3.921,6.088,8.275,7.365,11.239,7.365
	c8.622,0,10.938-9.046,13.391-18.623c2.991-11.68,6.202-22.163,12.565-22.163s9.574,10.483,12.565,22.163
	c2.452,9.578,4.768,18.623,13.391,18.623c2.964,0,7.319-1.277,11.239-7.365c6.697-10.401,11.472-34.716,3.018-53.315
	c-1.015-2.233-1.015-2.233,1.917-5.559C302.801,299.542,309.863,291.527,309.863,272.727z M286.852,294.909
	c-3.951,4.484-9.362,10.625-4.321,21.714c4.912,10.805,3.364,24.428,0.766,32.78c-0.059-0.227-0.116-0.451-0.171-0.669
	c-3.205-12.516-8.569-33.464-27.124-33.464s-23.919,20.949-27.124,33.464c-0.056,0.218-0.113,0.442-0.171,0.669
	c-2.598-8.352-4.146-21.975,0.766-32.78c5.04-11.089-0.371-17.231-4.321-21.714c-3.741-4.246-7.983-9.06-7.983-22.182
	c0-9.611,8.536-16.586,20.295-16.586c4.612,0,9.404,2.452,12.819,6.559c2.958,3.558,8.597,3.558,11.556,0
	c3.467-4.169,8.098-6.56,12.704-6.56c11.759,0,20.295,6.976,20.295,16.586C294.833,285.85,290.593,290.663,286.852,294.909z"/>
<g>
</g>
<g>
</g>
<g>
</g>
<g>
</g>
<g>
</g>
<g>
</g>
<g>
</g>
<g>
</g>
<g>
</g>
<g>
</g>
<g>
</g>
<g>
</g>
<g>
</g>
<g>
</g>
<g>
</g>
</svg>
