<svg id="Layer_1" enable-background="new 0 0 128 128" height="512" viewBox="0 0 128 128" width="512" xmlns="http://www.w3.org/2000/svg"><g><g><path d="m124.345 92.922-6.363-6.364c-.009-.009-.019-.019-.028-.028l-73.893-68.236c-.154-.142-.35-.232-.558-.258l-14.248-1.738-13.937-9.756c-.397-.278-.939-.231-1.28.112l-7.383 7.382c-.343.343-.391.883-.112 1.28l9.757 13.938 1.737 14.248c.025.208.115.403.258.557l68.264 73.921 6.363 6.364c.188.188.441.293.707.293s.52-.105.707-.293l30.01-30.01c.39-.389.39-1.022-.001-1.412z" fill="#e6e7e8"/></g><g><g><path d="m83.265 113.274-68.236-73.892 24.353-24.353 73.893 68.236z" fill="#6dc9f7"/></g><g><path d="m43.132 69.815 11.838 12.819 27.664-27.664-12.819-11.838z" fill="#0089ef"/></g><g><path d="m80.231 96.951h42.44v9h-42.44z" fill="#0089ef" transform="matrix(.707 -.707 .707 .707 -42.023 101.453)"/></g><g><path d="m80.231 96.951h42.44v9h-42.44z" fill="#0089ef" transform="matrix(.707 -.707 .707 .707 -42.023 101.453)"/></g><g><path d="m13.261 24.886 1.768 14.496 24.353-24.353-14.496-1.768z" fill="#d4fbff"/></g><g><path d="m13.261 24.886-9.899-14.142 7.382-7.382 14.142 9.899z" fill="#0089ef"/></g><g><path d="m13.24 5.109-2.496-1.747-7.382 7.382 1.747 2.496z" fill="#fff"/></g><g><g><circle cx="62.638" cy="62.638" fill="#fa759e" r="15"/><g fill="#3a2c60"><path d="m98.878 71.332c.192.177.436.265.679.265.269 0 .537-.108.734-.322.375-.406.35-1.038-.056-1.413l-7.482-6.91c-.405-.374-1.038-.35-1.413.057-.375.406-.35 1.038.056 1.413z"/><path d="m120.639 89.628c0-.265-.105-.52-.293-.707l-6.393-6.392-10.297-9.509c-.405-.374-1.037-.351-1.413.057-.375.406-.35 1.038.056 1.413l9.533 8.802-28.539 28.539-26.937-29.17 4.178-4.177c.693.091 1.393.153 2.104.153 4.273 0 8.292-1.665 11.313-4.687 3.022-3.022 4.687-7.04 4.687-11.313 0-.711-.063-1.41-.153-2.104l4.177-4.177 5.416 5.002c.192.177.436.265.679.265.27 0 .537-.108.734-.322.375-.406.35-1.038-.056-1.413l-49.374-45.594c-.154-.142-.35-.232-.558-.258l-14.247-1.737-13.939-9.757c-.396-.276-.937-.231-1.28.112l-7.382 7.382c-.343.343-.391.883-.112 1.28l9.757 13.94 1.737 14.247c.025.208.115.403.258.557l68.263 73.921 6.364 6.364c.195.195.451.293.707.293s.512-.098.707-.293l13.236-13.236s.001-.001.001-.001.001-.001.001-.001l16.771-16.771c.188-.188.294-.442.294-.708zm-10.702 8.288-4.95-4.95 2.121-2.121 4.95 4.95zm-3.536 3.536-4.95-4.95 2.122-2.122 4.95 4.95zm-3.535 3.535-4.95-4.95 2.121-2.121 4.95 4.95zm-3.536 3.536-4.95-4.95 2.121-2.121 4.95 4.95zm-3.535 3.535-4.95-4.95 2.122-2.122 4.95 4.95zm-3.536 3.536-4.95-4.95 2.121-2.121 4.95 4.95zm16.263-26.163 2.122-2.122 4.95 4.95-2.121 2.121zm-53.523-8.24-10.48-11.349 2.753-2.753c.74 2.566 2.112 4.921 4.053 6.862s4.295 3.313 6.862 4.053zm-40.686-55.942 10.936-10.936 11.974 1.46-21.45 21.451zm25.096-8.834 28.962 26.745-3.638 3.638c-4.764-.624-9.756.873-13.409 4.525-3.022 3.022-4.687 7.04-4.687 11.314 0 .711.063 1.411.153 2.104l-3.63 3.63-26.744-28.961zm33.128 56.122c-2.645 2.644-6.16 4.101-9.899 4.101s-7.255-1.457-9.899-4.101c-2.645-2.645-4.101-6.16-4.101-9.899 0-3.74 1.456-7.255 4.101-9.9 2.729-2.729 6.314-4.094 9.899-4.094s7.17 1.365 9.899 4.094c2.645 2.645 4.101 6.16 4.101 9.9 0 3.739-1.456 7.255-4.101 9.899zm5.467-14.351c-.74-2.567-2.112-4.922-4.053-6.862-1.978-1.979-4.351-3.324-6.866-4.048l2.757-2.757 11.349 10.481zm-67.146-53.524 12.479 8.735-9.939 9.939-8.735-12.478zm78.771 113.562-4.951-4.949 1.217-1.217 4.95 4.95zm27.379-27.379-4.95-4.95 1.216-1.216 4.95 4.95z"/></g></g><g><path d="m67.515 58.871c-.679-.884-.369-7.827-6.024-7.089-4.157.542-4.034 5.19-3.98 5.729-.539-.053-5.187-.176-5.729 3.98-.738 5.655 6.205 5.344 7.089 6.024.884.679 1.363 1.998 3.852 3.36 1.896 1.038 3.827.614 4.64.353.15-.048.163-.253.022-.322-1.468-.708-6.547-3.497-3.262-6.783 3.285-3.285 6.074 1.794 6.783 3.262.068.142.273.128.321-.022.261-.813.685-2.745-.353-4.641-1.361-2.488-2.68-2.967-3.359-3.851z" fill="#fff"/></g></g></g></g></svg>