<svg id="Layer_1" enable-background="new 0 0 508.35 508.35" height="512" viewBox="0 0 508.35 508.35" width="512" xmlns="http://www.w3.org/2000/svg"><g><path d="m432.664 4.632 59.634 72.152c3.997 4.836 3.316 11.996-1.519 15.992l-136.72 112.999c-4.836 3.997-11.996 3.316-15.992-1.519l-59.505-71.996c-2.863-3.464-3.414-8.289-1.408-12.309l10.27-20.576c1.389-2.783 3.858-4.874 6.831-5.786l26.115-8.014c3.112-.955 5.665-3.2 7.011-6.164l10.645-23.454c1.418-3.124 4.172-5.44 7.494-6.301l25.801-6.687c3.379-.876 6.169-3.257 7.563-6.457l9.999-22.941c1.403-3.22 4.217-5.609 7.621-6.472l24.613-6.241c4.254-1.079 8.75.39 11.547 3.774z" fill="#fff5f5"/><path d="m490.778 92.776c4.836-3.997 5.516-11.157 1.519-15.992l-59.633-72.152c-2.797-3.384-7.292-4.853-11.547-3.774l-24.613 6.241c-3.404.863-6.218 3.252-7.621 6.472l-9.999 22.942c-1.395 3.2-4.184 5.582-7.563 6.457l-25.802 6.687c-1.252.324-2.422.856-3.471 1.559l80.248 98.162z" fill="#e5f1fa"/><path d="m333.388 66.14-6.026 13.276c-1.346 2.965-3.899 5.209-7.011 6.164l-7.831 2.403 74.672 90.393c.001.001.002.002.003.003l23.125-19.113z" fill="#a2d8f4"/><path d="m382.647 27.996-3.704 8.498c-1.395 3.2-4.184 5.582-7.563 6.458l-12.586 3.262 75.696 92.973c.024.029.051.053.075.082l23.12-19.108z" fill="#7c82ef"/><g><path d="m246.108 310c-4.319 0-8.604-1.854-11.571-5.444-5.277-6.385-4.379-15.84 2.007-21.118l247.25-204.353c6.386-5.277 15.841-4.379 21.118 2.007 5.277 6.385 4.379 15.84-2.007 21.118l-247.25 204.353c-2.796 2.31-6.183 3.437-9.547 3.437z" fill="#ff76ab"/></g><path d="m504.912 81.092c-.013-.016-.028-.029-.041-.044l-268.959 224.948c2.841 2.638 6.502 4.005 10.196 4.005 3.364 0 6.751-1.127 9.547-3.438l247.25-204.353c6.385-5.278 7.284-14.733 2.007-21.118z" fill="#ff0c7c"/><path d="m9.931 492.116c-15.243-18.443-12.649-45.751 5.794-60.994l22.131-18.292 30.246 11.216-5.62-31.57 110.675-91.473 34.95 11.917-10.323-32.271 15.177-12.544c16.916-13.981 41.963-11.602 55.944 5.314l26.262 31.775c2.001 2.421 1.661 6.007-.761 8.008l-41.347 34.173-34.279-13.737 9.652 34.091-110.762 91.545-24.279-7.172-.348 27.526-22.118 18.282c-18.443 15.243-45.751 12.649-60.994-5.794z" fill="#7c82ef"/><path d="m70.925 497.91 22.119-18.282-1.834-30.798 26.46 10.444 110.762-91.545-5.249-31.967 29.876 11.613 41.347-34.173c2.421-2.001 2.762-5.586.761-8.008l-23.828-28.83-259.957 217.42c15.476 16.919 41.671 18.897 59.543 4.126z" fill="#483b85"/><path d="m173.158 301.005 55.275 66.726 24.627-20.354-55.275-66.726z" fill="#fff5f5"/><path d="m61.789 392.729h31.949v86.647h-31.949z" fill="#fff5f5" transform="matrix(.771 -.637 .637 .771 -259.921 149.42)"/><g fill="#e5f1fa"><path d="m228.433 367.731 24.627-20.354-27.268-32.917-24.508 20.497z"/><path d="m93.044 479.629 24.627-20.354-26.573-32.163-24.508 20.498z"/></g></g></svg>