<svg width="16" height="16" viewBox="0 0 16 16" fill="none" xmlns="http://www.w3.org/2000/svg">
<path fill-rule="evenodd" clip-rule="evenodd" d="M8.29932 1.33325C7.60023 1.33325 6.95189 1.69828 6.58741 2.29917L0.940741 11.7258C0.579967 12.3504 0.577845 13.1082 0.929752 13.7256C1.28166 14.3429 1.93474 14.7272 2.64533 14.735L13.946 14.7351C14.6639 14.7272 15.317 14.3429 15.6689 13.7256C16.0208 13.1082 16.0187 12.3504 15.6633 11.735L10.0112 2.29917C9.64675 1.69828 8.99841 1.33325 8.29932 1.33325ZM2.08812 13.0653C1.97081 12.8595 1.97152 12.6069 2.08997 12.4018L7.73011 2.98619C7.85112 2.78773 8.0668 2.66659 8.29931 2.66659C8.53234 2.66659 8.74846 2.78826 8.86931 2.9875L14.5141 12.411C14.6271 12.6069 14.6278 12.8595 14.5105 13.0653C14.3932 13.2711 14.1755 13.3992 13.9387 13.4018L2.65265 13.4017C2.42311 13.3992 2.20542 13.2711 2.08812 13.0653ZM7.63257 6.06841V8.73508C7.63257 9.10327 7.93105 9.40175 8.29924 9.40175C8.66743 9.40175 8.96591 9.10327 8.96591 8.73508V6.06841C8.96591 5.70022 8.66743 5.40175 8.29924 5.40175C7.93105 5.40175 7.63257 5.70022 7.63257 6.06841ZM8.77064 11.2065C8.51029 11.4668 8.08818 11.4668 7.82783 11.2065C7.56748 10.9461 7.56748 10.524 7.82783 10.2637C8.08818 10.0033 8.51029 10.0033 8.77064 10.2637C9.03099 10.524 9.03099 10.9461 8.77064 11.2065Z" fill="black"/>
<mask id="mask0" mask-type="alpha" maskUnits="userSpaceOnUse" x="0" y="1" width="16" height="14">
<path fill-rule="evenodd" clip-rule="evenodd" d="M8.29932 1.33325C7.60023 1.33325 6.95189 1.69828 6.58741 2.29917L0.940741 11.7258C0.579967 12.3504 0.577845 13.1082 0.929752 13.7256C1.28166 14.3429 1.93474 14.7272 2.64533 14.735L13.946 14.7351C14.6639 14.7272 15.317 14.3429 15.6689 13.7256C16.0208 13.1082 16.0187 12.3504 15.6633 11.735L10.0112 2.29917C9.64675 1.69828 8.99841 1.33325 8.29932 1.33325ZM2.08812 13.0653C1.97081 12.8595 1.97152 12.6069 2.08997 12.4018L7.73011 2.98619C7.85112 2.78773 8.0668 2.66659 8.29931 2.66659C8.53234 2.66659 8.74846 2.78826 8.86931 2.9875L14.5141 12.411C14.6271 12.6069 14.6278 12.8595 14.5105 13.0653C14.3932 13.2711 14.1755 13.3992 13.9387 13.4018L2.65265 13.4017C2.42311 13.3992 2.20542 13.2711 2.08812 13.0653ZM7.63257 6.06841V8.73508C7.63257 9.10327 7.93105 9.40175 8.29924 9.40175C8.66743 9.40175 8.96591 9.10327 8.96591 8.73508V6.06841C8.96591 5.70022 8.66743 5.40175 8.29924 5.40175C7.93105 5.40175 7.63257 5.70022 7.63257 6.06841ZM8.77064 11.2065C8.51029 11.4668 8.08818 11.4668 7.82783 11.2065C7.56748 10.9461 7.56748 10.524 7.82783 10.2637C8.08818 10.0033 8.51029 10.0033 8.77064 10.2637C9.03099 10.524 9.03099 10.9461 8.77064 11.2065Z" fill="white"/>
</mask>
<g mask="url(#mask0)">
<rect width="16" height="16" fill="#FE4949"/>
</g>
</svg>
