<svg width="9" height="13" viewBox="0 0 9 13" fill="none" xmlns="http://www.w3.org/2000/svg">
<path d="M3.552 8.288C3.552 7.712 3.68 7.23733 3.936 6.864C4.20267 6.48 4.58667 6.064 5.088 5.616C5.472 5.27467 5.75467 4.98133 5.936 4.736C6.128 4.48 6.224 4.192 6.224 3.872C6.224 3.424 6.04267 3.06133 5.68 2.784C5.31733 2.50667 4.832 2.368 4.224 2.368C3.072 2.368 2.20267 2.77867 1.616 3.6L0.064 2.592C0.522667 1.96267 1.11467 1.48267 1.84 1.152C2.56533 0.810666 3.41867 0.639999 4.4 0.639999C5.59467 0.639999 6.544 0.901333 7.248 1.424C7.96267 1.936 8.32 2.64533 8.32 3.552C8.32 3.98933 8.24533 4.37333 8.096 4.704C7.95733 5.03467 7.78667 5.31733 7.584 5.552C7.38133 5.776 7.11467 6.03733 6.784 6.336C6.37867 6.69867 6.07467 7.01867 5.872 7.296C5.68 7.57333 5.584 7.904 5.584 8.288H3.552ZM4.576 12.112C4.20267 12.112 3.89333 11.9947 3.648 11.76C3.41333 11.5147 3.296 11.216 3.296 10.864C3.296 10.512 3.41333 10.2187 3.648 9.984C3.89333 9.74933 4.20267 9.632 4.576 9.632C4.93867 9.632 5.23733 9.74933 5.472 9.984C5.71733 10.2187 5.84 10.512 5.84 10.864C5.84 11.216 5.71733 11.5147 5.472 11.76C5.23733 11.9947 4.93867 12.112 4.576 12.112Z" fill="#E55541"/>
</svg>
