<svg width="11" height="11" viewBox="0 0 11 11" fill="none" xmlns="http://www.w3.org/2000/svg">
<path d="M5.25 10.5C2.35078 10.5 0 8.14922 0 5.25C0 2.35078 2.35078 0 5.25 0C8.14922 0 10.5 2.35078 10.5 5.25C10.5 8.14922 8.14922 10.5 5.25 10.5ZM7.5 4.96875C7.5 4.91719 7.45781 4.875 7.40625 4.875H5.625V3.09375C5.625 3.04219 5.58281 3 5.53125 3H4.96875C4.91719 3 4.875 3.04219 4.875 3.09375V4.875H3.09375C3.04219 4.875 3 4.91719 3 4.96875V5.53125C3 5.58281 3.04219 5.625 3.09375 5.625H4.875V7.40625C4.875 7.45781 4.91719 7.5 4.96875 7.5H5.53125C5.58281 7.5 5.625 7.45781 5.625 7.40625V5.625H7.40625C7.45781 5.625 7.5 5.58281 7.5 5.53125V4.96875Z" fill="#FF1809"/>
</svg>
