<svg width="13" height="15" viewBox="0 0 13 15" fill="none" xmlns="http://www.w3.org/2000/svg">
<path d="M12.2353 12.3806L2.93647 2.78353L0.971176 0.757059L0 1.72824L2.14118 3.86941V3.87706C1.74353 4.63412 1.52941 5.52882 1.52941 6.49235V10.3159L0 11.8453V12.61H10.4994L12.0288 14.1394L13 13.1682L12.2353 12.3806ZM6.11765 14.9118C6.96647 14.9118 7.64706 14.2312 7.64706 13.3824H4.58824C4.58824 14.2312 5.26882 14.9118 6.11765 14.9118ZM10.7059 9.31412V6.5C10.7059 4.14471 9.45177 2.18706 7.26471 1.66706V1.14706C7.26471 0.512353 6.75235 0 6.11765 0C5.48294 0 4.97059 0.512353 4.97059 1.14706V1.66706C4.85588 1.69 4.74882 1.72824 4.64941 1.75882C4.57294 1.78176 4.49647 1.81235 4.42 1.84294H4.41235C4.40471 1.84294 4.40471 1.84294 4.39706 1.85059C4.22118 1.91941 4.04529 2.00353 3.87706 2.08765C3.87706 2.08765 3.86941 2.08765 3.86941 2.09529L10.7059 9.31412Z" fill="#FF1809"/>
</svg>
