<svg width="7" height="8" viewBox="0 0 7 8" fill="none" xmlns="http://www.w3.org/2000/svg">
<path opacity="0.78" fill-rule="evenodd" clip-rule="evenodd" d="M0.13051 6.4585C0.0584047 6.4585 0 6.51566 0 6.58617V7.57955C0 7.65006 0.0584047 7.70722 0.13051 7.70722H5.99512C6.06722 7.70722 6.12563 7.65006 6.12563 7.57955V6.58617C6.12563 6.51566 6.06722 6.4585 5.99512 6.4585H0.13051Z" fill="#1F1F3B"/>
<path opacity="0.78" fill-rule="evenodd" clip-rule="evenodd" d="M4.81931 0C4.52946 0 4.29458 0.228529 4.29458 0.510433V2.81012C4.29458 3.65745 3.78561 4.0668 3.05162 4.0668C2.33714 4.0668 1.80861 3.65745 1.80861 2.81012V0.510433C1.80861 0.228529 1.57368 0 1.28388 0H0.571604C0.281804 0 0.046875 0.228529 0.046875 0.510433V2.72439C0.046875 3.64794 0.33072 4.37147 0.898383 4.88557C1.46602 5.39018 2.18056 5.64727 3.05162 5.64727C3.92269 5.64727 4.63712 5.39018 5.20478 4.88557C5.76953 4.37412 6.05338 3.6554 6.05629 2.73863V0.505829C6.05374 0.22605 5.8198 0 5.53156 0H4.81931Z" fill="#1F1F3B"/>
</svg>
