<svg width="42" height="42" viewBox="0 0 42 42" fill="none" xmlns="http://www.w3.org/2000/svg">
<path fill-rule="evenodd" clip-rule="evenodd" d="M15.2619 27.5884C15.1172 27.5884 15 27.7009 15 27.8398V29.7958C15 29.9346 15.1172 30.0472 15.2619 30.0472H27.0321C27.1768 30.0472 27.2941 29.9346 27.2941 29.7958V27.8398C27.2941 27.7009 27.1768 27.5884 27.0321 27.5884H15.2619Z" fill="url(#paint0_linear)"/>
<path fill-rule="evenodd" clip-rule="evenodd" d="M24.7634 12.835C24.1705 12.835 23.69 13.2993 23.69 13.8721V18.5447C23.69 20.2664 22.6487 21.0981 21.1471 21.0981C19.6854 21.0981 18.6042 20.2664 18.6042 18.5447V13.8721C18.6042 13.2993 18.1235 12.835 17.5307 12.835H16.0735C15.4806 12.835 15 13.2993 15 13.8721V18.3705C15 20.247 15.5807 21.7172 16.742 22.7617C17.9033 23.787 19.3651 24.3094 21.1471 24.3094C22.9291 24.3094 24.3907 23.787 25.552 22.7617C26.7074 21.7226 27.2881 20.2622 27.2941 18.3995V13.8627C27.2888 13.2943 26.8102 12.835 26.2206 12.835H24.7634Z" fill="url(#paint1_linear)"/>
<rect opacity="0.1" x="1" y="1" width="40" height="40" rx="20" stroke="url(#paint2_linear)"/>
<defs>
<linearGradient id="paint0_linear" x1="-29.8824" y1="14.2823" x2="-29.8824" y2="34.6941" gradientUnits="userSpaceOnUse">
<stop stop-color="#FF421D"/>
<stop offset="1" stop-color="#FF0400"/>
</linearGradient>
<linearGradient id="paint1_linear" x1="9.9666" y1="12.6543" x2="9.9666" y2="33.5244" gradientUnits="userSpaceOnUse">
<stop stop-color="#FF421D"/>
<stop offset="1" stop-color="#FF0400"/>
</linearGradient>
<linearGradient id="paint2_linear" x1="-14.319" y1="39.5151" x2="39.6808" y2="52.032" gradientUnits="userSpaceOnUse">
<stop stop-color="#313162"/>
<stop offset="1" stop-color="#19192D"/>
</linearGradient>
</defs>
</svg>
