<svg width="24" height="24" viewBox="0 0 24 24" fill="none" xmlns="http://www.w3.org/2000/svg">
<circle cx="12" cy="12" r="12" fill="#262642"/>
<path opacity="0.3" fill-rule="evenodd" clip-rule="evenodd" d="M7.21306 17C7.09534 17 7 17.0916 7 17.2045V18.7955C7 18.9084 7.09534 19 7.21306 19H16.7869C16.9047 19 17 18.9084 17 18.7955V17.2045C17 17.0916 16.9047 17 16.7869 17H7.21306Z" fill="white"/>
<path opacity="0.3" fill-rule="evenodd" clip-rule="evenodd" d="M14.9416 6C14.4593 6 14.0684 6.3642 14.0684 6.81347V10.4785C14.0684 11.8288 13.2215 12.4812 12.0001 12.4812C10.8111 12.4812 9.93162 11.8288 9.93162 10.4785V6.81347C9.93162 6.3642 9.54069 6 9.05845 6H7.87318C7.39094 6 7 6.3642 7 6.81347V10.3418C7 11.8137 7.47233 12.9668 8.41696 13.7861C9.36153 14.5903 10.5506 15 12.0001 15C13.4496 15 14.6384 14.5903 15.583 13.7861C16.5228 12.971 16.9952 11.8256 17 10.3645V6.80614C16.9958 6.36025 16.6065 6 16.1268 6H14.9416Z" fill="white"/>
</svg>
