<svg width="15" height="14" viewBox="0 0 15 14" fill="none" xmlns="http://www.w3.org/2000/svg">
<path d="M14.023 0.422773C14.157 0.556593 14.2633 0.715506 14.3358 0.890428C14.4083 1.06535 14.4456 1.25285 14.4456 1.44221C14.4456 1.63156 14.4083 1.81906 14.3358 1.99398C14.2633 2.1689 14.157 2.32782 14.023 2.46164L9.72626 6.75694L13.5821 10.6113C13.8525 10.8817 14.0044 11.2484 14.0044 11.6308C14.0044 12.0131 13.8525 12.3798 13.5821 12.6502C13.3117 12.9206 12.945 13.0725 12.5627 13.0725C12.1803 13.0725 11.8136 12.9206 11.5432 12.6502L7.68884 8.79437L3.83445 12.6502C3.56408 12.9206 3.19738 13.0725 2.81502 13.0725C2.43265 13.0725 2.06595 12.9206 1.79558 12.6502C1.52521 12.3798 1.37332 12.0131 1.37332 11.6308C1.37332 11.2484 1.52521 10.8817 1.79558 10.6113L5.65142 6.75694L1.35467 2.46164C1.2208 2.32767 1.11462 2.16865 1.0422 1.99364C0.969787 1.81864 0.93255 1.63109 0.932617 1.4417C0.932684 1.2523 0.970054 1.06478 1.04259 0.889826C1.11513 0.714876 1.22142 0.555926 1.35539 0.422052C1.48936 0.288178 1.64838 0.182002 1.82338 0.109587C1.99839 0.0371709 2.18594 -6.68129e-05 2.37533 8.99902e-08C2.56472 6.69929e-05 2.75225 0.0374375 2.9272 0.109977C3.10215 0.182516 3.2611 0.288804 3.39498 0.422773L7.68884 4.72096L11.9841 0.424213C12.118 0.290244 12.2769 0.183965 12.4518 0.111453C12.6267 0.0389415 12.8142 0.00161883 13.0036 0.00161883C13.1929 0.00161883 13.3804 0.0389415 13.5554 0.111453C13.7303 0.183965 13.8892 0.290244 14.023 0.424213V0.422773Z" fill="white"/>
</svg>
