<svg width="42" height="42" viewBox="0 0 42 42" fill="none" xmlns="http://www.w3.org/2000/svg">
<rect opacity="0.1" x="1" y="1" width="40" height="40" rx="20" stroke="url(#paint0_linear)"/>
<path fill-rule="evenodd" clip-rule="evenodd" d="M21.5672 13.9372L20.9871 14.942L18.3958 13.4459C17.6555 13.0185 16.7379 13.2643 16.341 13.9518L15.2113 15.9085C14.9975 16.2787 15.1093 16.6958 15.4795 16.9095C18.0708 18.4056 16.2835 21.7455 13.5865 20.1883C13.2163 19.9746 12.7992 20.0863 12.5855 20.4565L11.4558 22.4132C11.0588 23.1007 11.3047 24.0183 12.0451 24.4457L13.9489 25.5449C14.3191 25.7586 14.789 25.6774 15.0028 25.3072C16.4989 22.7159 19.7553 24.5255 18.2287 27.1697C18.015 27.5399 18.1267 27.957 18.4969 28.1707L20.4536 29.3004C21.194 29.7279 22.1115 29.482 22.5085 28.7945L24.0046 26.2032L24.9565 26.7528C27.0718 27.9741 28.9648 24.6953 26.8495 23.474L25.8976 22.9244L27.3937 20.3331C27.7906 19.6456 27.5447 18.728 26.8043 18.3006L24.213 16.8045L24.7932 15.7997C26.0145 13.6844 22.7885 11.8219 21.5672 13.9372Z" fill="#FF3015"/>
<defs>
<linearGradient id="paint0_linear" x1="-14.319" y1="39.5151" x2="39.6808" y2="52.032" gradientUnits="userSpaceOnUse">
<stop stop-color="#313162"/>
<stop offset="1" stop-color="#19192D"/>
</linearGradient>
</defs>
</svg>
