<svg width="12" height="10" viewBox="0 0 12 10" fill="none" xmlns="http://www.w3.org/2000/svg">
<path fill-rule="evenodd" clip-rule="evenodd" d="M2.08333 0H1.25V4.16667H2.08333V0ZM7.16667 4.16667H4.5L4.16667 3.70833V2.875L4.5 2.5H7.16667L7.5 2.91667V3.75L7.16667 4.16667ZM3 6.66667H0.333333L0 6.25V5.41667L0.333333 5H3L3.33333 5.41667V6.25L3 6.66667ZM6.25 0H5.41667V1.66667H6.25V0ZM5.41667 5H6.25V10H5.41667V5ZM2.08333 7.5H1.25V10H2.08333V7.5ZM8.66667 7.5H11.325L11.6583 7.08333V6.29167L11.325 5.875H8.66667L8.33333 6.29167V7.08333L8.66667 7.5ZM10.4167 0H9.58333V5H10.4167V0ZM9.58333 8.33333H10.4167V10H9.58333V8.33333Z" fill="#313162"/>
<circle cx="10" cy="7" r="2" fill="#313162"/>
<circle cx="6" cy="3" r="2" fill="#313162"/>
<circle cx="2" cy="6" r="2" fill="#313162"/>
</svg>
