<svg width="11" height="14" viewBox="0 0 11 14" fill="none" xmlns="http://www.w3.org/2000/svg">
<path d="M10.875 6H6.5C6.10218 6 5.72064 5.84196 5.43934 5.56066C5.15804 5.27936 5 4.89782 5 4.5V0.125C5 0.0918479 4.98683 0.0600537 4.96339 0.0366117C4.93995 0.0131696 4.90815 0 4.875 0H2C1.46957 0 0.960859 0.210714 0.585786 0.585786C0.210714 0.960859 0 1.46957 0 2V12C0 12.5304 0.210714 13.0391 0.585786 13.4142C0.960859 13.7893 1.46957 14 2 14H9C9.53043 14 10.0391 13.7893 10.4142 13.4142C10.7893 13.0391 11 12.5304 11 12V6.125C11 6.09185 10.9868 6.06005 10.9634 6.03661C10.9399 6.01317 10.9082 6 10.875 6Z" fill="#FF1608"/>
<path d="M10.6006 4.89346L6.10656 0.399401C6.09782 0.390713 6.08671 0.384802 6.07462 0.382412C6.06253 0.380022 6.05001 0.38126 6.03862 0.385968C6.02723 0.390677 6.01749 0.398648 6.01062 0.408877C6.00375 0.419107 6.00005 0.43114 6 0.443463V4.50003C6 4.63263 6.05268 4.75981 6.14645 4.85358C6.24021 4.94735 6.36739 5.00003 6.5 5.00003H10.5566C10.5689 4.99997 10.5809 4.99628 10.5911 4.98941C10.6014 4.98254 10.6093 4.9728 10.6141 4.96141C10.6188 4.95002 10.62 4.93749 10.6176 4.92541C10.6152 4.91332 10.6093 4.9022 10.6006 4.89346Z" fill="#FF1608"/>
</svg>
