<svg width="12" height="12" viewBox="0 0 12 12" fill="none" xmlns="http://www.w3.org/2000/svg">
<path fill-rule="evenodd" clip-rule="evenodd" d="M1.75 1.5C1.6837 1.5 1.62011 1.52634 1.57322 1.57322C1.52634 1.62011 1.5 1.6837 1.5 1.75V4.25C1.5 4.44891 1.42098 4.63968 1.28033 4.78033C1.13968 4.92098 0.948912 5 0.75 5C0.551088 5 0.360322 4.92098 0.21967 4.78033C0.0790177 4.63968 2.96403e-09 4.44891 0 4.25V1.75C0 0.784 0.784 0 1.75 0H4.25C4.44891 2.96403e-09 4.63968 0.0790177 4.78033 0.21967C4.92098 0.360322 5 0.551088 5 0.75C5 0.948912 4.92098 1.13968 4.78033 1.28033C4.63968 1.42098 4.44891 1.5 4.25 1.5H1.75ZM7 0.75C7 0.551088 7.07902 0.360322 7.21967 0.21967C7.36032 0.0790177 7.55109 0 7.75 0H10.25C11.216 0 12 0.784 12 1.75V4.25C12 4.44891 11.921 4.63968 11.7803 4.78033C11.6397 4.92098 11.4489 5 11.25 5C11.0511 5 10.8603 4.92098 10.7197 4.78033C10.579 4.63968 10.5 4.44891 10.5 4.25V1.75C10.5 1.6837 10.4737 1.62011 10.4268 1.57322C10.3799 1.52634 10.3163 1.5 10.25 1.5H7.75C7.55109 1.5 7.36032 1.42098 7.21967 1.28033C7.07902 1.13968 7 0.948912 7 0.75ZM0.75 7C0.948912 7 1.13968 7.07902 1.28033 7.21967C1.42098 7.36032 1.5 7.55109 1.5 7.75V10.25C1.5 10.388 1.612 10.5 1.75 10.5H4.25C4.44891 10.5 4.63968 10.579 4.78033 10.7197C4.92098 10.8603 5 11.0511 5 11.25C5 11.4489 4.92098 11.6397 4.78033 11.7803C4.63968 11.921 4.44891 12 4.25 12H1.75C1.28587 12 0.840752 11.8156 0.512563 11.4874C0.184374 11.1592 0 10.7141 0 10.25V7.75C0 7.55109 0.0790177 7.36032 0.21967 7.21967C0.360322 7.07902 0.551088 7 0.75 7ZM11.25 7C11.4489 7 11.6397 7.07902 11.7803 7.21967C11.921 7.36032 12 7.55109 12 7.75V10.25C12 10.7141 11.8156 11.1592 11.4874 11.4874C11.1592 11.8156 10.7141 12 10.25 12H7.75C7.55109 12 7.36032 11.921 7.21967 11.7803C7.07902 11.6397 7 11.4489 7 11.25C7 11.0511 7.07902 10.8603 7.21967 10.7197C7.36032 10.579 7.55109 10.5 7.75 10.5H10.25C10.3163 10.5 10.3799 10.4737 10.4268 10.4268C10.4737 10.3799 10.5 10.3163 10.5 10.25V7.75C10.5 7.55109 10.579 7.36032 10.7197 7.21967C10.8603 7.07902 11.0511 7 11.25 7Z" fill="#FF1809"/>
</svg>
