<svg width="15" height="10" viewBox="0 0 15 10" fill="none" xmlns="http://www.w3.org/2000/svg">
<path d="M7.09213 0C3.86844 0 1.1154 2.00514 0 4.83554C1.1154 7.66595 3.86844 9.67109 7.09213 9.67109C10.3158 9.67109 13.0689 7.66595 14.1843 4.83554C13.0689 2.00514 10.3158 0 7.09213 0ZM7.09213 8.05924C5.31265 8.05924 3.86844 6.61503 3.86844 4.83554C3.86844 3.05606 5.31265 1.61185 7.09213 1.61185C8.87161 1.61185 10.3158 3.05606 10.3158 4.83554C10.3158 6.61503 8.87161 8.05924 7.09213 8.05924ZM7.09213 2.90133C6.02186 2.90133 5.15791 3.76528 5.15791 4.83554C5.15791 5.90581 6.02186 6.76976 7.09213 6.76976C8.1624 6.76976 9.02635 5.90581 9.02635 4.83554C9.02635 3.76528 8.1624 2.90133 7.09213 2.90133Z" fill="#FF1809"/>
</svg>
