<svg width="21" height="24" viewBox="0 0 21 24" fill="none" xmlns="http://www.w3.org/2000/svg">
<path fill-rule="evenodd" clip-rule="evenodd" d="M0.835045 2.2913C1.22645 1.90166 1.85961 1.90309 2.24925 2.29449L5.27307 5.332C6.87308 4.45781 8.67007 3.99763 10.5007 4C15.4105 4.0003 19.5592 7.24183 20.9544 11.7014C21.0153 11.8962 21.0152 12.105 20.954 12.2997C20.3065 14.3607 19.0729 16.1767 17.4171 17.531L20.1681 20.2945C20.5578 20.6859 20.5564 21.3191 20.165 21.7087C19.7736 22.0983 19.1404 22.0969 18.7507 21.7055L11.9028 14.8276L7.67894 10.5846C7.66999 10.5756 7.66116 10.5664 7.65262 10.5572C7.65262 10.5572 7.65262 10.5572 7.65262 10.5572L0.831852 3.70551C0.44221 3.3141 0.44364 2.68094 0.835045 2.2913ZM6.75686 6.8225L8.47875 8.55218C9.08588 8.194 9.78254 8.00025 10.4995 8.00025C11.5583 8.00025 12.5728 8.4228 13.3201 9.17349C14.0673 9.92403 14.4862 10.941 14.4862 12.0005C14.4862 12.7208 14.2926 13.4214 13.9339 14.032L15.9978 16.1053C17.3472 15.0499 18.3722 13.6263 18.9462 11.9994C17.7151 8.50094 14.3954 6 10.5 6L10.4986 6C9.202 5.99824 7.92566 6.28092 6.75686 6.8225ZM12.4203 12.5116C12.4637 12.3463 12.4862 12.1746 12.4862 12.0005C12.4862 11.4685 12.2758 10.9593 11.9027 10.5845C11.5298 10.2099 11.025 10.0002 10.4995 10.0002C10.3252 10.0002 10.1532 10.0233 9.98754 10.0678L12.4203 12.5116ZM3.15794 8.17249C3.59895 8.50496 3.68693 9.13198 3.35447 9.57298C2.79869 10.3102 2.36002 11.129 2.05359 12C3.28457 15.4988 6.60443 18 10.5 18C11.0634 18.0004 11.6263 17.9477 12.1799 17.8426C12.7225 17.7395 13.2459 18.0958 13.349 18.6384C13.4521 19.181 13.0958 19.7044 12.5532 19.8074C11.876 19.9361 11.1884 20.0005 10.4992 20C10.499 20 10.4995 20 10.4992 20C5.58945 19.9997 1.44081 16.7581 0.0456167 12.2986C-0.0152153 12.1041 -0.0152054 11.8958 0.0456452 11.7013C0.421524 10.5003 1.00054 9.37303 1.75745 8.36902C2.08992 7.92801 2.71694 7.84002 3.15794 8.17249Z" fill="#888996"/>
</svg>
