<svg width="22" height="26" viewBox="0 0 22 26" fill="none" xmlns="http://www.w3.org/2000/svg">
<path d="M16.226 20.8127L15.863 20.4689L15.863 20.4689L16.226 20.8127ZM13.0292 23.7354L12.7177 23.3443L12.7177 23.3443L13.0292 23.7354ZM5.77405 20.8127L6.13702 20.4689L6.13702 20.4689L5.77405 20.8127ZM8.97082 23.7354L9.28229 23.3443L9.28229 23.3443L8.97082 23.7354ZM10.0278 24.5392L10.3205 24.1339L10.3205 24.1339L10.0278 24.5392ZM10.4453 24.8321L10.1679 25.2481L10.168 25.2481L10.4453 24.8321ZM11.5547 24.8321L11.832 25.2481L11.8321 25.2481L11.5547 24.8321ZM11.9722 24.5392L11.6795 24.1339L11.6795 24.1339L11.9722 24.5392ZM15.863 20.4689C14.8618 21.5257 13.7906 22.49 12.7177 23.3443L13.3406 24.1265C14.4459 23.2464 15.5522 22.2509 16.5889 21.1566L15.863 20.4689ZM20.5 11C20.5 14.1889 18.7933 17.3757 15.863 20.4689L16.5889 21.1566C19.6019 17.9763 21.5 14.5543 21.5 11H20.5ZM11 1.5C16.2467 1.5 20.5 5.75329 20.5 11H21.5C21.5 5.20101 16.799 0.5 11 0.5V1.5ZM1.5 11C1.5 5.75329 5.75329 1.5 11 1.5V0.5C5.20101 0.5 0.5 5.20101 0.5 11H1.5ZM6.13702 20.4689C3.20666 17.3757 1.5 14.1889 1.5 11H0.5C0.5 14.5543 2.39814 17.9763 5.41107 21.1566L6.13702 20.4689ZM9.28229 23.3443C8.20943 22.49 7.13823 21.5257 6.13702 20.4689L5.41107 21.1566C6.44776 22.2509 7.55407 23.2464 8.65936 24.1265L9.28229 23.3443ZM10.3205 24.1339C10.0072 23.9076 9.65822 23.6436 9.28229 23.3443L8.65936 24.1265C9.04698 24.4352 9.40844 24.7087 9.73505 24.9445L10.3205 24.1339ZM10.7227 24.416C10.6491 24.367 10.5125 24.2725 10.3205 24.1339L9.73504 24.9445C9.93307 25.0876 10.0806 25.1898 10.1679 25.2481L10.7227 24.416ZM11.2774 24.416C11.1094 24.528 10.8906 24.528 10.7226 24.416L10.168 25.2481C10.6718 25.584 11.3282 25.584 11.832 25.2481L11.2774 24.416ZM11.6795 24.1339C11.4875 24.2725 11.3509 24.367 11.2773 24.416L11.8321 25.2481C11.9194 25.1898 12.0669 25.0876 12.265 24.9445L11.6795 24.1339ZM12.7177 23.3443C12.3418 23.6436 11.9928 23.9076 11.6795 24.1339L12.265 24.9445C12.5916 24.7087 12.953 24.4352 13.3406 24.1265L12.7177 23.3443ZM11 14.5C9.067 14.5 7.5 12.933 7.5 11H6.5C6.5 13.4853 8.51472 15.5 11 15.5V14.5ZM14.5 11C14.5 12.933 12.933 14.5 11 14.5V15.5C13.4853 15.5 15.5 13.4853 15.5 11H14.5ZM11 7.5C12.933 7.5 14.5 9.067 14.5 11H15.5C15.5 8.51472 13.4853 6.5 11 6.5V7.5ZM7.5 11C7.5 9.067 9.067 7.5 11 7.5V6.5C8.51472 6.5 6.5 8.51472 6.5 11H7.5Z" fill="white"/>
</svg>
