<svg width="42" height="42" viewBox="0 0 42 42" fill="none" xmlns="http://www.w3.org/2000/svg">
<rect opacity="0.1" x="1" y="1" width="40" height="40" rx="20" stroke="url(#paint0_linear)"/>
<path d="M21 13C16.581 13 13 16.5814 13 21C13 25.4186 16.581 29 21 29C25.4187 29 29 25.4186 29 21C29 16.5814 25.4187 13 21 13ZM24.8594 25.2234C24.7285 25.3186 24.5768 25.4088 24.4109 25.4955C24.3699 25.6654 24.3242 25.8288 24.2787 25.989C23.8821 26.4362 23.4134 26.8326 22.9338 27.1523C22.9246 27.1587 22.9194 27.1659 22.9109 27.1725C22.5638 27.2974 22.2059 27.4003 21.8366 27.4669C22.1445 26.957 22.4715 26.2013 22.7811 25.3008C22.5819 25.1387 22.373 24.9662 22.152 24.7794C22.0677 24.3632 21.9782 23.9219 21.8787 23.4642C22.0272 23.2357 22.1717 23.0059 22.3162 22.7787C22.192 22.7994 22.0669 22.8218 21.94 22.8419C21.7693 22.6069 21.5922 22.3653 21.4106 22.1232C21.2536 22.041 21.0947 21.9557 20.9358 21.8733C20.5621 21.7306 20.1846 21.5846 19.8139 21.4435C19.5165 20.9538 19.228 20.4682 18.9526 20.0046C18.788 19.6706 18.6298 19.3458 18.4821 19.0358C18.5067 18.6088 18.5355 18.1934 18.5693 17.8029C18.3394 17.3926 18.1285 17.0267 17.9443 16.6987C17.6677 16.5789 17.4112 16.4781 17.1744 16.3848C16.9966 16.5139 16.8253 16.6539 16.6691 16.7989C16.3854 17.0445 16.1443 17.3126 15.9757 17.5963C16.0864 17.3477 16.2291 17.1075 16.399 16.8784C16.3053 16.8922 16.2186 16.9064 16.1365 16.9219C16.1131 16.7754 16.0896 16.6269 16.0598 16.4786C16.1672 16.3146 16.287 16.1582 16.4218 16.0133C16.3014 16.0314 16.1874 16.049 16.0755 16.0718C16.1008 15.9557 16.1288 15.8445 16.1589 15.7331C16.2498 15.713 16.3422 15.6891 16.4355 15.6696C16.399 15.6077 16.3568 15.5426 16.3152 15.4749C16.5696 15.2677 16.8411 15.0802 17.1224 14.911C17.5242 15.088 17.9061 15.2048 18.323 15.3238C18.535 15.2048 18.7486 15.109 18.9578 15.0347C19.3099 15.1277 19.6856 15.2229 20.0925 15.3499C20.9077 15.2997 21.7162 15.301 22.4747 15.3266C22.5267 15.5334 22.5685 15.7958 22.6088 16.1058C22.2859 16.1078 21.9514 16.1227 21.6062 16.1454C21.5437 16.2755 21.476 16.409 21.4077 16.5568C21.7632 16.8656 22.1264 17.2176 22.4843 17.5958C22.5653 17.5958 22.6491 17.5958 22.7293 17.5958C22.7643 17.1818 22.7928 16.7995 22.8106 16.4597C23.0174 16.4845 23.2187 16.5133 23.4134 16.5437C23.5195 16.7611 23.6243 16.987 23.7235 17.2248C23.8179 17.1894 23.9102 17.1557 23.9982 17.1232C24.2541 17.6589 24.4814 18.2456 24.6661 18.8301C24.4376 18.9018 24.1694 18.989 23.8642 19.0957C23.6298 19.2051 23.3744 19.3262 23.0986 19.4565C22.8869 19.7539 22.6563 20.0685 22.416 20.3952C22.4134 20.5651 22.4123 20.7344 22.4102 20.9077C22.3237 20.9174 22.2344 20.9251 22.1435 20.937C22.081 20.7494 22.0197 20.5611 21.9571 20.375C21.6082 20.4122 21.247 20.4538 20.8822 20.4986C20.797 20.7226 20.7128 20.9506 20.6264 21.1763C20.7181 21.3142 20.8099 21.4512 20.9016 21.5898C21.0373 21.4837 21.1738 21.3774 21.3107 21.2752C21.4429 21.2909 21.5782 21.3078 21.707 21.3242C21.6402 21.5131 21.568 21.7011 21.4995 21.8891C21.6563 21.9048 21.8126 21.9179 21.969 21.9282C22.0158 22.1288 22.0627 22.3286 22.107 22.5266C22.208 22.5618 22.3096 22.5955 22.4083 22.6288C22.4874 22.5024 22.5654 22.3768 22.6422 22.2499C23.1299 22.3006 23.5822 22.3451 23.9704 22.3768C24.2229 22.6093 24.445 22.8242 24.6325 23.0136C24.6541 23.1867 24.6722 23.3592 24.6896 23.5278C24.925 23.6502 25.1011 23.7406 25.2165 23.8027C25.14 24.267 25.0184 24.7494 24.8594 25.2234Z" fill="#FF2C13"/>
<defs>
<linearGradient id="paint0_linear" x1="-14.319" y1="39.5151" x2="39.6808" y2="52.032" gradientUnits="userSpaceOnUse">
<stop stop-color="#313162"/>
<stop offset="1" stop-color="#19192D"/>
</linearGradient>
</defs>
</svg>
