<svg width="11" height="11" viewBox="0 0 11 11" fill="none" xmlns="http://www.w3.org/2000/svg">
<path d="M9.44968 5.32186H5.17815V1.05033C5.17815 0.997769 5.13515 0.954767 5.08259 0.954767H4.77202C4.14525 0.954127 3.52452 1.07725 2.94544 1.31708C2.36637 1.55691 1.84035 1.90872 1.39756 2.35233C0.961611 2.78693 0.614335 3.30217 0.375073 3.86934C0.126617 4.45823 0 5.08296 0 5.72799C0 6.37301 0.126617 6.99654 0.375073 7.58543C0.615167 8.15282 0.959183 8.66406 1.39756 9.10245C1.83594 9.54083 2.346 9.88484 2.91458 10.1249C3.50244 10.3743 4.13464 10.5023 4.77322 10.5012C5.39999 10.5018 6.02072 10.3787 6.5998 10.1389C7.17887 9.89906 7.70489 9.54725 8.14768 9.10364C8.58606 8.66526 8.93007 8.15521 9.17017 7.58663C9.41956 6.99877 9.54755 6.36656 9.54644 5.72799V5.41742C9.54524 5.36486 9.50224 5.32186 9.44968 5.32186ZM10.4996 4.65891L10.4686 4.32206C10.3671 3.22312 9.8797 2.1863 9.09372 1.4039C8.30847 0.619309 7.2737 0.133827 6.16839 0.0314198L5.83035 0.000362802C5.77421 -0.00441519 5.72643 0.0385868 5.72643 0.0947282V4.67802C5.72643 4.73058 5.76943 4.77358 5.82199 4.77358L10.4041 4.76164C10.4602 4.76044 10.5044 4.71386 10.4996 4.65891Z" fill="#313162"/>
</svg>
