<svg width="12" height="12" viewBox="0 0 12 12" fill="none" xmlns="http://www.w3.org/2000/svg">
<path d="M10.275 8.25H8.475C8.35074 8.25 8.25 8.35074 8.25 8.475V10.275C8.25 10.3993 8.35074 10.5 8.475 10.5H10.275C10.3993 10.5 10.5 10.3993 10.5 10.275V8.475C10.5 8.35074 10.3993 8.25 10.275 8.25Z" fill="#FF1809"/>
<path d="M8.0625 6.75H6.9375C6.83395 6.75 6.75 6.83395 6.75 6.9375V8.0625C6.75 8.16605 6.83395 8.25 6.9375 8.25H8.0625C8.16605 8.25 8.25 8.16605 8.25 8.0625V6.9375C8.25 6.83395 8.16605 6.75 8.0625 6.75Z" fill="#FF1809"/>
<path d="M11.8125 10.5H10.6875C10.5839 10.5 10.5 10.5839 10.5 10.6875V11.8125C10.5 11.9161 10.5839 12 10.6875 12H11.8125C11.9161 12 12 11.9161 12 11.8125V10.6875C12 10.5839 11.9161 10.5 11.8125 10.5Z" fill="#FF1809"/>
<path d="M11.75 6.75H10.75C10.6119 6.75 10.5 6.80596 10.5 6.875V7.375C10.5 7.44404 10.6119 7.5 10.75 7.5H11.75C11.8881 7.5 12 7.44404 12 7.375V6.875C12 6.80596 11.8881 6.75 11.75 6.75Z" fill="#FF1809"/>
<path d="M7.375 10.5H6.875C6.80596 10.5 6.75 10.6119 6.75 10.75V11.75C6.75 11.8881 6.80596 12 6.875 12H7.375C7.44404 12 7.5 11.8881 7.5 11.75V10.75C7.5 10.6119 7.44404 10.5 7.375 10.5Z" fill="#FF1809"/>
<path d="M11.1923 0H7.55769C7.34348 0 7.13804 0.0850959 6.98657 0.236568C6.8351 0.388039 6.75 0.593479 6.75 0.807692V4.44231C6.75 4.65652 6.8351 4.86196 6.98657 5.01343C7.13804 5.1649 7.34348 5.25 7.55769 5.25H11.1923C11.4065 5.25 11.612 5.1649 11.7634 5.01343C11.9149 4.86196 12 4.65652 12 4.44231V0.807692C12 0.593479 11.9149 0.388039 11.7634 0.236568C11.612 0.0850959 11.4065 0 11.1923 0ZM10.3846 3.43269C10.3846 3.48625 10.3633 3.53761 10.3255 3.57547C10.2876 3.61334 10.2362 3.63462 10.1827 3.63462H8.56731C8.51375 3.63462 8.46239 3.61334 8.42453 3.57547C8.38666 3.53761 8.36538 3.48625 8.36538 3.43269V1.81731C8.36538 1.76375 8.38666 1.71239 8.42453 1.67453C8.46239 1.63666 8.51375 1.61538 8.56731 1.61538H10.1827C10.2362 1.61538 10.2876 1.63666 10.3255 1.67453C10.3633 1.71239 10.3846 1.76375 10.3846 1.81731V3.43269Z" fill="#FF1809"/>
<path d="M4.44231 0H0.807692C0.593479 0 0.388039 0.0850959 0.236568 0.236568C0.0850959 0.388039 0 0.593479 0 0.807692V4.44231C0 4.65652 0.0850959 4.86196 0.236568 5.01343C0.388039 5.1649 0.593479 5.25 0.807692 5.25H4.44231C4.65652 5.25 4.86196 5.1649 5.01343 5.01343C5.1649 4.86196 5.25 4.65652 5.25 4.44231V0.807692C5.25 0.593479 5.1649 0.388039 5.01343 0.236568C4.86196 0.0850959 4.65652 0 4.44231 0ZM3.63462 3.43269C3.63462 3.48625 3.61334 3.53761 3.57547 3.57547C3.53761 3.61334 3.48625 3.63462 3.43269 3.63462H1.81731C1.76375 3.63462 1.71239 3.61334 1.67453 3.57547C1.63666 3.53761 1.61538 3.48625 1.61538 3.43269V1.81731C1.61538 1.76375 1.63666 1.71239 1.67453 1.67453C1.71239 1.63666 1.76375 1.61538 1.81731 1.61538H3.43269C3.48625 1.61538 3.53761 1.63666 3.57547 1.67453C3.61334 1.71239 3.63462 1.76375 3.63462 1.81731V3.43269Z" fill="#FF1809"/>
<path d="M4.44231 6.75H0.807692C0.593479 6.75 0.388039 6.8351 0.236568 6.98657C0.0850959 7.13804 0 7.34348 0 7.55769V11.1923C0 11.4065 0.0850959 11.612 0.236568 11.7634C0.388039 11.9149 0.593479 12 0.807692 12H4.44231C4.65652 12 4.86196 11.9149 5.01343 11.7634C5.1649 11.612 5.25 11.4065 5.25 11.1923V7.55769C5.25 7.34348 5.1649 7.13804 5.01343 6.98657C4.86196 6.8351 4.65652 6.75 4.44231 6.75ZM3.63462 10.1827C3.63462 10.2362 3.61334 10.2876 3.57547 10.3255C3.53761 10.3633 3.48625 10.3846 3.43269 10.3846H1.81731C1.76375 10.3846 1.71239 10.3633 1.67453 10.3255C1.63666 10.2876 1.61538 10.2362 1.61538 10.1827V8.56731C1.61538 8.51375 1.63666 8.46239 1.67453 8.42453C1.71239 8.38666 1.76375 8.36538 1.81731 8.36538H3.43269C3.48625 8.36538 3.53761 8.38666 3.57547 8.42453C3.61334 8.46239 3.63462 8.51375 3.63462 8.56731V10.1827Z" fill="#FF1809"/>
</svg>
