<svg width="14" height="14" viewBox="0 0 14 14" fill="none" xmlns="http://www.w3.org/2000/svg">
<path fill-rule="evenodd" clip-rule="evenodd" d="M4.9 11.9L2.1 9.1C2.1 8.8669 2.3331 8.4 2.8 7.7L0 7L1.4 4.9L4.2 5.6C7 1.4 11.2 0 14 0C14 2.8 12.6 7 8.4 9.8L9.1 12.6L7 14L6.3 11.2C5.6 11.6669 5.1331 11.9 4.9 11.9ZM9.45 5.6C9.72848 5.6 9.99555 5.48938 10.1925 5.29246C10.3894 5.09555 10.5 4.82848 10.5 4.55C10.5 4.27152 10.3894 4.00445 10.1925 3.80754C9.99555 3.61062 9.72848 3.5 9.45 3.5C9.17152 3.5 8.90445 3.61062 8.70754 3.80754C8.51062 4.00445 8.4 4.27152 8.4 4.55C8.4 4.82848 8.51062 5.09555 8.70754 5.29246C8.90445 5.48938 9.17152 5.6 9.45 5.6ZM1.4 9.8L2.275 10.675C1.8081 11.1419 1.5169 11.7831 1.4 12.6C2.2169 12.4831 2.8581 12.1919 3.325 11.725L4.2 12.6C3.2669 13.5331 1.8669 14 0 14C0 12.1331 0.4669 10.7331 1.4 9.8Z" fill="#313162"/>
</svg>
