<svg width="246" height="213" viewBox="0 0 246 213" fill="none" xmlns="http://www.w3.org/2000/svg">
<path d="M240.415 193.425H62.0162C59.2342 193.425 57.0317 191.165 57.0317 188.441V60.6403C57.0317 57.8582 59.2922 55.6558 62.0162 55.6558H240.415C243.197 55.6558 245.4 57.9162 245.4 60.6403V188.441C245.4 191.223 243.197 193.425 240.415 193.425Z" fill="#262642"/>
<path d="M240.415 193.425H62.0162C59.2342 193.425 57.0317 191.165 57.0317 188.441V167.401H245.4V188.441C245.4 191.223 243.197 193.425 240.415 193.425Z" fill="#BDBDC7"/>
<path d="M238.874 161.383L238.874 62.2148L63.6044 62.2148L63.6044 161.383L238.874 161.383Z" fill="white"/>
<path d="M238.874 161.383L238.874 62.2148L63.6044 62.2148L63.6044 161.383L238.874 161.383Z" fill="#F7F8F8"/>
<path d="M129.945 193.425C128.206 200.96 125.656 207.046 125.656 207.046H176.776C176.776 207.046 174.226 201.018 172.487 193.425H129.945Z" fill="#BFC3CE"/>
<path d="M173.82 198.526C173.356 196.961 172.892 195.28 172.487 193.483H129.944C129.539 195.28 129.075 196.961 128.611 198.526H173.82Z" fill="#9A9AAD"/>
<path d="M186.339 206.814H116.15C113.6 206.814 111.514 208.9 111.514 211.451H190.976C190.976 208.9 188.889 206.814 186.339 206.814Z" fill="#262642"/>
<path d="M112.731 1H46.3677V93.735H112.731V1Z" fill="white" stroke="#262642" stroke-miterlimit="10"/>
<path d="M58.8869 43.0786H56.6265V45.5129H58.8869V43.0786Z" fill="#FF2911"/>
<path d="M97.8936 43.0786H62.0747V45.5129H97.8936V43.0786Z" fill="#BDBDC7"/>
<path d="M58.8869 48.9905H56.6265V51.4248H58.8869V48.9905Z" fill="#FF2911"/>
<path d="M97.8936 48.9905H62.0747V51.4248H97.8936V48.9905Z" fill="#BDBDC7"/>
<path d="M58.8869 54.8444H56.6265V57.2787H58.8869V54.8444Z" fill="#FF2911"/>
<path d="M103.342 54.8444H62.0747V57.2787H103.342V54.8444Z" fill="#BDBDC7"/>
<path d="M81.3752 60.7562H62.0747V63.1905H81.3752V60.7562Z" fill="#BDBDC7"/>
<path d="M75.9269 71.9423H56.6265V74.3766H75.9269V71.9423Z" fill="#BDBDC7"/>
<path d="M95.2273 31.3129H63.7554V35.4859H95.2273V31.3129Z" fill="#BDBDC7"/>
<path d="M97.198 77.7961H56.6265V80.2304H97.198V77.7961Z" fill="#BDBDC7"/>
<path d="M48.8076 71.9039C51.0255 65.1369 58.3041 61.3846 65.127 63.6021C71.9503 65.8197 75.6462 73.0969 73.4287 79.921C71.2108 86.6879 63.9326 90.4402 57.1098 88.2232C50.3427 86.0053 46.5903 78.7268 48.8076 71.9039ZM64.6447 65.2713C58.774 63.315 52.4321 66.5764 50.5348 72.4439C48.5786 78.3147 51.8399 84.6566 57.7075 86.5538C63.5782 88.51 69.9201 85.2487 71.8173 79.3811C73.7735 73.5104 70.5122 67.1686 64.6447 65.2713Z" fill="#FF2911" stroke="#262642" stroke-width="0.5"/>
<path d="M52.0103 102.482C51.6197 102.351 51.4007 101.913 51.5309 101.523L56.0886 87.8497L57.5269 88.3291L52.9692 102.002C52.839 102.393 52.401 102.612 52.0103 102.482Z" fill="#FF2911" stroke="#262642" stroke-width="0.5"/>
<path d="M50.2543 103.556L50.2544 103.556L50.2562 103.551L53.9447 92.4285L56.4263 93.2557L52.7384 104.376C52.4895 105.069 51.756 105.446 51.0883 105.207C50.3936 104.959 50.0155 104.225 50.2543 103.556Z" fill="#FF2911" stroke="#262642" stroke-width="0.5"/>
<path d="M2.20249 121.961C0.927388 127.178 2.37637 131.467 2.72413 132.684C3.07188 133.959 8.28823 150.767 10.3168 152.216L11.534 147.232C11.534 147.232 11.534 147.232 10.027 140.392C8.86782 135.176 7.70864 128.916 7.70864 128.916C7.70864 128.916 9.09966 120.454 9.62129 119.295C10.1429 118.136 2.20249 121.961 2.20249 121.961Z" fill="#FEBFA7"/>
<path d="M5.50643 108.804C4.23132 109.732 0.695801 124.569 0.695801 124.569C0.695801 124.569 1.56519 126.308 5.50643 126.366C10.1432 126.482 9.9693 124.338 9.9693 124.338C9.9693 124.338 13.8526 113.731 13.0411 111.007C12.2877 108.341 5.50643 108.804 5.50643 108.804Z" fill="#FF2911"/>
<path d="M19.4162 109.036C19.1264 107.819 19.9958 104.4 20.1117 101.038L12.7508 102.429C12.7508 102.429 10.6063 108.631 10.3745 109.036C12.6929 110.196 18.7207 109.036 19.4162 109.036Z" fill="#FEBFA7"/>
<path d="M20.8073 89.4461C23.1257 90.4314 24.5167 95.358 24.4588 95.8796C24.4008 96.4012 24.2269 96.5751 24.5167 97.1547C24.8065 97.7343 24.9804 98.14 25.0963 98.4298C25.2122 98.7196 24.111 99.4151 24.3429 99.8208C24.5167 100.227 23.8792 100.458 23.9371 100.864C23.9951 101.27 23.5894 103.704 22.8359 104.168C22.0824 104.631 19.5322 104.4 17.9094 103.646C16.2865 102.893 16.4024 100.053 16.4024 100.053C16.4024 100.053 6.14361 92.6918 16.1126 89.9678C17.2718 89.678 19.7641 89.0404 20.8073 89.4461Z" fill="#FEBFA7"/>
<path d="M23.2417 91.3588C22.3723 92.8657 20.9233 92.518 20.2857 93.851C19.7641 94.8363 20.1119 96.9229 20.1119 96.9229C20.1119 96.9229 19.5902 97.7923 19.4743 97.0968C19.1845 95.7637 18.6629 94.9523 17.9094 95.1841C16.4025 95.6478 16.8661 97.6764 18.1412 98.5457C19.2425 99.2992 18.3151 99.9947 16.8082 102.255C16.1706 103.24 12.6931 103.067 12.6931 103.067C12.6931 103.067 12.5771 101.791 11.0702 99.0094C9.44733 95.9955 8.23018 95.1261 8.80977 93.3874C9.85304 90.3735 11.2441 91.1849 12.0555 90.2575C12.0555 90.2575 12.8669 86.4322 16.1706 86.4322C19.1265 86.4322 18.7788 86.3743 19.938 86.0845C21.271 85.7367 22.3143 85.5628 22.9519 86.3743C23.7053 87.3596 24.111 89.8518 23.2417 91.3588Z" fill="#262642"/>
<path d="M21.8507 207.335C21.8507 207.335 23.3576 206.582 24.8646 206.582C26.3715 206.582 27.3568 207.104 28.0523 207.335C28.7478 207.567 35.7609 210.349 35.8769 211.103C35.9928 211.856 34.4858 212.088 31.8777 212.088C29.2695 212.088 26.0238 212.204 24.4009 212.088C22.7201 211.972 21.9086 211.624 21.9086 211.624C21.9086 211.624 20.6915 210.581 21.8507 207.335Z" fill="#BDBDC7"/>
<path d="M0.521582 207.335C0.521582 207.335 2.02853 206.582 3.53547 206.582C5.04241 206.582 6.02772 207.104 6.72324 207.335C7.41875 207.567 12.3453 210.349 12.4612 211.103C12.5771 211.856 11.0702 212.088 8.46202 212.088C5.85385 212.088 4.75262 212.204 3.07179 212.088C1.39097 212.03 0.579541 211.682 0.579541 211.682C0.579541 211.682 -0.637606 210.581 0.521582 207.335Z" fill="#BDBDC7"/>
<path d="M6.37553 141.725C6.25961 146.478 5.39022 156.621 5.50614 164.504C5.62206 172.386 5.39022 179.573 5.39022 179.573C3.4196 191.744 0 207.915 0 207.915C0 207.915 4.57879 209.422 7.07104 207.915C7.07104 207.915 10.8384 193.889 13.4466 186.296C16.0547 178.704 17.098 174.299 18.0833 164.33C19.0686 154.361 20.6915 143.059 20.6915 143.059L6.37553 141.725Z" fill="#262642"/>
<path d="M10.7803 141.436C11.0121 144.334 15.3591 163.344 16.5183 167.112C17.6774 170.821 19.1844 178.935 18.8946 179.515C18.6627 180.095 20.2277 195.048 20.6913 201.018C21.155 206.988 21.8505 207.393 21.8505 207.393C21.8505 207.393 25.0383 208.553 28.0522 207.393C28.0522 207.393 28.6897 183.978 28.7477 176.385C28.8636 168.792 27.4146 152.796 27.0669 147.579C26.6611 140.856 26.6611 136.103 26.6611 136.103L10.7803 141.436Z" fill="#262642"/>
<path d="M11.1284 105.791C11.1284 105.791 12.2875 107.066 15.3014 107.066C17.1561 107.066 19.5904 105.733 19.5904 105.733L25.966 107.413C25.966 107.413 26.7774 115.296 27.0672 122.425C27.357 129.496 27.0092 148.101 27.0092 148.101C27.0092 148.101 24.9227 147.811 18.6631 149.608C10.8386 151.926 8.52018 149.028 5.73813 147.347C5.73813 147.347 6.08589 135.524 5.73813 131.698C5.39037 127.873 4.9267 120.86 4.86874 117.498C4.75282 114.195 5.2165 109.964 5.56425 108.862C5.50629 108.805 8.57814 106.544 11.1284 105.791Z" fill="#FF2911"/>
<path d="M54.8299 95.7057C54.0764 95.9955 53.5548 96.1114 53.5548 96.1114C53.3229 95.358 52.2217 95.8216 51.816 96.2273C51.4103 96.5751 51.0046 97.2706 50.1352 98.7776C49.2078 100.284 46.5997 103.24 44.3392 104.284C42.0788 105.327 39.1809 107.356 39.1809 107.356C39.1809 107.356 35.1237 107.877 32.8633 108.167L33.3849 114.195C33.3849 114.195 41.3833 113.673 42.3686 112.572C43.3539 111.471 47.6429 107.587 50.3091 104.284C50.8886 103.588 51.5842 102.255 52.3956 101.907C54.656 100.98 55.1197 100.342 55.6413 100.053C56.4527 99.589 55.7572 99.3571 56.3948 99.0674C57.0323 98.7776 56.2209 98.4298 56.5107 97.6763C56.7425 97.1547 55.9891 96.691 56.3368 96.3433C56.1629 95.3 54.8878 95.7057 54.8299 95.7057Z" fill="#FEBFA7"/>
<path d="M36.9783 107.24C37.3261 107.645 38.6591 109.036 38.6591 111.702C38.7171 114.369 38.2534 115.702 38.2534 115.702C38.2534 115.702 28.864 117.498 26.1399 117.209C23.4158 116.919 23.8215 114.543 22.3146 112.398C19.4746 108.225 25.966 107.414 25.966 107.414C32.8632 108.167 36.9783 107.24 36.9783 107.24Z" fill="#FF2911"/>
</svg>
