<svg width="16" height="16" viewBox="0 0 16 16" fill="none" xmlns="http://www.w3.org/2000/svg">
<path fill-rule="evenodd" clip-rule="evenodd" d="M16 7.733C16 9.77447 15.1571 11.7323 13.6569 13.1759C12.1566 14.6194 10.1217 15.4304 8 15.4304C5.87827 15.4304 3.84344 14.6194 2.34315 13.1759C0.842855 11.7323 0 9.77447 0 7.733C0 5.69154 0.842855 3.73368 2.34315 2.29015C3.84344 0.846614 5.87827 0.0356445 8 0.0356445C10.1217 0.0356445 12.1566 0.846614 13.6569 2.29015C15.1571 3.73368 16 5.69154 16 7.733ZM12.03 4.81763C11.9586 4.74914 11.8735 4.69521 11.7799 4.65908C11.6863 4.62294 11.5861 4.60533 11.4853 4.60731C11.3845 4.60928 11.2851 4.6308 11.1932 4.67058C11.1012 4.71035 11.0185 4.76756 10.95 4.8388L7.477 9.0964L5.384 7.08161C5.24183 6.95414 5.05378 6.88475 4.85948 6.88805C4.66518 6.89135 4.47979 6.96708 4.34238 7.0993C4.20497 7.23151 4.12625 7.40988 4.12283 7.59683C4.1194 7.78378 4.19152 7.96472 4.324 8.10151L6.97 10.6484C7.04128 10.7168 7.12616 10.7708 7.21958 10.807C7.313 10.8432 7.41305 10.8609 7.51375 10.8591C7.61444 10.8574 7.71374 10.8361 7.8057 10.7965C7.89766 10.757 7.9804 10.7001 8.049 10.6291L12.041 5.82791C12.1771 5.69176 12.2523 5.50969 12.2504 5.3208C12.2485 5.13191 12.1698 4.95126 12.031 4.81763H12.03Z" fill="#FF1809"/>
</svg>
