<svg width="42" height="42" viewBox="0 0 42 42" fill="none" xmlns="http://www.w3.org/2000/svg">
<rect opacity="0.1" x="1" y="1" width="40" height="40" rx="20" stroke="url(#paint0_linear)"/>
<path d="M18.0143 29.6244L24.3166 25.1152C24.3729 25.075 24.4188 25.0219 24.4505 24.9604C24.4821 24.8989 24.4986 24.8307 24.4985 24.7615L24.4986 24.7606C24.4985 24.6912 24.4817 24.6228 24.4498 24.5612C24.4179 24.4996 24.3717 24.4464 24.315 24.4063L18.0127 19.9262C17.9476 19.88 17.871 19.8525 17.7913 19.847C17.7116 19.8414 17.6319 19.858 17.561 19.8948C17.4899 19.9313 17.4303 19.9868 17.3887 20.055C17.3471 20.1233 17.3251 20.2017 17.3252 20.2817L17.3254 22.3898L11.6652 22.3898C11.608 22.3898 11.5514 22.401 11.4985 22.4229C11.4457 22.4448 11.3976 22.4769 11.3572 22.5173C11.3167 22.5578 11.2847 22.6058 11.2628 22.6587C11.2409 22.7115 11.2297 22.7682 11.2297 22.8254L11.2295 26.726C11.2295 26.7832 11.2407 26.8398 11.2626 26.8927C11.2845 26.9455 11.3166 26.9935 11.357 27.034C11.3975 27.0744 11.4455 27.1065 11.4983 27.1284C11.5512 27.1503 11.6079 27.1615 11.6651 27.1615L17.3252 27.1615V29.2705C17.3255 29.3505 17.3476 29.4288 17.3893 29.4971C17.4309 29.5653 17.4905 29.6208 17.5615 29.6576C17.6327 29.6943 17.7127 29.7106 17.7926 29.7048C17.8725 29.6989 17.9492 29.6711 18.0143 29.6244Z" fill="#FF3015"/>
<path d="M24.7028 11.9342L18.4003 16.4432C18.3441 16.4834 18.2982 16.5365 18.2666 16.598C18.235 16.6595 18.2185 16.7277 18.2185 16.7969L18.2185 16.7979C18.219 16.939 18.2872 17.0708 18.4019 17.1521L24.7044 21.632C24.7695 21.6782 24.8462 21.7057 24.9259 21.7113C25.0056 21.7168 25.0853 21.7003 25.1563 21.6636C25.2274 21.627 25.2871 21.5715 25.3287 21.5032C25.3703 21.4348 25.3922 21.3564 25.3921 21.2764L25.3921 19.1684L31.0521 19.1685C31.1093 19.1686 31.1659 19.1573 31.2188 19.1355C31.2716 19.1136 31.3197 19.0815 31.3601 19.041C31.4006 19.0006 31.4326 18.9526 31.4545 18.8997C31.4764 18.8469 31.4876 18.7902 31.4876 18.733L31.4874 14.8328C31.4875 14.7756 31.4762 14.7189 31.4543 14.6661C31.4325 14.6132 31.4004 14.5652 31.3599 14.5247C31.3195 14.4843 31.2715 14.4522 31.2186 14.4303C31.1657 14.4084 31.1091 14.3972 31.0519 14.3972L25.3919 14.397L25.3917 12.2882C25.3917 12.2082 25.3696 12.1297 25.3279 12.0614C25.2861 11.9931 25.2264 11.9377 25.1552 11.9011C25.0841 11.8645 25.0042 11.8482 24.9244 11.8541C24.8446 11.8599 24.7679 11.8876 24.7028 11.9342Z" fill="#FF3015"/>
<defs>
<linearGradient id="paint0_linear" x1="-14.319" y1="39.5151" x2="39.6808" y2="52.032" gradientUnits="userSpaceOnUse">
<stop stop-color="#313162"/>
<stop offset="1" stop-color="#19192D"/>
</linearGradient>
</defs>
</svg>
