<svg width="49" height="49" viewBox="0 0 49 49" fill="none" xmlns="http://www.w3.org/2000/svg">
<circle cx="24.5" cy="24.5" r="24.5" fill="#F7F8F8"/>
<path opacity="0.65" fill-rule="evenodd" clip-rule="evenodd" d="M13.3333 38C13.3333 38 11 38 11 35.6667C11 33.3333 13.3333 26.3333 25 26.3333C36.6667 26.3333 39 33.3333 39 35.6667C39 38 36.6667 38 36.6667 38H13.3333ZM25 24C26.8565 24 28.637 23.2625 29.9497 21.9497C31.2625 20.637 32 18.8565 32 17C32 15.1435 31.2625 13.363 29.9497 12.0503C28.637 10.7375 26.8565 10 25 10C23.1435 10 21.363 10.7375 20.0503 12.0503C18.7375 13.363 18 15.1435 18 17C18 18.8565 18.7375 20.637 20.0503 21.9497C21.363 23.2625 23.1435 24 25 24Z" fill="#262642"/>
</svg>
