<svg width="21" height="24" viewBox="0 0 21 24" fill="none" xmlns="http://www.w3.org/2000/svg">
<path fill-rule="evenodd" clip-rule="evenodd" d="M2.05352 12C3.2837 15.4986 6.60471 18 10.5 18C14.3962 18 17.7163 15.4986 18.9465 12C17.7163 8.50136 14.3962 6 10.5 6C6.60471 6 3.2837 8.50141 2.05352 12ZM0.0455589 11.7016C1.43998 7.24148 5.59057 4 10.5 4C15.4105 4 19.56 7.24154 20.9544 11.7016C21.0152 11.8959 21.0152 12.1041 20.9544 12.2984C19.56 16.7585 15.4105 20 10.5 20C5.59057 20 1.43998 16.7585 0.0455589 12.2984C-0.0151863 12.1041 -0.0151863 11.8959 0.0455589 11.7016ZM10.542 10C10.0116 10 9.50285 10.2107 9.12778 10.5858C8.75271 10.9609 8.54199 11.4696 8.54199 12C8.54199 12.5304 8.75271 13.0391 9.12778 13.4142C9.50285 13.7893 10.0116 14 10.542 14C11.0724 14 11.5811 13.7893 11.9562 13.4142C12.3313 13.0391 12.542 12.5304 12.542 12C12.542 11.4696 12.3313 10.9609 11.9562 10.5858C11.5811 10.2107 11.0724 10 10.542 10ZM7.71356 9.17157C8.46371 8.42143 9.48113 8 10.542 8C11.6029 8 12.6203 8.42143 13.3704 9.17157C14.1206 9.92172 14.542 10.9391 14.542 12C14.542 13.0609 14.1206 14.0783 13.3704 14.8284C12.6203 15.5786 11.6029 16 10.542 16C9.48113 16 8.46371 15.5786 7.71356 14.8284C6.96342 14.0783 6.54199 13.0609 6.54199 12C6.54199 10.9391 6.96342 9.92172 7.71356 9.17157Z" fill="#888996"/>
</svg>
