<svg width="53" height="50" viewBox="0 0 53 50" fill="none" xmlns="http://www.w3.org/2000/svg">
<path d="M48.1857 49.1158H4.38472C1.97354 49.1158 0 47.1422 0 44.731V8.77961C0 4.86887 3.19895 1.66992 7.10969 1.66992H45.4607C49.3715 1.66992 52.5704 4.86887 52.5704 8.77961V44.7294C52.5721 47.1422 50.5986 49.1158 48.1857 49.1158Z" fill="#E9E9EC"/>
<path d="M8.55454 5.25697C7.96661 5.25697 7.48438 4.77639 7.48438 4.1868V1.66992H9.62306V4.18845C9.62471 4.77639 9.14248 5.25697 8.55454 5.25697Z" fill="#BF3A37"/>
<path d="M21.2103 5.25697C20.6224 5.25697 20.1401 4.77639 20.1401 4.1868V1.66992H22.2788V4.18845C22.2788 4.77639 21.7982 5.25697 21.2103 5.25697Z" fill="#BF3A37"/>
<path d="M33.0462 5.25697C32.4583 5.25697 31.9761 4.77639 31.9761 4.1868V1.66992H34.1148V4.18845C34.1164 4.77639 33.6342 5.25697 33.0462 5.25697Z" fill="#BF3A37"/>
<path d="M44.9652 5.25689C44.3773 5.25689 43.895 4.7763 43.895 4.18672C43.895 4.18672 43.895 1.85315 43.895 1.66819C43.895 1.49973 46.0337 1.69131 46.0337 1.69131V4.18672C46.0354 4.7763 45.5531 5.25689 44.9652 5.25689Z" fill="#BF3A37"/>
<path opacity="0.4" d="M12 19.5918H7C6.44772 19.5918 6 20.0395 6 20.5918V21.5918C6 22.1441 6.44772 22.5918 7 22.5918H12C12.5523 22.5918 13 22.1441 13 21.5918V20.5918C13 20.0395 12.5523 19.5918 12 19.5918Z" fill="#262642"/>
<path opacity="0.4" d="M12 26.5918H7C6.44772 26.5918 6 27.0395 6 27.5918V28.5918C6 29.1441 6.44772 29.5918 7 29.5918H12C12.5523 29.5918 13 29.1441 13 28.5918V27.5918C13 27.0395 12.5523 26.5918 12 26.5918Z" fill="#262642"/>
<path opacity="0.4" d="M12 33.5918H7C6.44772 33.5918 6 34.0395 6 34.5918V35.5918C6 36.1441 6.44772 36.5918 7 36.5918H12C12.5523 36.5918 13 36.1441 13 35.5918V34.5918C13 34.0395 12.5523 33.5918 12 33.5918Z" fill="#262642"/>
<path opacity="0.4" d="M12 40.5918H7C6.44772 40.5918 6 41.0395 6 41.5918V42.5918C6 43.1441 6.44772 43.5918 7 43.5918H12C12.5523 43.5918 13 43.1441 13 42.5918V41.5918C13 41.0395 12.5523 40.5918 12 40.5918Z" fill="#262642"/>
<path opacity="0.4" d="M23 19.5918H18C17.4477 19.5918 17 20.0395 17 20.5918V21.5918C17 22.1441 17.4477 22.5918 18 22.5918H23C23.5523 22.5918 24 22.1441 24 21.5918V20.5918C24 20.0395 23.5523 19.5918 23 19.5918Z" fill="#262642"/>
<path opacity="0.4" d="M23 26.5918H18C17.4477 26.5918 17 27.0395 17 27.5918V28.5918C17 29.1441 17.4477 29.5918 18 29.5918H23C23.5523 29.5918 24 29.1441 24 28.5918V27.5918C24 27.0395 23.5523 26.5918 23 26.5918Z" fill="#262642"/>
<path opacity="0.4" d="M23 33.5918H18C17.4477 33.5918 17 34.0395 17 34.5918V35.5918C17 36.1441 17.4477 36.5918 18 36.5918H23C23.5523 36.5918 24 36.1441 24 35.5918V34.5918C24 34.0395 23.5523 33.5918 23 33.5918Z" fill="#262642"/>
<path opacity="0.4" d="M23 40.5918H18C17.4477 40.5918 17 41.0395 17 41.5918V42.5918C17 43.1441 17.4477 43.5918 18 43.5918H23C23.5523 43.5918 24 43.1441 24 42.5918V41.5918C24 41.0395 23.5523 40.5918 23 40.5918Z" fill="#262642"/>
<path opacity="0.4" d="M34 19.5918H29C28.4477 19.5918 28 20.0395 28 20.5918V21.5918C28 22.1441 28.4477 22.5918 29 22.5918H34C34.5523 22.5918 35 22.1441 35 21.5918V20.5918C35 20.0395 34.5523 19.5918 34 19.5918Z" fill="#262642"/>
<path opacity="0.4" d="M34 26.5918H29C28.4477 26.5918 28 27.0395 28 27.5918V28.5918C28 29.1441 28.4477 29.5918 29 29.5918H34C34.5523 29.5918 35 29.1441 35 28.5918V27.5918C35 27.0395 34.5523 26.5918 34 26.5918Z" fill="#262642"/>
<path opacity="0.4" d="M34 33.5918H29C28.4477 33.5918 28 34.0395 28 34.5918V35.5918C28 36.1441 28.4477 36.5918 29 36.5918H34C34.5523 36.5918 35 36.1441 35 35.5918V34.5918C35 34.0395 34.5523 33.5918 34 33.5918Z" fill="#262642"/>
<path opacity="0.4" d="M34 40.5918H29C28.4477 40.5918 28 41.0395 28 41.5918V42.5918C28 43.1441 28.4477 43.5918 29 43.5918H34C34.5523 43.5918 35 43.1441 35 42.5918V41.5918C35 41.0395 34.5523 40.5918 34 40.5918Z" fill="#262642"/>
<path opacity="0.4" d="M45 19.5918H40C39.4477 19.5918 39 20.0395 39 20.5918V21.5918C39 22.1441 39.4477 22.5918 40 22.5918H45C45.5523 22.5918 46 22.1441 46 21.5918V20.5918C46 20.0395 45.5523 19.5918 45 19.5918Z" fill="#262642"/>
<path opacity="0.4" d="M45 26.5918H40C39.4477 26.5918 39 27.0395 39 27.5918V28.5918C39 29.1441 39.4477 29.5918 40 29.5918H45C45.5523 29.5918 46 29.1441 46 28.5918V27.5918C46 27.0395 45.5523 26.5918 45 26.5918Z" fill="#262642"/>
<path opacity="0.4" d="M45 33.5918H40C39.4477 33.5918 39 34.0395 39 34.5918V35.5918C39 36.1441 39.4477 36.5918 40 36.5918H45C45.5523 36.5918 46 36.1441 46 35.5918V34.5918C46 34.0395 45.5523 33.5918 45 33.5918Z" fill="#262642"/>
<path opacity="0.4" d="M45 40.5918H40C39.4477 40.5918 39 41.0395 39 41.5918V42.5918C39 43.1441 39.4477 43.5918 40 43.5918H45C45.5523 43.5918 46 43.1441 46 42.5918V41.5918C46 41.0395 45.5523 40.5918 45 40.5918Z" fill="#262642"/>
<path d="M45.4607 1.66992H7.10969C3.19895 1.66992 0 4.86887 0 8.77961V14.0016H52.5721V8.77961C52.5721 4.86887 49.3715 1.66992 45.4607 1.66992ZM8.13362 9.52444C6.85701 9.52444 5.82153 8.48895 5.82153 7.21234C5.82153 5.93574 6.85701 4.90025 8.13362 4.90025C9.41023 4.90025 10.4457 5.93574 10.4457 7.21234C10.4457 8.48895 9.41023 9.52444 8.13362 9.52444ZM20.7841 9.52444C19.5075 9.52444 18.472 8.48895 18.472 7.21234C18.472 5.93574 19.5075 4.90025 20.7841 4.90025C22.0607 4.90025 23.0962 5.93574 23.0962 7.21234C23.0962 8.48895 22.0607 9.52444 20.7841 9.52444ZM32.5758 9.52444C31.2992 9.52444 30.2637 8.48895 30.2637 7.21234C30.2637 5.93574 31.2992 4.90025 32.5758 4.90025C33.8524 4.90025 34.8879 5.93574 34.8879 7.21234C34.8879 8.48895 33.8524 9.52444 32.5758 9.52444ZM44.5822 9.52444C43.3055 9.52444 42.2701 8.48895 42.2701 7.21234C42.2701 5.93574 43.3055 4.90025 44.5822 4.90025C45.8588 4.90025 46.8942 5.93574 46.8942 7.21234C46.8942 8.48895 45.8588 9.52444 44.5822 9.52444Z" fill="url(#paint0_linear)"/>
<path d="M20.7215 7.20878C20.1336 7.20878 19.6514 6.7282 19.6514 6.13861L19.7174 1.07017C19.7174 0.482237 20.198 0 20.7876 0C21.3755 0 21.8578 0.480585 21.8578 1.07017L21.7917 6.13861C21.7917 6.7282 21.3095 7.20878 20.7215 7.20878Z" fill="#262642"/>
<path d="M32.6175 7.20878C32.0296 7.20878 31.5474 6.7282 31.5474 6.13861L31.6134 1.07017C31.6134 0.482237 32.094 0 32.6836 0C33.2715 0 33.7538 0.480585 33.7538 1.07017L33.6877 6.13861C33.6877 6.7282 33.2055 7.20878 32.6175 7.20878Z" fill="#262642"/>
<path d="M44.513 7.20878C43.9251 7.20878 43.4429 6.7282 43.4429 6.13861L43.5089 1.07017C43.5089 0.482237 43.9895 0 44.5791 0C45.167 0 45.6493 0.480585 45.6493 1.07017L45.5832 6.13861C45.5832 6.7282 45.1026 7.20878 44.513 7.20878Z" fill="#262642"/>
<path d="M8.06431 7.20903C7.47638 7.20903 6.99414 6.72844 6.99414 6.13886L7.0602 1.07041C7.0602 0.482481 7.54079 0.000244141 8.13037 0.000244141C8.7183 0.000244141 9.20054 0.48083 9.20054 1.07041L9.13448 6.13886C9.13448 6.72844 8.65224 7.20903 8.06431 7.20903Z" fill="#262642"/>
<defs>
<linearGradient id="paint0_linear" x1="-0.15591" y1="7.87346" x2="52.6106" y2="5.19985" gradientUnits="userSpaceOnUse">
<stop stop-color="#FF2911"/>
<stop offset="0.3993" stop-color="#F51C1F"/>
<stop offset="1" stop-color="#E80C31"/>
</linearGradient>
</defs>
</svg>
