<svg width="63" height="62" viewBox="0 0 63 62" fill="none" xmlns="http://www.w3.org/2000/svg">
<circle opacity="0.1" cx="31.4999" cy="30.5194" r="30.5194" fill="#262642"/>
<circle cx="31.5002" cy="30.5194" r="19.4617" stroke="#1F1F3B" stroke-width="0.884621" stroke-dasharray="2.65 2.65"/>
<rect x="0.980469" width="29.4901" height="29.4901" rx="14.7451" fill="#FF3015"/>
<rect x="2.41943" y="1.43872" width="26.613" height="26.613" rx="13.3065" fill="url(#paint0_linear)"/>
<path d="M21.5721 17.404C21.5721 18.3679 21.2221 19.2112 20.5222 19.9341C19.8337 20.6456 18.8469 21.116 17.5617 21.3455V23.256H15.1349V21.4316C14.2743 21.3857 13.4481 21.2537 12.6564 21.0357C11.8761 20.8177 11.2278 20.548 10.7114 20.2267L12.0195 17.2663C12.5933 17.5991 13.2358 17.8687 13.9472 18.0753C14.6587 18.2703 15.3414 18.3679 15.9955 18.3679C16.5577 18.3679 16.9593 18.3162 17.2003 18.213C17.4412 18.0982 17.5617 17.9318 17.5617 17.7138C17.5617 17.4614 17.4011 17.272 17.0798 17.1458C16.77 17.0196 16.2536 16.8819 15.5307 16.7327C14.6013 16.5377 13.8268 16.3311 13.2071 16.1131C12.5875 15.8836 12.0482 15.5164 11.5892 15.0116C11.1302 14.4952 10.9008 13.801 10.9008 12.9289C10.9008 11.9192 11.2622 11.0528 11.9851 10.3299C12.7195 9.60704 13.7694 9.14806 15.1349 8.95299V7.0769H17.5617V8.91857C18.9387 9.04479 20.1033 9.37755 21.0557 9.91686L19.8337 12.8601C18.6518 12.2634 17.533 11.9651 16.4774 11.9651C15.4332 11.9651 14.9111 12.2175 14.9111 12.7224C14.9111 12.9633 15.066 13.1469 15.3758 13.2732C15.6856 13.3879 16.1963 13.5141 16.9077 13.6518C17.8256 13.8239 18.6002 14.0247 19.2313 14.2542C19.8624 14.4723 20.4074 14.8337 20.8664 15.3386C21.3369 15.8435 21.5721 16.5319 21.5721 17.404Z" fill="#FF3015"/>
<rect x="31.9424" y="31.8464" width="29.4901" height="29.4901" rx="14.7451" fill="#FF3015"/>
<rect x="33.3813" y="33.2849" width="26.613" height="26.613" rx="13.3065" fill="url(#paint1_linear)"/>
<path fill-rule="evenodd" clip-rule="evenodd" d="M42.015 51.469C41.9026 51.469 41.8115 51.5581 41.8115 51.6681V53.217C41.8115 53.3269 41.9026 53.416 42.015 53.416H51.1592C51.2716 53.416 51.3627 53.3269 51.3627 53.217V51.6681C51.3627 51.5581 51.2716 51.469 51.1592 51.469H42.015Z" fill="url(#paint2_linear)"/>
<path fill-rule="evenodd" clip-rule="evenodd" d="M49.326 41.3992C48.8741 41.3992 48.5079 41.7555 48.5079 42.195V45.7807C48.5079 47.1019 47.7143 47.7402 46.5698 47.7402C45.4558 47.7402 44.6317 47.1019 44.6317 45.7807V42.195C44.6317 41.7555 44.2654 41.3992 43.8135 41.3992H42.7029C42.2511 41.3992 41.8848 41.7555 41.8848 42.195V45.6471C41.8848 47.0871 42.3273 48.2152 43.2124 49.0168C44.0975 49.8036 45.2116 50.2045 46.5698 50.2045C47.928 50.2045 49.0419 49.8036 49.9271 49.0168C50.8076 48.2194 51.2502 47.0987 51.2547 45.6693V42.1879C51.2508 41.7516 50.886 41.3992 50.4366 41.3992H49.326Z" fill="url(#paint3_linear)"/>
<path d="M46.9811 18.577H41.6733L46.9811 13.2693V18.577Z" fill="#262642"/>
<path d="M16.0189 42.4618L21.3267 42.4618L16.0189 47.7695L16.0189 42.4618Z" fill="#262642"/>
<defs>
<linearGradient id="paint0_linear" x1="-7.77268" y1="27.0638" x2="28.1548" y2="35.3916" gradientUnits="userSpaceOnUse">
<stop stop-color="#313162"/>
<stop offset="1" stop-color="#19192D"/>
</linearGradient>
<linearGradient id="paint1_linear" x1="23.1892" y1="58.91" x2="59.1167" y2="67.2378" gradientUnits="userSpaceOnUse">
<stop stop-color="#313162"/>
<stop offset="1" stop-color="#19192D"/>
</linearGradient>
<linearGradient id="paint2_linear" x1="6.94267" y1="40.9325" x2="6.94267" y2="57.0957" gradientUnits="userSpaceOnUse">
<stop stop-color="#FF421D"/>
<stop offset="1" stop-color="#FF0400"/>
</linearGradient>
<linearGradient id="paint3_linear" x1="38.0485" y1="41.2605" x2="38.0485" y2="57.276" gradientUnits="userSpaceOnUse">
<stop stop-color="#FF421D"/>
<stop offset="1" stop-color="#FF0400"/>
</linearGradient>
</defs>
</svg>
