<svg width="70" height="53" viewBox="0 0 70 53" fill="none" xmlns="http://www.w3.org/2000/svg">
<g clip-path="url(#clip0)">
<path d="M16.2764 8.02451C16.2764 8.02451 8.99187 5.43508 3.5 4.38224C1.67886 4.04077 0 5.43508 0 7.28468V38.4717C0 40.0367 1.19512 41.3172 2.76016 41.4026C8.28049 41.744 20.8862 43.2806 28.8252 50.0814H34.8862V11.24L16.2764 8.02451Z" fill="#EE1429"/>
<path d="M53.7237 8.02451C53.7237 8.02451 61.0082 5.43508 66.5001 4.38224C68.3212 4.04077 70.0001 5.43508 70.0001 7.28468V38.4717C70.0001 40.0367 68.805 41.3172 67.2399 41.4026C61.7196 41.744 49.1139 43.2806 41.1464 50.0814H35.0854V11.24L53.7237 8.02451Z" fill="#EE1429"/>
<path d="M6.74386 0.768345C11.9796 2.24802 24.1016 5.91875 34.2032 10.7277C34.2032 10.7277 52.2439 3.13013 62.1748 0.0854178C63.4837 -0.312956 64.8211 0.654523 64.8211 2.04883V34.8293C64.8211 36.5651 63.4837 38.0163 61.7479 38.1301C56.3983 38.557 45.3861 40.4635 39.0975 49.0001L30.1057 49.3131C30.1057 49.3131 27.8292 41.0326 7.45525 38.8984C5.77638 38.7277 4.4959 37.3049 4.4959 35.6261L4.12598 2.76021C4.12598 1.39436 5.43492 0.398426 6.74386 0.768345Z" fill="#E9E9EC"/>
<path d="M34.4595 10.6423V49H39.0977C45.3863 40.435 56.3985 38.5285 61.7481 38.1301C63.4839 37.9879 64.8213 36.5651 64.8213 34.8293V2.36183C64.8213 0.825248 63.3416 -0.284509 61.8619 0.170776C52.5855 3.10167 36.679 9.7033 34.4595 10.6423Z" fill="#D5D5DA"/>
<path d="M34.9147 52.3578C39.3151 52.3578 42.8822 51.3386 42.8822 50.0814C42.8822 48.8241 39.3151 47.8049 34.9147 47.8049C30.5144 47.8049 26.9473 48.8241 26.9473 50.0814C26.9473 51.3386 30.5144 52.3578 34.9147 52.3578Z" fill="#262642"/>
</g>
<defs>
<clipPath id="clip0">
<rect width="70" height="52.3577" fill="white"/>
</clipPath>
</defs>
</svg>
