<svg width="48" height="48" viewBox="0 0 48 48" fill="none" xmlns="http://www.w3.org/2000/svg">
<g clip-path="url(#clip0)">
<path d="M18.8817 16.022C3.97879 16.022 5.18666 20.8179 1.36768 33.536L9.5918 30.392L18.8817 16.022Z" fill="url(#paint0_linear)"/>
<path d="M31.9545 29.0952C31.9545 43.9981 27.1585 42.7903 14.4404 46.6092L17.5844 38.3851L31.9545 29.0952Z" fill="url(#paint1_linear)"/>
<path d="M41.1201 21.2976C48.6337 13.2511 47.9765 0.0178546 47.9765 0.0178546C47.9765 0.0178546 34.7433 -0.657128 26.6968 6.85649C18.6325 14.3879 9.59131 30.3921 9.59131 30.3921L17.6023 38.403C17.6023 38.403 33.6065 29.3441 41.1201 21.2976Z" fill="#D5D5DA"/>
<path d="M46.4671 11.4746C48.2434 5.45306 47.977 0.017673 47.977 0.017673C47.977 0.017673 42.5416 -0.26653 36.52 1.5275L46.4671 11.4746Z" fill="url(#paint2_linear)"/>
<path d="M33.3578 19.7519C36.4381 19.7519 38.9352 17.2548 38.9352 14.1744C38.9352 11.0941 36.4381 8.59692 33.3578 8.59692C30.2774 8.59692 27.7803 11.0941 27.7803 14.1744C27.7803 17.2548 30.2774 19.7519 33.3578 19.7519Z" fill="#262642"/>
<path d="M33.3482 17.8776C35.4369 17.8776 37.1301 16.1844 37.1301 14.0958C37.1301 12.0071 35.4369 10.314 33.3482 10.314C31.2596 10.314 29.5664 12.0071 29.5664 14.0958C29.5664 16.1844 31.2596 17.8776 33.3482 17.8776Z" fill="white"/>
<path d="M18.4379 27.7276C12.0966 34.0689 7.92236 40.0727 7.92236 40.0727L25.8982 22.0968C25.8982 22.0968 24.7614 21.4041 18.4379 27.7276Z" fill="url(#paint3_linear)"/>
<path d="M25.8977 22.0972L7.92188 40.073C7.92188 40.073 13.9257 35.881 20.267 29.5575C26.5905 23.2162 25.8977 22.0972 25.8977 22.0972Z" fill="url(#paint4_linear)"/>
</g>
<defs>
<linearGradient id="paint0_linear" x1="1.36949" y1="24.781" x2="18.8806" y2="24.781" gradientUnits="userSpaceOnUse">
<stop stop-color="#32324C"/>
<stop offset="0.6231" stop-color="#19192C"/>
<stop offset="0.9861" stop-color="#0F0F1E"/>
</linearGradient>
<linearGradient id="paint1_linear" x1="14.4422" y1="37.8542" x2="31.9534" y2="37.8542" gradientUnits="userSpaceOnUse">
<stop stop-color="#32324C"/>
<stop offset="0.6231" stop-color="#19192C"/>
<stop offset="0.9861" stop-color="#0F0F1E"/>
</linearGradient>
<linearGradient id="paint2_linear" x1="36.486" y1="5.77297" x2="48.0275" y2="5.63583" gradientUnits="userSpaceOnUse">
<stop stop-color="#FF2911"/>
<stop offset="0.3993" stop-color="#F51C1F"/>
<stop offset="1" stop-color="#E80C31"/>
</linearGradient>
<linearGradient id="paint3_linear" x1="7.92423" y1="31.0756" x2="25.8971" y2="31.0756" gradientUnits="userSpaceOnUse">
<stop stop-color="#32324C"/>
<stop offset="0.6231" stop-color="#19192C"/>
<stop offset="0.9861" stop-color="#0F0F1E"/>
</linearGradient>
<linearGradient id="paint4_linear" x1="7.92374" y1="31.0872" x2="25.919" y2="31.0872" gradientUnits="userSpaceOnUse">
<stop stop-color="#32324C"/>
<stop offset="0.6231" stop-color="#19192C"/>
<stop offset="0.9861" stop-color="#0F0F1E"/>
</linearGradient>
<clipPath id="clip0">
<rect width="47.9948" height="47.9771" fill="white"/>
</clipPath>
</defs>
</svg>
