<svg width="55" height="68" viewBox="0 0 55 68" fill="none" xmlns="http://www.w3.org/2000/svg">
<g clip-path="url(#clip0)">
<path d="M48.522 63.572L54.4492 52.9085L54.4492 14.2705L47.4972 3.88395C47.4972 3.88395 36.3351 0.948017 27.4996 0.449462C18.6918 0.948016 7.502 3.88395 7.502 3.88395L0.549934 14.2705L0.549932 52.9085L6.47719 63.572L16.4483 67.4497L27.4996 67.4497L38.5232 67.4497L48.522 63.572Z" fill="#E9E9EC"/>
<path d="M4.81562 33.9359C4.81562 46.4641 14.9717 56.6202 27.4998 56.6202C40.028 56.6202 50.1841 46.4641 50.1841 33.9359C50.1841 21.4078 40.028 11.2517 27.4999 11.2517C14.9717 11.2517 4.81562 21.4078 4.81562 33.9359Z" fill="white"/>
<path d="M27.4492 56.4497C14.7267 56.4497 4.44922 46.3564 4.44922 33.9497C4.44922 21.543 14.7267 11.4497 27.4492 11.4497C40.1717 11.4497 50.4492 21.543 50.4492 33.9497C50.4492 46.3564 40.1717 56.4497 27.4492 56.4497Z" fill="white" stroke="black" stroke-width="2"/>
<path d="M25.7914 45.9994C26.2382 48.9955 27.1317 51.7814 28.2356 52.2282C29.3394 52.675 31.2317 52.5699 33.2292 52.2282C35.2266 51.8866 36.1202 51.1244 36.0151 50.7827C35.9099 50.441 31.3369 46.893 30.2067 44.8955C30.0828 44.6752 29.9733 44.4404 29.8782 44.2025C29.7421 43.862 29.9684 43.498 30.3228 43.4039C31.1634 43.1807 31.9629 42.8438 32.7045 42.4267C32.966 42.2797 33.2957 42.3254 33.5051 42.5402C33.9089 42.9542 34.3473 43.3491 34.8324 43.7128C37.2766 45.5263 39.8522 46.8667 40.9561 46.3936C42.0599 45.9205 43.3215 44.5013 44.5042 42.8455C45.6868 41.1898 45.7657 40.0071 45.4503 39.8494C45.1349 39.6917 39.4054 40.4013 37.1715 39.7968C36.9864 39.7506 36.8115 39.689 36.6423 39.6189C36.3008 39.4774 36.1929 39.0529 36.3723 38.7297C36.7915 37.9742 37.1205 37.152 37.3425 36.288C37.418 35.9943 37.683 35.7859 37.9863 35.7851C38.5134 35.7837 39.0587 35.7492 39.5894 35.6706C42.5856 35.2238 45.3715 34.3302 45.8183 33.2263C46.2651 32.1225 46.1599 30.2302 45.8183 28.2327C45.4766 26.2353 44.7144 25.3417 44.3727 25.4468C44.0311 25.552 40.483 30.125 38.4856 31.2552C38.3219 31.3487 38.1583 31.4318 37.9946 31.5045C37.6703 31.6486 37.3169 31.4369 37.2135 31.0974C36.9562 30.2526 36.5817 29.4512 36.1155 28.7183C35.946 28.452 35.9838 28.1005 36.2066 27.8769C36.585 27.4972 36.9453 27.0778 37.2766 26.6295C39.0638 24.1853 40.4042 21.6097 39.9311 20.5058C39.458 19.402 38.0388 18.1404 36.383 16.9578C34.7273 15.7751 33.5446 15.6962 33.3869 16.0116C33.2292 16.327 33.9388 22.0565 33.3343 24.2904C33.2667 24.5202 33.1922 24.743 33.1072 24.9552C32.9781 25.2775 32.591 25.3769 32.2825 25.2177C31.5376 24.8334 30.7341 24.5403 29.8801 24.3633C29.5624 24.2974 29.3324 24.0136 29.3373 23.6891C29.3463 23.0985 29.3069 22.4855 29.208 21.8725C28.7612 18.8763 27.8676 16.0904 26.7638 15.6437C25.66 15.1969 23.7677 15.302 21.7702 15.6437C19.7728 15.9853 18.8792 16.7475 18.9843 17.0892C19.0895 17.4308 23.6625 20.9789 24.7926 22.9763C24.9512 23.2617 25.081 23.5566 25.1879 23.8553C25.3034 24.1778 25.101 24.5164 24.7755 24.6231C23.9819 24.8834 23.2383 25.2378 22.5531 25.6784C22.2832 25.8518 21.9248 25.8126 21.7052 25.5786C21.2478 25.0912 20.7392 24.6144 20.167 24.1853C17.7228 22.3719 15.1472 21.0315 14.0433 21.5045C12.9395 21.9776 11.6779 23.3968 10.4952 25.0526C9.31255 26.7084 9.2337 27.8911 9.54908 28.0488C9.86446 28.2065 15.5939 27.4968 17.8279 28.1013C18.2244 28.2048 18.5869 28.3534 18.923 28.5324C19.2155 28.6883 19.2939 29.0599 19.1393 29.3531C18.7695 30.054 18.4772 30.8085 18.2866 31.5924C18.2107 31.9049 17.9236 32.1246 17.6024 32.1097C16.8971 32.0771 16.1535 32.1037 15.41 32.2276C12.4138 32.6744 9.62793 33.568 9.18113 34.6718C8.73434 35.7757 8.83947 37.668 9.18113 39.6654C9.5228 41.6628 10.285 42.5564 10.6266 42.4513C10.9683 42.3462 14.5164 37.7731 16.5138 36.643C16.8663 36.4415 17.2296 36.2937 17.5899 36.1789C17.9192 36.074 18.2554 36.2892 18.3516 36.6212C18.5768 37.3992 18.8934 38.1393 19.2852 38.8334C19.4374 39.1031 19.3845 39.4448 19.157 39.6549C18.639 40.1334 18.1346 40.6845 17.6965 41.2686C15.883 43.7128 14.5427 46.2885 15.0157 47.3923C15.4888 48.4962 16.908 49.7577 18.5638 50.9404C20.2196 52.1231 21.4023 52.2019 21.56 51.8866C21.7177 51.5712 21.008 45.8417 21.6125 43.6077C21.709 43.2702 21.8349 42.9425 21.9843 42.6367C22.1371 42.3238 22.532 42.2474 22.8326 42.4233C23.5558 42.8465 24.3378 43.1709 25.1609 43.4052C25.4365 43.4837 25.6327 43.731 25.6378 44.0174C25.6492 44.6511 25.6873 45.3335 25.7914 45.9994Z" fill="#FF2911"/>
<path d="M19.0636 33.9357C19.0636 38.7693 22.9819 42.6877 27.8155 42.6877C32.649 42.6877 36.5674 38.7693 36.5674 33.9358C36.5674 29.1022 32.649 25.1838 27.8155 25.1838C22.9819 25.1838 19.0636 29.1022 19.0636 33.9357Z" fill="#262642"/>
<path d="M21.0212 33.9491C21.0212 37.727 24.0838 40.7896 27.8617 40.7896C31.6396 40.7896 34.7021 37.727 34.7021 33.9491C34.7021 30.1712 31.6396 27.1086 27.8617 27.1086C24.0838 27.1086 21.0212 30.1712 21.0212 33.9491Z" fill="white"/>
<path d="M27.2786 36.9825L26.3369 39.9461L31.5163 36.0408L27.2786 36.9825Z" fill="#262642"/>
<path d="M26.8629 36.844L23.8716 33.6311L25.9489 39.8353L26.8629 36.844Z" fill="#262642"/>
<path d="M29.6881 27.9531L24.1763 32.634L27.1676 35.9023L29.6881 27.9531Z" fill="#262642"/>
<path d="M30.0758 28.1194L27.583 36.0409L31.8207 35.0991L30.0758 28.1194Z" fill="#262642"/>
</g>
<defs>
<clipPath id="clip0">
<rect width="67.0002" height="53.8993" fill="white" transform="translate(54.4492 0.449463) rotate(90)"/>
</clipPath>
</defs>
</svg>
