<svg width="84" height="77" viewBox="0 0 84 77" fill="none" xmlns="http://www.w3.org/2000/svg">
<path d="M17.6106 18.488L68.6989 18.4612C69.6692 18.463 70.4976 19.2461 70.5265 20.2274L71.8825 54.0041C72.0047 56.7528 69.8053 59.0142 67.0897 59.0444L17.7703 59.3597C14.6727 59.3914 12.0844 57.0398 11.8047 53.9572L9.31206 28.268C9.18472 27.0779 10.1064 26.0566 11.3051 26.0017L15.944 25.8303L15.7917 20.366C15.743 19.3429 16.5678 18.4948 17.6106 18.488Z" fill="#E9E9EC"/>
<path d="M15.9439 25.8301L11.305 26.0016C10.1062 26.0565 9.21525 27.0888 9.31187 28.2678L11.7738 53.946C11.8815 55.0943 12.301 56.1466 12.9624 57.0084C17.672 57.7986 17.3648 50.5448 17.3648 50.5448L15.9439 25.8301Z" fill="#D5D5DA"/>
<path d="M36.2765 33.5997L19.4487 34.2451L20.0941 51.0728L36.9219 50.4274L36.2765 33.5997Z" fill="#262642"/>
<path d="M36.7024 50.5L20.2026 50.9998L24.2024 44L27.7024 47L31.2024 40L36.7024 50.5Z" fill="#FF3015"/>
<path d="M50.5007 33.051L38.043 33.5288L38.0943 34.8659L50.552 34.3881L50.5007 33.051Z" fill="#262642"/>
<path d="M50.7478 39.2378L38.29 39.7156L38.3413 41.0527L50.7991 40.5749L50.7478 39.2378Z" fill="#262642"/>
<path d="M50.9983 45.3909L38.5405 45.8687L38.5918 47.2057L51.0496 46.7279L50.9983 45.3909Z" fill="#262642"/>
<path d="M66.2893 32.4475L53.8315 32.9253L53.8828 34.2624L66.3406 33.7846L66.2893 32.4475Z" fill="#262642"/>
<path d="M66.5359 38.6338L54.0781 39.1116L54.1294 40.4487L66.5872 39.9709L66.5359 38.6338Z" fill="#262642"/>
<path d="M66.7864 44.7873L54.3286 45.2651L54.3799 46.6022L66.8376 46.1244L66.7864 44.7873Z" fill="#262642"/>
<path d="M51.3239 51.6037L38.8662 52.0815L38.9175 53.4186L51.3752 52.9408L51.3239 51.6037Z" fill="#262642"/>
<path d="M32.7234 52.3115L20.2656 52.7893L20.3169 54.1264L32.7746 53.6486L32.7234 52.3115Z" fill="#262642"/>
<path d="M67.1125 51L54.6548 51.4778L54.7061 52.8149L67.1638 52.3371L67.1125 51Z" fill="#262642"/>
<path d="M24.3196 21.5031L24.5171 26.6517L23.5388 26.6892L20.852 23.6617L20.9719 26.7877L19.7951 26.8328L19.5976 21.6842L20.5832 21.6464L23.2627 24.6742L23.1428 21.5482L24.3196 21.5031Z" fill="#262642"/>
<path d="M29.685 25.4959L29.7217 26.4521L25.7352 26.605L25.5377 21.4564L29.4286 21.3072L29.4653 22.2633L26.7586 22.3671L26.8015 23.4851L29.1919 23.3934L29.2274 24.3202L26.837 24.4119L26.8827 25.6034L29.685 25.4959Z" fill="#262642"/>
<path d="M38.1822 20.9714L36.6953 26.1846L35.4155 26.2337L34.1491 22.7908L33.1134 26.322L31.8409 26.3708L29.9518 21.2871L31.1875 21.2397L32.4884 24.8138L33.5632 21.1486L34.6664 21.1063L35.9832 24.7093L37.0421 21.0151L38.1822 20.9714Z" fill="#262642"/>
<path d="M40.7399 26.1179C40.3329 26.1335 39.9361 26.0947 39.5495 26.0015C39.1676 25.9032 38.8581 25.7702 38.6208 25.6025L38.9909 24.6897C39.2178 24.843 39.4851 24.9629 39.7929 25.0493C40.1007 25.1357 40.4066 25.1731 40.7106 25.1614C41.0489 25.1485 41.2971 25.0898 41.4551 24.9856C41.613 24.8764 41.6887 24.7384 41.6824 24.5717C41.6777 24.4491 41.6248 24.3505 41.5237 24.2758C41.4273 24.196 41.3022 24.1345 41.1483 24.0913C40.9993 24.0479 40.7962 24.0017 40.539 23.9526C40.1431 23.8745 39.8184 23.7937 39.5647 23.7101C39.3111 23.6265 39.0896 23.4852 38.9003 23.2862C38.7159 23.0871 38.6171 22.8159 38.6039 22.4726C38.5924 22.1735 38.663 21.9007 38.8156 21.6543C38.968 21.4029 39.2033 21.1999 39.5215 21.0453C39.8445 20.8905 40.2414 20.8041 40.7122 20.786C41.0407 20.7734 41.3634 20.8003 41.6802 20.8667C41.997 20.9331 42.2759 21.0354 42.517 21.1735L42.1839 22.0922C41.6979 21.8408 41.2171 21.7242 40.7415 21.7424C40.4081 21.7552 40.1625 21.8187 40.0048 21.9327C39.8521 22.0466 39.7791 22.1918 39.7858 22.3684C39.7926 22.5449 39.8884 22.6738 40.0732 22.7551C40.2627 22.8313 40.5479 22.9039 40.9286 22.9727C41.3245 23.0509 41.6492 23.1317 41.9029 23.2153C42.1565 23.2989 42.3755 23.4378 42.5597 23.632C42.7488 23.8261 42.85 24.0948 42.8631 24.438C42.8744 24.7322 42.8014 25.0051 42.6441 25.2567C42.4915 25.5032 42.2537 25.7038 41.9306 25.8586C41.6075 26.0134 41.2106 26.0998 40.7399 26.1179Z" fill="#262642"/>
<path d="M13.5431 42.1672L16.8801 42.0482L16.8079 40.7046L13.4709 40.8236L13.5431 42.1672Z" fill="#262642"/>
<path d="M13.6475 45.256L17.068 45.0977L16.9958 43.754L13.5863 43.8817L13.6475 45.256Z" fill="#262642"/>
<path d="M13.3971 39.0981L16.7034 38.9681L16.6313 37.6244L13.3667 37.7348L13.3971 39.0981Z" fill="#262642"/>
<path d="M13.1891 32.92L16.3505 32.8073L16.2784 31.4637L13.117 31.5764L13.1891 32.92Z" fill="#262642"/>
<path d="M17.172 46.8344L13.7208 46.9817L13.7512 48.345L17.2749 48.1891L17.172 46.8344Z" fill="#262642"/>
<path d="M13.2933 36.0091L16.5272 35.8877L16.455 34.5441L13.2212 34.6654L13.2933 36.0091Z" fill="#262642"/>
<path d="M4.26692 30.8247C4.13453 31.1932 3.71706 31.39 3.3485 31.2576C2.97994 31.1252 2.81385 30.7188 2.94624 30.3503C3.07864 29.9817 3.4961 29.7849 3.86466 29.9173C4.23322 30.0497 4.39931 30.4561 4.26692 30.8247Z" fill="#FFFDFF"/>
</svg>
