<svg width="89" height="71" viewBox="0 0 89 71" fill="none" xmlns="http://www.w3.org/2000/svg">
<g clip-path="url(#clip0)">
<path d="M44.7 70.1918L12.8271 51.6888V18.3835L44.7 36.8865V70.1918Z" fill="#E9E9EC"/>
<path d="M23 45.9999V37.1709L32.1331 42.9843V52.052L23 45.9999Z" fill="#262642"/>
<path d="M44.6997 70.1918L76.5725 51.6888V18.3835L44.6997 36.8865V70.1918Z" fill="#D5D5DA"/>
<path d="M64.6357 58.8514V25.3074L59.1445 28.5305V62.0745L64.6357 58.8514Z" fill="#FF3015"/>
<path d="M76.5728 18.3836L47.0874 35.454L44.7 36.8865L42.3125 35.454L12.8271 18.3836L44.7 0L76.5728 18.3836Z" fill="#F2F2F2"/>
<path d="M64.4913 25.544L33 7L27.5088 10.2231L59.0001 28.7671L64.4913 25.544Z" fill="#FF3015"/>
</g>
<defs>
<clipPath id="clip0">
<rect width="87.6204" height="70.1918" fill="white" transform="translate(0.889648)"/>
</clipPath>
</defs>
</svg>
