<svg width="44" height="45" viewBox="0 0 44 45" fill="none" xmlns="http://www.w3.org/2000/svg">
<path d="M12.4287 41.1104C12.1235 41.5395 11.463 41.4545 11.2764 40.9621L9.3476 35.8733C9.25286 35.6234 9.01644 35.4555 8.74924 35.4485L3.2998 35.3046C2.77301 35.2907 2.47516 34.6944 2.78046 34.2649L11.4562 22.059C11.6669 21.7626 12.0781 21.6931 12.3745 21.9038L20.9463 27.9984C21.2427 28.2091 21.3122 28.6203 21.1014 28.9167L12.4287 41.1104Z" fill="url(#paint0_linear)"/>
<path d="M41.3328 34.472C41.6178 34.9153 41.2925 35.4971 40.7656 35.4865L35.3187 35.376C35.0512 35.3705 34.807 35.5275 34.7009 35.7732L32.5407 40.7734C32.3318 41.2571 31.6676 41.3117 31.3825 40.8685L23.2922 28.2929C23.0955 27.9872 23.1837 27.58 23.4893 27.3832L32.3287 21.6866C32.6346 21.4895 33.0425 21.5779 33.2393 21.884L41.3328 34.472Z" fill="url(#paint1_linear)"/>
<path d="M7 17C7 8.70762 13.7117 2 21.9908 2C30.2698 2 37 8.70762 37 17C37 25.274 30.2883 32 21.9908 32C13.7117 31.9816 7 25.274 7 17Z" fill="#FF3015"/>
<path d="M10.4517 17.1477C10.4517 10.7251 15.6593 5.50464 22.1016 5.50464C28.5281 5.50464 33.7515 10.7092 33.7515 17.1477C33.7515 23.5704 28.5439 28.7908 22.1016 28.7908C15.6593 28.775 10.4517 23.5704 10.4517 17.1477Z" fill="white"/>
<path d="M10.5527 17.1792C10.5527 10.7983 15.733 5.62109 22.1177 5.62109C28.5023 5.62109 33.6826 10.7983 33.6826 17.1792C33.6826 23.5601 28.5023 28.7373 22.1177 28.7373C15.7165 28.7208 10.5527 23.5601 10.5527 17.1792Z" fill="white"/>
<path d="M11.6167 17.1475C11.6167 11.355 16.3057 6.6687 22.1017 6.6687C27.8976 6.6687 32.5866 11.355 32.5866 17.1475C32.5866 22.94 27.8976 27.6263 22.1017 27.6263C16.3211 27.6263 11.6167 22.9247 11.6167 17.1475Z" fill="#D5D5DA"/>
<defs>
<linearGradient id="paint0_linear" x1="-5.08725" y1="36.8482" x2="16.1717" y2="47.2952" gradientUnits="userSpaceOnUse">
<stop stop-color="#313162"/>
<stop offset="1" stop-color="#19192D"/>
</linearGradient>
<linearGradient id="paint1_linear" x1="20.8316" y1="44.158" x2="43.6847" y2="42.538" gradientUnits="userSpaceOnUse">
<stop stop-color="#313162"/>
<stop offset="1" stop-color="#19192D"/>
</linearGradient>
</defs>
</svg>
