<svg width="59" height="52" viewBox="0 0 59 52" fill="none" xmlns="http://www.w3.org/2000/svg">
<path d="M49.7911 0L2.96533 10.0341L51.8815 10.4522L49.7911 0Z" fill="#FF2911"/>
<g clip-path="url(#clip0)">
<path d="M57.0718 12.1123C57.0718 9.58376 55.0136 7.52562 52.4851 7.52562H4.8245C2.29593 7.52562 0.237793 9.58376 0.237793 12.1123V46.4538C0.237793 48.9824 2.29593 51.0405 4.8245 51.0405H52.5145C55.043 51.0405 57.1012 48.9824 57.1012 46.4538V12.1123H57.0718Z" fill="#D5D5DA"/>
<path d="M53.554 14.743C53.554 12.5948 51.7759 10.8702 49.5759 10.8702H8.19781C5.99781 10.8702 4.21973 12.5948 4.21973 14.743V43.7891C4.21973 45.9373 5.99781 47.6619 8.19781 47.6619H49.5759C51.7759 47.6619 53.554 45.9373 53.554 43.7891V14.743Z" stroke="white" stroke-width="0.836174" stroke-miterlimit="10" stroke-dasharray="1.67 1.67"/>
<path d="M56.4548 22.5207H42.4888C39.2546 22.5207 36.0498 25.6079 36.0498 29.4301C36.0498 33.2524 39.2546 36.3396 42.4888 36.3396H56.4548C57.4838 36.3396 58.5717 35.6928 58.5717 33.7522C58.5717 31.4589 58.5423 27.5484 58.5717 24.6376C58.5717 23.0205 57.3662 22.5207 56.4548 22.5207Z" fill="#E9E9EC"/>
<path d="M48.4571 29.1948C48.4571 26.5486 46.3108 24.4023 43.6646 24.4023C41.0184 24.4023 38.8721 26.5486 38.8721 29.1948C38.8721 31.841 41.0184 33.9873 43.6646 33.9873C46.3108 33.9873 48.4571 31.841 48.4571 29.1948Z" fill="url(#paint0_linear)"/>
</g>
<defs>
<linearGradient id="paint0_linear" x1="38.8731" y1="29.1937" x2="48.4565" y2="29.1937" gradientUnits="userSpaceOnUse">
<stop stop-color="#32324C"/>
<stop offset="0.6231" stop-color="#19192C"/>
<stop offset="0.9861" stop-color="#0F0F1E"/>
</linearGradient>
<clipPath id="clip0">
<rect width="58.3335" height="43.5149" fill="white" transform="matrix(1 0 0 -1 0.237793 51.0405)"/>
</clipPath>
</defs>
</svg>
