<svg width="20" height="20" viewBox="0 0 20 20" fill="none" xmlns="http://www.w3.org/2000/svg">
<path d="M15.8408 0H4.15927C3.70563 0 3.33789 0.367743 3.33789 0.821378V17.5098C3.33789 17.9635 3.70563 18.3312 4.15927 18.3312H15.8408C16.2945 18.3312 16.6622 17.9635 16.6622 17.5098V0.821378C16.6622 0.367743 16.2945 0 15.8408 0Z" fill="#BDBDC7"/>
<path d="M6.28274 2.86507L6.28274 2.86507C5.83637 2.25072 5.46107 1.75491 5.08469 1.33882C4.63716 0.844054 4.98914 0.05 5.65676 0.05H15.8407C16.2667 0.05 16.612 0.395357 16.6121 0.821378V12.1783C16.6121 12.5141 16.3948 12.8114 16.0748 12.9133C15.8366 12.9892 15.5719 13.0636 15.2416 13.1476C14.0675 13.4462 13.072 13.6206 12.1479 13.4875C11.2265 13.3547 10.371 12.9153 9.4794 11.9754C8.15683 10.5808 7.40173 8.67819 7.40783 6.75591V6.7559C7.40872 6.46002 7.41939 6.21178 7.42886 5.99122C7.43302 5.89435 7.43695 5.80281 7.43973 5.71492C7.44879 5.42791 7.44538 5.18135 7.39522 4.9246C7.29481 4.41067 7.00867 3.86435 6.28274 2.86507Z" fill="#F7F8F8" stroke="#BDBDC7" stroke-width="0.1"/>
<path d="M12.3162 18.0143C12.5467 17.7189 12.5495 17.3044 12.3162 17.0054C12.2634 16.9377 12.4216 17.1009 10.5809 15.2602C10.2601 14.9395 9.74003 14.9395 9.41926 15.2602C9.09853 15.581 9.09853 16.1011 9.41926 16.4218L9.68593 16.6885H6.66244C6.20881 16.6885 5.84106 17.0562 5.84106 17.5098C5.84106 17.9635 6.20881 18.3312 6.66244 18.3312H9.68593L9.41926 18.5978C8.90027 19.1169 9.27501 20.0001 10.0001 20C10.2103 20 10.4205 19.9198 10.5809 19.7594C12.4364 17.9039 12.2668 18.0776 12.3162 18.0143Z" fill="#FF2911"/>
<path d="M11.6688 4.98052C12.1225 4.98052 12.4902 4.61278 12.4902 4.15915C12.4902 3.70551 12.1225 3.33777 11.6688 3.33777H8.33114C7.87751 3.33777 7.50977 3.70551 7.50977 4.15915C7.50977 4.61278 7.87751 4.98052 8.33114 4.98052H11.6688Z" fill="#262642"/>
<path d="M12.5032 6.67542H7.49667C7.04304 6.67542 6.67529 7.04316 6.67529 7.49679C6.67529 7.95043 7.04304 8.31817 7.49667 8.31817H12.5032C12.9568 8.31817 13.3245 7.95043 13.3245 7.49679C13.3245 7.04316 12.9568 6.67542 12.5032 6.67542Z" fill="#262642"/>
</svg>
