<svg width="20" height="20" viewBox="0 0 20 20" fill="none" xmlns="http://www.w3.org/2000/svg">
<g clip-path="url(#clip0)">
<path d="M18.9193 10C18.9193 9.22922 18.8211 8.46688 18.6269 7.72805L19.7558 6.89758L17.5647 3.10246L16.2791 3.66574C15.1799 2.57441 13.834 1.79672 12.3459 1.39309L12.1912 0H10.0001L9.16675 10L10.0001 20H12.1912L12.3459 18.6069C13.834 18.2033 15.18 17.4256 16.2791 16.3343L17.5647 16.8975L19.7558 13.1024L18.6269 12.272C18.8211 11.5331 18.9193 10.7708 18.9193 10Z" fill="#262642"/>
<path d="M7.80887 0L7.6541 1.39305C6.16602 1.79668 4.82008 2.57438 3.72094 3.6657L2.43531 3.10242L0.244141 6.89754L1.37305 7.72801C1.17887 8.46684 1.08066 9.22922 1.08066 9.99996C1.08066 10.7707 1.17891 11.5331 1.37305 12.2719L0.244141 13.1024L2.43527 16.8975L3.7209 16.3342C4.82008 17.4255 6.16602 18.2032 7.65406 18.6069L7.80887 20H9.99996V0H7.80887Z" fill="#BDBDC7"/>
<path d="M9.99995 3.33325L9.11108 9.99993L9.99995 16.6666C13.6819 16.6666 16.6666 13.6818 16.6666 9.99993C16.6666 6.31802 13.6819 3.33325 9.99995 3.33325Z" fill="#F7F8F8"/>
<path d="M3.33325 9.99993C3.33325 13.6818 6.31802 16.6666 9.99993 16.6666V3.33325C6.31802 3.33325 3.33325 6.31802 3.33325 9.99993Z" fill="white"/>
<path d="M6.88156 12.1699L4.69336 10.0269L6.83637 7.83862L7.67363 8.65855L6.35055 10.0096L7.70152 11.3327L6.88156 12.1699Z" fill="#262642"/>
<path d="M13.1185 12.1699L12.2986 11.3327L13.6496 10.0096L12.3265 8.65854L13.1637 7.83862L15.3068 10.0269L13.1185 12.1699Z" fill="#262642"/>
<path d="M11.4066 6.16234L10.2599 5.9209L9.99993 7.15566L9.58325 11.2499L9.99993 12.8442L11.4066 6.16234Z" fill="#FF2911"/>
<path d="M9.74002 14.079L9.99998 12.8442V7.15564L8.59326 13.8376L9.74002 14.079Z" fill="#FF2911"/>
</g>
<defs>
<clipPath id="clip0">
<rect width="20" height="20" fill="white"/>
</clipPath>
</defs>
</svg>
