<svg width="20" height="20" viewBox="0 0 20 20" fill="none" xmlns="http://www.w3.org/2000/svg">
<path d="M9.58849 11.2219H9.61734L9.63178 11.1969C10 10.5597 10.5152 10.0177 11.1381 9.61596L11.111 9.57395L11.1381 9.61596C11.8864 9.13327 12.7545 8.87813 13.6486 8.87813C16.2057 8.87813 18.2861 10.9586 18.2861 13.5156C18.2861 16.0727 16.2057 18.1531 13.6486 18.1531C12.7545 18.1531 11.8864 17.8979 11.1381 17.4153C10.5152 17.0135 10 16.4716 9.63178 15.8344L9.61734 15.8094H9.58849H8.64583C8.46715 15.8094 8.30022 15.7203 8.20072 15.572L7.86521 15.0717L7.82368 15.0098L7.78216 15.0717L7.44669 15.5719C7.34715 15.7203 7.18025 15.8094 7.00157 15.8094H5.52079C5.34215 15.8094 5.17522 15.7203 5.07572 15.572L4.74021 15.0717L4.69868 15.0098L4.65716 15.0717L4.32169 15.572L4.36321 15.5998L4.32169 15.572C4.22218 15.7203 4.05526 15.8094 3.87661 15.8094H2.69532C2.52326 15.8094 2.36161 15.7267 2.26086 15.5872L0.991325 13.8294L0.991321 13.8294C0.856018 13.6421 0.856018 13.3891 0.991321 13.2019L0.991325 13.2019L2.26085 11.444C2.26086 11.444 2.26086 11.444 2.26086 11.444C2.36162 11.3045 2.52326 11.2219 2.69532 11.2219H9.58849ZM0.950791 13.1726C0.802861 13.3773 0.802861 13.6539 0.950791 13.8587L2.69532 11.1719C2.5072 11.1719 2.33048 11.2623 2.22032 11.4148L0.950791 13.1726Z" fill="#F7F8F8" stroke="#BDBDC7" stroke-width="0.1"/>
<path d="M2.22031 15.6165C2.33047 15.769 2.50719 15.8594 2.69531 15.8594H3.8766C4.07191 15.8594 4.25441 15.762 4.3632 15.5998L4.69867 15.0996L5.03418 15.5998C5.14297 15.762 5.32547 15.8594 5.52078 15.8594H7.00156C7.19691 15.8594 7.37938 15.762 7.4882 15.5998L7.82367 15.0996L8.15918 15.5998C8.26797 15.762 8.45047 15.8594 8.64582 15.8594H9.58848C9.96066 16.5035 10.4814 17.0513 11.111 17.4573C11.8674 17.9452 12.7449 18.2031 13.6486 18.2031C16.2333 18.2031 18.3361 16.1003 18.3361 13.5156H0.839844C0.839844 13.6359 0.876797 13.7563 0.950781 13.8587L2.22031 15.6165Z" fill="#BDBDC7"/>
<path d="M14.8047 14.6875C14.4811 14.6875 14.2188 14.4252 14.2188 14.1016V12.9297C14.2188 12.6061 14.4811 12.3438 14.8047 12.3438C15.1283 12.3438 15.3906 12.6061 15.3906 12.9297V14.1016C15.3906 14.4252 15.1283 14.6875 14.8047 14.6875Z" fill="#FF2911"/>
<path d="M14.2188 13.5156V14.1016C14.2188 14.4252 14.4811 14.6875 14.8047 14.6875C15.1283 14.6875 15.3906 14.4252 15.3906 14.1016V13.5156H14.2188Z" fill="#FF2911"/>
<path d="M19.4141 1.79688H0.585938C0.262344 1.79688 0 2.05922 0 2.38281V7.07031C0 7.39391 0.262344 7.65625 0.585938 7.65625H19.4141C19.7377 7.65625 20 7.39391 20 7.07031V2.38281C20 2.05922 19.7377 1.79688 19.4141 1.79688Z" fill="#262642"/>
<path d="M0.05 7.07031V4.77656H19.95V7.07031C19.95 7.36629 19.71 7.60625 19.4141 7.60625H0.585938C0.289958 7.60625 0.05 7.36629 0.05 7.07031Z" fill="#F7F8F8" stroke="#BDBDC7" stroke-width="0.1"/>
<path d="M5.58594 5.3125C5.90954 5.3125 6.17188 5.05017 6.17188 4.72656C6.17188 4.40296 5.90954 4.14062 5.58594 4.14062C5.26233 4.14062 5 4.40296 5 4.72656C5 5.05017 5.26233 5.3125 5.58594 5.3125Z" fill="#FF2911"/>
<path d="M7.65625 5.3125C7.97985 5.3125 8.24219 5.05017 8.24219 4.72656C8.24219 4.40296 7.97985 4.14062 7.65625 4.14062C7.33265 4.14062 7.07031 4.40296 7.07031 4.72656C7.07031 5.05017 7.33265 5.3125 7.65625 5.3125Z" fill="#FF2911"/>
<path d="M10 5.3125C10.3236 5.3125 10.5859 5.05017 10.5859 4.72656C10.5859 4.40296 10.3236 4.14062 10 4.14062C9.6764 4.14062 9.41406 4.40296 9.41406 4.72656C9.41406 5.05017 9.6764 5.3125 10 5.3125Z" fill="#FF2911"/>
<path d="M12.3438 5.3125C12.6674 5.3125 12.9297 5.05017 12.9297 4.72656C12.9297 4.40296 12.6674 4.14062 12.3438 4.14062C12.0201 4.14062 11.7578 4.40296 11.7578 4.72656C11.7578 5.05017 12.0201 5.3125 12.3438 5.3125Z" fill="#BDBDC7"/>
<path d="M14.6875 5.3125C15.0111 5.3125 15.2734 5.05017 15.2734 4.72656C15.2734 4.40296 15.0111 4.14062 14.6875 4.14062C14.3639 4.14062 14.1016 4.40296 14.1016 4.72656C14.1016 5.05017 14.3639 5.3125 14.6875 5.3125Z" fill="#BDBDC7"/>
</svg>
