<svg width="20" height="20" viewBox="0 0 20 20" fill="none" xmlns="http://www.w3.org/2000/svg">
<g clip-path="url(#clip0)">
<path d="M13.5156 0.586182V17.0706C13.5156 17.3986 13.2579 17.6565 12.9297 17.6565H8.24219C7.91397 17.6565 7.65625 17.3986 7.65625 17.0706L0.625 0.586182C0.625 0.257965 0.882721 0.000244141 1.21094 0.000244141H12.9297C13.2579 0.000244141 13.5156 0.257965 13.5156 0.586182Z" fill="#BDBDC7"/>
<path d="M13.5156 0.586182V17.0706C13.5156 17.3986 13.2579 17.6565 12.9297 17.6565H8.24219C7.91397 17.6565 7.65625 17.3986 7.65625 17.0706L5.89844 12.969V0.000244141H12.9297C13.2579 0.000244141 13.5156 0.257965 13.5156 0.586182Z" fill="#BDBDC7"/>
<path d="M8.49991 3.57453L1.46866 0.0589084C1.29303 -0.0231838 1.07025 -0.0231838 0.90622 0.082407C0.730438 0.199442 0.625 0.386972 0.625 0.586252V17.0706C0.625 17.3284 0.789032 17.5511 1.02341 17.6213L5.89844 19.2503L8.05466 19.9651C8.22724 20.0342 8.44834 19.9951 8.582 19.8949C8.73444 19.7777 8.82813 19.6019 8.82813 19.4144V4.10188C8.82813 3.87925 8.69919 3.67997 8.49991 3.57453Z" fill="#262642"/>
<path d="M8.82813 4.10184V19.4143C8.82813 19.6019 8.73428 19.7777 8.582 19.8948C8.44956 19.9942 8.22891 20.0349 8.05466 19.965L5.89844 19.2503V2.27368L8.49991 3.57449C8.69919 3.67993 8.82813 3.87921 8.82813 4.10184Z" fill="#262642"/>
<path d="M14.9971 12.8998C14.8065 12.7981 14.6875 12.5995 14.6875 12.3832V11.7972H10.5859C10.262 11.7972 10 11.5351 10 11.2113V8.86755C10 8.5436 10.262 8.28161 10.5859 8.28161H14.6875V7.69567C14.6875 7.4793 14.8065 7.28079 14.9971 7.17886C15.1871 7.07769 15.4189 7.08913 15.5985 7.20815L19.1141 9.5519C19.2772 9.66055 19.375 9.84365 19.375 10.0394C19.375 10.235 19.2772 10.4181 19.1141 10.5268L15.5985 12.8705C15.4167 12.9918 15.1849 13.0007 14.9971 12.8998Z" fill="#FF2911"/>
<path d="M6.48437 8.86755V11.2113C6.48437 11.5394 6.22665 11.7972 5.89844 11.7972C5.57022 11.7972 5.3125 11.5394 5.3125 11.2113V8.86755C5.3125 8.53934 5.57022 8.28162 5.89844 8.28162C6.22665 8.28162 6.48437 8.53934 6.48437 8.86755Z" fill="#BDBDC7"/>
<path d="M6.48438 8.86755V11.2113C6.48438 11.5394 6.22665 11.7972 5.89844 11.7972V8.28162C6.22665 8.28162 6.48438 8.53934 6.48438 8.86755Z" fill="#F7F8F8"/>
</g>
<defs>
<clipPath id="clip0">
<rect width="20" height="20" fill="white"/>
</clipPath>
</defs>
</svg>
