<svg width="20" height="20" viewBox="0 0 20 20" fill="none" xmlns="http://www.w3.org/2000/svg">
<path d="M13.4929 9.11607C12.324 9.11607 11.2248 9.57139 10.3981 10.398L10.4335 10.4333L10.3981 10.398C8.75745 12.0387 8.69451 14.6684 10.2088 16.3853H0.431743C0.221899 16.3853 0.05 16.2134 0.05 16.0035V2.37117H15.6452V9.67988C14.9958 9.31196 14.2593 9.11607 13.4929 9.11607Z" fill="#F7F8F8" stroke="#BDBDC7" stroke-width="0.1"/>
<path d="M7.72174 13.2792H2.42903C2.2502 13.2792 2.10522 13.1342 2.10522 12.9554C2.10522 12.7766 2.2502 12.6316 2.42903 12.6316H7.72174C7.90061 12.6316 8.04554 12.7766 8.04554 12.9554C8.04554 13.1342 7.90061 13.2792 7.72174 13.2792Z" fill="url(#paint0_linear)"/>
<path d="M7.72174 14.5733H2.42903C2.2502 14.5733 2.10522 14.4283 2.10522 14.2495C2.10522 14.0706 2.2502 13.9257 2.42903 13.9257H7.72174C7.90061 13.9257 8.04554 14.0706 8.04554 14.2495C8.04554 14.4283 7.90061 14.5733 7.72174 14.5733Z" fill="url(#paint1_linear)"/>
<path d="M0.979194 16.0035V2.32117H0V16.0035C0 16.241 0.194285 16.4353 0.431743 16.4353H1.41094C1.17348 16.4353 0.979194 16.241 0.979194 16.0035Z" fill="#BDBDC7"/>
<path d="M15.4484 0H0.246785C0.111044 0 0 0.111044 0 0.246785V2.44358H15.6952V0.246785C15.6952 0.111044 15.5842 0 15.4484 0Z" fill="url(#paint2_linear)"/>
<path d="M1.22598 0H0.246785C0.111044 0 0 0.111044 0 0.246785V2.44358H0.979194V0.246785C0.979194 0.111044 1.09024 0 1.22598 0Z" fill="#1A2B63"/>
<path d="M6.83282 7.71161C6.83282 7.83034 6.73568 7.92748 6.61695 7.92748H1.80547C1.68674 7.92748 1.5896 7.83034 1.5896 7.71161V4.26116C1.5896 4.14243 1.68674 4.04529 1.80547 4.04529H6.61691C6.73564 4.04529 6.83278 4.14243 6.83278 4.26116V7.71161H6.83282Z" fill="#FF2911"/>
<path d="M2.56879 7.71161V4.26116C2.56879 4.14243 2.66594 4.04529 2.78467 4.04529H1.80547C1.68674 4.04529 1.5896 4.14243 1.5896 4.26116V7.71161C1.5896 7.83034 1.68674 7.92748 1.80547 7.92748H2.78467C2.66594 7.92748 2.56879 7.83034 2.56879 7.71161Z" fill="#BDBDC7"/>
<path d="M13.8484 4.36905H8.55574C8.37691 4.36905 8.23193 4.22407 8.23193 4.04524C8.23193 3.86642 8.37691 3.72144 8.55574 3.72144H13.8484C14.0273 3.72144 14.1723 3.86642 14.1723 4.04524C14.1723 4.22407 14.0273 4.36905 13.8484 4.36905Z" fill="url(#paint3_linear)"/>
<path d="M13.8484 5.66312H8.55574C8.37691 5.66312 8.23193 5.51814 8.23193 5.33931C8.23193 5.16048 8.37691 5.0155 8.55574 5.0155H13.8484C14.0273 5.0155 14.1723 5.16048 14.1723 5.33931C14.1723 5.51814 14.0273 5.66312 13.8484 5.66312Z" fill="url(#paint4_linear)"/>
<path d="M13.8484 6.95718H8.55574C8.37691 6.95718 8.23193 6.81221 8.23193 6.63338C8.23193 6.45455 8.37691 6.30957 8.55574 6.30957H13.8484C14.0273 6.30957 14.1723 6.45455 14.1723 6.63338C14.1723 6.81221 14.0273 6.95718 13.8484 6.95718Z" fill="url(#paint5_linear)"/>
<path d="M13.8484 8.25125H8.55574C8.37691 8.25125 8.23193 8.10627 8.23193 7.92745C8.23193 7.74862 8.37691 7.60364 8.55574 7.60364H13.8484C14.0273 7.60364 14.1723 7.74862 14.1723 7.92745C14.1723 8.10627 14.0273 8.25125 13.8484 8.25125Z" fill="url(#paint6_linear)"/>
<path d="M12.9291 9.20239H1.58968C1.41081 9.20239 1.26587 9.34737 1.26587 9.5262C1.26587 9.70503 1.41081 9.85001 1.58968 9.85001H11.156C11.6908 9.50543 12.2937 9.2846 12.9291 9.20239Z" fill="url(#paint7_linear)"/>
<path d="M10.3495 10.5199H1.58968C1.41081 10.5199 1.26587 10.6649 1.26587 10.8437C1.26587 11.0225 1.41081 11.1675 1.58968 11.1675H9.84409C9.98925 10.9398 10.1576 10.7227 10.3495 10.5199Z" fill="url(#paint8_linear)"/>
<path d="M1.50667 1.49417C1.42123 1.49417 1.33786 1.45963 1.27741 1.39958C1.21736 1.33913 1.18286 1.25581 1.18286 1.17037C1.18286 1.08527 1.2174 1.00199 1.27741 0.941541C1.33781 0.881097 1.42118 0.846558 1.50667 0.846558C1.59177 0.846558 1.67548 0.881054 1.73549 0.941541C1.79594 1.00199 1.83048 1.08531 1.83048 1.17037C1.83048 1.25581 1.79594 1.33918 1.73549 1.39958C1.67548 1.45963 1.59172 1.49417 1.50667 1.49417Z" fill="#F7F8F8"/>
<path d="M2.56844 1.49417C2.48334 1.49417 2.39962 1.45963 2.33957 1.39915C2.27917 1.33913 2.24463 1.25581 2.24463 1.17037C2.24463 1.08527 2.27917 1.00199 2.33957 0.941541C2.40001 0.881097 2.48334 0.846558 2.56844 0.846558C2.65388 0.846558 2.7372 0.881054 2.79769 0.941541C2.8577 1.00199 2.89224 1.08531 2.89224 1.17037C2.89224 1.25542 2.85766 1.33918 2.79769 1.39915C2.7372 1.45963 2.65392 1.49417 2.56844 1.49417Z" fill="#BDBDC7"/>
<path d="M3.63069 1.49417C3.54521 1.49417 3.46188 1.45963 3.40187 1.39958C3.34142 1.33913 3.30688 1.25581 3.30688 1.17037C3.30688 1.08527 3.34142 1.00199 3.40187 0.941541C3.46188 0.881097 3.54521 0.846558 3.63069 0.846558C3.71575 0.846558 3.7995 0.881054 3.85952 0.941541C3.91996 1.00199 3.9545 1.08531 3.9545 1.17037C3.9545 1.25581 3.91996 1.33918 3.85952 1.39958C3.79907 1.45963 3.7157 1.49417 3.63069 1.49417Z" fill="#FF2911"/>
<path d="M17.6916 16.8038L16.8042 17.6913L18.55 19.4372C18.8631 19.1591 19.1594 18.8627 19.4375 18.5497L17.6916 16.8038Z" fill="#BDBDC7"/>
<path d="M18.0439 16.2686L17.3084 15.5332C17.1128 15.8996 16.8609 16.2436 16.5524 16.5522C16.2473 16.8572 15.9047 17.1111 15.5349 17.3095L16.269 18.0435C16.3529 18.1275 16.4903 18.1275 16.5743 18.0435L18.0439 16.5739C18.1278 16.49 18.1278 16.3526 18.0439 16.2686Z" fill="#F7F8F8"/>
<path d="M16.7725 17.5397L16.1447 16.912C15.9517 17.0623 15.7477 17.195 15.5347 17.3094L16.2688 18.0434C16.3527 18.1274 16.4901 18.1274 16.574 18.0434L17.0778 17.5397C16.9938 17.6237 16.8564 17.6237 16.7725 17.5397Z" fill="#BDBDC7"/>
<path d="M16.6132 10.3722C18.3366 12.0956 18.3366 14.8897 16.6132 16.6131C14.8899 18.3363 12.0958 18.3364 10.3723 16.6131C8.64896 14.8897 8.64905 12.0956 10.3723 10.3723C12.0958 8.64889 14.8899 8.64884 16.6132 10.3722Z" fill="#BDBDC7"/>
<path d="M15.6807 15.6805C14.4724 16.8888 12.5133 16.8888 11.3049 15.6804C10.0966 14.4722 10.0966 12.5131 11.3049 11.3048C12.5132 10.0965 14.4724 10.0965 15.6807 11.3048C16.889 12.5131 16.889 14.4722 15.6807 15.6805Z" fill="#F7F8F8"/>
<path d="M15.4484 0H5.00439V2.44358H15.6952V0.246785C15.6952 0.111044 15.5841 0 15.4484 0Z" fill="#262642"/>
<path d="M14.0244 11.939C14.3106 11.939 14.5425 11.7071 14.5425 11.4209C14.5425 11.1348 14.3106 10.9028 14.0244 10.9028C13.7383 10.9028 13.5063 11.1348 13.5063 11.4209C13.5063 11.7071 13.7383 11.939 14.0244 11.939Z" fill="#BDBDC7"/>
<path d="M15.1128 12.3263C15.3155 12.3263 15.4798 12.1619 15.4798 11.9593C15.4798 11.7566 15.3155 11.5923 15.1128 11.5923C14.9102 11.5923 14.7458 11.7566 14.7458 11.9593C14.7458 12.1619 14.9102 12.3263 15.1128 12.3263Z" fill="#BDBDC7"/>
<defs>
<linearGradient id="paint0_linear" x1="-0.169766" y1="13.2552" x2="1.36092" y2="16.5097" gradientUnits="userSpaceOnUse">
<stop stop-color="#313162"/>
<stop offset="1" stop-color="#19192D"/>
</linearGradient>
<linearGradient id="paint1_linear" x1="-0.169766" y1="14.5492" x2="1.36092" y2="17.8037" gradientUnits="userSpaceOnUse">
<stop stop-color="#313162"/>
<stop offset="1" stop-color="#19192D"/>
</linearGradient>
<linearGradient id="paint2_linear" x1="-6.01087" y1="2.35287" x2="0.930226" y2="12.687" gradientUnits="userSpaceOnUse">
<stop stop-color="#313162"/>
<stop offset="1" stop-color="#19192D"/>
</linearGradient>
<linearGradient id="paint3_linear" x1="5.95694" y1="4.34501" x2="7.48762" y2="7.5995" gradientUnits="userSpaceOnUse">
<stop stop-color="#313162"/>
<stop offset="1" stop-color="#19192D"/>
</linearGradient>
<linearGradient id="paint4_linear" x1="5.95694" y1="5.63908" x2="7.48763" y2="8.89357" gradientUnits="userSpaceOnUse">
<stop stop-color="#313162"/>
<stop offset="1" stop-color="#19192D"/>
</linearGradient>
<linearGradient id="paint5_linear" x1="5.95694" y1="6.93314" x2="7.48761" y2="10.1876" gradientUnits="userSpaceOnUse">
<stop stop-color="#313162"/>
<stop offset="1" stop-color="#19192D"/>
</linearGradient>
<linearGradient id="paint6_linear" x1="5.95694" y1="8.22721" x2="7.48762" y2="11.4817" gradientUnits="userSpaceOnUse">
<stop stop-color="#313162"/>
<stop offset="1" stop-color="#19192D"/>
</linearGradient>
<linearGradient id="paint7_linear" x1="-3.20086" y1="9.82597" x2="-2.30047" y2="13.5847" gradientUnits="userSpaceOnUse">
<stop stop-color="#313162"/>
<stop offset="1" stop-color="#19192D"/>
</linearGradient>
<linearGradient id="paint8_linear" x1="-2.21294" y1="11.1435" x2="-1.09618" y2="14.7744" gradientUnits="userSpaceOnUse">
<stop stop-color="#313162"/>
<stop offset="1" stop-color="#19192D"/>
</linearGradient>
</defs>
</svg>
