<svg width="20" height="20" viewBox="0 0 20 20" fill="none" xmlns="http://www.w3.org/2000/svg">
<path d="M13.8379 19.9992C10.4347 19.9992 7.67578 17.2403 7.67578 13.8371C7.67578 10.4338 10.4346 7.67493 13.8379 7.67493L14.6191 13.8371L13.8379 19.9992Z" fill="#FF2911"/>
<path d="M13.8379 7.67493C17.2411 7.67493 20 10.4338 20 13.8371C20 17.2403 17.2412 19.9992 13.8379 19.9992V7.67493Z" fill="#EB2813"/>
<path d="M7.28303 6.16409L6.12077 12.276C2.76415 12.2538 0.05 9.5259 0.05 6.16405C0.05 2.80219 2.76415 0.0743344 6.12077 0.0520901L7.28303 6.16409Z" fill="#F7F8F8" stroke="#BDBDC7" stroke-width="0.1"/>
<path d="M6.16211 0.000732422C9.56534 0.000732422 12.3242 2.7596 12.3242 6.16287C12.3242 9.56614 9.56538 12.325 6.16211 12.325V0.000732422Z" fill="#BDBDC7"/>
<path d="M6.16211 10.4215V9.24974C7.86417 9.24974 9.24888 7.86499 9.24888 6.16296H10.4207C10.4207 8.51112 8.51026 10.4215 6.16211 10.4215Z" fill="#262642"/>
<path d="M13.8379 18.0956V16.9238C15.54 16.9238 16.9247 15.5391 16.9247 13.837H18.0965C18.0965 16.1852 16.1861 18.0956 13.8379 18.0956Z" fill="#262642"/>
</svg>
